<svg xmlns="http://www.w3.org/2000/svg" preserveAspectRatio="none" style="display: block;" version="1.1" viewBox="0 0 2048 2048">
<path d="M 1559.74 238.5 C 1568.88 238.12 1578.02 237.869 1587.16 237.748 C 1615.98 237.296 1660.58 241.082 1680.97 264.983 C 1747.33 342.774 1716.11 445.308 1692.72 532.984 L 1660.27 653.793 L 1551.13 1063.38 L 1447.47 1471.57 L 1412.33 1608.24 C 1403.6 1642.81 1394.53 1677.6 1385.1 1712 C 1374.85 1749.39 1358.35 1790.45 1330.37 1817.88 C 1268.71 1878.32 1179.98 1872.02 1100.8 1871.74 L 968.619 1871.85 L 461.445 1872.1 C 418.607 1872.64 364.398 1874.12 332.417 1841.2 C 274.642 1781.74 305.988 1670.51 327.453 1600.64 C 332.403 1584.53 334.844 1569.53 340.04 1554.18 C 348.868 1528.1 359.036 1502.82 368.736 1477.24 L 415.003 1353.44 L 541.49 1006.55 L 697.492 580.635 L 744.634 451.24 C 753.573 426.776 762.59 401.091 772.445 377.071 C 782.066 353.621 793.606 330.485 811.248 312.022 C 836.716 285.369 872.625 266.956 908.459 259.092 C 934.955 253.278 967.141 253.589 994.497 252.953 L 1097.18 250.352 L 1559.74 238.5 z" fill="currentColor" transform="translate(0,0)"></path>
<path d="M 1567.98 252.548 C 1576.25 252.19 1584.53 251.996 1592.81 251.965 C 1620.71 251.778 1649.68 255.738 1670.48 276.135 C 1697.82 302.957 1686.09 345.7 1677.49 377.84 C 1670.99 402.101 1663.29 425.689 1656.06 449.577 C 1645.03 486.626 1634.27 523.756 1623.78 560.962 C 1601.42 643.189 1582.94 727.781 1560.47 810.051 C 1524.92 940.185 1486.24 1068.7 1451.1 1199.01 C 1422.56 1306.21 1395.27 1413.73 1369.23 1521.55 L 1349.87 1600.73 C 1342.05 1634.16 1333.22 1689.68 1307.68 1712.37 C 1266.63 1748.84 1192.23 1749.86 1140.88 1752.09 L 1006.21 1757.12 C 821.35 1764.68 636.336 1767.84 451.326 1766.59 C 415.808 1765.28 378.708 1762.53 351.183 1736.84 C 337.603 1724.05 330.727 1707.28 330.644 1688.74 C 330.305 1612.32 358.451 1543.32 385.274 1473.3 L 430.394 1353.43 L 552.99 1017.22 L 698.219 620.501 L 756.173 462.152 C 759.894 452.014 763.607 441.802 767.309 431.724 C 784.762 384.763 797.182 338.065 839.019 306.048 C 893.212 264.575 948.326 268.569 1012.23 266.691 C 1063.92 265.028 1115.62 263.71 1167.33 262.737 L 1567.98 252.548 z" fill="none" transform="translate(0,0)"></path>
<path d="M 1648.95 340.457 C 1670.55 339.415 1665.75 350.961 1661.92 367.979 C 1654.99 398.835 1646.06 429.46 1637.9 460.014 L 1601.87 596.949 L 1569.99 718.888 C 1568.05 726.564 1566.21 734.338 1564.51 742.071 C 1553.2 793.695 1536.49 843.603 1520.99 894.056 L 1480.31 1028.25 C 1442.53 1154.7 1405.45 1281.36 1369.07 1408.23 L 1339.91 1515.1 C 1334.82 1534.33 1330.81 1554.49 1324.46 1573.29 C 1322.9 1577.9 1320.68 1583.94 1317.11 1587.31 C 1314.1 1590.16 1193.72 1589.02 1179.24 1589.31 C 916.448 1596.33 653.612 1601.49 390.75 1604.81 L 389.908 1604.82 L 388.504 1604.82 C 382.123 1604.87 380.224 1605.97 376.259 1600.87 C 376.19 1600.35 376.103 1599.84 376.051 1599.32 C 374.852 1587.42 437.125 1420.56 446.537 1394.38 L 712.865 648.017 L 782.554 448.989 C 788.476 432.048 806.627 375.559 814.199 362.734 C 828.197 359.758 875.958 359.406 892.022 359.007 L 1046.41 355.301 L 1648.95 340.457 z" fill="currentColor" transform="translate(0,0)"></path>
<path d="M 1482.64 358.491 C 1495.28 358.195 1507.93 358.08 1520.57 358.145 C 1504.21 369.723 1482.99 380.535 1465.94 391.517 C 1457.66 396.852 1448.42 401.441 1441.09 408.145 C 1443.71 421.19 1446.88 435.447 1448.56 448.512 C 1413.08 466.289 1376.89 482.903 1341.42 500.733 C 1329.76 506.596 1317.87 512.399 1305.99 517.79 C 1267.44 511.65 1227.56 506.092 1188.93 500.489 C 1176.31 505.724 1059.47 559.932 1055.45 563.611 C 1053.5 565.393 1053.13 566.353 1053 568.928 L 1054.88 570.851 C 1063.19 572.262 1173.23 518.342 1189.96 511.243 C 1212.92 514.079 1235.83 517.335 1258.67 521.01 C 1296.89 526.824 1291.55 524.116 1322.53 545.744 C 1336.99 555.899 1351.56 565.891 1366.25 575.716 C 1404.13 600.053 1442.42 623.747 1481.11 646.786 C 1485.17 659.643 1489.45 674.86 1493.96 687.277 C 1496.37 693.931 1507.57 709.777 1512.01 716.343 L 1545.26 764.764 C 1538.39 791.028 1529.6 818.349 1521.68 844.382 L 1483.09 971.635 C 1447.52 1089.4 1412.59 1207.35 1378.3 1325.48 C 1358.31 1393.09 1340.52 1461.09 1321.45 1528.95 C 1317.54 1542.83 1314.64 1561.02 1309.22 1574.2 C 1268.41 1575.62 1224.88 1574.65 1183.82 1575.14 L 995.25 1579.09 C 899.268 1580.14 799.858 1584.29 703.612 1586.56 C 599.771 1588.64 495.915 1589.89 392.054 1590.32 C 396.112 1574.45 407.329 1545.46 413.183 1528.93 C 427.931 1487.03 443.024 1445.25 458.461 1403.59 L 564.903 1106.51 L 748.175 590.022 C 773.193 518.921 797.344 446.239 823.366 375.61 C 846.412 373.82 878.013 373.891 901.677 373.238 L 1058.68 369.258 L 1482.64 358.491 z" fill="none" transform="translate(0,0)"></path>
<path d="M 961.917 840.128 C 978.606 839.258 995.684 845.47 999.718 863.485 C 1005.92 891.159 991.915 926.353 978.972 950.331 C 971.241 964.654 960.069 975.052 944.297 979.1 C 883.508 970.959 897.269 856.735 961.917 840.128 z" fill="currentColor" transform="translate(0,0)"></path>
<path d="M 962.514 855.148 C 973.317 854.551 982.213 857.574 984.63 869.705 C 989.477 894.029 970.051 955.445 944.487 961.985 C 908.381 959.472 912.754 873.072 962.514 855.148 z" fill="none" transform="translate(0,0)"></path>
<path d="M 770.578 831.362 C 784.073 830.647 798.552 829.977 809.902 838.541 C 823.72 848.967 823.703 867.153 812.967 879.822 C 801.14 893.778 786.029 893.133 769.519 894.419 C 800.905 907.047 803.954 932.898 784.096 958.231 L 783.34 958.986 C 767.69 974.381 754.773 973.749 734.21 973.948 C 729.048 973.997 724.872 973.324 721.275 969.592 C 719.176 957.258 747.746 851.214 757.262 834.98 C 759.174 831.718 766.632 831.665 770.578 831.362 z" fill="currentColor" transform="translate(0,0)"></path>
<path d="M 750.802 907.827 C 759.538 909.676 772.54 910.58 777.459 918.802 C 785.727 932.62 775.064 948.262 763.395 955.476 C 752.506 958.948 748.876 959.037 737.333 958.648 C 741.241 942.274 746.434 924.17 750.802 907.827 z" fill="none" transform="translate(0,0)"></path>
<path d="M 769.636 845.444 C 775.527 845.172 784.676 844.593 790.174 845.949 C 812.4 851.429 808.804 868.654 789.88 876.169 C 779.251 878.317 769.031 878.775 758.233 878.905 C 761.275 868.155 764.345 857.419 767.643 846.745 C 768.307 846.311 768.972 845.877 769.636 845.444 z" fill="none" transform="translate(0,0)"></path>
<path d="M 868.08 830.444 C 883.823 830.854 899.86 834.312 905.681 851.34 C 908.119 858.535 907.383 866.427 903.655 873.046 C 893.35 891.539 873.635 892.966 855.971 897.56 C 863.053 916.036 868.432 938.405 873.25 957.734 C 874.742 963.72 873.785 968.361 867.707 970.835 C 855.966 970.15 850.786 934.786 848.103 923.854 C 846.317 917.221 844.225 910.878 842.116 904.346 C 836.919 923.519 832.491 942.937 828.364 962.363 C 827.091 968.36 819.562 973.118 813.453 971.268 C 812.484 970.325 811.416 969.61 810.998 968.258 C 809.842 964.522 841.315 843.528 846.277 834.941 C 852.225 830.333 860.372 830.904 868.08 830.444 z" fill="currentColor" transform="translate(0,0)"></path>
<path d="M 858.292 845.109 C 861.812 844.767 865.348 844.594 868.885 844.589 C 891.752 844.552 899.929 861.373 878.33 875.732 C 868.587 880.196 860.977 880.898 850.516 881.185 C 852.663 868.977 856.138 858.188 858.292 845.109 z" fill="none" transform="translate(0,0)"></path>
<path d="M 1207.89 834.735 C 1210.43 835.06 1212.69 835.195 1214.87 836.671 C 1221.77 841.333 1230.13 913.127 1232.69 925.889 C 1234.98 914.027 1250 842.72 1255.47 836.767 C 1260.62 834.496 1263.57 836.624 1265.73 841.167 C 1265.59 858.345 1245.13 957.421 1235.23 966.533 C 1233.12 968.478 1231.93 968.609 1229.14 968.592 C 1223.75 965.242 1223.59 961.592 1222.03 955.555 C 1216.17 929.177 1212.46 893.436 1208.29 865.834 L 1189.63 932.493 C 1186.74 942.726 1182.09 966.809 1173.99 972.666 C 1170.36 973.255 1172.07 973.494 1168.69 971.784 C 1161.98 963.411 1168.4 952.209 1171.43 942.9 C 1179.28 918.829 1192.56 850.936 1207.89 834.735 z" fill="currentColor" transform="translate(0,0)"></path>
<path d="M 1038.69 837.278 C 1042.44 837.909 1042.87 837.625 1045.57 840.328 C 1049.47 848.852 1040.26 876.592 1037.34 887.421 C 1050.53 876.143 1075.44 852.674 1088.22 843.66 C 1100.23 841.402 1098.09 852.831 1091.6 858.995 C 1078.18 871.74 1062.94 884.112 1049.06 896.207 C 1052.5 906.341 1070.44 956.268 1070.3 963.869 C 1068.68 967.269 1067.14 967.782 1063.93 969.775 C 1049.9 967.166 1044.06 916.21 1035.95 906.509 C 1022.76 910.331 1022.75 966.729 1009.97 974.026 C 1008.58 974.817 1007.36 975.332 1005.78 974.997 C 1003.38 974.491 1001.35 972.995 1000.1 970.887 C 997.786 966.975 1027.66 863.49 1031.22 850.403 C 1032.81 844.563 1033.11 840.482 1038.69 837.278 z" fill="currentColor" transform="translate(0,0)"></path>
<path d="M 1129.32 835.038 C 1138.81 834.799 1148.52 834.801 1158.01 834.967 C 1165.38 835.096 1172.82 834.328 1174.88 842.638 C 1171.73 853.597 1147.51 849.899 1137.64 849.951 C 1132.53 863.383 1127.19 884.612 1123.21 898.972 C 1129.72 899.165 1142.74 898.815 1145.91 905.859 C 1143.62 916.147 1125.54 915.54 1117.6 915.833 L 1105.12 958.892 L 1121.25 957.758 C 1132.16 956.669 1154.84 951.993 1150.59 969.425 C 1144.4 974.13 1126.54 972.192 1118.57 973.037 C 1113 973.627 1107.57 974.834 1101.96 975.196 C 1097.59 975.478 1092.5 975.295 1089.22 972.052 C 1087.74 970.598 1087.65 968.832 1087.65 966.845 C 1087.59 952.834 1121.43 843.142 1129.32 835.038 z" fill="currentColor" transform="translate(0,0)"></path>
<path d="M 1218.08 1110.55 C 1223.7 1110.27 1241.27 1107.76 1243.8 1113.09 L 1242.9 1115.25 C 1236.53 1119 1209.08 1118.23 1200.42 1118.52 L 1108.64 1121.42 L 761.112 1131.5 C 754.854 1131.87 743.877 1132.85 738.109 1131.6 C 736.017 1128.79 736.641 1130.36 736.476 1126.62 C 738.035 1125.02 738.796 1124.18 741.515 1124.11 C 758.245 1123.62 775.412 1123.42 792.116 1123.09 L 891.35 1120.57 L 1218.08 1110.55 z" fill="currentColor" transform="translate(0,0)"></path>
<path d="M 1145.34 1018.06 C 1177.08 1023.44 1168.39 1071.81 1138.72 1078.5 C 1105.82 1075.54 1115.25 1027.62 1145.34 1018.06 z" fill="currentColor" transform="translate(0,0)"></path>
<path d="M 1142.12 1028.8 C 1163.9 1026.92 1157 1058.78 1140.78 1068.13 C 1118.46 1067.5 1129.11 1038.66 1142.12 1028.8 z" fill="none" transform="translate(0,0)"></path>
<path d="M 940.768 1015.2 C 970.466 1017.39 973.453 1041.6 946.332 1049.29 C 950.267 1055.42 963.919 1070.9 962.058 1077.8 C 959.339 1079.56 960.846 1079.08 957.27 1078.81 C 953.667 1076.77 951.157 1072.1 948.755 1068.5 L 935.168 1050.82 C 933.817 1058.9 933.523 1077.22 924.695 1078.68 C 923.549 1078.02 922.578 1077.83 922.482 1076.75 C 921.751 1068.63 928.725 1023.6 931.219 1018.63 C 934.184 1016.09 936.889 1015.99 940.768 1015.2 z" fill="currentColor" transform="translate(0,0)"></path>
<path d="M 939.168 1024.48 C 945.698 1024.91 954.331 1024.81 955.281 1032.79 C 953.914 1036.46 952.884 1036.96 949.941 1039.48 C 945.864 1041.09 940.356 1042.57 936.058 1043.87 C 936.875 1037.36 938.048 1030.94 939.168 1024.48 z" fill="none" transform="translate(0,0)"></path>
<path d="M 844.569 1020.57 C 847.073 1020.91 847.022 1021.07 849.246 1022.37 C 854.175 1029.55 854.647 1064.78 854.483 1074.88 C 854.448 1077.01 852.374 1078.08 850.701 1078.97 C 842.429 1077.53 843.807 1044.74 843.354 1036.39 C 837.223 1043.42 833.506 1050.25 826.523 1056.83 C 822.414 1051.62 818.2 1043.35 814.894 1037.35 C 812.977 1040.74 810.884 1046.04 809.291 1049.74 C 805.873 1057.85 799.927 1076.22 790.643 1078.07 L 789.901 1077.02 C 788.736 1067.63 807.75 1023.64 816.018 1022.37 C 822.023 1025.73 824.901 1034.94 827.824 1041.5 C 833.482 1034.85 839.19 1027.46 844.569 1020.57 z" fill="currentColor" transform="translate(0,0)"></path>
<path d="M 1044.22 1014.33 C 1077.76 1014.27 1066.96 1053.75 1034.71 1049.98 L 1031.73 1069.02 C 1031.28 1071.86 1030.97 1073.01 1030.22 1075.71 C 1027.93 1078.11 1027.68 1078.91 1024.47 1079.56 C 1017.71 1073.71 1028.66 1027.52 1032.21 1018.57 C 1033.39 1015.59 1041.09 1014.81 1044.22 1014.33 z" fill="currentColor" transform="translate(0,0)"></path>
<path d="M 1040.52 1023.04 L 1041.7 1023.03 C 1055.66 1023.05 1059.93 1031.14 1047.49 1039.48 C 1043.7 1040.35 1039.91 1041.18 1036.11 1041.99 C 1037.46 1034.73 1038.44 1030.09 1040.52 1023.04 z" fill="none" transform="translate(0,0)"></path>
<path d="M 1215.69 1016.52 C 1220.16 1017 1219.49 1016.26 1222.55 1018.61 C 1223.18 1024.98 1215.43 1065.18 1210.25 1071.8 C 1207.18 1073.35 1208.71 1073.23 1205.51 1072.28 C 1202.04 1068.92 1188.86 1042.3 1185.52 1036.05 C 1183.81 1047.06 1181.41 1065.89 1177.89 1075.51 C 1173.95 1075.91 1173.43 1075.45 1171.29 1072.62 C 1170.42 1065.86 1176.41 1027.12 1180.72 1020.45 C 1182.16 1019.66 1182.82 1018.85 1184.05 1019.36 C 1191.83 1022.59 1201.63 1048.12 1205.31 1056.13 C 1208.85 1045.23 1211.46 1024.35 1215.69 1016.52 z" fill="currentColor" transform="translate(0,0)"></path>
<path d="M 891.7 1017.77 C 892.833 1017.98 894.81 1018.36 895.649 1019.08 C 902.162 1024.65 912.823 1073.84 910.253 1078.4 C 906.609 1079.19 908.297 1079.35 904.992 1078.22 C 900.63 1073.33 899.508 1064.22 898.013 1057.51 C 892.372 1057.89 886.535 1058.6 880.896 1059.2 L 879.326 1059.44 C 873.887 1065.31 874.459 1075.61 867.08 1078.04 C 864.154 1077.23 863.357 1077.37 861.46 1075.06 C 861.496 1067.98 884.682 1022.06 891.7 1017.77 z" fill="currentColor" transform="translate(0,0)"></path>
<path d="M 890.808 1032.63 C 894.225 1036.07 895.85 1042.14 894.807 1046.92 C 892.363 1049.85 892.59 1048.89 887.362 1049.47 C 885.387 1049.47 886.457 1049.6 884.18 1048.89 C 883.951 1045.39 888.985 1036.32 890.808 1032.63 z" fill="none" transform="translate(0,0)"></path>
<path d="M 1076.23 1016.73 C 1079.21 1016.87 1080.41 1016.65 1082.88 1018.33 C 1086.25 1023.74 1081.96 1035.81 1080.45 1042.91 L 1100.56 1042.87 C 1101.59 1036.65 1103.35 1011.99 1114.11 1018.89 C 1114.36 1024.17 1105.32 1071.23 1103.21 1077.38 C 1099.95 1079.09 1099.59 1079.25 1096.66 1077.91 C 1093.81 1072.54 1097.94 1058.42 1099.36 1051.83 C 1092.81 1051.66 1085.99 1051.7 1079.41 1051.65 L 1077.99 1060.82 C 1077.07 1066.64 1076.76 1074.12 1071.96 1077.62 C 1068.62 1077.45 1070.07 1078.03 1067.53 1075.66 C 1065.89 1066.84 1072.96 1024.97 1076.23 1016.73 z" fill="currentColor" transform="translate(0,0)"></path>
<path d="M 1251.52 1016.39 C 1257.04 1015.63 1264.02 1014.18 1267.9 1018.76 L 1266.88 1020.69 C 1258.96 1025.92 1254.68 1024.87 1244.92 1024.94 L 1241.83 1039.5 C 1248.34 1039.13 1254.02 1037.91 1259.19 1041.89 L 1259.16 1043.6 C 1253.21 1048.78 1247.94 1047.7 1239.82 1047.77 C 1238.96 1053.33 1235.74 1059.36 1238.97 1063.96 L 1243.75 1064.22 C 1250.17 1063.89 1259.31 1061.86 1263.04 1067.81 L 1262.4 1069.64 C 1256 1074.25 1233.41 1075.72 1227.7 1070.51 C 1226.55 1059.7 1234.14 1032.16 1236.05 1018.47 C 1241.04 1017.4 1246.43 1016.96 1251.52 1016.39 z" fill="currentColor" transform="translate(0,0)"></path>
<path d="M 767.575 1016.2 C 775.115 1015.99 785.301 1015.75 785.979 1025.9 L 784.459 1027.35 C 774.685 1028.84 768.886 1021.31 761.649 1027.93 C 756.944 1042.74 803.6 1065.39 763.275 1080.47 C 758.305 1080.35 738.902 1079.1 745.259 1069 C 750.668 1067.3 758.237 1071.98 766.98 1070.22 C 778.691 1061.77 754.905 1047.37 751.587 1036.76 C 747.897 1024.96 755.129 1018.83 767.575 1016.2 z" fill="currentColor" transform="translate(0,0)"></path>
<path d="M 998.169 1017.58 C 1005.76 1016.91 1015.93 1014.9 1022.02 1020.44 L 1022.07 1022.13 C 1017.08 1026.88 1009.71 1025.92 1002.63 1026.11 C 1000.29 1036.45 995.059 1075.2 990.594 1080.29 C 988.284 1079.4 988.321 1079.29 986.366 1077.72 C 982.839 1068.95 989.742 1038.3 991.644 1027.68 C 985.584 1028.37 980.423 1029.5 974.807 1027.36 C 972.642 1024.71 973.18 1026.21 973.292 1022.66 C 977.479 1017.81 990.827 1018.14 998.169 1017.58 z" fill="currentColor" transform="translate(0,0)"></path>
<path d="M 1632.57 354.586 C 1638.88 354.108 1646.2 354.022 1652.6 353.8 C 1640.12 398.537 1628.52 444.357 1616.57 489.315 L 1548.06 746.376 C 1540.18 734.19 1532.09 722.136 1523.81 710.218 C 1519.6 704.185 1507.88 688.213 1505.36 681.915 C 1500.03 668.575 1496.98 653.389 1491.55 639.449 C 1483.6 633.325 1466.63 623.676 1457.43 618.133 C 1409.78 589.121 1359.79 558.397 1314.5 525.703 C 1337.09 513.97 1359.88 502.62 1382.85 491.657 C 1392.89 486.849 1453.08 458.801 1458.11 454.05 C 1460.03 444.457 1454.2 424.732 1452.67 413.367 L 1452.5 412.038 C 1461.01 405.833 1534.59 359.719 1540.9 358.358 C 1541.32 358.268 1541.74 358.205 1542.16 358.125 C 1553.78 355.901 1566.4 356.488 1578.25 356.18 L 1632.57 354.586 z" fill="none" transform="translate(0,0)"></path>
<path d="M 817.386 1660.52 C 846.029 1659.82 891.519 1655.23 914.504 1675.11 C 942.366 1699.2 912.939 1732.36 885.753 1738.83 C 870.684 1742.42 853.507 1741.69 837.932 1742.05 C 814.126 1742.6 790.317 1743.01 766.506 1743.27 C 740.043 1743.87 713.274 1745.53 687.03 1742.09 C 658.188 1738.31 650.224 1711.7 670.881 1692.1 C 708.512 1656.39 769.135 1661.09 817.386 1660.52 z" fill="currentColor" transform="translate(0,0)"></path>
<path d="M 1516.3 289.285 C 1521.46 288.38 1526.71 290.349 1530.01 294.428 C 1533.31 298.507 1534.14 304.054 1532.17 308.916 C 1530.2 313.778 1525.75 317.19 1520.54 317.828 C 1512.78 318.78 1505.66 313.367 1504.51 305.626 C 1503.36 297.885 1508.59 290.636 1516.3 289.285 z" fill="currentColor" transform="translate(0,0)"></path>
<path d="M 1700.61 334.117 C 1712.73 366.154 1679.52 454.942 1670.3 488.433 C 1662.83 515.545 1654.97 545.037 1648 572.538 C 1588.13 810.717 1525.82 1048.28 1461.08 1285.18 L 1391.27 1553.11 L 1370.28 1637.02 C 1365.72 1655.01 1361.16 1675.04 1354.42 1691.98 C 1338.13 1732.54 1310.3 1760.41 1270.71 1777.61 C 1228.95 1795.75 1197.05 1794.02 1152.84 1794.25 C 1122.69 1794.41 1091.66 1794.45 1061.4 1795.1 L 788.894 1799.64 C 733.032 1800.8 677.158 1801.29 621.283 1801.12 C 563.549 1801.19 413.613 1803.14 366.2 1783.41 C 347.181 1775.5 334.628 1762.89 326.727 1743.95 C 324.547 1736.3 323.3 1729.13 321.848 1721.34 C 324.141 1725.11 326.546 1728.82 329.061 1732.45 C 364.016 1781.94 424.005 1780.52 478.636 1781.73 C 505.908 1782.34 533.313 1782.03 560.598 1782 C 675.178 1781.27 789.741 1778.81 904.247 1774.63 C 974.723 1772.35 1045.21 1771.58 1115.7 1767.62 C 1149.85 1765.69 1185.51 1765.27 1219.37 1760.74 C 1250.52 1756.35 1282.84 1748.08 1308.66 1729.37 C 1343.86 1703.88 1351.3 1656.93 1360.55 1617.51 C 1367.16 1589.26 1374.04 1561.07 1381.18 1532.94 C 1417.78 1392.79 1450.45 1252.61 1489.65 1112.99 C 1516.24 1018.27 1544.95 923.708 1570.9 828.995 C 1594.73 741.991 1614.41 651.696 1637.71 564.297 C 1649.51 521.285 1661.82 478.412 1674.63 435.687 C 1685.8 397.779 1694.44 373.437 1700.61 334.117 z" fill="none" transform="translate(0,0)"></path>
<path d="M 1114.9 1818.52 C 1124.94 1818.2 1141.39 1816.42 1150.09 1821.12 C 1158.94 1826.71 1155.45 1838.45 1144.89 1839.31 C 1118.11 1841.5 1089.71 1840.87 1062.82 1841.04 C 1054.41 1841.07 1033.78 1843.64 1027.21 1837.89 C 1025.23 1836.16 1024.26 1833.59 1024.19 1830.98 C 1024.12 1827.99 1025.33 1824.87 1027.66 1822.94 C 1034.48 1817.3 1101.52 1818.72 1114.9 1818.52 z" fill="none" transform="translate(0,0)"></path>
<path d="M 333.266 1797.43 C 342.13 1797.88 343.275 1806.65 350.966 1813.13 C 353.671 1816.02 359.701 1820.98 363.784 1821.58 C 401.845 1827.2 441.491 1827.67 479.963 1829.42 C 486.954 1829.74 498.774 1828.65 503.235 1833.4 C 503.401 1837.24 503.337 1836.07 501.276 1839.93 C 476.631 1841.05 444.232 1838.18 419.054 1837.31 C 406.202 1836.87 379.857 1835.7 368.38 1833.79 C 362.956 1832.87 357.726 1831.04 352.911 1828.38 C 343.846 1823.48 335.117 1815.05 331.423 1804.82 C 330.337 1801.81 331.953 1799.8 333.266 1797.43 z" fill="none" transform="translate(0,0)"></path>
<path d="M 1213.99 1807.88 C 1232.19 1807.63 1231.12 1843.07 1218.75 1855.02 C 1205.48 1852.31 1213.95 1846.55 1214.38 1836.19 C 1214.74 1827.47 1209.83 1822.37 1208.93 1814.02 C 1209.89 1810.57 1211.14 1810.08 1213.99 1807.88 z" fill="none" transform="translate(0,0)"></path>
<path d="M 1326.33 1771.71 C 1329.1 1772.25 1328.9 1772.24 1331.07 1774.08 C 1333.05 1784.88 1302.03 1807.38 1292.96 1812.1 C 1289.25 1811.19 1288.29 1811.09 1287.09 1807.67 C 1289.18 1798.21 1317.51 1778.2 1326.33 1771.71 z" fill="none" transform="translate(0,0)"></path>
<path d="M 1272.89 1816.35 C 1277.44 1816.15 1281.15 1815.05 1283.02 1819.68 C 1279.87 1828.47 1265.34 1833.01 1256.93 1834.78 C 1253.25 1835 1249.91 1835.19 1247.17 1832.48 C 1246.07 1823.3 1265.61 1817.1 1272.89 1816.35 z" fill="none" transform="translate(0,0)"></path>
</svg>