<svg xmlns="http://www.w3.org/2000/svg" preserveAspectRatio="none" style="display: block;" version="1.1" viewBox="0 0 2048 2048">
<path d="M 544.176 289.382 C 546.222 259.086 544.984 229.216 563.714 202.871 C 583.544 175.751 629.458 150.878 662.665 147.402 C 716.355 141.78 775.15 139.828 829.284 139.204 C 877.116 138.912 924.95 139.329 972.77 140.457 C 1021.39 140.998 1070.01 142.184 1118.6 144.016 C 1164.86 145.7 1208.25 148.161 1253.99 155.21 C 1318.27 165.118 1360.38 193.147 1367.98 261.391 C 1373.28 308.92 1382.38 358.299 1389.43 406.157 L 1442.06 783.353 C 1444.28 799.912 1445.99 816.873 1448.56 833.346 C 1454.93 874.261 1457.93 915.688 1464.59 956.52 C 1469.9 961.82 1479.78 973.697 1483.79 978.075 C 1494.76 990.069 1566.51 1094.44 1572.76 1096.77 C 1573.34 1096.75 1578.31 1096.65 1578.63 1096.77 C 1587.38 1100.13 1599.12 1116.94 1605.37 1123.74 C 1611.44 1122.45 1614.81 1120.53 1621.05 1119.48 C 1644.79 1131.6 1673.4 1167.25 1691.83 1187.13 C 1711.54 1208.39 1731.89 1230.58 1750.47 1252.86 C 1797.51 1309.88 1841.59 1369.27 1882.56 1430.79 C 1902.41 1460.63 1922.74 1490.93 1939.18 1522.82 C 1943.21 1530.64 1948.97 1536.65 1953.74 1543.91 C 1963.76 1559.17 1964.93 1679.8 1960.39 1699.95 C 1962.65 1704.74 1961.66 1715.58 1961.44 1721.36 C 1960.55 1728.39 1961.12 1739.57 1961.07 1746.99 C 1960.93 1770.59 1957.72 1793.94 1956.29 1817.27 C 1952.96 1871.56 1948.87 1928.8 1937.92 1982.18 C 1923.68 1984.28 1905.89 1983.44 1891.5 1983.95 C 1874.4 1984.54 1857.29 1985.17 1840.19 1985.72 L 1595.16 1991.64 L 1334.86 1998.42 C 1303.76 1999.21 1272.64 1999.23 1241.56 2000.4 C 1230.13 2000.83 1218.3 2001.46 1206.89 2000.89 C 1185.35 1970.5 1163.96 1939.82 1142.17 1909.59 C 1137.6 1901.69 1118.63 1884.96 1115.62 1878.02 C 1104.58 1852.6 1087.01 1836.19 1071.45 1814.05 C 1045.73 1814.33 1019.9 1815.55 994.168 1816.2 C 974.857 1816.69 956.343 1814.87 937.064 1814.41 C 881.905 1813.12 826.801 1810.09 771.835 1805.3 C 753.983 1803.74 722.478 1801.5 705.264 1798.63 C 647.578 1789.01 559.043 1779.58 524.93 1726.28 C 505.046 1695.21 496.208 1639.19 493.654 1602.64 C 490.666 1559.89 492.831 1511.64 492.188 1468.59 C 491.224 1404.03 492.047 1339.94 493.308 1275.46 C 494.231 1228.25 497.378 1181.13 498.732 1134.1 C 503.25 975.188 509.672 816.333 517.999 657.573 C 521.157 593.103 524.181 530.456 529.348 466.012 C 533.27 417.106 534.596 367.185 540.708 318.243 C 541.15 314.705 542.452 308.026 539.669 305.982 C 532.973 301.486 523.121 300.684 515.364 300.325 C 465.509 298.017 444.769 351.086 427.037 388.302 C 416.756 409.879 409.266 431.078 402.192 453.918 C 398.812 464.833 397.895 479.523 391.247 488.187 C 390.113 489.624 386.509 489.592 385.063 488.966 C 383.569 488.697 380.337 486.084 380.324 484.348 C 380.453 445.377 400.006 404.116 415.265 369.003 C 440.639 310.614 474.447 264.244 544.176 289.382 z" fill="currentColor" transform="translate(0,0)"></path>
<path d="M 1960.39 1699.95 C 1962.65 1704.74 1961.66 1715.58 1961.44 1721.36 C 1957.53 1721.85 1955.58 1722.22 1951.97 1720.57 C 1948.34 1713.3 1958.49 1708.06 1960.39 1699.95 z" fill="currentColor" transform="translate(0,0)"></path>
<path d="M 850.984 156.458 C 851.368 156.441 851.752 156.424 852.136 156.407 C 910.616 156.169 968.302 157.976 1026.6 159.604 L 1113.11 162.27 C 1168.19 163.892 1230.99 166.17 1284.31 182.162 C 1299.18 186.481 1311.74 195.213 1322.62 206.268 C 1349.37 233.429 1351.97 282.062 1357.22 317.467 C 1363.31 358.278 1369.18 399.12 1374.84 439.994 C 1398.76 609.362 1421.5 778.895 1443.05 948.582 C 1464.11 1098.58 1483.88 1248.75 1502.37 1399.09 L 1515.68 1514.51 C 1523.43 1585.14 1536.84 1679.13 1483.29 1736 C 1437.22 1784.93 1360.8 1783.09 1298.44 1788.74 C 1256.66 1792.52 1212.59 1794.17 1170.42 1794.13 C 1168.68 1794.28 1166.94 1794.39 1165.2 1794.46 C 1028.7 1801.07 891.911 1798.48 755.763 1786.7 C 700.496 1781.4 659.189 1776.54 605.526 1761.79 C 518.009 1741.35 517.128 1664.41 512.457 1589.93 C 511.201 1569.91 512.246 1545.53 511.962 1524.49 C 510.856 1444.36 511.178 1364.23 512.928 1284.11 C 513.679 1249.96 515.301 1215.66 516.215 1181.54 C 520.906 986.392 528.799 791.335 539.891 596.448 C 545.32 503.162 548.768 409.317 558.304 316.333 C 562.052 279.793 558.375 231.358 584.744 203.715 C 627.051 159.365 687.408 157.74 744.398 158.006 C 779.795 157.435 816.067 157.795 850.984 156.458 z" fill="none" transform="translate(0,0)"></path>
<path d="M 576.983 241.692 C 592.146 242.04 588.433 254.344 587.522 264.374 C 585.203 289.909 584.497 315.636 583.56 341.252 L 578.835 470.804 C 572.02 621.478 566.701 772.216 562.877 922.996 L 554.926 1292.32 C 553.005 1363.69 552.45 1435.08 553.26 1506.47 C 553.479 1529.33 553.889 1552.18 554.49 1575.02 C 555.269 1610.34 554.129 1637.05 569.774 1670.41 C 588.729 1710.83 613.979 1724.91 656.871 1732.75 C 693.408 1739.43 729.19 1743.7 766.504 1746.85 C 855.025 1754.8 943.875 1758.52 1032.75 1758.01 C 1094.38 1757.32 1155.98 1753.21 1217.5 1749.82 C 1266.11 1747.15 1376.7 1743.65 1417.53 1723.13 C 1445.99 1708.82 1474.58 1681.36 1481.41 1649.18 C 1488.15 1617.44 1479.87 1560.66 1475.83 1527.99 L 1465.58 1444.85 C 1463.72 1430.07 1463.47 1414.75 1461.69 1400.42 C 1458.67 1376.2 1455.02 1352.07 1452.04 1327.77 L 1340.95 403.58 C 1335.83 362.704 1331.38 321.772 1326.64 280.85 C 1325.74 273.126 1320.11 253.552 1322.14 247.598 C 1338.44 229 1343 268.103 1344.92 277.785 C 1353.12 319.046 1360.03 379.626 1364.96 421.111 L 1381.09 547.748 L 1442.57 1040.84 L 1458.22 1158.99 C 1464.84 1212.53 1470.68 1268.1 1478 1321.35 C 1487.24 1385.88 1495.18 1450.58 1501.82 1515.42 C 1503.05 1527.85 1504.33 1540.78 1505.41 1552.83 C 1511.13 1616.71 1515.88 1675.04 1462.71 1720.94 C 1420.46 1757.41 1377.87 1757.33 1325.78 1763.02 C 1291.59 1766.97 1257.31 1770.09 1222.97 1772.38 C 1193.32 1774.13 1161.23 1774.58 1131.41 1775.58 C 1102.06 1776.57 1071.41 1778.39 1042.23 1778.9 C 958.413 1780.58 874.56 1778.07 790.991 1771.36 C 742.404 1767.35 696.113 1763.41 648.51 1752.27 C 626.92 1747.22 600.163 1743.26 581.574 1730.32 C 551.738 1709.55 539.444 1673.4 532.612 1639.4 C 524.998 1601.51 528.739 1564.57 527.816 1525.97 C 526.5 1470.85 527.068 1415.62 528.018 1360.51 C 530.503 1170.98 535.981 981.505 544.45 792.15 C 548.261 676.053 553.427 560.004 559.948 444.028 L 565.219 347.729 C 566.153 326.932 567.008 256.207 576.983 241.692 z" fill="currentColor" transform="translate(0,0)"></path>
<path d="M 948.524 1523.41 C 983.991 1521.5 1022.48 1526.14 1058.34 1524.63 C 1076.33 1523.87 1091.77 1522.91 1105.91 1535.84 C 1146.28 1572.76 1117.29 1618.36 1068 1619.37 L 981.74 1619.1 C 967.809 1619.06 936.925 1619.67 924.358 1617.14 C 916.906 1615.71 909.951 1612.37 904.167 1607.46 C 874.014 1582.05 885.604 1540.04 921.481 1527.74 C 930.963 1524.49 938.508 1524.14 948.524 1523.41 z" fill="currentColor" transform="translate(0,0)"></path>
<path d="M 918.516 1544.99 C 922.032 1545.96 920.751 1544.96 923.025 1547.3 C 921.502 1552.57 910.383 1558.53 908.956 1565.26 C 903.751 1589.82 934.29 1594.89 939.54 1604.04 L 938.736 1606.31 C 895.024 1605.26 886.931 1553.9 918.516 1544.99 z" fill="none" transform="translate(0,0)"></path>
<path d="M 622.447 1479.46 C 651.435 1478.97 682.041 1480.55 711.231 1480.49 L 1054.73 1481.58 C 1069.72 1481.65 1084.98 1480.39 1100.1 1480.37 C 1213.88 1480.24 1327.48 1481.66 1441.29 1480.73 C 1458.6 1480.59 1469.51 1491.55 1456.16 1501.02 C 1454.3 1502.35 1411.79 1501.94 1405.75 1501.97 C 1353.75 1503.06 1299.38 1501.92 1247.36 1501.63 L 961.624 1499.66 L 629.762 1498.29 C 615.09 1498.1 589.309 1499.42 575.011 1497.09 C 572.165 1496.63 569.66 1492.15 568.552 1489.29 C 569.647 1475.7 610.629 1479.85 622.447 1479.46 z" fill="currentColor" transform="translate(0,0)"></path>
<path d="M 746.745 272.475 C 775.912 271.785 802.812 272.673 831.642 272.884 L 1028.44 275.057 L 1239.5 276.595 C 1257.75 276.909 1276 276.932 1294.25 277.241 C 1299.95 277.338 1310.03 278.881 1311.09 285.952 C 1312.01 292.3 1307.56 294.566 1302 294.86 C 1285.41 295.74 1268.51 295.243 1251.9 295.094 C 1222.66 294.632 1193.41 294.542 1164.17 294.826 C 1079.02 294.775 992.36 292.039 907.198 291.768 L 697.691 291.22 C 670.067 291.072 642.494 290.458 614.877 290.978 C 608.512 291.098 599.714 290.206 598.198 283.042 C 599.316 278.632 601.657 275.847 606.483 275.669 C 623.514 275.041 640.614 275.199 657.665 274.972 C 687.368 274.519 717.063 273.686 746.745 272.475 z" fill="currentColor" transform="translate(0,0)"></path>
<path d="M 875.805 206.292 C 897.082 206.055 918.712 207.25 940.157 206.91 C 966.346 206.495 993.358 206.541 1019.42 208.953 C 1022.36 209.225 1026.07 210.636 1027.48 213.449 C 1032.7 228.603 1026.25 232.118 1015.39 235.472 C 1005.92 235.671 995.19 235.45 985.567 235.137 C 948.245 233.926 907.775 237.234 871.062 231.195 C 859.22 229.247 858.305 211.73 875.805 206.292 z" fill="currentColor" transform="translate(0,0)"></path>
<path d="M 918.929 1660.13 L 922.931 1661.07 C 928.93 1665.86 936.804 1683.69 941.174 1691.56 C 945.709 1683.5 953.967 1666.34 961.896 1663.09 C 966.789 1663.88 969.061 1669.29 969.25 1673.82 C 969.903 1689.42 971.738 1704.68 972.925 1720.22 C 973.14 1723.03 971.595 1724.09 969.801 1725.68 C 965.635 1726.45 967.46 1726.83 964.059 1724.98 C 959.819 1718.32 960.776 1709.37 960.707 1701.33 L 959.622 1682.07 C 945.969 1708.18 940.666 1711.69 924.929 1684.37 C 924.46 1692.85 925.443 1720.54 918.526 1724.51 C 916.682 1723.82 914.487 1723.22 914.014 1721.03 C 911.988 1711.64 916.497 1666.86 918.929 1660.13 z" fill="currentColor" transform="translate(0,0)"></path>
<path d="M 1048.58 1662.47 C 1051.56 1663.82 1052.36 1663.77 1053.93 1666.57 C 1054.32 1677.9 1057.38 1716.43 1052.47 1723.56 C 1043.25 1727.89 1024.22 1693.54 1018.05 1685.14 C 1017.88 1697.52 1020.42 1712.99 1017.59 1724.59 C 1012.66 1723.61 1013.56 1724.55 1010.62 1721.53 C 1008.62 1713.23 1007.21 1676.02 1011.15 1666.87 C 1012.08 1664.7 1014.09 1664.78 1015.88 1664.7 C 1023.72 1668.53 1039.63 1695.82 1044.88 1704.59 C 1044.31 1692.49 1041.18 1671.66 1048.58 1662.47 z" fill="currentColor" transform="translate(0,0)"></path>
<path d="M 946.873 163.236 C 977.03 159.776 986.118 187.325 961.143 199.004 C 950.472 200.744 938.199 199.795 933.512 188.292 C 931.798 184.113 931.816 179.424 933.564 175.259 C 936.438 168.533 940.593 166.006 946.873 163.236 z" fill="currentColor" transform="translate(0,0)"></path>
<path d="M 954.005 173.002 C 959.09 173.035 961.755 172.949 964.319 177.636 C 964.52 184.835 959.318 187.457 953.534 189.796 C 949.075 189.416 946.015 188.568 943.358 184.722 C 941.807 176.979 948.313 175.042 954.005 173.002 z" fill="none" transform="translate(0,0)"></path>
<path d="M 1059.7 1662.95 C 1069.38 1662.94 1102.2 1661.42 1106.73 1669.37 C 1104.85 1677.55 1094.18 1675.08 1087.26 1674.89 C 1088.23 1684.6 1088.64 1695.42 1089.22 1705.24 C 1089.92 1711.66 1092.39 1719.17 1086.52 1722.85 C 1084.92 1722.79 1082.94 1723.1 1082.31 1722.12 C 1077.42 1714.5 1078.44 1684.2 1078.29 1674.8 C 1071.39 1673.57 1064.61 1675.13 1059.6 1671.47 C 1057.97 1667.82 1058.82 1667.79 1059.7 1662.95 z" fill="currentColor" transform="translate(0,0)"></path>
<path d="M 986.228 1661.55 C 988.148 1662.29 993 1663.99 993.041 1666.19 C 993.257 1677.79 997.294 1716.76 993.246 1725.3 C 989.35 1724.87 987.798 1724.48 985.447 1721.43 C 984.546 1713.95 984.093 1666.91 986.228 1661.55 z" fill="currentColor" transform="translate(0,0)"></path>
<path d="M 1469.03 989.814 C 1474.04 994.094 1496.86 1027.84 1502.59 1036.45 C 1516.42 1057.26 1544.9 1088.68 1554.11 1110.72 C 1535.18 1129.47 1531.55 1132.97 1517.11 1154.44 C 1509.59 1164.02 1499.02 1181.02 1492.06 1191.56 C 1491.97 1170.62 1486.43 1131.73 1483.74 1109.84 L 1469.03 989.814 z" fill="none" transform="translate(0,0)"></path>
<path d="M 1574.22 1116.73 C 1579.08 1119.73 1587.75 1131.49 1591.74 1136.59 C 1566.91 1163.58 1544.77 1190.33 1524.75 1221.06 C 1519.08 1229.76 1512.61 1240.68 1505.84 1248.3 L 1499.68 1256.33 C 1498.35 1242.81 1496.62 1229.77 1495.77 1216.16 C 1523.25 1177.57 1538.45 1148.75 1574.22 1116.73 z" fill="none" transform="translate(0,0)"></path>
<path d="M 1128.37 1812.63 L 1129.7 1812.92 C 1119.72 1825.39 1120.48 1830.24 1118.05 1846.08 C 1114.56 1842.01 1110.98 1836.66 1107.82 1832.23 C 1102.71 1824.6 1099.22 1820.34 1092.59 1814.15 C 1105.74 1813.36 1115.12 1812.69 1128.37 1812.63 z" fill="none" transform="translate(0,0)"></path>
<path d="M 399.661 501.418 C 421.005 498.553 454.577 511.504 466.912 529.87 C 490.864 565.684 490.704 611.867 490.521 653.269 C 490.317 699.5 485.789 744.337 478.715 789.921 C 477.368 798.601 477.499 807.917 470.283 813.779 C 466.283 814.769 468.188 814.901 464.363 813.367 C 461.25 809.938 460.3 806.167 460.404 801.554 C 460.769 785.528 464.346 768.571 465.925 752.462 C 470.807 702.658 479.003 607.177 461.611 560.651 C 455.496 544.295 445.901 531.2 429.609 523.872 C 413.345 516.558 395.159 517.804 378.822 524.085 C 353.744 533.727 339.78 553.639 329.286 577.42 C 311.336 618.096 300.345 663.179 288.181 705.9 C 276.989 743.91 266.881 782.231 257.87 820.817 C 248.334 860.429 238.993 896.987 241.749 938.26 C 244.261 975.882 262.96 1004.01 276.064 1037.82 C 296.887 1039.61 317.512 1048.02 337.574 1051.75 C 358.124 1055.58 477.087 1106.08 470.143 1127.64 C 461.158 1136.21 446.111 1120.65 437.146 1115.52 C 368.658 1076.33 278.408 1036.23 198.16 1059.41 C 145.968 1074.49 109.508 1120.42 128.583 1177.2 C 146.864 1231.13 283.761 1325.73 332.725 1360.68 C 374.632 1390.67 416.867 1420.29 458.759 1450.3 C 465.705 1456.15 486.062 1468.37 475.437 1478.97 C 466.275 1488.11 444.097 1468.03 436.18 1462.19 L 395.071 1431.96 C 373.567 1416.27 351.493 1401.58 329.853 1385.87 C 288.29 1356.11 247.987 1324.62 209.051 1291.5 C 187.516 1273.33 168.721 1257.31 148.93 1237.34 C 48.0237 1135.51 129.119 1032.78 256.015 1036.22 C 209.543 945.007 215.369 911.222 238.282 815.767 C 247.34 777.171 257.465 738.834 268.647 700.799 C 280.252 659.896 291.307 617.243 307.127 577.771 C 325.053 533.044 350.681 505.114 399.661 501.418 z" fill="currentColor" transform="translate(0,0)"></path>
</svg>