<svg xmlns="http://www.w3.org/2000/svg" preserveAspectRatio="none" style="display: block;" version="1.1" viewBox="0 0 2048 2048">
<defs>
	<linearGradient gradientUnits="userSpaceOnUse" id="Gradient1" x1="1008.03" x2="1011.1" y1="1945.67" y2="948.926">
		<stop class="stop0" offset="0" stop-color="rgb(40,39,39)" stop-opacity="1"></stop>
		<stop class="stop1" offset="1" stop-color="rgb(76,75,76)" stop-opacity="1"></stop>
	</linearGradient>
</defs>
<path d="M 1931.1 1782.65 C 1931.3 1783.47 1931.49 1784.17 1931.51 1785.03 C 1932.22 1818.89 1923.23 1853.97 1901.29 1879.85 C 1878.59 1906.63 1853.36 1921.43 1820.37 1931.12 C 1815.51 1932.55 1805.45 1937.62 1801.36 1938.59 C 1790.42 1941.18 1773.88 1943.92 1762.88 1944.64 C 1740.98 1946.07 1718.18 1944.93 1696.27 1945.25 C 1631.63 1946.22 1567 1946.48 1502.36 1946.05 L 990.163 1947.03 L 505.587 1945.86 L 324 1944.61 C 292.415 1944.47 259.953 1946.52 228.256 1944.1 C 156.805 1938.63 92.2325 1885.4 87.3667 1811.36 C 84.6556 1770.11 100.723 1721.49 109.43 1680.51 L 162.777 1434.56 C 181.8 1345.83 201.76 1257.29 222.653 1168.98 C 226.941 1151.48 231.082 1133.95 235.074 1116.39 C 242.162 1084.56 244.439 1060.56 266.747 1034.93 C 304.99 990.999 368.75 965.125 426.027 960.954 C 453.607 958.946 483.241 959.37 510.48 959.225 L 648.129 958.592 L 1129.13 954.419 L 1528.93 950.913 C 1557 950.806 1585.06 950.435 1613.12 949.8 C 1688.94 948.018 1748.93 948.426 1810.71 1000.9 C 1853.67 1037.39 1851.32 1066.48 1857.65 1117.76 C 1864.33 1173.36 1870.45 1229.02 1876 1284.75 L 1895.45 1463.34 C 1898.75 1492.49 1904.34 1528.72 1906.18 1557.22 C 1907.47 1561.25 1909.89 1589.88 1910.77 1597.03 L 1925.04 1720.91 C 1926.74 1736.32 1931.54 1768.87 1931.1 1782.65 z" fill="url(#Gradient1)" transform="translate(0,0)"></path>
<path d="M 1931.1 1782.65 C 1926.4 1772.38 1928.91 1752.09 1925.08 1741.13 C 1924.9 1740.6 1921.48 1739.79 1920.33 1737.61 C 1917.74 1732.75 1922.01 1731.29 1923.69 1724.36 C 1915.58 1697.17 1918.87 1670.48 1914.73 1642.66 C 1910.71 1615.64 1907.81 1587.92 1905.43 1560.76 C 1905.3 1560.18 1905.17 1559.6 1905.04 1559.02 L 1906.18 1557.22 C 1907.47 1561.25 1909.89 1589.88 1910.77 1597.03 L 1925.04 1720.91 C 1926.74 1736.32 1931.54 1768.87 1931.1 1782.65 z" fill="currentColor" transform="translate(0,0)"></path>
<path d="M 191.891 1861.35 C 188.925 1858.92 170.076 1848.35 165.902 1846.26 C 135.388 1830.99 106.001 1791.73 107.995 1756.31 C 109.106 1736.57 119.701 1701.7 124.128 1679.81 C 152.68 1537.47 183.349 1395.57 216.125 1254.15 L 236.974 1162.68 C 243.059 1136.1 255.523 1073.48 267.929 1053.33 C 293.049 1012.52 350.066 985.662 395.509 975.794 C 427.658 968.813 456.817 970 489.756 969.654 C 525.887 969.231 562.02 969.002 598.153 968.968 L 965.739 966.966 L 1481.15 962.671 L 1621.82 961.058 C 1682.61 960.702 1727.33 958.149 1781.01 993.295 C 1837.11 1030.02 1836.7 1059.55 1843.65 1119.7 C 1847.01 1146.84 1850.11 1174.02 1852.96 1201.22 L 1895.38 1583.9 L 1907.25 1696.34 C 1908.46 1707.79 1909.23 1730.41 1911.87 1740.63 C 1929.47 1761.83 1887.03 1826.49 1867.36 1840.25 C 1841.6 1858.27 1811.32 1876.24 1778.64 1878.06 C 1770.41 1878.38 1748.33 1876.76 1741.88 1879.16 C 1746.8 1879.23 1766.11 1878.6 1769.14 1879.46 C 1754.73 1878.92 1742.91 1881.84 1728.03 1881.66 C 1718.67 1881.55 1709.43 1880.55 1700.39 1880.57 L 1621.79 1881.1 C 1609.39 1881.23 1574.96 1883.09 1564.66 1877.96 C 1553.22 1877.44 1533.84 1877.56 1522.55 1878 C 1500.35 1884.87 1372.16 1880.48 1342.51 1877.92 C 1271.21 1876.94 1199.91 1877.01 1128.62 1878.12 C 1122.24 1880.05 1102.1 1879.74 1094.02 1879.82 C 1006.41 1880.78 918.611 1879.84 830.992 1879.49 C 813.201 1879.41 797.193 1880.28 779.713 1877.01 L 620.486 1876.91 C 565.458 1876.11 510.424 1875.77 455.391 1875.89 C 451.995 1876.41 427.942 1877.73 423.773 1877.86 C 392.492 1878.88 359.623 1877.62 328.32 1878.05 C 303.71 1878.4 279.874 1879.36 255.222 1876.88 C 251.079 1876.47 233.864 1876.76 231.993 1876.24 C 222.516 1873.64 198.494 1867.22 191.891 1861.35 z" fill="none" transform="translate(0,0)"></path>
<path d="M 1911.87 1740.63 C 1929.47 1761.83 1887.03 1826.49 1867.36 1840.25 C 1841.6 1858.27 1811.32 1876.24 1778.64 1878.06 C 1770.41 1878.38 1748.33 1876.76 1741.88 1879.16 C 1746.8 1879.23 1766.11 1878.6 1769.14 1879.46 C 1754.73 1878.92 1742.91 1881.84 1728.03 1881.66 C 1718.67 1881.55 1709.43 1880.55 1700.39 1880.57 L 1621.79 1881.1 C 1609.39 1881.23 1574.96 1883.09 1564.66 1877.96 C 1578.15 1877.24 1593.01 1877.87 1606.75 1877.69 L 1699.88 1876.85 C 1736.83 1876.84 1768.11 1878.37 1804.94 1868.24 C 1858.63 1853.47 1915.83 1800.89 1911.87 1740.63 z" fill="currentColor" transform="translate(0,0)"></path>
<path d="M 779.713 1877.01 C 839.438 1875.39 900.733 1877.8 960.573 1877.88 L 1048.4 1877.75 C 1073.8 1877.47 1103.22 1876.89 1128.62 1878.12 C 1122.24 1880.05 1102.1 1879.74 1094.02 1879.82 C 1006.41 1880.78 918.611 1879.84 830.992 1879.49 C 813.201 1879.41 797.193 1880.28 779.713 1877.01 z" fill="currentColor" transform="translate(0,0)"></path>
<path d="M 191.891 1861.35 L 192.888 1861.55 C 203.837 1863.92 218.849 1869.97 228.944 1871.32 C 248.64 1873.95 271.762 1873.95 291.79 1874.24 C 323.542 1874.75 355.298 1875.01 387.055 1875.02 L 433.195 1875.27 C 438.279 1875.32 451.044 1875.21 455.391 1875.89 C 451.995 1876.41 427.942 1877.73 423.773 1877.86 C 392.492 1878.88 359.623 1877.62 328.32 1878.05 C 303.71 1878.4 279.874 1879.36 255.222 1876.88 C 251.079 1876.47 233.864 1876.76 231.993 1876.24 C 222.516 1873.64 198.494 1867.22 191.891 1861.35 z" fill="currentColor" transform="translate(0,0)"></path>
<path d="M 1342.51 1877.92 C 1364.92 1875.55 1409.98 1877.54 1433.26 1877.56 C 1461.28 1877.58 1495.11 1876.65 1522.55 1878 C 1500.35 1884.87 1372.16 1880.48 1342.51 1877.92 z" fill="currentColor" transform="translate(0,0)"></path>
<path d="M 293.64 1644.41 C 381.587 1648.28 413.347 1732.44 348.188 1792.02 C 323.355 1814.73 283.892 1830.37 249.761 1828.61 C 222.778 1826.17 201.596 1821.86 180.529 1803.39 C 161.573 1786.76 153.849 1762.85 158.865 1738.27 C 167.526 1695.82 204.822 1664.4 244.727 1651.77 C 261.181 1646.52 276.594 1645.06 293.64 1644.41 z" fill="currentColor" transform="translate(0,0)"></path>
<path d="M 280.795 1657.44 C 392.341 1649.79 402.169 1797.81 262.705 1814.94 C 135.45 1818.95 150.008 1670.42 280.795 1657.44 z" fill="none" transform="translate(0,0)"></path>
<path d="M 281.27 1671.51 C 298.977 1672.59 313.516 1674.73 328.048 1686.08 C 339.126 1694.56 346.192 1707.26 347.566 1721.15 C 352.226 1766.94 302.746 1794.43 263.105 1798.01 C 156.084 1799.56 178.882 1677.9 281.27 1671.51 z" fill="currentColor" transform="translate(0,0)"></path>
<path d="M 271.16 1704.12 C 278.347 1704.8 282.955 1708.88 284.649 1715.91 C 284.165 1719.44 284.214 1719.19 281.774 1721.81 C 274.326 1724.48 274.253 1717.59 267.687 1717.17 C 263.78 1723.41 269.22 1733.91 272.364 1739.82 C 276.705 1741.32 280.893 1742.27 284.268 1745.22 C 285.929 1748.71 285.774 1746.98 285.045 1750.54 C 282.292 1754.39 278.649 1756.09 274.551 1758.61 L 263.05 1765.99 C 246.045 1761.48 233.596 1748.31 240.255 1729.12 C 244.397 1717.17 259.941 1708.85 271.16 1704.12 z" fill="currentColor" transform="translate(0,0)"></path>
<path d="M 1373.96 996.775 C 1377.15 996.639 1378.23 996.375 1381.25 997.531 C 1386.04 1002.62 1388.04 1019.18 1390.46 1026.97 C 1393.32 1037.65 1398.22 1048.76 1400.56 1059.51 C 1410.9 1107.07 1425.95 1154.5 1435.81 1202.04 L 1456.73 1303.56 C 1461.38 1326.78 1466.38 1350.07 1470.54 1373.42 C 1471.71 1380.04 1475.63 1388.26 1477.21 1395.07 C 1479.19 1403.56 1481.26 1403.45 1476.81 1411.72 C 1475.22 1411.38 1470.6 1410.42 1469.82 1409.44 C 1459.14 1391.58 1453.37 1357.43 1449.59 1337.39 C 1431.34 1240.55 1411.13 1144.72 1383.97 1049.95 C 1380.94 1039.39 1368.18 1005.33 1373.96 996.775 z" fill="currentColor" transform="translate(0,0)"></path>
<path d="M 870.302 992.739 C 874.796 993.346 873.525 992.595 876.89 995.074 C 880.534 1004.05 862.019 1039.46 857.674 1049.8 L 802.669 1179.85 C 789.459 1211.25 776.099 1240.65 766.993 1273.54 C 762.634 1289.28 756.404 1304.52 752.633 1320.62 C 748.549 1338.05 744.348 1355.51 739.625 1372.75 C 738.874 1375.3 736.492 1377.22 734.486 1378.82 C 731.232 1378.28 731.167 1378.17 728.116 1376.82 C 727.206 1375.57 725.95 1374.52 726.254 1372.98 C 746.582 1269.98 789.991 1172.9 833.134 1077.83 C 841.648 1059.07 860.51 1003.6 870.302 992.739 z" fill="currentColor" transform="translate(0,0)"></path>
<path d="M 486.212 1704.16 C 543.078 1699.5 543.872 1762.05 486.268 1773.91 C 461.482 1773.22 452.619 1772.11 441.559 1748.06 C 444.63 1720.19 460.947 1710.45 486.212 1704.16 z" fill="currentColor" transform="translate(0,0)"></path>
<path d="M 484.796 1717.08 C 523.567 1714.71 521.483 1752.04 487.2 1760.47 C 450.932 1762.66 448.765 1729.05 484.796 1717.08 z" fill="none" transform="translate(0,0)"></path>
<path d="M 1232.13 1164.59 C 1236.01 1164.78 1241.15 1164.86 1242.25 1169.43 C 1249.95 1201.36 1254.05 1238.49 1253.66 1271.23 C 1253.41 1292.29 1250.91 1312.93 1249.66 1333.52 C 1248.52 1352.26 1248.92 1379.97 1242.4 1396.83 C 1237.43 1397.84 1235.99 1398.51 1231.84 1395.37 C 1227.95 1386.76 1232.87 1373.97 1233.4 1364.58 C 1236.09 1317.53 1242.23 1278.7 1238.88 1230.65 C 1237.84 1215.76 1228.49 1175.51 1232.13 1164.59 z" fill="currentColor" transform="translate(0,0)"></path>
<path d="M 700.381 1234.42 C 703.677 1235.65 707.311 1236.8 710.667 1237.94 C 678.988 1295.43 644.185 1348.24 622.906 1411.13 C 620.428 1418.46 617.554 1425.76 612.241 1431.48 C 607.723 1432.13 605.872 1432.97 603.138 1428.99 C 602.588 1421.6 609.893 1405.91 612.926 1398.48 C 636.492 1341 665.792 1286.03 700.381 1234.42 z" fill="currentColor" transform="translate(0,0)"></path>
<path d="M 911.166 1594.47 L 922.624 1594.34 C 922.883 1604.2 922.94 1614.24 923.088 1624.11 C 945.281 1601.11 970.841 1630.15 953.969 1658.61 C 934.908 1675.83 930.898 1658.21 923.001 1661.01 L 922.745 1664.52 C 920.112 1665.83 914.275 1665.07 911.049 1664.91 C 911.478 1641.51 910.423 1617.93 911.166 1594.47 z" fill="currentColor" transform="translate(0,0)"></path>
<path d="M 932.878 1625.03 C 952.921 1626.87 951.29 1649.38 936.977 1657.08 C 916.304 1655.61 919.235 1631.41 932.878 1625.03 z" fill="none" transform="translate(0,0)"></path>
<path d="M 1103.89 1229.11 C 1107.53 1228.77 1110.09 1228.17 1113.52 1229.37 C 1115.66 1233.34 1115.89 1243.37 1115.92 1248.09 C 1116.07 1278.25 1114.89 1308.46 1113.85 1338.59 C 1113.78 1340.85 1112.08 1343.57 1110.9 1345.43 C 1105.59 1346.54 1103.84 1346.39 1100.47 1342.2 C 1100.1 1321.77 1101.84 1298.3 1102.55 1277.64 C 1102.91 1267.17 1102.31 1237.79 1103.89 1229.11 z" fill="currentColor" transform="translate(0,0)"></path>
<path d="M 1020.84 1508.81 C 1026.72 1509.15 1025.67 1508.68 1028.76 1513 L 1032.5 1511.35 C 1041.27 1507.48 1050.54 1507.34 1054.33 1517.08 C 1059.42 1530.17 1055.54 1544.96 1042.81 1550.83 C 1036.86 1551.02 1034.09 1549.58 1028.84 1547.02 L 1029.02 1562.51 L 1027.56 1563.7 C 1024.12 1563.78 1023.96 1564.04 1020.88 1562.31 C 1019.91 1555.62 1020.78 1518.36 1020.84 1508.81 z" fill="currentColor" transform="translate(0,0)"></path>
<path d="M 1036.31 1514.81 C 1051.58 1515.9 1050.92 1536.23 1040.85 1543.93 L 1039.69 1543.9 C 1022.55 1543.34 1026.21 1523.28 1036.31 1514.81 z" fill="none" transform="translate(0,0)"></path>
<path d="M 1063.11 1594.22 C 1067.59 1593.88 1068.22 1593.75 1072.55 1594.57 C 1074.58 1597.88 1073.03 1632.31 1073.05 1639.38 C 1078.42 1633.36 1081.84 1627 1087.24 1621.3 C 1092.3 1615.95 1095.66 1616.77 1102.62 1616.92 C 1096.86 1624.28 1091.19 1632.45 1085.37 1640.03 C 1090.06 1647.08 1092.49 1650.34 1098.05 1656.7 C 1100.08 1659.07 1102.16 1660.78 1102.39 1663.73 C 1099.17 1665.64 1095.28 1664.96 1090.98 1665.03 C 1084.13 1657.19 1078.5 1647.18 1073.1 1638.21 L 1073.02 1664.5 L 1062.17 1664.5 C 1062.38 1651.21 1060.89 1604.08 1063.11 1594.22 z" fill="currentColor" transform="translate(0,0)"></path>
<path d="M 768.791 1104.63 C 770.868 1105.87 770.457 1105.7 772.212 1107.47 C 772.859 1112.68 748.819 1154.91 745.063 1162.55 C 739.14 1174.62 731.433 1190.13 724.483 1201.91 C 723.448 1203.66 719.28 1205.38 717.301 1206.22 C 709.833 1198.46 716.973 1188.83 722.059 1180.75 C 733.015 1163.32 752.685 1113.4 768.791 1104.63 z" fill="currentColor" transform="translate(0,0)"></path>
<path d="M 1020.47 1056.81 C 1025.93 1056.89 1027.56 1056.22 1030.04 1061.33 C 1029.02 1064.85 1022.79 1079.97 1021.12 1082.51 C 1012.67 1095.35 1000.13 1142.48 991.827 1150.22 C 988.475 1150.09 981.857 1148.31 983.225 1144.37 C 988.819 1128.28 1010.53 1066.74 1020.47 1056.81 z" fill="currentColor" transform="translate(0,0)"></path>
<path d="M 1121.08 1509.09 C 1138.69 1507.84 1147.01 1518.66 1142.58 1536.64 C 1140.9 1543.46 1135.76 1546.83 1129.63 1549.85 C 1125.94 1550.11 1122.68 1550.47 1119.12 1549.29 C 1114.59 1547.76 1110.85 1544.47 1108.75 1540.17 C 1102.42 1527.41 1108.99 1515.03 1121.08 1509.09 z" fill="currentColor" transform="translate(0,0)"></path>
<path d="M 1121.75 1515.83 C 1139.88 1515.76 1139.91 1535.26 1129.23 1543.15 C 1111.31 1543.67 1110.73 1525.39 1121.75 1515.83 z" fill="none" transform="translate(0,0)"></path>
<path d="M 981.679 1617.18 C 1016.8 1614.84 1006.29 1638.8 1008.26 1664.45 C 999.374 1664.95 1001.4 1665.17 995.317 1660.35 C 994.431 1661.05 993.532 1661.73 992.619 1662.4 C 987.87 1665.85 983.501 1666.58 977.562 1665.38 C 973.189 1664.51 969.409 1661.78 967.2 1657.91 C 964.072 1652.49 964.916 1648.23 966.321 1642.51 C 968.347 1639.22 971.89 1634.07 976.054 1635.19 C 979.822 1641.72 973.93 1653.41 982.674 1658.22 C 989.158 1658.01 991.428 1655.21 996.253 1650.97 C 996.369 1643.31 997.972 1629.41 991.038 1624.85 C 983.472 1623.98 974.217 1631.57 966.121 1626.46 L 966.236 1624.8 C 971.064 1620.45 975.459 1618.62 981.679 1617.18 z" fill="currentColor" transform="translate(0,0)"></path>
<path d="M 1224.39 1022.49 C 1236.36 1022.68 1236.98 1030.46 1236.92 1041 C 1236.85 1053.45 1248.31 1110.61 1245.25 1116.43 C 1242.12 1116.8 1235.81 1117.54 1234.64 1113.48 C 1230.36 1098.51 1229.16 1080.19 1227.23 1064.68 C 1225.7 1052.39 1222.23 1034.03 1224.39 1022.49 z" fill="currentColor" transform="translate(0,0)"></path>
<path d="M 865.992 1508.94 C 870.229 1508.7 870.828 1508.46 874.672 1509.9 C 877.056 1512.62 877.463 1513.35 880.729 1515.1 C 882.502 1513.84 884.324 1512.65 886.192 1511.54 C 890.879 1508.78 893.349 1507.56 898.519 1508.94 C 906.387 1514.55 904.6 1527.08 905.048 1535.83 C 905.305 1540.86 906.455 1550.14 900.047 1550.38 C 892.003 1545.01 901.002 1527.88 896.39 1519.5 C 895.192 1517.33 893.133 1515.46 890.548 1515.17 C 888.375 1514.92 886.663 1515.6 885.208 1517.24 C 880.867 1522.12 881.066 1529.66 881.13 1535.75 C 881.31 1541.19 882.626 1546.35 877.734 1549.76 L 875.99 1549.19 C 870.59 1540.19 879.789 1506.41 861.219 1517.34 C 854.167 1527.6 862.016 1545.42 855.033 1550.17 C 851.905 1549.43 853.078 1550.31 851.131 1548 C 850.052 1542.77 850.247 1537.21 850.507 1531.87 C 850.816 1525.52 847.575 1514.37 853.302 1510.54 L 856.157 1511.14 L 857.486 1514.03 L 859.25 1514.09 C 861.981 1511.41 862.701 1511 865.992 1508.94 z" fill="currentColor" transform="translate(0,0)"></path>
<path d="M 973.118 1184.65 C 977.412 1184.64 979.461 1183.92 981.085 1188.15 C 978.703 1199.71 973.251 1213.56 969.743 1225.2 C 966.456 1236.11 963.715 1260.85 956.78 1268.12 C 953.866 1267.6 952.717 1267.14 949.944 1266.19 C 948.629 1264.75 947.652 1264.28 947.997 1261.91 C 950.602 1243.96 961.882 1197.12 973.118 1184.65 z" fill="currentColor" transform="translate(0,0)"></path>
<path d="M 926.182 1509.12 C 943.132 1507.35 947.687 1513.67 948.4 1531.13 C 948.641 1537.01 948.513 1543.63 947.148 1549.37 C 941.685 1553.6 941.08 1546.81 938.664 1547.52 C 928.69 1550.44 925.816 1555.33 915.557 1545.66 C 908.242 1522.69 932.938 1528.63 940.034 1521.59 L 939.879 1519.65 C 931.649 1511.91 925.79 1519.55 916.203 1517.92 L 915.997 1515.15 C 919.54 1511.44 921.439 1510.91 926.182 1509.12 z" fill="currentColor" transform="translate(0,0)"></path>
<path d="M 934.015 1530.22 C 938.5 1529.79 938.84 1529.75 940.67 1533.43 C 940.296 1540.77 935.905 1543.62 929.579 1545.64 C 925.205 1543.89 923.815 1543.25 922.053 1538.83 C 922.909 1531.56 927.768 1531 934.015 1530.22 z" fill="none" transform="translate(0,0)"></path>
<path d="M 1065.04 1491.19 C 1066.55 1491.14 1070.93 1490.83 1071.62 1492.03 C 1074.67 1497.31 1073.03 1508.79 1073.01 1515.03 C 1102.01 1491.25 1101.38 1544.08 1095.37 1550.94 L 1093.5 1550.99 C 1087.48 1546.42 1089.89 1535.3 1089.95 1527.75 C 1089.6 1523.62 1089.69 1523.23 1087.96 1519.57 C 1086.37 1518.21 1083.21 1516.43 1081.06 1516.57 C 1067.23 1517.46 1076.35 1544.79 1071.4 1549.9 C 1066.83 1550 1068.67 1550.7 1065.34 1548.73 C 1063.93 1545.43 1064.89 1498.9 1065.04 1491.19 z" fill="currentColor" transform="translate(0,0)"></path>
<path d="M 1208.3 1509.01 C 1219.94 1508.6 1232.03 1515.91 1227.38 1528.68 C 1218.74 1535.55 1205.6 1525.15 1202.42 1534.33 C 1204.11 1544.14 1212.56 1544.49 1220.78 1543.4 C 1223.73 1542.79 1222.34 1542.65 1225.09 1543.75 L 1225.59 1545.66 C 1224.3 1547.57 1224.62 1547.85 1222.42 1548.71 C 1202.92 1556.37 1187.99 1537.93 1196.18 1519.52 C 1199.21 1512.72 1202.17 1511.59 1208.3 1509.01 z" fill="currentColor" transform="translate(0,0)"></path>
<path d="M 1207.03 1514.93 C 1212.52 1514.88 1222.58 1517.48 1219.94 1524.71 L 1217.25 1525.24 C 1212.63 1525.35 1204.69 1526.87 1202.72 1522.33 C 1203.44 1518.97 1204.91 1517.63 1207.03 1514.93 z" fill="none" transform="translate(0,0)"></path>
<path d="M 820.179 1493.11 C 825.917 1492.83 841.821 1490.66 838.193 1501.74 C 834.08 1502.97 818.951 1495.86 815.77 1505.59 C 812.091 1516.84 839.164 1519.6 840.39 1531.29 C 841.608 1542.92 836.179 1548.35 825.625 1550.83 C 818.586 1551.04 807.128 1551.11 807.081 1542.2 C 810.226 1538.37 829.066 1549 831.559 1538.25 C 834.829 1524.14 780.34 1508.75 820.179 1493.11 z" fill="currentColor" transform="translate(0,0)"></path>
<path d="M 1035.49 1617.17 C 1041.3 1616.85 1046.62 1616.38 1051.8 1619.25 C 1053.09 1622.35 1052.88 1620.71 1051.87 1624.37 C 1045.68 1630.32 1036.65 1619.45 1029.29 1632.94 C 1026.85 1637.39 1026.38 1642.66 1027.98 1647.48 C 1029.26 1651.29 1032.05 1654.4 1035.69 1656.11 C 1040.95 1658.51 1047.21 1657.65 1052.42 1655.53 C 1053.46 1658.78 1053.89 1659.23 1053.42 1662.63 C 1049.32 1666.86 1034.19 1666.99 1029.22 1664.12 C 1007.66 1651.67 1012.79 1624.33 1035.49 1617.17 z" fill="currentColor" transform="translate(0,0)"></path>
<path d="M 1168.96 1509 C 1170.68 1508.97 1174.8 1508.86 1176.26 1509.37 C 1188.22 1513.49 1186.61 1540.34 1184.17 1549.32 C 1181.33 1550.24 1182.75 1550.04 1179.83 1549.49 C 1173.68 1541.66 1183.53 1524.85 1173.56 1517.16 C 1169.86 1516.02 1168.9 1516.38 1165.11 1517.21 C 1155.89 1525.97 1163.26 1538.13 1158.79 1548.63 C 1156.02 1550.58 1157.57 1550.1 1153.89 1549.75 C 1152.19 1545.91 1152.91 1520.81 1152.54 1515.02 C 1152.35 1512.03 1153.13 1511.15 1154.88 1509.53 C 1157.71 1509.26 1157.51 1509.29 1160.06 1510.6 C 1160.28 1513.32 1160.14 1512.77 1160.91 1515.39 C 1163.6 1513.28 1166.29 1511.15 1168.96 1509 z" fill="currentColor" transform="translate(0,0)"></path>
<path d="M 993.085 1498.12 C 997.3 1497.95 999.099 1497.27 1001.06 1501.27 C 1000.61 1503.99 999.989 1505.76 1001.01 1508.27 C 1004.42 1510.89 1005.86 1510.35 1010.5 1510.71 C 1012.8 1513.4 1011.89 1511.84 1012.47 1516.01 C 1010.64 1517.41 1006.89 1515.77 1002.14 1516.32 C 999.977 1520.04 1000.65 1537.03 1002.48 1541.18 C 1005.87 1543.97 1008 1543.51 1012.81 1544.12 L 1014.32 1547.31 C 1011.32 1550.38 1009.69 1551.84 1005.11 1551.61 C 985.69 1550.63 998.164 1522.55 992.433 1516.11 C 989.512 1516.17 988.332 1516.41 985.596 1515.28 C 984.736 1512.35 984.656 1513.73 985.685 1510.98 C 989.03 1510.17 988.888 1510.24 991.805 1508.43 C 993.9 1505.46 993.227 1501.89 993.085 1498.12 z" fill="currentColor" transform="translate(0,0)"></path>
<path d="M 959.204 1509.07 C 965.883 1509.39 964.814 1509.89 968.965 1514.67 C 972.473 1511.23 974.955 1507.65 979.763 1510.1 C 979.762 1518.54 969.008 1515.9 967.464 1529.57 C 967.469 1535.34 968.062 1544.86 966.23 1549.83 C 963.147 1550.46 964.614 1550.67 961.737 1548.88 C 957.999 1541.74 960.254 1521.05 959.341 1510.55 L 959.204 1509.07 z" fill="currentColor" transform="translate(0,0)"></path>
<path d="M 1668.99 1892.68 C 1671.44 1893.02 1671.64 1893.24 1673.94 1894.27 C 1675.72 1897.58 1675.02 1897.76 1674.92 1902.14 C 1670.51 1899.2 1669.91 1897.59 1668.99 1892.68 z" fill="currentColor" transform="translate(0,0)"></path>
<path d="M 539.725 1901.16 C 543.693 1903.36 543.787 1907.69 544.256 1911.75 L 540.728 1909.86 C 538.592 1906.06 539.415 1906.39 539.725 1901.16 z" fill="currentColor" transform="translate(0,0)"></path>
<path d="M 1524.4 112.529 C 1572.76 111.067 1623.39 111.985 1671.93 111.849 C 1717.02 111.722 1768.46 129.75 1800.12 162.504 C 1807.49 170.136 1816.52 182.886 1818.86 193.448 C 1824.6 219.299 1827.65 247.22 1831.81 273.427 C 1837.47 309.081 1842.8 344.936 1848.47 380.525 L 1877.03 562.5 C 1888.1 629.531 1917.36 716.973 1858.25 768.278 C 1813.23 807.366 1756.2 809.937 1700.09 809.95 L 1617.65 809.896 L 1313.59 810.281 L 756.917 814.744 L 606.964 815.072 C 590.322 815.046 571.969 816.063 555.746 815.451 L 422.773 818.253 C 352.538 820.181 270.695 826.044 215.036 774.334 C 168.49 731.09 185.249 673.373 197.136 618.991 L 209.82 558.785 L 260.697 328.349 C 268.179 295.241 275.19 257.958 283.118 225.714 C 296.286 172.156 371.43 136.386 421.862 129.319 C 457.73 124.293 503.042 125.511 540.505 125.091 C 610.673 123.833 680.847 122.989 751.025 122.559 L 1524.4 112.529 z" fill="currentColor" transform="translate(0,0)"></path>
<path d="M 771.178 131.073 C 791.717 131.579 815.531 130.8 836.254 130.582 L 982.702 128.565 L 1459.98 123.49 L 1600.57 122.389 C 1663.8 121.628 1723.05 115.298 1776.05 156.506 C 1790.28 167.572 1803.14 183.915 1806.94 201.847 C 1811.87 225.078 1814.38 248.895 1817.82 272.307 L 1836.24 392.498 L 1862.98 564.144 C 1871.75 619.764 1892.08 664.527 1830.13 697.582 C 1774.44 727.293 1726.07 722.968 1664.93 722.626 C 1631.7 722.515 1598.48 722.571 1565.26 722.797 L 1175.96 725.106 L 610.5 731.236 L 412.889 733.103 C 350.141 733.521 266.068 744.524 218.636 693.121 C 212.972 687.413 202.301 670.678 203.398 662.877 C 216.07 572.761 242.674 468.305 262.001 380.913 L 282.083 286.635 C 288.48 256.457 292.962 217.84 313.68 194.424 C 368.076 132.945 445.783 135.286 519.753 134.815 L 644.002 133.254 C 671.289 132.947 703.498 133.488 730.345 130.984 C 740.932 124.45 756.619 133.703 769.143 126.69 L 769.955 127.056 L 771.178 131.073 z" fill="none" transform="translate(0,0)"></path>
<path d="M 730.345 130.984 C 740.932 124.45 756.619 133.703 769.143 126.69 L 769.955 127.056 L 771.178 131.073 C 757.846 130.71 743.96 131.285 730.345 130.984 z" fill="currentColor" transform="translate(0,0)"></path>
<path d="M 1578.27 141.483 C 1639.88 141.198 1712.72 131.376 1763.2 174.208 C 1792.71 199.249 1791.74 242.535 1797.02 279.163 L 1818.94 428.821 C 1824.96 469.444 1831.29 510.252 1837.43 550.899 C 1839.87 572.535 1847.12 599.191 1848.11 620.529 C 1849.94 662.97 1794.85 695.215 1757.97 698 C 1715.32 701.22 1670.41 699.859 1627.62 699.898 L 1388.4 700.858 C 1180.77 701.484 973.149 703.417 765.546 706.657 C 676.376 707.606 587.214 709.211 498.067 711.47 C 472.003 712.407 447.631 712.657 420.541 713.268 C 363.959 714.567 297.173 723.674 249.413 686.223 C 223.991 666.289 235.866 632.532 241.298 606.651 C 245.275 586.782 249.372 566.938 253.59 547.119 C 270.799 463.131 288.822 379.311 307.657 295.672 C 312.171 275.356 315.527 247.486 321.179 228.589 C 333.372 187.827 391.69 162.775 429.599 157.265 C 448.904 154.459 469.238 155.049 488.118 154.906 L 553.784 154.135 L 753.017 152.013 L 1269 145.293 L 1433.16 143.232 C 1481.53 143.02 1529.91 142.437 1578.27 141.483 z" fill="currentColor" transform="translate(0,0)"></path>
<path d="M 1738.08 308.95 C 1747.98 307.536 1752.2 310.665 1753.68 320.537 C 1761.25 370.837 1768.86 421.309 1775.54 471.703 C 1775.87 474.176 1772.35 477.112 1770.69 478.651 C 1763.44 479.491 1755.6 479.177 1754.24 470.236 C 1748.66 433.621 1743.33 396.932 1737.91 360.289 C 1735.68 345.167 1733.09 329.421 1732.94 314.162 C 1732.92 312.081 1736.5 310.043 1738.08 308.95 z" fill="none" transform="translate(0,0)"></path>
<path d="M 348.712 391.935 C 349.006 391.93 349.301 391.905 349.596 391.92 C 352.666 392.082 356.706 393.062 358.663 395.6 C 361.681 399.514 352.137 443.365 349.956 450.282 C 348.514 454.857 344.984 456.008 341.064 458.11 C 336.373 458.962 335.251 458.92 331.882 455.849 C 329.064 448.093 337.299 406.897 339.956 397.651 C 342.646 395.765 345.916 393.756 348.712 391.935 z" fill="none" transform="translate(0,0)"></path>
<path d="M 1369.07 559.51 C 1375.84 562.241 1377.45 564.911 1381.13 571.561 L 1380.47 573.123 C 1377.6 574.586 1375.41 575.279 1373.69 577.939 C 1374.06 581.084 1377.58 585.706 1379.99 587.521 C 1383.99 586.916 1388.11 585.373 1390.57 589.013 L 1389.61 591.263 C 1385.13 590.047 1381.66 591.625 1377.14 592.944 C 1369.41 589.695 1372.07 582.174 1367.51 576.868 C 1364.73 576.492 1362.75 576.523 1360.47 574.938 C 1360.85 571.513 1366.71 563.544 1369.07 559.51 z" fill="currentColor" transform="translate(0,0)"></path>
<path d="M 1401.87 517.95 L 1400.48 517.853 C 1398.02 513.735 1397.93 517.808 1394.12 511.393 C 1394.41 507.599 1393.73 509.173 1395.9 506.378 L 1397.55 507.159 C 1398.87 509.311 1399.91 510.03 1399.62 511.929 L 1397.19 509.727 L 1396.08 509.828 L 1396.3 512.817 C 1404.2 514.06 1411.1 499.414 1419.85 503.518 L 1420.59 505.695 L 1419.45 507.254 L 1415.54 507.494 C 1416.07 512.963 1418.17 510.551 1421 515.251 C 1421.88 518.945 1422.29 519.398 1424.59 522.47 C 1423.15 526.821 1421.64 526.672 1417.31 527.231 C 1414.71 525.582 1415.88 526.447 1414.23 523.109 C 1412.13 523.456 1412.24 523.276 1410.04 523.046 L 1409.31 521.497 L 1410.61 519.502 L 1407.63 520.427 L 1407.05 518.931 L 1401.87 517.95 z" fill="currentColor" transform="translate(0,0)"></path>
<path d="M 1260.26 587.074 C 1252.78 587.275 1255.56 587.867 1249.31 592.099 L 1248.32 591.9 L 1246.38 583.865 C 1242.06 582.43 1243.67 583.672 1241.07 580.451 L 1241.2 578.048 C 1243.71 576.367 1242.35 576.793 1245.45 576.829 L 1247.5 578.089 C 1252.21 575.059 1253.51 571.111 1257.53 569.903 C 1262.78 573.259 1256.95 579.686 1265.94 577.18 C 1267.99 581.316 1265.93 585.144 1262.71 588.043 C 1262.25 587.975 1260.76 587.287 1260.26 587.074 z" fill="currentColor" transform="translate(0,0)"></path>
<path d="M 1364 595.541 C 1371.11 594.072 1372.02 601.615 1367.39 606.043 C 1363.33 605.951 1363.54 602.986 1357.93 601.423 C 1355.78 603.111 1356.67 602.052 1355.91 605.224 C 1357.65 607.395 1358.26 606.832 1361.79 607.575 L 1362.98 609.432 C 1362.15 613.644 1362.27 613.469 1363.4 617.707 C 1360.27 618.261 1357.11 616.65 1354.29 615.31 C 1352.8 608.408 1346.44 605.969 1348.51 601.167 C 1354.48 598.925 1356.86 596.426 1361.61 597.658 L 1364 595.541 z" fill="currentColor" transform="translate(0,0)"></path>
<path d="M 1412.52 568.706 L 1412.58 566.909 C 1412.73 561.172 1411.05 561.361 1413.65 558.029 L 1415.17 558.074 C 1415.38 560.308 1415.36 560.151 1414.54 562.256 C 1418.24 562.053 1421.78 561.309 1424.37 563.533 C 1423.55 567.608 1420.46 569.178 1420.53 569.84 C 1420.91 573.531 1423.83 582.827 1424.24 586.124 C 1419.32 589.003 1418.38 585.667 1412.05 589.314 C 1409.86 588.036 1410.59 588.948 1409.79 586.642 C 1412.18 582.82 1416.79 578.418 1417.14 575.371 C 1415.72 572.889 1415.62 572.943 1413.51 570.958 C 1414.26 568.722 1414.36 568.819 1415.92 566.999 L 1415.01 566.345 C 1413.95 567.257 1413.4 567.628 1412.52 568.706 z" fill="currentColor" transform="translate(0,0)"></path>
<path d="M 1248.46 544.788 L 1248.91 544.662 L 1250.22 545.535 L 1250.23 547.129 C 1254.2 549.729 1260.24 553.483 1257.62 558.829 C 1253.12 561.15 1254.87 560.522 1249.43 560.336 C 1246.04 556.176 1242.7 555.836 1237.33 552.511 C 1237.84 550.312 1238.49 548.261 1239.15 546.107 C 1241.52 545.186 1242.82 546.114 1245.88 546.849 L 1248.46 544.788 z" fill="currentColor" transform="translate(0,0)"></path>
<path d="M 1403.84 594.946 C 1399.56 594.91 1397.43 593.395 1393.45 591.598 C 1393.21 592.484 1392.98 593.37 1392.75 594.256 L 1392.53 595.274 C 1391.98 591.392 1391.8 581.047 1393.78 578.049 C 1396.82 576.827 1402.48 576.687 1404.97 578.695 C 1403.94 579.57 1400.73 581.707 1401.4 583.413 L 1404.74 583.808 C 1408.31 587.967 1407.23 588.854 1405.26 593.891 L 1403.84 594.946 z" fill="currentColor" transform="translate(0,0)"></path>
<path d="M 1475.54 620.215 C 1477.95 620.674 1477.59 620.934 1479.86 622.629 L 1480.19 625.146 C 1477.58 629.193 1469.02 632.591 1464.1 635.076 L 1465.41 631.643 C 1464.74 629.662 1464.1 629.259 1462.79 627.613 C 1461.79 628.923 1461.29 629.129 1459.97 630.18 L 1457.66 629.678 C 1455.71 627.545 1454.35 625.398 1455.99 622.722 C 1458.07 623.554 1459.28 624.481 1461.05 625.842 C 1462.41 623.59 1462.69 622.419 1465.04 621.436 L 1468.98 623.137 C 1472.41 622.797 1472.71 622.196 1475.54 620.215 z" fill="currentColor" transform="translate(0,0)"></path>
<path d="M 1235.31 535.719 C 1232.01 531.889 1230.05 533.536 1228.16 528.499 L 1228.98 527.024 L 1232.43 526.183 L 1234.55 528.237 L 1236.17 526.477 C 1235.6 524.729 1235.21 523.27 1234.75 521.488 L 1236.01 520.327 L 1239 522.207 L 1240.5 521.464 C 1243.28 516.634 1242.95 515.341 1248.52 515.241 C 1248.79 517.912 1249.12 518.777 1248.32 521.329 C 1244.68 525.339 1243.4 524.91 1238.26 526.501 C 1239.36 530.28 1240.58 533.639 1241.9 537.347 L 1240.95 538.565 C 1238.6 538.121 1237.45 537.048 1235.31 535.719 z" fill="currentColor" transform="translate(0,0)"></path>
<path d="M 1106.68 527.403 C 1110.47 527.845 1108.93 527.114 1111.67 529.183 L 1110.65 532.344 C 1112.51 534.293 1112.8 534.25 1115.19 535.596 L 1115.68 538.098 C 1114.09 542.662 1114.06 542.864 1110.81 546.313 C 1109.77 547.708 1110.09 547.242 1108.43 548.165 L 1106.77 547.413 C 1103.82 543.012 1102.79 541.96 1101.36 537.005 C 1103.16 533.643 1101.86 534.952 1105.78 533.351 C 1106.6 531.213 1106.59 529.68 1106.68 527.403 z" fill="currentColor" transform="translate(0,0)"></path>
<path d="M 1717.3 549.333 C 1721.46 549.753 1722.61 549.175 1725.55 551.217 C 1725.3 554.272 1720.17 559.193 1717.63 562.382 L 1716.7 563.02 C 1714.23 563.254 1714.33 563.119 1711.98 562.214 C 1708.32 555.733 1712.07 552.722 1717.3 549.333 z" fill="currentColor" transform="translate(0,0)"></path>
<path d="M 1464.6 524.517 C 1470.24 527.914 1469.24 541.474 1466.07 546.772 C 1461.73 543.005 1459.39 535.719 1459.18 530.11 C 1460.86 526.164 1460.43 527.351 1464.6 524.517 z" fill="currentColor" transform="translate(0,0)"></path>
<path d="M 1303.51 605.337 C 1304.9 605.927 1305.61 606.444 1306.91 607.23 C 1307.33 618.405 1311.43 613.068 1312.76 619.684 C 1306.37 621.524 1309.19 618.024 1304.58 619.036 C 1301.49 622.598 1301.1 623.591 1296.86 625.1 C 1295.42 627.235 1294.14 629.012 1291.57 628.87 L 1291.09 627.086 C 1294.23 622.458 1298.19 622.684 1301.18 619.276 C 1303.6 616.529 1302.67 609.155 1303.51 605.337 z" fill="currentColor" transform="translate(0,0)"></path>
<path d="M 1360.71 463.231 C 1362.19 462.576 1363.15 463.051 1365.05 463.343 C 1370.32 468.064 1364.37 476.291 1367.05 481.751 L 1371 481.728 L 1372.11 483.004 L 1371.35 484.614 L 1368.23 485.4 C 1363.24 482.896 1364.83 483.673 1358.23 484.596 L 1360.61 481.627 C 1365.39 475.685 1364.01 472.956 1362.98 465.861 C 1361.09 464.525 1361.87 465.382 1360.71 463.231 z" fill="currentColor" transform="translate(0,0)"></path>
<path d="M 1118.54 383.981 L 1119.82 384.915 C 1121.4 394.184 1123.42 389.211 1129.97 393.629 L 1129.97 395.414 L 1128.03 396.237 C 1124.5 395.616 1123.4 395.631 1120.26 393.771 L 1119.92 393.162 C 1118.94 395.521 1118.48 397.323 1116.6 399.015 C 1115.21 395.689 1114.06 392.632 1113.09 389.152 C 1114.23 386.407 1116.03 385.652 1118.54 383.981 z" fill="currentColor" transform="translate(0,0)"></path>
<path d="M 1299.16 415.463 C 1300.13 415.626 1300.35 416.122 1301.35 416.961 C 1302.01 420.388 1301.38 419.483 1303.21 422.072 L 1304.19 418.696 L 1305.3 418.104 C 1307.67 423.61 1304.65 426.009 1300.24 428.468 L 1298.86 427.906 C 1296.42 423.501 1296.63 423.379 1291.69 421.947 C 1291.7 418.926 1291.48 419.923 1292.39 417.097 L 1296.87 417.987 L 1299.16 415.463 z" fill="currentColor" transform="translate(0,0)"></path>
<path d="M 1303.37 583.699 C 1305.12 583.705 1306.07 583.945 1307.81 584.22 C 1313.69 589.071 1310.24 593.253 1313.09 598.643 C 1313.99 600.36 1313.55 598.119 1314.62 602.09 L 1311.78 603.78 L 1310.04 603.162 C 1307.62 597.179 1304.85 589.958 1303.37 583.699 z" fill="currentColor" transform="translate(0,0)"></path>
<path d="M 1464.61 593.472 C 1468.25 594.952 1473.31 598.519 1474.82 602.298 C 1475.47 603.918 1474.36 605.443 1473.58 607.481 C 1465.13 609.911 1464.1 599.244 1464.61 593.472 z" fill="currentColor" transform="translate(0,0)"></path>
<path d="M 1475.12 508.078 C 1477.4 508.736 1476.69 508.404 1478.65 510.092 C 1478.29 512.137 1478.06 513.92 1477.82 515.983 C 1479.36 517.439 1480.01 517.229 1482.09 517.817 L 1481.68 519.358 L 1479.83 520.287 L 1477.86 518.552 L 1476.69 519.61 C 1473.63 521.245 1472.3 521.837 1469.06 520.712 L 1468.76 518.674 C 1471.05 513.192 1471.02 512.259 1475.12 508.078 z" fill="currentColor" transform="translate(0,0)"></path>
<path d="M 1688.7 555.46 L 1690.01 556.172 C 1691.76 559.817 1694.49 561.324 1694.75 565.324 C 1692.06 566.988 1693.59 566.454 1689.62 565.766 C 1687.13 565.804 1686.21 565.183 1683.76 564.337 C 1681.73 562.005 1682.28 563.371 1682.43 559.97 C 1684.71 556.609 1684.98 556.842 1688.7 555.46 z" fill="currentColor" transform="translate(0,0)"></path>
<path d="M 1557.28 416.498 C 1561.13 416.872 1566.75 417.61 1569.84 419.868 C 1571.23 422.969 1570.54 422.474 1569.08 426.84 C 1567.12 428.407 1568.2 427.822 1565.59 428.15 C 1563.58 426.76 1559.5 419.512 1557.28 416.498 z" fill="currentColor" transform="translate(0,0)"></path>
<path d="M 1479.51 609.436 C 1489.46 614.767 1490.2 608.795 1497.02 612.704 L 1496.74 614.433 C 1489.25 613.408 1482.87 619.225 1477.72 615.685 C 1477.33 612.629 1477.99 612.178 1479.51 609.436 z" fill="currentColor" transform="translate(0,0)"></path>
<path d="M 1201.58 517.79 C 1207.7 525.256 1201.66 522.691 1197.31 529.712 L 1195.51 529.637 C 1192.66 528.731 1191.7 528.637 1189.25 526.903 C 1189.78 524.289 1189.19 525.513 1191.92 523.58 L 1196.24 524.494 C 1198.07 520.722 1198.35 520.615 1201.58 517.79 z" fill="currentColor" transform="translate(0,0)"></path>
<path d="M 1316.53 416.887 C 1320.07 417.516 1321.39 417.033 1323.18 419.13 C 1321.17 421.606 1318.36 426.979 1316.79 428.042 L 1317 430.952 C 1315.93 432.358 1316.67 431.842 1314.58 432.163 C 1311.64 425.989 1311.75 426.072 1315.46 420.33 L 1315.98 421.103 L 1317.17 420.299 L 1316.53 416.887 z" fill="currentColor" transform="translate(0,0)"></path>
<path d="M 1351.09 515.093 L 1354.51 515.83 C 1355.28 518.59 1350.89 524.144 1351.16 532.825 C 1348.26 531.337 1347.29 530.731 1346.01 527.89 C 1346.12 523.929 1349.4 519.038 1351.09 515.093 z" fill="currentColor" transform="translate(0,0)"></path>
<path d="M 1406.33 583.028 C 1405.74 580.438 1405.68 580.603 1406.2 578.022 L 1408.91 576.922 C 1408.18 572.22 1406.01 569.465 1407.41 565.457 C 1410.38 565.584 1409.73 565.928 1412.52 568.706 C 1409.65 568.441 1410.58 567.944 1408.96 569.205 C 1408.9 572.785 1408.51 571.122 1410.32 574.341 C 1413.01 575.068 1413.15 574.904 1415.31 576.577 C 1412.67 581.608 1412.31 580.719 1406.33 583.028 z" fill="currentColor" transform="translate(0,0)"></path>
<path d="M 1248.52 515.241 L 1249.87 514.517 C 1251.55 513.603 1252.86 512.803 1254.47 511.799 L 1256.7 511.751 C 1258.69 514.051 1258.32 516.825 1258.46 519.987 L 1258.77 521.872 L 1257.43 522.727 C 1252.37 521.3 1251.03 519.595 1248.52 515.241 z" fill="currentColor" transform="translate(0,0)"></path>
<path d="M 1233.31 579.341 C 1234.01 579.744 1243.31 586.631 1243.42 586.773 L 1242.45 588.245 L 1239.42 588.334 L 1239.78 589.316 C 1239.61 592.147 1240.23 591.048 1238.26 592.878 L 1236.3 592.489 C 1233.71 588.512 1232.21 584.125 1233.31 579.341 z" fill="currentColor" transform="translate(0,0)"></path>
<path d="M 1398.39 597.42 C 1401.99 599.529 1401.68 599.741 1401.99 603.385 C 1400.68 606.281 1400.47 607.272 1398.05 609.41 C 1394.6 607.718 1393.63 605.57 1393.09 601.99 C 1394.8 598.499 1394.21 599.613 1398.39 597.42 z" fill="currentColor" transform="translate(0,0)"></path>
<path d="M 1523.66 533.836 C 1524.93 534.122 1526.79 534.747 1528.01 535.121 C 1527.46 548.163 1529.27 539.192 1535.08 547.915 C 1530.39 548.726 1528.95 549.076 1525.27 545.508 C 1523.13 541.088 1523.6 538.72 1523.66 533.836 z" fill="currentColor" transform="translate(0,0)"></path>
<path d="M 1311.38 501.844 C 1312.45 510.937 1306.47 511.979 1299.26 511.01 C 1299.41 508.274 1299.21 508.3 1300.68 506.052 C 1307.87 504.861 1305.46 504.351 1311.38 501.844 z" fill="currentColor" transform="translate(0,0)"></path>
<path d="M 1219.53 547.202 C 1222.34 548.041 1221.17 547.321 1223.2 549.433 C 1222.74 556.286 1218.37 556.536 1212.99 555.925 C 1212.18 555.668 1211.65 555.069 1210.9 554.46 L 1211.58 552.015 C 1213.5 550.878 1213.77 550.877 1215.93 550.671 L 1217.83 550.507 L 1219.53 547.202 z" fill="currentColor" transform="translate(0,0)"></path>
<path d="M 1480.06 589.581 C 1482.78 590.633 1481.78 589.767 1483.24 592.168 C 1481.41 599.181 1484.49 600.989 1484.03 608.648 C 1480.91 606.988 1481 607.083 1478.52 604.586 C 1477.14 598.972 1479.54 597.879 1479.95 591.444 L 1480.06 589.581 z" fill="currentColor" transform="translate(0,0)"></path>
<path d="M 1462.2 514.702 C 1463.22 518.851 1464.84 521.716 1460.97 524.373 C 1458.09 522.416 1459.34 523.731 1458.18 519.257 C 1456.45 522.948 1457.35 522.523 1454.44 524.066 L 1452.77 523.182 C 1451.98 519.853 1451.75 521.377 1453.35 518.443 C 1457.62 517.407 1458.61 517.171 1462.2 514.702 z" fill="currentColor" transform="translate(0,0)"></path>
<path d="M 1397.71 568.063 C 1400.24 568.895 1399.25 568.121 1400.66 570.409 C 1399.07 576.054 1396.82 577.508 1391.15 578.522 L 1389.76 577.782 L 1389.46 575.396 C 1391.58 571.777 1394.43 570.604 1397.71 568.063 z" fill="currentColor" transform="translate(0,0)"></path>
<path d="M 1468.35 564.17 C 1469.59 564.763 1469.97 565.205 1471.05 566.065 C 1471.47 570.918 1471.68 574.647 1470.35 579.298 L 1468.81 579.34 L 1466.56 576.204 L 1466.51 574.677 L 1465.17 573.44 L 1463.73 574.333 L 1463.58 573.395 C 1463.87 573.016 1464.15 572.637 1464.43 572.258 L 1465.48 572.589 L 1464.86 571.548 C 1465.96 569.88 1467.47 566.148 1468.35 564.17 z" fill="currentColor" transform="translate(0,0)"></path>
<path d="M 1409.29 546.127 C 1412.09 548.911 1413.7 552.567 1410.87 555.959 L 1409.4 554.923 L 1409.45 551.596 C 1406.35 553.858 1407.96 553.501 1404.71 553.481 C 1402.22 551.038 1402.8 552.472 1402.75 549.098 C 1405.22 545.867 1404.02 546.87 1409.29 546.127 z" fill="currentColor" transform="translate(0,0)"></path>
<path d="M 1378.39 273.517 C 1382.56 273.659 1382.13 273.035 1385.26 274.9 C 1384.49 278.412 1383.42 278.506 1380.51 281.627 C 1378.44 282.709 1378.59 282.636 1376.24 282.555 L 1375.08 281.014 C 1375.32 276.988 1375.72 276.813 1378.39 273.517 z" fill="currentColor" transform="translate(0,0)"></path>
<path d="M 1514.53 538.41 C 1519 540.301 1519.79 543.364 1522.19 547.985 L 1521.23 550.748 C 1517.11 549.712 1516.3 549.325 1513.86 546.047 C 1512.91 541.322 1512.95 543.19 1514.53 538.41 z" fill="currentColor" transform="translate(0,0)"></path>
<path d="M 1228.83 492.643 C 1232.04 494.328 1231.01 493.131 1232.55 495.845 C 1231.1 498.661 1227.84 499.923 1224.91 501.584 C 1222.05 499.296 1221.59 499.161 1220.95 496.26 C 1224.23 493.721 1224.93 495.523 1228.83 492.643 z" fill="currentColor" transform="translate(0,0)"></path>
<path d="M 1321.81 605.228 C 1328.81 607.506 1323.63 609.128 1329.53 612.723 L 1329.25 614.51 L 1325.4 616.261 C 1321.77 615.746 1323.23 616.566 1320.92 613.675 C 1320.32 609.266 1320.38 609.495 1321.81 605.228 z" fill="currentColor" transform="translate(0,0)"></path>
<path d="M 1222.6 481.145 L 1224.66 482.288 C 1226.75 485.719 1226.37 483.939 1226.06 487.767 C 1223.65 491.712 1223.4 491.772 1219.43 494.356 L 1217.99 493.005 C 1216.79 489.221 1218.6 490.655 1221.53 486.413 C 1221.53 486.413 1222.51 481.59 1222.6 481.145 z" fill="currentColor" transform="translate(0,0)"></path>
<path d="M 1110.78 652.381 L 1112.75 653.152 C 1114.57 656.126 1118.87 664.476 1118.58 667.809 L 1114.25 666.554 C 1112.01 663.461 1110.85 656.253 1110.78 652.381 z" fill="currentColor" transform="translate(0,0)"></path>
<path d="M 1543.95 519.479 C 1546.39 521.407 1546.92 522.677 1547.7 525.533 C 1547.06 529.006 1545.43 530.118 1542.95 532.683 C 1540.24 528.113 1541.16 523.522 1543.95 519.479 z" fill="currentColor" transform="translate(0,0)"></path>
<path d="M 1299.91 570.525 L 1302.17 570.493 C 1301.94 572.739 1301.3 578.399 1300.77 580.356 L 1299.47 580.433 C 1296.28 577.853 1293.92 576.237 1295.19 572.127 L 1299.91 570.525 z" fill="currentColor" transform="translate(0,0)"></path>
<path d="M 1584.09 414.85 C 1586.73 417.481 1590.34 424.462 1591.02 428.337 C 1583.75 427.629 1581.96 421.003 1584.09 414.85 z" fill="currentColor" transform="translate(0,0)"></path>
<path d="M 1117.21 368.219 C 1121.02 369.556 1119.53 368.447 1121.94 371.522 C 1122.88 375.409 1122.22 376.794 1121.34 380.851 C 1118.68 379.798 1119.66 380.358 1117.62 378.083 C 1116.2 374.056 1116.72 372.627 1117.21 368.219 z" fill="currentColor" transform="translate(0,0)"></path>
<path d="M 1494.37 545.367 C 1498.8 549.72 1501.02 551.625 1504.45 556.968 C 1500.49 555.675 1498.44 555.195 1494.91 553.084 C 1492.69 549.53 1493.35 550.794 1494.37 545.367 z" fill="currentColor" transform="translate(0,0)"></path>
<path d="M 1465.18 609.507 C 1466.36 609.495 1465.58 609.411 1467.37 610.395 C 1468.62 615.212 1466.96 617.228 1463.56 620.025 C 1460.43 616.895 1460.99 618.615 1460.68 615.124 C 1462.28 613.316 1463.77 611.466 1465.18 609.507 z" fill="currentColor" transform="translate(0,0)"></path>
<path d="M 1548.64 530.6 C 1553.91 530.873 1552.5 530.792 1557.11 534.701 L 1559.77 534.117 L 1561.42 535.653 C 1558.91 537.472 1558.41 538.117 1555.41 538.967 C 1551.99 537.28 1550.98 534.284 1548.64 530.6 z" fill="currentColor" transform="translate(0,0)"></path>
<path d="M 1330.86 658.168 C 1332.86 660.562 1332.25 659.223 1332.7 662.359 L 1331.25 663.951 C 1326.74 665.692 1326.45 665.552 1321.5 665.202 C 1321.65 661.699 1321.09 663.18 1322.84 660.484 L 1328.32 661.221 L 1330.86 658.168 z" fill="currentColor" transform="translate(0,0)"></path>
<path d="M 1221.52 376.177 L 1224.95 376.928 C 1227.19 381.481 1226.16 383.862 1223.72 387.789 C 1221.31 384.951 1220.57 382.905 1219.49 379.474 L 1221.52 376.177 z" fill="currentColor" transform="translate(0,0)"></path>
<path d="M 1408.07 487.562 L 1409.54 488.887 C 1410.93 492.201 1409.16 498.472 1407.97 501.788 C 1403.18 496.376 1403.96 493.302 1408.07 487.562 z" fill="currentColor" transform="translate(0,0)"></path>
<path d="M 1316.02 397.117 C 1318.82 397.736 1318.64 397.713 1321.03 399.334 L 1321.07 400.786 C 1319.17 402.662 1318.44 403.271 1317.03 405.548 L 1316.13 407.038 C 1316.08 407.533 1316.17 407.15 1315.42 408.495 L 1314.18 407.589 C 1313.42 402.986 1314.35 401.708 1316.02 397.117 z" fill="currentColor" transform="translate(0,0)"></path>
<path d="M 1113.58 230.17 C 1116.46 231.18 1115.29 230.331 1117.11 232.947 C 1117.33 236.465 1115.97 238.297 1114.37 241.476 C 1110.79 239.549 1111.7 240.898 1110.2 237.973 C 1110.97 234.689 1112.02 233.103 1113.58 230.17 z" fill="currentColor" transform="translate(0,0)"></path>
<path d="M 1814.4 582.543 L 1817.65 583.423 C 1820.7 587.881 1822.32 591.097 1821.39 596.266 C 1817.25 592.864 1814.28 588.032 1814.4 582.543 z" fill="currentColor" transform="translate(0,0)"></path>
<path d="M 1207.45 385.176 C 1209.29 385.474 1208.4 385.242 1210.1 387.015 C 1210.16 389.978 1208.45 391.899 1206.81 394.51 C 1204.42 392.407 1203.48 391.87 1202.1 388.943 C 1203.52 386.146 1203.79 386.81 1207.45 385.176 z" fill="currentColor" transform="translate(0,0)"></path>
<path d="M 1398.24 551.45 L 1401.9 552.328 C 1405.42 557.627 1404.75 560.49 1399.73 563.55 L 1398.34 562.207 C 1399.59 559.791 1399.33 559.424 1399.42 556.629 C 1398 554.228 1398.2 554.294 1398.24 551.45 z" fill="currentColor" transform="translate(0,0)"></path>
<path d="M 1313.01 570.954 C 1316.86 572.901 1317.27 572.278 1318.46 575.971 L 1317.07 577.932 L 1315.65 576.254 C 1311.93 574.161 1310.24 576.969 1306.77 573.62 C 1308.53 571.767 1310.47 571.608 1313.01 570.954 z" fill="currentColor" transform="translate(0,0)"></path>
<path d="M 1429.5 256.451 C 1431.52 257.856 1433.17 260.433 1434.63 262.46 C 1435.3 267.54 1435 266.067 1432.23 271.546 L 1430.96 270.111 C 1431.39 266.826 1429.35 261.596 1429.5 256.451 z" fill="currentColor" transform="translate(0,0)"></path>
<path d="M 1280.27 563.313 C 1282.66 564.344 1282.54 564.488 1284.33 566.448 C 1285.62 570.415 1284.97 571.941 1284.24 576.226 C 1278.66 571.683 1279.6 570.422 1280.27 563.313 z" fill="currentColor" transform="translate(0,0)"></path>
<path d="M 1121.44 513.547 C 1122.82 513.521 1124.11 514.241 1124.82 515.432 C 1125.52 516.622 1125.54 518.1 1124.85 519.302 C 1124.16 520.504 1122.88 521.245 1121.5 521.241 C 1119.39 521.237 1117.68 519.535 1117.66 517.426 C 1117.64 515.317 1119.33 513.587 1121.44 513.547 z" fill="currentColor" transform="translate(0,0)"></path>
<path d="M 1236.46 496.174 L 1240.08 496.982 L 1241.02 498.54 C 1240.57 501.995 1240.61 503.441 1240.68 506.833 C 1238.48 506.18 1238.54 506.106 1236.47 505.049 C 1234.79 501.173 1235.64 501.21 1236.46 496.174 z" fill="currentColor" transform="translate(0,0)"></path>
<path d="M 1468.64 609.473 L 1473.76 611.298 C 1476.23 614.506 1475.44 613.91 1475.88 618.693 C 1470.43 617.184 1468.42 615.22 1468.64 609.473 z" fill="currentColor" transform="translate(0,0)"></path>
<path d="M 1542.26 504.233 C 1543.85 505.501 1543.38 505.173 1544.51 507.019 C 1543.72 510.538 1542.93 510.259 1539.77 513.321 L 1537.33 512.496 L 1537.19 510.096 C 1539.05 506.376 1538.82 506.364 1542.26 504.233 z" fill="currentColor" transform="translate(0,0)"></path>
<path d="M 1382.12 282.801 C 1384.28 285.215 1385.69 285.831 1387.94 288.52 L 1386.92 290.046 C 1382.62 290.709 1382.35 291.402 1379.77 289.608 C 1379.37 286.767 1380.64 285.35 1382.12 282.801 z" fill="currentColor" transform="translate(0,0)"></path>
<path d="M 1168.5 555.856 C 1169.63 557.355 1169.25 556.92 1169.67 558.963 C 1167.81 561.946 1164.8 563.867 1161.2 563.585 C 1160.39 560.789 1160.47 561.745 1160.5 558.869 C 1166.51 558.78 1164.4 559.654 1168.5 555.856 z" fill="currentColor" transform="translate(0,0)"></path>
<path d="M 1239.42 484.505 C 1243.74 486.805 1245.26 490.871 1244.46 495.541 C 1239.04 490.949 1236.94 491.033 1239.42 484.505 z" fill="currentColor" transform="translate(0,0)"></path>
<path d="M 1378.92 614.053 C 1383.97 614.768 1387.07 615.823 1386.91 621.819 L 1385.38 622.94 L 1382.93 622.769 C 1385.12 614.168 1381.47 620.77 1378.92 614.053 z" fill="currentColor" transform="translate(0,0)"></path>
<path d="M 1227.42 406.122 C 1229.7 406.913 1232.04 407.433 1234.38 407.976 C 1236.06 410.83 1235.36 410.541 1234.8 414.741 L 1232.74 414.625 C 1229.84 409.198 1228.37 412.437 1227.42 406.122 z" fill="currentColor" transform="translate(0,0)"></path>
<path d="M 968.213 226.747 C 970.951 227.516 970.878 227.372 973.106 229.081 L 972.204 229.941 C 969.865 230.219 968 230.627 965.739 231.291 C 963.241 232.504 962.701 231.744 960.688 230.611 L 961.215 229.635 C 964.486 228.864 965.35 228.73 968.213 226.747 z" fill="currentColor" transform="translate(0,0)"></path>
<path d="M 1240.05 445.812 C 1242.02 447.353 1242.97 449.371 1243.67 451.689 C 1241.83 455.335 1241.87 454.398 1237.47 456.785 C 1237.71 450.167 1237.37 456.59 1240.67 450.216 L 1238.51 449.716 L 1238.04 448.406 L 1240.05 445.812 z" fill="currentColor" transform="translate(0,0)"></path>
<path d="M 1406.68 529.103 L 1407.68 528.904 L 1408.27 529.813 L 1408.93 530.069 L 1408.51 531.668 C 1405.65 533.204 1403.18 532.949 1399.9 533.076 C 1399.01 531.813 1398.88 531.295 1398.25 529.878 L 1399.41 528.782 C 1402.21 529.165 1403.8 529.325 1406.68 529.103 z" fill="currentColor" transform="translate(0,0)"></path>
<path d="M 1311.03 512.148 C 1311.17 512.863 1311.31 513.579 1311.45 514.295 C 1309.56 517.304 1306.9 517.679 1303.41 518.918 C 1302.07 516.945 1302.37 517.658 1302.26 515.069 C 1304.54 512.788 1307.68 512.747 1311.03 512.148 z" fill="currentColor" transform="translate(0,0)"></path>
<path d="M 1408.62 657.009 C 1409.9 656.762 1411.21 657.249 1412.02 658.27 C 1412.83 659.291 1413.01 660.679 1412.47 661.87 C 1411.94 663.061 1410.79 663.858 1409.49 663.939 C 1407.65 664.052 1406.04 662.716 1405.81 660.885 C 1405.57 659.053 1406.8 657.357 1408.62 657.009 z" fill="currentColor" transform="translate(0,0)"></path>
<path d="M 1333.03 643.149 C 1334.68 644.475 1334.02 643.592 1334.74 645.989 C 1332.82 648.248 1330.63 648.317 1327.64 649.005 C 1325.58 647.194 1326.32 648.223 1325.6 645.734 C 1327.68 643.617 1329.99 643.663 1333.03 643.149 z" fill="currentColor" transform="translate(0,0)"></path>
<path d="M 1447.32 272.325 L 1449.84 273.752 C 1451.17 276.604 1453.41 280.027 1453.01 282.628 L 1451.55 282.844 C 1447.75 279.674 1447.34 277.039 1447.32 272.325 z" fill="currentColor" transform="translate(0,0)"></path>
<path d="M 1434.86 613.289 C 1436.7 614.091 1435.84 613.455 1437.22 615.483 C 1435.95 618.669 1434.93 618.819 1432.02 621.222 C 1429.78 619.877 1430.7 620.711 1429.48 618.466 C 1430.95 615.502 1431.94 615.406 1434.86 613.289 z" fill="currentColor" transform="translate(0,0)"></path>
<path d="M 806.002 575.958 C 809.057 575.772 810.354 575.34 812.824 577.078 C 813.66 580.726 813.596 578.812 811.936 583.002 C 807.582 581.849 807.44 579.907 806.002 575.958 z" fill="currentColor" transform="translate(0,0)"></path>
<path d="M 1442.29 553.468 C 1448.13 554.597 1448.95 555.015 1452.12 560.187 C 1448.99 560.547 1449.19 560.542 1446.14 559.715 C 1443.28 557.308 1443.47 556.946 1442.29 553.468 z" fill="currentColor" transform="translate(0,0)"></path>
<path d="M 1082.57 568.33 C 1085.81 567.825 1087.2 567.387 1090.46 568.047 C 1092.81 570.801 1092.08 569.896 1092.52 574.169 C 1089.02 571.847 1087.6 571.682 1083.47 570.487 L 1082.57 568.33 z" fill="currentColor" transform="translate(0,0)"></path>
<path d="M 1125.29 408.714 C 1130.06 410.085 1132.18 411.626 1133.4 416.286 C 1130.43 416.199 1130.37 415.922 1127.59 414.67 C 1124.97 411.112 1125.68 413.038 1125.29 408.714 z" fill="currentColor" transform="translate(0,0)"></path>
<path d="M 1259.03 374.258 L 1260.78 374.491 L 1260.32 375.691 C 1256.61 376.958 1253.96 377.963 1250.38 379.548 C 1249.87 379.622 1249.39 379.251 1248.91 379.065 L 1249.62 377.208 C 1253.72 374.672 1254.08 374.779 1259.03 374.258 z" fill="currentColor" transform="translate(0,0)"></path>
<path d="M 1436.36 561.454 L 1439.39 562.093 L 1439.87 563.793 C 1438.66 567.154 1437.84 567.749 1435.49 570.351 L 1433.3 569.763 L 1432.66 568.389 C 1434.86 565.504 1435.32 564.899 1436.36 561.454 z" fill="currentColor" transform="translate(0,0)"></path>
<path d="M 1101.22 648.387 C 1102.53 648.44 1101.79 648.25 1103.22 649.508 C 1101.93 652.547 1100.34 653.316 1097.68 655.69 C 1095.88 655.315 1096.76 655.765 1095.36 653.858 C 1096.11 650.068 1098.17 649.829 1101.22 648.387 z" fill="currentColor" transform="translate(0,0)"></path>
<path d="M 1430.88 513.729 C 1435.66 515.992 1438.44 516.678 1440.77 520.724 C 1437.62 521.369 1437.62 521.103 1434.43 520.252 C 1431.66 517.929 1431.74 517.209 1430.88 513.729 z" fill="currentColor" transform="translate(0,0)"></path>
<path d="M 1212.05 515.92 C 1213.57 515.809 1213.73 516.02 1215.27 516.374 C 1215.83 519.187 1215.72 520.624 1215.7 523.435 C 1212.24 523.281 1213.42 523.766 1210.65 522.163 C 1211.08 520.073 1211.54 517.992 1212.05 515.92 z" fill="currentColor" transform="translate(0,0)"></path>
<path d="M 1239.13 414.476 L 1240.03 415.131 C 1241.6 414.626 1240.73 414.817 1242.67 414.655 L 1241.74 418.604 C 1237.26 419.25 1237.31 419.603 1234.31 417.854 L 1235.01 416.162 L 1239.13 414.476 z" fill="currentColor" transform="translate(0,0)"></path>
<path d="M 1476.8 642.921 L 1479.12 642.862 L 1479.29 644.495 C 1476.61 648.149 1478.26 646.677 1473.86 648.739 C 1471.79 645.529 1472.01 647.122 1471.95 643.871 C 1474.69 642.934 1473.89 643.153 1476.8 642.921 z" fill="currentColor" transform="translate(0,0)"></path>
<path d="M 1164.78 489.348 L 1165.36 489.658 C 1165.23 493.079 1165.63 491.414 1163.53 494.645 C 1159.57 495.581 1159.91 494.895 1155.33 493.444 L 1156.48 490.791 C 1159.15 491.841 1159.06 491.913 1161.89 492.058 L 1164.78 489.348 z" fill="currentColor" transform="translate(0,0)"></path>
<path d="M 1569.7 410.653 C 1572.95 410.639 1573.09 410.389 1575.99 411.669 C 1577.68 415.037 1577.04 414.633 1576.77 419.016 L 1574.95 418.49 C 1573.03 414.858 1572.27 413.921 1569.7 410.653 z" fill="currentColor" transform="translate(0,0)"></path>
<path d="M 1210.38 401.845 C 1215.89 405.571 1215.8 405.191 1216.3 411.4 C 1213.94 410.232 1213.92 410.089 1211.76 408.504 C 1209.98 405.399 1210.22 405.314 1210.38 401.845 z" fill="currentColor" transform="translate(0,0)"></path>
<path d="M 1309.39 392.708 L 1310.97 394.557 C 1310.04 398.649 1309.44 398.09 1305.88 401.652 L 1304.34 399.735 C 1304.86 396.318 1306.43 395.833 1309.39 392.708 z" fill="currentColor" transform="translate(0,0)"></path>
<path d="M 1300.83 463.515 C 1302.48 464.15 1301.72 463.788 1303 465.646 C 1301.54 468.206 1300.82 467.968 1297.87 469.694 C 1295.74 468.222 1296.38 468.83 1294.88 466.811 C 1296.16 464.309 1297.18 464.77 1300.83 463.515 z" fill="currentColor" transform="translate(0,0)"></path>
<path d="M 1479.66 659.207 L 1481.34 660.523 C 1481.44 664.645 1481.66 668.16 1482.01 672.27 C 1477.49 666.905 1477.63 665.814 1479.66 659.207 z" fill="currentColor" transform="translate(0,0)"></path>
<path d="M 1247.68 439.567 C 1250.98 440.485 1253.32 443.93 1254.69 446.868 C 1252.86 446.83 1251.15 446.561 1249.34 446.34 C 1247.04 443.686 1247.82 444.093 1247.68 439.567 z" fill="currentColor" transform="translate(0,0)"></path>
<path d="M 1570.1 548.346 L 1572.27 549.659 C 1573.16 553.283 1572.36 553.258 1570.86 557.537 C 1568.91 556.376 1569.53 556.778 1568.01 554.966 C 1567.98 550.874 1567.87 552.287 1570.1 548.346 z" fill="currentColor" transform="translate(0,0)"></path>
<path d="M 1114.76 338.697 C 1118.95 341.628 1119.22 344.03 1117.23 348.663 L 1115.07 347.963 C 1113.54 345.563 1114.46 341.82 1114.76 338.697 z" fill="currentColor" transform="translate(0,0)"></path>
<path d="M 1130.34 570.537 L 1131.9 572.141 C 1130.58 577.462 1131.61 577.137 1128.22 579.642 L 1125.85 578.039 L 1125.78 576.631 C 1127.35 574.876 1128.08 574.03 1129.34 572.092 L 1130.34 570.537 z" fill="currentColor" transform="translate(0,0)"></path>
<path d="M 1490.98 628.213 C 1492.37 628.142 1491.55 628.046 1493.32 628.974 C 1492.35 632.093 1490.98 632.783 1488.5 635.342 C 1487.24 635.155 1488.05 635.34 1486.17 634.435 C 1486.65 631.687 1488.57 630.671 1490.98 628.213 z" fill="currentColor" transform="translate(0,0)"></path>
<path d="M 1333.75 565.555 C 1334.85 566.381 1335.21 566.988 1336.12 568.062 C 1336.68 571.809 1336.87 571.866 1336.01 575.708 C 1332.54 571.669 1330.78 570.316 1333.75 565.555 z" fill="currentColor" transform="translate(0,0)"></path>
<path d="M 1462.08 501.321 L 1463.3 502.281 C 1464.03 505.441 1463.9 508.48 1463.95 511.732 L 1460.51 509.507 C 1459.57 505.695 1460.39 505.854 1462.08 501.321 z" fill="currentColor" transform="translate(0,0)"></path>
<path d="M 1645.57 490.64 L 1646.12 492.653 C 1644.58 497.282 1644.2 498.888 1643.49 503.715 C 1639.78 498.897 1641.9 494.498 1645.57 490.64 z" fill="currentColor" transform="translate(0,0)"></path>
<path d="M 1425.09 581.036 C 1429.11 582.034 1430.72 582.434 1432.56 585.938 C 1429.88 586.109 1428.6 586.11 1425.92 585.977 L 1424.66 584.563 L 1425.09 581.036 z" fill="currentColor" transform="translate(0,0)"></path>
<path d="M 1039.81 517.976 C 1041.78 519.332 1043 519.223 1045.39 519.484 L 1046.34 519.581 L 1045.74 521.58 C 1042.49 522.46 1041.35 522.987 1037.94 522.672 L 1037.49 521.398 L 1039.81 517.976 z" fill="currentColor" transform="translate(0,0)"></path>
<path d="M 1302.75 479.309 C 1307.86 479.699 1309.28 478.115 1313.5 480.985 C 1310.06 482.816 1307.42 483.071 1303.73 481.621 L 1302.75 479.309 z" fill="currentColor" transform="translate(0,0)"></path>
<path d="M 1704.84 573.845 C 1710.36 574.259 1711.71 575.284 1715.35 579.081 C 1709.46 579.444 1708.01 578.507 1704.84 573.845 z" fill="currentColor" transform="translate(0,0)"></path>
<path d="M 1243.12 279.407 C 1243.92 279.73 1243.39 279.445 1244.31 280.75 C 1240.76 282.999 1240.09 283.476 1237.27 286.626 L 1236.64 287.343 L 1235.21 286.851 L 1235.63 284.863 C 1238.58 281.428 1238.92 281.403 1243.12 279.407 z" fill="currentColor" transform="translate(0,0)"></path>
<path d="M 1291.2 541.15 L 1291.89 541.063 C 1292.99 542.081 1292.82 541.52 1292.91 542.5 C 1290.78 544.698 1289.26 544.711 1286.26 545.398 L 1284.71 542.827 L 1285.19 541.308 C 1287.29 541.188 1289.09 541.156 1291.2 541.15 z" fill="currentColor" transform="translate(0,0)"></path>
<path d="M 1647.54 640.758 C 1650.38 640.871 1651.07 641.503 1653.63 642.772 C 1655.71 645.94 1655.14 644.159 1654.68 648.477 L 1652.86 648.405 C 1651.1 645.409 1649.65 643.54 1647.54 640.758 z" fill="currentColor" transform="translate(0,0)"></path>
<path d="M 1055.7 258.233 L 1056.64 257.863 C 1060.42 258.77 1061.49 261.8 1062.45 265.118 C 1059.9 263.157 1057.3 261.498 1054.63 259.73 L 1055.7 258.233 z" fill="currentColor" transform="translate(0,0)"></path>
<path d="M 1496.6 645.417 C 1499.89 646.747 1499.5 644.941 1502.31 647.276 L 1501.36 651.471 C 1497.34 649.711 1497.23 650.46 1495.4 647.429 L 1496.6 645.417 z" fill="currentColor" transform="translate(0,0)"></path>
<path d="M 1024.59 646.144 C 1028.39 646.837 1029.67 645.469 1033.55 646.675 L 1033.52 649.302 C 1030.62 649.522 1027.76 650.094 1025.15 649.04 L 1024.59 646.144 z" fill="currentColor" transform="translate(0,0)"></path>
<path d="M 1382.55 408.793 L 1384.67 408.365 C 1384.47 411.165 1384.48 413.236 1384.51 416.004 C 1383.84 415.952 1382.73 415.533 1382.03 415.309 C 1381.16 412.162 1381.56 411.887 1382.55 408.793 z" fill="currentColor" transform="translate(0,0)"></path>
<path d="M 1669.11 546.137 C 1672.99 546.103 1677 545.637 1680.38 547.325 C 1678.21 548.796 1676.99 548.903 1674.45 549.576 C 1670.21 548.462 1671.94 549.549 1669.11 546.137 z" fill="currentColor" transform="translate(0,0)"></path>
<path d="M 1352.33 495.655 C 1352.69 496.169 1353.13 497.296 1353.41 497.925 C 1351.77 500.962 1350.89 501.9 1348.74 504.495 C 1347.34 503.215 1347.87 504.055 1347.51 501.789 C 1349.17 498.127 1349.4 498.215 1352.33 495.655 z" fill="currentColor" transform="translate(0,0)"></path>
<path d="M 1534.72 483.433 C 1538.02 485.778 1537.87 488.68 1538.74 492.946 L 1535.7 491.897 C 1533.95 488.864 1534.68 487.588 1534.72 483.433 z" fill="currentColor" transform="translate(0,0)"></path>
<path d="M 1580.23 472.519 C 1582.46 476.866 1580.36 478.253 1577.96 481.826 C 1576.59 476.43 1576.38 476.534 1580.23 472.519 z" fill="currentColor" transform="translate(0,0)"></path>
<path d="M 938.884 423.404 L 939.686 423.958 C 938.605 426.601 936.401 427.127 933.346 429.007 C 931.87 427.057 932.269 428.155 932.15 425.713 C 934.721 424.657 936.256 424.194 938.884 423.404 z" fill="currentColor" transform="translate(0,0)"></path>
<path d="M 1259.11 295.451 L 1260.67 296.833 C 1261.17 300.271 1260.07 300.58 1257.94 304.473 L 1256.6 303.614 C 1256.27 301.108 1258 298.235 1259.11 295.451 z" fill="currentColor" transform="translate(0,0)"></path>
<path d="M 1221.52 472.444 C 1222.74 473.209 1223 473.607 1224.04 474.616 C 1225.24 478.106 1225.24 477.841 1224.28 481.402 L 1222.73 480.338 C 1220.95 477.27 1221.35 475.99 1221.52 472.444 z" fill="currentColor" transform="translate(0,0)"></path>
<path d="M 998.417 532.836 L 999.868 533.602 C 998.949 536.463 996.569 537.525 993.747 539.839 L 992.387 538.841 C 993.544 535.988 995.634 535.092 998.417 532.836 z" fill="currentColor" transform="translate(0,0)"></path>
<path d="M 747.138 605.685 L 748.224 606.888 C 749.133 610.019 747.971 613.228 747.24 616.553 C 746.684 616.029 745.996 615.017 745.506 614.366 C 745.714 609.898 745.721 609.939 747.138 605.685 z" fill="currentColor" transform="translate(0,0)"></path>
<path d="M 1532.71 421.807 L 1533.86 422.879 C 1533.45 426.352 1532.75 425.989 1529.78 429.224 C 1528.1 426.66 1528.35 428.049 1528.55 425.098 L 1532.71 421.807 z" fill="currentColor" transform="translate(0,0)"></path>
<path d="M 1136.28 440.188 L 1137.35 439.526 C 1140.48 440.969 1140.75 440.788 1142.5 443.84 C 1139.21 443.638 1139.15 443.854 1136.27 442.404 L 1136.28 440.188 z" fill="currentColor" transform="translate(0,0)"></path>
<path d="M 1271.67 349.758 L 1272.91 351.134 C 1272.02 354.595 1271.11 354.297 1267.61 357.164 L 1266.66 355.615 C 1267.69 352.527 1268.88 352.295 1271.67 349.758 z" fill="currentColor" transform="translate(0,0)"></path>
<path d="M 1425.17 480.407 C 1428.21 481.802 1429.53 485.553 1431.16 488.723 C 1429.99 488.488 1428.61 487.974 1427.45 487.595 C 1425.33 485.402 1425.52 483.493 1425.17 480.407 z" fill="currentColor" transform="translate(0,0)"></path>
<path d="M 1560.65 565.218 L 1564.18 566.58 L 1564.85 568.352 L 1563.41 571.066 C 1560.41 569.76 1559.38 569.985 1558.06 567.725 L 1560.65 565.218 z" fill="currentColor" transform="translate(0,0)"></path>
<path d="M 1502.37 639.318 C 1507.4 640.058 1507.84 639.772 1511.77 642.868 C 1506.23 643.286 1505.5 643.972 1502.37 639.318 z" fill="currentColor" transform="translate(0,0)"></path>
<path d="M 1615.7 642.486 C 1618.68 646.185 1618.17 648.465 1617.75 652.906 C 1614.7 648.991 1615.07 647.086 1615.7 642.486 z" fill="currentColor" transform="translate(0,0)"></path>
<path d="M 1044.37 497.601 C 1045.88 499.012 1045.38 498.13 1045.73 500.316 L 1042.05 503.546 C 1039.96 500.373 1040.03 501.845 1040.56 499.035 L 1044.37 497.601 z" fill="currentColor" transform="translate(0,0)"></path>
<path d="M 1169.21 361.29 C 1171.67 362.082 1170.75 361.335 1172.05 363.444 L 1170.35 369.268 L 1169.56 369.473 C 1168.11 366.281 1168.86 365.373 1169.21 361.29 z" fill="currentColor" transform="translate(0,0)"></path>
<path d="M 979.554 434.903 C 980.233 435.38 979.834 434.998 980.179 436.439 L 975.186 442.397 L 973.977 441.147 C 974.703 438.272 977.13 436.898 979.554 434.903 z" fill="currentColor" transform="translate(0,0)"></path>
<path d="M 1675.79 559.23 L 1676.42 560.505 L 1675.43 561.893 L 1669.33 562.75 L 1669.44 560.291 C 1672.21 559.419 1672.94 559.471 1675.79 559.23 z" fill="currentColor" transform="translate(0,0)"></path>
<path d="M 1431.13 421.793 C 1435.38 423.371 1436.03 425.275 1437.29 429.203 C 1433.35 426.751 1432.15 425.93 1431.13 421.793 z" fill="currentColor" transform="translate(0,0)"></path>
<path d="M 1052.46 657.445 L 1053.56 658.335 C 1054.67 661.635 1054 661.144 1052.26 665.426 L 1051.14 665.082 C 1050.31 662.562 1051.58 660.139 1052.46 657.445 z" fill="currentColor" transform="translate(0,0)"></path>
<path d="M 1042.41 633.652 C 1043.24 636.295 1043.01 635.622 1043.09 638.507 L 1041.65 639.727 C 1040.44 639.236 1041.02 639.664 1040.23 638.095 L 1042.41 633.652 z" fill="currentColor" transform="translate(0,0)"></path>
<path d="M 1437.88 291.871 L 1438.85 293.113 L 1437.38 300.397 C 1434.01 296.366 1435.51 296.275 1437.88 291.871 z" fill="currentColor" transform="translate(0,0)"></path>
<path d="M 937.857 409.449 C 939.589 410.099 939.119 409.736 940.341 410.792 C 941.586 411.866 941.24 413.081 941.393 414.646 L 939.91 414.457 L 937.857 409.449 z" fill="currentColor" transform="translate(0,0)"></path>
<path d="M 796.303 556.191 L 798.062 556.623 L 800.071 560.875 C 797.623 559.55 797.745 559.568 795.833 557.511 L 796.303 556.191 z" fill="currentColor" transform="translate(0,0)"></path>
<path d="M 197.134 684.144 C 234.383 747.646 317.993 744.316 381.887 744.109 L 512.573 742.396 L 1058.62 736.235 L 1519.22 733.985 L 1666.53 733.879 C 1744.89 733.689 1824.22 740.632 1879.07 671.806 C 1879.48 702.874 1875.6 732.131 1852.66 754.992 C 1819.6 787.924 1774.72 797.843 1729.85 798.203 L 1517.21 798.898 C 1481.98 799.296 1446.75 799.492 1411.52 799.485 C 1392.06 799.644 1370.82 800.353 1351.5 800.004 C 1362.42 795.727 1377.82 789.57 1370.44 774.902 C 1361.52 757.178 1334.09 757.77 1317.45 758.365 C 1281.1 759.664 1244.54 758.024 1208.36 760.175 C 1202.22 760.295 1194.56 760.358 1188.75 762.394 C 1184.88 766.406 1185.31 766.718 1184.15 771.86 L 1180.35 768.983 C 1177.96 769.09 1176.52 769.259 1174.16 769.595 C 1169.58 773.124 1166.48 779.685 1168.97 785.46 C 1173.07 794.968 1179.47 797.95 1188.34 801.83 C 1157.36 798.861 1113.38 803.195 1080.66 802.947 C 1097.66 793.714 1109.63 780.615 1088.34 766.604 L 1086.48 766.731 C 1076.99 761.893 1076.64 760.897 1065.99 759.325 L 1065.42 760.767 C 1069.3 766.534 1081.28 765.289 1081.94 770.061 C 1104.5 793.858 1042.4 799.023 1029.07 790.799 C 1010.96 779.63 1025.84 769.109 1039.03 765.283 C 1040.25 763.137 1040.03 763.93 1040.16 761.574 C 1037.08 759.939 1033.14 760.645 1028.78 760.361 C 1022.6 761.864 1014.17 766.38 1010.82 772.078 C 1008.18 776.618 1007.48 782.033 1008.89 787.094 C 1011.51 796.431 1017.24 799.571 1025.59 802.879 C 890.923 804.935 758.009 804.225 623.429 804.964 C 589.021 805.024 554.615 805.426 520.215 806.171 C 492.57 806.821 462.587 808.184 435.023 807.77 C 433.134 791.912 424.11 774.503 410.54 765.715 C 388.465 763.539 363.676 759.518 361.197 787.801 C 361.109 788.83 361.032 789.86 360.964 790.891 C 367.46 802.088 370.52 803.627 382.011 808.721 C 338.377 809.429 298.923 809.528 258.262 790.185 C 224.298 774.028 197.049 744.919 196.749 705.275 C 196.765 698.23 196.894 691.185 197.134 684.144 z" fill="none" transform="translate(0,0)"></path>
<path d="M 1039.03 765.283 C 1052.65 764.534 1065.09 763.907 1078.13 768.775 C 1078.67 768.978 1081.6 770.034 1081.94 770.061 C 1104.5 793.858 1042.4 799.023 1029.07 790.799 C 1010.96 779.63 1025.84 769.109 1039.03 765.283 z" fill="none" transform="translate(0,0)"></path>
<path d="M 1028.78 760.361 C 1046.39 754.827 1073.52 754.301 1088.34 766.604 L 1086.48 766.731 C 1076.99 761.893 1076.64 760.897 1065.99 759.325 L 1065.42 760.767 C 1069.3 766.534 1081.28 765.289 1081.94 770.061 C 1081.6 770.034 1078.67 768.978 1078.13 768.775 C 1065.09 763.907 1052.65 764.534 1039.03 765.283 C 1040.25 763.137 1040.03 763.93 1040.16 761.574 C 1037.08 759.939 1033.14 760.645 1028.78 760.361 z" fill="currentColor" transform="translate(0,0)"></path>
<path d="M 1174.16 769.595 C 1178.62 765.37 1183 763.999 1188.75 762.394 C 1184.88 766.406 1185.31 766.718 1184.15 771.86 L 1180.35 768.983 C 1177.96 769.09 1176.52 769.259 1174.16 769.595 z" fill="currentColor" transform="translate(0,0)"></path>
<path d="M 833.752 762.473 C 856.683 762.619 936.205 758.156 951.122 768.567 C 957.129 772.76 957.861 779.37 959.056 786.032 C 944.699 806.228 916.463 802.191 894.5 801.932 L 829.947 802.137 C 819.58 802.173 747.353 806.554 772.906 771.698 C 780.938 760.741 818.19 762.595 833.752 762.473 z" fill="currentColor" transform="translate(0,0)"></path>
<path d="M 1211.98 768.823 C 1223.47 766.945 1242.81 767.793 1254.98 767.591 C 1273.86 767.149 1292.74 766.978 1311.63 767.079 C 1325.21 767.09 1353.75 764.607 1360.61 778.609 C 1360.53 793.323 1329.14 790.484 1319.2 790.568 C 1305.22 790.748 1291.24 791.009 1277.27 791.352 L 1229.58 792.329 C 1220.04 792.583 1208.85 793.494 1199.55 792.733 C 1189.43 791.904 1173.29 784.783 1184.33 772.984 C 1192.23 768.732 1200.38 769.112 1209.35 768.121 L 1211.98 768.823 z" fill="none" transform="translate(0,0)"></path>
<path d="M 1208.39 760.902 C 1210.8 763.748 1210.31 765.586 1211.98 768.823 L 1209.35 768.121 L 1202.49 767.326 C 1207.59 764.523 1206.02 766.234 1208.39 760.902 z" fill="currentColor" transform="translate(0,0)"></path>
</svg>