<svg xmlns="http://www.w3.org/2000/svg" preserveAspectRatio="none" style="display: block;" version="1.1" viewBox="0 0 2048 2048">
<defs>
	<linearGradient gradientUnits="userSpaceOnUse" id="Gradient1" x1="1002.62" x2="1005.78" y1="82.4694" y2="86.1862">
		<stop class="stop0" offset="0" stop-color="rgb(6,5,6)" stop-opacity="1"></stop>
		<stop class="stop1" offset="1" stop-color="rgb(55,54,57)" stop-opacity="1"></stop>
	</linearGradient>
	<linearGradient gradientUnits="userSpaceOnUse" id="Gradient2" x1="1162.73" x2="1165.83" y1="1423.52" y2="1438.15">
		<stop class="stop0" offset="0" stop-color="rgb(21,18,19)" stop-opacity="1"></stop>
		<stop class="stop1" offset="1" stop-color="rgb(46,47,49)" stop-opacity="1"></stop>
	</linearGradient>
	<linearGradient gradientUnits="userSpaceOnUse" id="Gradient3" x1="287.795" x2="292.533" y1="1759.71" y2="1756.34">
		<stop class="stop0" offset="0" stop-color="rgb(8,7,7)" stop-opacity="1"></stop>
		<stop class="stop1" offset="1" stop-color="rgb(58,58,59)" stop-opacity="1"></stop>
	</linearGradient>
</defs>
<path d="M 353.238 1271.73 C 358.92 1260.41 363.402 1248.92 368.637 1237.41 L 401.196 1166.04 C 432.48 1094.91 464.383 1024.05 496.9 953.478 C 560.94 817.534 625.942 682.045 691.9 547.022 C 697.087 536.219 702.401 524.95 707.922 514.342 C 734.458 463.35 755.377 409.736 778.049 356.932 C 794.832 318.439 812.444 280.312 830.873 242.58 C 849.138 204.717 869.629 159.7 898.823 129.142 C 923.26 104.622 957.389 91.1558 990.52 83.2083 C 1031.8 73.3069 1082.04 77.0439 1124.76 77.103 C 1130.87 77.3233 1136.97 77.5019 1143.08 77.639 C 1165.44 79.2231 1188.82 80.3054 1211.2 79.679 C 1255.14 78.4493 1297.03 84.9296 1341.01 84.2933 C 1347.79 83.7589 1357.08 83.9109 1363.87 84.5109 L 1364.93 84.5968 C 1389.28 86.4069 1411.7 82.4738 1435.83 82.7765 C 1461.85 83.6064 1485.68 84.8432 1512 85.596 C 1595.09 87.9718 1691.38 86.4757 1765.47 128.777 C 1814.2 156.6 1837.46 219.085 1838.79 273.059 C 1840.94 360.843 1802.08 446.177 1770.84 526.49 C 1760.32 553.587 1752.48 583.383 1737.44 608.177 L 1739.14 610.012 C 1738.6 612.71 1737 613.656 1734.9 615.544 L 1734.73 616.979 L 1736.91 618.048 C 1734.48 623.942 1728.51 625.865 1728.34 631.835 C 1728.14 638.536 1726.21 641.436 1723.78 647.242 C 1723.26 659.119 1704.84 697.299 1700.91 709.377 C 1699.72 710.382 1699.01 711.063 1697.71 711.907 C 1698.23 720.47 1695.3 717.575 1694.03 723.702 C 1694.71 727.101 1682.42 752.01 1679.81 755.246 L 1677.85 754.811 L 1677.42 755.692 C 1678.99 757.866 1679.72 757.862 1679.25 759.592 C 1677.06 766.893 1670.55 773.264 1667.7 780.14 C 1665.23 786.094 1663.92 793.114 1661.45 799.208 C 1652.25 821.869 1644.68 844.888 1637.06 868.079 C 1636.31 870.374 1634.92 871.186 1632.86 872.174 C 1636.04 878.628 1622.66 908.466 1618.69 914.867 C 1616.79 918.496 1613.46 921.749 1613.28 925.305 C 1612.45 941.957 1601.72 954.788 1594.76 969.608 C 1593.32 973.806 1591.17 982.94 1588.58 984.634 L 1587.22 984.651 L 1587.15 986.431 L 1588.54 987.67 C 1587.15 992.747 1586.39 995.534 1582.5 999.215 C 1580.94 998.918 1579.38 998.602 1577.83 998.269 C 1575.71 1001.89 1575.52 1000.95 1575.74 1004.43 C 1578.13 1005.85 1578.1 1005.84 1580.77 1006.56 L 1580.27 1008.3 C 1575.57 1009.63 1574.58 1005.39 1572.65 1010.09 L 1577.93 1013.28 C 1580.01 1023.24 1558.81 1049.74 1558.15 1057.95 C 1556.87 1059.88 1555.89 1061.31 1554.22 1062.9 C 1553.63 1070.1 1545.47 1084.96 1543.79 1092.52 C 1542.87 1098.77 1538.34 1101.46 1536.29 1106.8 C 1533.61 1113.76 1530.74 1129.43 1528.4 1135.9 C 1523.08 1150.65 1482.2 1260.46 1477.5 1263.1 C 1475.79 1270.16 1465.88 1298.62 1461.64 1303.11 C 1461.78 1304.22 1461.93 1305.33 1462.08 1306.44 C 1453.26 1327.29 1446.53 1350.1 1436.05 1370.04 C 1434.63 1372.76 1434.53 1373.22 1433.67 1375.72 C 1432.76 1380.55 1432.27 1385.97 1429.62 1389.89 L 1427.55 1391.1 C 1426.63 1390.82 1424.8 1390.32 1424 1389.95 L 1421.93 1388.37 C 1419.26 1389.56 1418.68 1391.91 1416.43 1393.97 C 1418.23 1395.12 1420.01 1396.3 1421.77 1397.51 L 1422.48 1396.21 L 1420.61 1392.35 C 1424.35 1392.14 1422.48 1391.87 1426.24 1394 C 1428.02 1400 1410.51 1440.12 1405.92 1446.3 C 1405.02 1448.16 1403.5 1450.97 1403.11 1452.9 C 1401.68 1459.82 1388.24 1472.21 1392.93 1478.02 C 1390.16 1482.47 1386.08 1483.89 1385.15 1487.67 L 1387.07 1489.45 C 1386.01 1493.45 1381.9 1504.62 1379.78 1507.92 L 1376.97 1508.48 L 1377.46 1509.58 L 1379.68 1510.12 C 1381.19 1515.82 1376.16 1529.54 1373.35 1535.06 C 1370.58 1540.51 1362.86 1548.6 1361.03 1553.11 L 1362.15 1555.11 L 1298.19 1707.59 C 1292.71 1720.58 1289.79 1732.42 1283.52 1746.04 C 1281.34 1751.71 1278.31 1754.23 1276.8 1759.01 C 1274.35 1766.74 1272.42 1776.48 1267.43 1783.11 L 1265.83 1785.22 C 1264.67 1789.43 1262.27 1794.85 1258.56 1797.31 L 1255.96 1795.38 L 1255.07 1797.03 C 1256.83 1798.9 1255.89 1798.08 1257.84 1799.53 C 1256.66 1802.59 1255.54 1805.66 1254.48 1808.76 C 1253.75 1810.9 1254.1 1810.41 1253.56 1810.96 L 1252.9 1812.61 C 1251.4 1816.38 1251.37 1820.08 1249.22 1822.36 L 1246.33 1822.09 L 1245.58 1823.62 L 1248.21 1825.77 C 1248.31 1830.65 1242.27 1834.13 1238 1834.83 L 1235.23 1833.08 L 1234.89 1834.27 C 1236.93 1837.13 1236.68 1837.15 1239.81 1838.61 C 1239.01 1843.26 1239.82 1843.8 1237.09 1845.91 L 1235.3 1845.69 C 1233.13 1845.43 1233.99 1845.42 1232.41 1845.57 C 1233.15 1848.4 1232.96 1847.46 1235.13 1849.95 C 1234.54 1853.3 1227.08 1865.41 1224.61 1867.78 C 1224.62 1868.67 1224.71 1869.52 1224.41 1870.36 C 1221.32 1876.76 1215.55 1884.66 1211.35 1890.62 C 1206.89 1898.84 1201.73 1904.31 1196.76 1911.76 C 1159.44 1967.71 1089.3 1975.07 1027.44 1968.79 C 1023.43 1969.13 1010.52 1967.7 1005.87 1967.26 C 978.609 1964.71 951.639 1959.79 924.591 1955.84 L 803.935 1937.62 C 732.342 1926.85 660.083 1915.02 589.963 1896.52 L 581.366 1894.7 C 487.743 1869.64 368.238 1836.99 294.79 1771.76 C 281.548 1760.91 257.84 1739.3 248.029 1725.21 C 244.571 1722.33 241.23 1717.1 239.375 1713 C 232.03 1702.99 209.343 1675.67 212.853 1661.87 C 205.525 1652.25 213.404 1589.49 218.503 1575.34 C 220.958 1561.98 228.896 1541.03 233.658 1527.98 C 259.083 1456.27 304.217 1394.46 330.1 1323.02 C 333.834 1312.72 341.095 1302.43 344.142 1292.11 C 347.348 1285.8 350.402 1278.3 353.238 1271.73 z" fill="currentColor" transform="translate(0,0)"></path>
<path d="M 1027.44 1968.79 C 1038.54 1966.6 1058.08 1970.3 1071.43 1968.92 C 1070.9 1966.14 1070.61 1967.35 1071.57 1965.07 C 1075.17 1965.39 1073.44 1964.73 1076.42 1968.26 C 1081.64 1969.85 1099.23 1966.57 1105.16 1965.44 C 1140.52 1958.71 1170.45 1945.11 1191.22 1914.81 L 1190.97 1913.76 C 1190.71 1912.64 1189.8 1908.55 1190.15 1907.78 C 1193.28 1900.9 1200.32 1890.43 1204.26 1884.18 L 1204.83 1884.86 L 1204.83 1886.84 L 1207.07 1887.79 L 1208.36 1887.15 L 1209.36 1882.35 L 1210.85 1882.87 C 1210.95 1885.42 1210.94 1888.13 1211.35 1890.62 C 1206.89 1898.84 1201.73 1904.31 1196.76 1911.76 C 1159.44 1967.71 1089.3 1975.07 1027.44 1968.79 z" fill="currentColor" transform="translate(0,0)"></path>
<path d="M 1416.43 1393.97 C 1418.23 1395.12 1420.01 1396.3 1421.77 1397.51 L 1422.48 1396.21 L 1420.61 1392.35 C 1424.35 1392.14 1422.48 1391.87 1426.24 1394 C 1428.02 1400 1410.51 1440.12 1405.92 1446.3 C 1404.38 1443.08 1404.49 1441.8 1401.96 1440.3 L 1402.2 1440.69 C 1400.93 1441.12 1400.59 1441.03 1399.59 1441.98 L 1398.75 1440.97 C 1398.98 1435.88 1402.43 1426.88 1405.3 1422.66 L 1413.64 1401.9 C 1414.23 1398.68 1415.15 1396.93 1416.43 1393.97 z" fill="currentColor" transform="translate(0,0)"></path>
<path d="M 1413.64 1401.9 L 1415.35 1404.31 C 1414.34 1409.28 1411.14 1420.81 1406.6 1423.25 L 1405.3 1422.66 L 1413.64 1401.9 z" fill="currentColor" transform="translate(0,0)"></path>
<path d="M 1618.69 914.867 L 1618 914.048 C 1613.17 912.832 1615.44 916.299 1611.27 916.114 C 1609.88 912.785 1611.76 910.265 1611.35 909.138 C 1608.9 902.537 1613.06 901.988 1615.7 896.06 C 1618.22 890.407 1623.29 887.732 1622.23 881.861 L 1622.03 880.804 C 1624.68 875.716 1627.83 876.046 1632.86 872.174 C 1636.04 878.628 1622.66 908.466 1618.69 914.867 z" fill="currentColor" transform="translate(0,0)"></path>
<path d="M 1268.51 1756.84 L 1268.56 1755.46 C 1274.13 1747.23 1277.6 1733.29 1281.63 1728.79 C 1284.22 1729.13 1283.06 1728.95 1285.59 1731.12 C 1285.34 1735.31 1282.27 1735.12 1280.48 1739.84 C 1281.28 1742.87 1281.32 1743.64 1283.52 1746.04 C 1281.34 1751.71 1278.31 1754.23 1276.8 1759.01 C 1274.35 1766.74 1272.42 1776.48 1267.43 1783.11 C 1258.35 1777.02 1269.89 1767.68 1271.35 1760.17 C 1271.59 1758.96 1269.48 1757.7 1268.51 1756.84 z" fill="currentColor" transform="translate(0,0)"></path>
<path d="M 1572.65 1010.09 L 1577.93 1013.28 C 1580.01 1023.24 1558.81 1049.74 1558.15 1057.95 C 1548.81 1052.4 1555.37 1047.83 1561.32 1042.32 C 1559.85 1040.33 1560.17 1041.46 1559.94 1039.06 C 1566.18 1030.59 1565.49 1019.61 1571.7 1013.78 C 1572.63 1012.41 1572.38 1012.01 1572.65 1010.09 z" fill="currentColor" transform="translate(0,0)"></path>
<path d="M 1571.7 1013.78 L 1573.32 1015.78 C 1572.08 1021.77 1568.43 1033.11 1564.09 1037.52 C 1560.71 1040.97 1563.19 1039.39 1561.32 1042.32 C 1559.85 1040.33 1560.17 1041.46 1559.94 1039.06 C 1566.18 1030.59 1565.49 1019.61 1571.7 1013.78 z" fill="currentColor" transform="translate(0,0)"></path>
<path d="M 212.853 1661.87 C 216.288 1664.06 214.913 1664.7 217.359 1667.39 C 220.667 1671.02 219.707 1676.76 221.935 1680.95 C 225.808 1685.87 232.969 1692.67 237.034 1697.08 C 238.099 1698.24 237.117 1707.1 239.375 1713 C 232.03 1702.99 209.343 1675.67 212.853 1661.87 z" fill="currentColor" transform="translate(0,0)"></path>
<path d="M 1461.64 1303.11 C 1458.79 1302.65 1457.51 1302.39 1454.64 1301.59 L 1454.16 1300.11 L 1457.4 1299.25 C 1458.87 1296.52 1458.3 1290.63 1458.58 1287.66 C 1459.69 1275.7 1468.61 1279.09 1469.98 1276.42 C 1473.56 1269.49 1468.6 1269.97 1477.5 1263.1 C 1475.79 1270.16 1465.88 1298.62 1461.64 1303.11 z" fill="currentColor" transform="translate(0,0)"></path>
<path d="M 233.658 1527.98 C 235.787 1531.4 236.066 1531.76 237.191 1535.56 C 236.33 1538.12 235.61 1538.79 233.833 1540.84 C 222.951 1553.38 237.6 1565.96 218.503 1575.34 C 220.958 1561.98 228.896 1541.03 233.658 1527.98 z" fill="currentColor" transform="translate(0,0)"></path>
<path d="M 248.029 1725.21 C 255.459 1727.45 252.951 1727.21 259.126 1733.42 L 260.696 1731.42 C 261.881 1732.61 262.406 1732.48 262.312 1734.05 C 261.726 1743.84 271.521 1746.14 277.372 1753.54 C 280.452 1753.1 282.917 1752.59 285.961 1751.93 C 287.961 1753.63 287.272 1752.58 288.05 1755.05 C 286.79 1760.28 286.446 1759.36 291.04 1762.31 L 293.303 1766.66 C 294.524 1768.98 294.857 1769.21 294.79 1771.76 C 281.548 1760.91 257.84 1739.3 248.029 1725.21 z" fill="currentColor" transform="translate(0,0)"></path>
<path d="M 1210.85 1882.87 C 1213.58 1877.09 1206.48 1874.98 1216.96 1864.49 L 1218.06 1865.48 L 1217.08 1868.46 C 1219.24 1870.55 1220.6 1869.95 1224.41 1870.36 C 1221.32 1876.76 1215.55 1884.66 1211.35 1890.62 C 1210.94 1888.13 1210.95 1885.42 1210.85 1882.87 z" fill="currentColor" transform="translate(0,0)"></path>
<path d="M 353.238 1271.73 C 356.914 1280.82 354.432 1297.7 344.142 1292.11 C 347.348 1285.8 350.402 1278.3 353.238 1271.73 z" fill="currentColor" transform="translate(0,0)"></path>
<path d="M 1253.56 1810.96 C 1249.72 1811.9 1248.26 1817.05 1243.44 1821 C 1242.15 1816.43 1245.64 1804.48 1250.97 1802.76 L 1253.32 1804.41 C 1253.63 1805.92 1254 1807.31 1254.48 1808.76 C 1253.75 1810.9 1254.1 1810.41 1253.56 1810.96 z" fill="currentColor" transform="translate(0,0)"></path>
<path d="M 1341.01 84.2933 C 1347.79 83.7589 1357.08 83.9109 1363.87 84.5109 C 1355.8 86.8249 1355.46 90.1698 1348.18 93.483 C 1343.2 92.0233 1347.77 89.6815 1341.01 84.2933 z" fill="currentColor" transform="translate(0,0)"></path>
<path d="M 1268.51 1756.84 C 1269.48 1757.7 1271.59 1758.96 1271.35 1760.17 C 1269.89 1767.68 1258.35 1777.02 1267.43 1783.11 L 1265.83 1785.22 C 1255.83 1779.43 1264.98 1765.46 1268.51 1756.84 z" fill="currentColor" transform="translate(0,0)"></path>
<path d="M 1577.83 998.269 C 1580.2 995 1579.81 989.718 1582.01 985.871 L 1584.96 987.411 L 1587.15 986.431 L 1588.54 987.67 C 1587.15 992.747 1586.39 995.534 1582.5 999.215 C 1580.94 998.918 1579.38 998.602 1577.83 998.269 z" fill="currentColor" transform="translate(0,0)"></path>
<path d="M 1692.21 709.037 C 1694.19 710.157 1695.64 710.946 1697.71 711.907 C 1698.23 720.47 1695.3 717.575 1694.03 723.702 C 1691.44 721.435 1691.47 721.227 1689.72 718.41 C 1689.19 714.155 1690.19 713.106 1692.21 709.037 z" fill="currentColor" transform="translate(0,0)"></path>
<path d="M 1424 1389.95 C 1428.9 1384.61 1425.91 1376.24 1432.15 1373.53 L 1433.67 1375.72 C 1432.76 1380.55 1432.27 1385.97 1429.62 1389.89 L 1427.55 1391.1 C 1426.63 1390.82 1424.8 1390.32 1424 1389.95 z" fill="currentColor" transform="translate(0,0)"></path>
<path d="M 1594.76 969.608 C 1593.32 973.806 1591.17 982.94 1588.58 984.634 L 1587.22 984.651 C 1587.46 978.722 1584.42 979.587 1585.63 973.531 C 1588.98 970.552 1590.18 970.651 1594.76 969.608 z" fill="currentColor" transform="translate(0,0)"></path>
<path d="M 581.366 1894.7 C 583.482 1889.32 585.384 1887.04 590.743 1890.61 C 591.295 1893.46 590.863 1893.52 589.963 1896.52 L 581.366 1894.7 z" fill="currentColor" transform="translate(0,0)"></path>
<path d="M 288.05 1755.05 C 290.096 1755.97 292.159 1756.84 294.24 1757.67 C 293.789 1762.63 293.868 1758.83 291.04 1762.31 C 286.446 1759.36 286.79 1760.28 288.05 1755.05 z" fill="url(#Gradient3)" transform="translate(0,0)"></path>
<path d="M 1083.24 99.5353 C 1088.29 100.522 1112.38 100.019 1119.21 100.091 C 1137.29 99.898 1157.25 104.27 1175.01 104.108 C 1288.57 103.075 1402.22 103.942 1515.51 112.779 C 1591.17 118.681 1674.31 117.557 1745.9 143.985 C 1820.76 171.624 1758.84 270.27 1738.88 318.857 L 1659.11 512.907 C 1587.26 686.233 1516.5 860.012 1446.85 1034.24 L 1247.05 1542.15 L 1182.01 1705.76 C 1165.92 1746.29 1150.54 1787.39 1130.92 1826.27 C 1119.2 1849.47 1105.49 1860 1080.54 1868.01 C 1047.84 1878.51 1010.83 1877.4 976.87 1875.82 C 973.142 1875.64 960.563 1875.49 957.835 1874.1 C 894.792 1868.41 832.243 1857.5 769.979 1846.36 C 688.337 1831.76 602.186 1815.37 522.77 1791.72 C 491.993 1782.55 460.773 1772.53 430.757 1761.13 C 406.914 1752.07 383.647 1741.75 360.085 1732.03 C 330.196 1719.69 302.937 1705.72 274.648 1690.16 C 264.469 1684.56 252.694 1679.54 243.642 1672.23 C 235.325 1665.51 232.567 1654.05 231.578 1643.81 C 228.791 1614.96 238.17 1575.97 248.135 1548.75 C 255.983 1527.32 268.011 1499.36 278.053 1478.81 C 283.1 1468.49 289.226 1458.72 294.218 1448.36 C 303.146 1429.84 310.051 1410.27 318.878 1391.66 C 331.308 1365.46 345.429 1340.19 357.402 1313.68 C 496.242 1000.86 642.023 691.156 794.636 384.813 C 815.816 341.888 835.619 296.865 857.244 253.694 C 876.85 214.552 886.36 183.102 914.843 148.036 C 936.449 121.435 980.686 106.315 1013.52 102.177 C 1032.01 99.8471 1061.79 101.576 1083.24 99.5353 z" fill="none" transform="translate(0,0)"></path>
<path d="M 824.625 471.155 C 850.242 416.476 875.55 361.092 895.771 304.172 C 911.236 260.427 920.75 213.945 938.767 171.266 C 940.112 168.078 947.634 159.852 950.333 157.357 C 989.509 121.143 1052.07 126.675 1101.23 125.687 C 1152.95 124.648 1203.52 126.916 1254.68 128.766 L 1448.83 136.068 C 1514.88 138.122 1580.79 133.073 1646.54 141.331 C 1672.01 144.531 1699.03 149.285 1722.46 160.073 C 1740.81 168.48 1749.95 180.711 1744.24 200.852 C 1730.38 249.725 1707.45 304.523 1684.93 349.813 C 1669.18 380.937 1653.93 412.314 1639.18 443.93 C 1634.31 454.172 1630.19 464.408 1625.15 474.705 C 1612.48 499.939 1600.32 525.423 1588.67 551.143 C 1583.9 561.576 1577.53 573.738 1573.91 584.305 C 1570.57 592.346 1565.03 607.5 1559.46 613.247 L 1559.99 614.97 C 1556.64 620.057 1556.35 623.283 1553.97 628.475 C 1552.32 632.057 1548.88 636.828 1546.71 640.35 L 1549.4 639.878 C 1549.41 642.25 1543.06 654.622 1541.4 659.846 L 1493.68 774.275 C 1489.21 785.301 1474.9 823.245 1470.6 831.218 C 1463.67 858.469 1441.9 894.126 1430.79 920.687 C 1417.21 953.136 1403.4 985.493 1389.26 1017.71 L 1347.98 1113.16 C 1345.83 1118.08 1343.27 1126.54 1341.55 1130.16 C 1270.61 1279.44 1202.22 1429.92 1136.39 1581.52 L 1133.73 1587.07 C 1131.21 1593.55 1127.21 1604.89 1124.35 1610.8 C 1131.04 1613.88 1152.38 1611.21 1160.46 1610.21 C 1161.1 1611.86 1160.93 1611.01 1160.96 1612.76 C 1167.66 1613.97 1168.42 1609.78 1171.89 1612.49 C 1172.76 1628.31 1108.89 1790.22 1095.48 1804.06 C 1063.3 1837.31 954.907 1822.78 908.174 1817.87 C 857.097 1812.65 806.191 1805.86 755.53 1797.52 C 738.206 1794.57 709.916 1790.77 693.848 1786.43 C 691.037 1786.15 687.781 1785.46 684.944 1784.95 C 599.671 1769.07 515.562 1747.47 433.186 1720.3 C 374.808 1701.12 239.72 1661.13 260.908 1574.95 C 265.626 1555.76 310.801 1444.5 325.584 1434.47 C 333.725 1439.94 335.296 1440.37 344.554 1442.2 C 379.671 1361.94 424.467 1278.97 465.118 1201.19 C 480.311 1172.12 495.05 1136.54 511.644 1108.97 C 512.76 1105.29 522.586 1086.74 524.738 1082.63 C 533.671 1065.95 542.362 1049.13 550.808 1032.2 C 553.9 1024.8 559.786 1014.35 563.658 1007.26 C 577.916 977.36 597.932 941.762 610.454 913.262 L 612.263 910.186 C 618.536 893.949 633.622 870.643 640.474 853.488 C 642.511 848.386 645.569 843.974 647.334 838.304 C 679.324 776.874 711.511 707.962 740.962 645.043 C 744.594 636.179 748.712 627.522 753.297 619.112 C 766.454 590.513 780.067 562.125 794.131 533.961 C 797.636 526.958 805.397 509.887 809.322 503.986 C 813.684 493.289 819.583 481.663 824.625 471.155 z" fill="currentColor" transform="translate(0,0)"></path>
<path d="M 511.644 1108.97 C 509.858 1122.51 478.937 1169.34 481.005 1176.97 C 482.568 1177.82 484 1178.68 485.356 1179.83 C 485.702 1183.11 484.052 1185.83 482.53 1188.81 L 431.853 1287.27 C 426.544 1297.35 420.613 1307.17 415.228 1317.24 C 410.89 1325.35 407.574 1334.81 403.381 1342.81 C 389.322 1369.6 375.978 1396.26 363.839 1424.01 C 361.979 1428.26 356.534 1436.6 354.178 1440.41 C 353.297 1441.84 363.299 1452.83 364.631 1454.63 C 365.181 1455.37 366.814 1456.03 367.881 1456.48 L 365.392 1460.08 C 360.905 1460.15 359.509 1459.97 355.3 1461.22 C 358.282 1462.34 362.401 1464.04 365.326 1464.97 C 416.228 1479.48 468.392 1497.47 519.364 1510.23 C 550.49 1519.33 584.978 1527.44 616.454 1536.21 C 625.866 1538.84 675.357 1552.25 682.622 1552.88 C 693.754 1556.2 705.63 1558.4 716.98 1561.08 C 752.515 1569.33 788.331 1576.32 824.361 1582.04 C 847.94 1587.97 895.099 1593.34 919.988 1597.06 C 998.52 1608.63 1077.25 1618.79 1156.15 1627.52 C 1153.38 1635.29 1150.66 1643.23 1147.6 1650.88 L 1146.72 1652.51 C 1142.78 1660 1140.17 1668.95 1137.15 1676.88 C 1127.23 1703.01 1102.85 1777.47 1086.74 1794.15 C 1080.46 1800.65 1071.17 1804.74 1062.66 1807.46 C 1005.13 1825.9 825.279 1796.54 760.262 1785.96 C 746.327 1783.7 732.407 1781.35 718.504 1778.9 C 713.083 1777.94 701.398 1775.42 696.348 1774.92 C 693.506 1778.7 692.174 1778.22 689.254 1782.94 C 691.152 1784.48 691.174 1784.34 693.548 1785.09 L 693.848 1786.43 C 691.037 1786.15 687.781 1785.46 684.944 1784.95 C 599.671 1769.07 515.562 1747.47 433.186 1720.3 C 374.808 1701.12 239.72 1661.13 260.908 1574.95 C 265.626 1555.76 310.801 1444.5 325.584 1434.47 C 333.725 1439.94 335.296 1440.37 344.554 1442.2 C 379.671 1361.94 424.467 1278.97 465.118 1201.19 C 480.311 1172.12 495.05 1136.54 511.644 1108.97 z" fill="none" transform="translate(0,0)"></path>
<path d="M 511.644 1108.97 C 509.858 1122.51 478.937 1169.34 481.005 1176.97 C 482.568 1177.82 484 1178.68 485.356 1179.83 C 485.702 1183.11 484.052 1185.83 482.53 1188.81 L 431.853 1287.27 C 426.544 1297.35 420.613 1307.17 415.228 1317.24 C 410.89 1325.35 407.574 1334.81 403.381 1342.81 C 389.322 1369.6 375.978 1396.26 363.839 1424.01 C 361.979 1428.26 356.534 1436.6 354.178 1440.41 C 353.297 1441.84 363.299 1452.83 364.631 1454.63 C 365.181 1455.37 366.814 1456.03 367.881 1456.48 L 365.392 1460.08 C 360.905 1460.15 359.509 1459.97 355.3 1461.22 L 326.703 1451.03 C 314.909 1480.4 300.792 1508.16 288.355 1537.09 C 279.29 1558.18 264.209 1589.12 274.884 1612.18 C 292.549 1650.35 341.742 1672.15 378.418 1688.19 C 419.092 1703.96 464.283 1718.06 506.311 1729.4 C 541.713 1738.95 576.3 1749.31 612.124 1756.99 C 633.891 1761.66 655.13 1767.52 677.324 1770.87 C 683.789 1771.85 690.448 1774.18 696.348 1774.92 C 693.506 1778.7 692.174 1778.22 689.254 1782.94 C 691.152 1784.48 691.174 1784.34 693.548 1785.09 L 693.848 1786.43 C 691.037 1786.15 687.781 1785.46 684.944 1784.95 C 599.671 1769.07 515.562 1747.47 433.186 1720.3 C 374.808 1701.12 239.72 1661.13 260.908 1574.95 C 265.626 1555.76 310.801 1444.5 325.584 1434.47 C 333.725 1439.94 335.296 1440.37 344.554 1442.2 C 379.671 1361.94 424.467 1278.97 465.118 1201.19 C 480.311 1172.12 495.05 1136.54 511.644 1108.97 z" fill="currentColor" transform="translate(0,0)"></path>
<path d="M 659.818 1590.09 C 772.183 1576.42 786.878 1738.52 673.526 1748.48 C 587.964 1755.99 553.628 1650.82 618.34 1604.94 C 634.959 1594.73 640.571 1593.32 659.818 1590.09 z" fill="none" transform="translate(0,0)"></path>
<path d="M 659.818 1590.09 C 772.183 1576.42 786.878 1738.52 673.526 1748.48 C 587.964 1755.99 553.628 1650.82 618.34 1604.94 C 625.231 1610.15 623.328 1612.96 620.128 1620.74 C 608.952 1630.54 602.069 1642.91 599.187 1657.28 C 593.118 1687.53 615.33 1725.85 646.954 1730.87 C 667.912 1734.2 692.558 1728.49 709.389 1716.29 C 735.395 1697.44 746.056 1649.9 724.132 1624.3 C 712.169 1610.14 701.173 1605.76 684.071 1603.33 L 683.853 1600.53 C 680.653 1596.49 678.174 1595.65 673.282 1594.63 L 673.392 1594.34 C 669.17 1593.37 664.651 1594.66 660.359 1593.85 L 659.818 1590.09 z" fill="currentColor" transform="translate(0,0)"></path>
<path d="M 618.34 1604.94 C 634.959 1594.73 640.571 1593.32 659.818 1590.09 L 660.359 1593.85 C 664.651 1594.66 669.17 1593.37 673.392 1594.34 L 673.282 1594.63 C 678.174 1595.65 680.653 1596.49 683.853 1600.53 L 684.071 1603.33 C 661.045 1600.38 642.749 1603.28 623.86 1617.79 C 622.604 1618.76 621.36 1619.74 620.128 1620.74 C 623.328 1612.96 625.231 1610.15 618.34 1604.94 z" fill="currentColor" transform="translate(0,0)"></path>
<path d="M 661.482 1618.99 C 671.79 1620.18 679.738 1618.02 689.5 1625.49 C 696.146 1630.58 706.875 1642.34 700.547 1651.06 C 693.754 1652.23 688.357 1641.42 682.344 1637.47 C 677.575 1634.34 675.613 1633.74 670.101 1632.27 L 668.834 1631.95 C 666.866 1632.55 664.917 1633.21 662.99 1633.94 C 649.398 1639.17 641.382 1647.76 635.604 1660.6 C 631.371 1675.86 632.516 1681.28 639.674 1694.82 C 640.943 1697.22 639.136 1699.13 637.875 1701.02 C 635.807 1701.75 634.598 1702.4 632.478 1700.97 C 614.706 1688.99 615.617 1664.14 624.7 1647.59 C 633.175 1632.13 645.562 1623.81 661.482 1618.99 z" fill="currentColor" transform="translate(0,0)"></path>
<path d="M 367.881 1456.48 C 371.202 1456.84 375.213 1457.11 378.404 1457.85 C 385.008 1457.51 430.468 1473.49 441.596 1476.91 C 442.905 1478.96 442.485 1477.85 442.85 1480.26 C 445.556 1480.35 451.575 1478.14 452.81 1478.56 C 466.312 1483.19 479.741 1487.94 493.46 1491.95 C 499.581 1493.71 508.653 1493.22 514.433 1496.07 C 515.931 1498.65 516.122 1499.22 517.143 1502.05 L 519.004 1502.8 L 521.021 1500.46 L 522.715 1502.13 L 522.54 1503.96 C 519.995 1504.91 517.508 1505.4 515.149 1506.41 C 516.736 1508.15 517.52 1508.74 519.364 1510.23 C 468.392 1497.47 416.228 1479.48 365.326 1464.97 C 362.401 1464.04 358.282 1462.34 355.3 1461.22 C 359.509 1459.97 360.905 1460.15 365.392 1460.08 L 367.881 1456.48 z" fill="currentColor" transform="translate(0,0)"></path>
<path d="M 367.881 1456.48 C 371.202 1456.84 375.213 1457.11 378.404 1457.85 C 373.525 1459.07 365.735 1458.74 365.326 1464.97 C 362.401 1464.04 358.282 1462.34 355.3 1461.22 C 359.509 1459.97 360.905 1460.15 365.392 1460.08 L 367.881 1456.48 z" fill="currentColor" transform="translate(0,0)"></path>
<path d="M 610.454 913.262 C 613.763 917.286 614.273 916.974 611.527 922.434 C 614.105 926.903 613.928 920.351 615.456 926.094 C 613.168 926.755 614.046 926.605 611.586 926.353 C 611.072 928.038 610.776 929.551 610.386 931.025 C 606.092 947.247 594.598 963.567 588.158 979.85 C 586.691 983.557 577.166 1005.34 575.941 1007.43 C 570.031 1007.55 570.455 1009.62 563.658 1007.26 C 577.916 977.36 597.932 941.762 610.454 913.262 z" fill="currentColor" transform="translate(0,0)"></path>
<path d="M 682.622 1552.88 C 688.724 1549.99 716.565 1560.52 721.237 1559.27 C 721.655 1556.57 721.609 1555.92 721.539 1553.16 C 727.16 1549.01 770.901 1563.99 780.284 1564.57 C 781.762 1564.66 784.59 1571.23 785.325 1572.86 C 790.752 1574.76 809.107 1577.29 815.808 1578.68 C 817.117 1578.95 820.894 1577.31 822.332 1576.66 C 823.399 1578.9 823.913 1579.62 824.361 1582.04 C 788.331 1576.32 752.515 1569.33 716.98 1561.08 C 705.63 1558.4 693.754 1556.2 682.622 1552.88 z" fill="currentColor" transform="translate(0,0)"></path>
<path d="M 1470.6 831.218 C 1470.84 819.321 1523.31 695.931 1530.89 676.726 L 1529.97 675.31 L 1526.82 675.823 C 1519.03 681.355 1516.5 697.474 1511.96 705.658 C 1505.12 717.988 1500.16 730.561 1496.24 744.102 C 1490.52 763.821 1478.91 780.929 1472.04 800.131 C 1471.16 802.611 1470.85 803.927 1469.67 806.528 L 1468.89 806.056 C 1471.64 792.556 1484.99 770 1490.2 756.554 C 1494.71 746.926 1496.78 734.446 1501.2 725.011 C 1511.1 703.883 1519.89 682.445 1529.15 661.036 C 1531.24 656.209 1531.99 660.712 1537.03 658.873 C 1538.12 655.93 1537.34 656.739 1539.49 654.965 L 1541.4 659.846 L 1493.68 774.275 C 1489.21 785.301 1474.9 823.245 1470.6 831.218 z" fill="currentColor" transform="translate(0,0)"></path>
<path d="M 1559.46 613.247 C 1556.44 595.831 1556.32 590.356 1573.91 584.305 C 1570.57 592.346 1565.03 607.5 1559.46 613.247 z" fill="currentColor" transform="translate(0,0)"></path>
<path d="M 753.297 619.112 C 758.851 623.166 755.489 616.582 759.328 621.024 C 757.459 622.56 758.168 622.153 755.98 622.959 C 756.482 625.485 756.147 624.601 757.6 626.736 C 753.022 630.514 749.908 629.381 748.27 635.566 C 747.212 639.56 745.672 643.069 743.21 646.425 L 740.962 645.043 C 744.594 636.179 748.712 627.522 753.297 619.112 z" fill="currentColor" transform="translate(0,0)"></path>
<path d="M 1133.73 1587.07 C 1121.64 1585.23 1119.13 1581.44 1125.58 1570.6 C 1128.43 1574.87 1126.01 1571.67 1125.18 1575.48 C 1126.06 1578.13 1126.77 1580.29 1127.32 1581.96 C 1129.89 1583.27 1132.98 1582.09 1136.39 1581.52 L 1133.73 1587.07 z" fill="currentColor" transform="translate(0,0)"></path>
<path d="M 915.086 284.652 C 920.997 267.33 926.466 249.86 931.49 232.261 C 935.449 218.748 942.713 190.053 949.445 178.852 C 955.866 168.141 965.228 159.499 976.419 153.955 C 996.885 143.718 1028.09 138.898 1050.87 138.138 C 1089.21 136.86 1128.26 137.599 1166.59 138.309 C 1251.05 140.057 1335.48 142.878 1419.87 146.772 C 1439.39 147.479 1460.3 148.107 1480.25 148.138 C 1554.01 148.252 1631.43 144.225 1703.06 164.998 C 1713.91 168.145 1723.23 174.845 1732.13 181.292 C 1733.48 185.718 1735.27 189.887 1734.14 194.513 C 1730.55 209.255 1725.52 223.653 1720.18 237.845 C 1715.54 250.149 1678.42 339.989 1672.29 343.582 C 1670.1 344.862 1627.35 339.755 1620.84 339.404 L 1391.68 329.326 C 1380.57 328.803 1369.27 328.992 1358.32 328.365 L 1215.53 320.887 C 1191.82 319.765 1166.52 318.252 1142.74 318.614 C 1135.23 318.729 1131.19 317.292 1124.55 317.16 L 1038.67 315.248 C 1030.64 315.11 1025.28 312.68 1017.15 313.563 C 1009.79 313.614 1004.99 313.734 997.692 312.748 L 999.288 315.009 C 997.941 317.014 996.381 318.384 994.677 320.121 C 971.891 321.127 945.893 317.436 922.763 317.568 C 921.07 317.578 920.178 316.049 919.503 314.846 C 922.544 312.587 930.376 321.699 936.299 313.995 L 935.187 312.373 C 929.476 310.63 927.176 311.573 921.186 311.439 C 918.323 314.886 915.14 319.507 910.342 318.595 C 908.933 316.127 908.877 315.437 908.536 312.605 C 901.79 320.542 900.71 332.787 894.96 338.632 L 894.441 338.202 C 903.238 323.316 904.519 309.189 910.818 293.609 C 911.942 290.828 911.002 290.252 909.732 287.95 C 911.636 285.181 911.188 286.024 915.086 284.652 z" fill="none" transform="translate(0,0)"></path>
<path d="M 999.288 315.009 C 997.941 317.014 996.381 318.384 994.677 320.121 C 971.891 321.127 945.893 317.436 922.763 317.568 C 921.07 317.578 920.178 316.049 919.503 314.846 C 922.544 312.587 930.376 321.699 936.299 313.995 L 935.187 312.373 C 929.476 310.63 927.176 311.573 921.186 311.439 C 918.323 314.886 915.14 319.507 910.342 318.595 C 908.933 316.127 908.877 315.437 908.536 312.605 C 901.79 320.542 900.71 332.787 894.96 338.632 L 894.441 338.202 C 903.238 323.316 904.519 309.189 910.818 293.609 C 911.942 290.828 911.002 290.252 909.732 287.95 C 911.636 285.181 911.188 286.024 915.086 284.652 C 913.793 288.95 908.006 306.149 908.32 309.483 C 906.333 308.906 929.602 309.439 928.886 309.478 C 947.957 308.444 979.573 316.226 997.692 312.748 L 999.288 315.009 z" fill="currentColor" transform="translate(0,0)"></path>
<path d="M 1335.3 186.177 C 1337.46 186.245 1341.45 186.334 1343.51 186.67 C 1347.97 187.407 1351.94 189.929 1354.5 193.655 C 1360.39 202.238 1359.18 212.7 1357.57 222.251 C 1362.19 224.461 1374.22 223.039 1379.61 222.752 C 1390.17 220.47 1408.44 224.051 1417.24 223.332 C 1441.65 221.339 1447.72 252.505 1427.6 254.855 C 1406.13 257.363 1378.2 253.643 1355.86 253.431 C 1347.55 253.353 1327.81 253.755 1319.77 252.334 C 1304.99 248.729 1274.49 252.468 1258 250.364 C 1250.45 249.401 1239.93 251.169 1231.49 250.187 C 1217.38 249.571 1204.97 225.463 1218.3 216.117 C 1227.54 209.638 1244.85 212.336 1255.53 213.886 C 1271.59 216.217 1288.36 217.27 1304.13 220.454 C 1310.8 203.961 1315.88 190.254 1335.3 186.177 z" fill="currentColor" transform="translate(0,0)"></path>
<path d="M 1228.67 224.403 C 1250.57 223.223 1289.35 233.611 1313.36 235.142 C 1333.5 236.427 1408.45 233.378 1423.32 239.519 L 1423.47 240.64 L 1420.96 241.894 C 1404.8 244.092 1388.9 241.033 1372.51 241.037 C 1328.86 241.05 1284.92 239.134 1241.28 238.046 C 1233.8 237.859 1224.05 235.108 1225.85 225.593 L 1228.67 224.403 z" fill="none" transform="translate(0,0)"></path>
<path d="M 1334.79 201.982 C 1342.59 203.918 1351.24 213.89 1344.32 221.967 C 1343.13 223.355 1333.82 222.758 1331.58 222.504 C 1326.44 222.537 1321.3 222.657 1316.17 222.863 C 1321.51 208.935 1322.44 209.073 1334.79 201.982 z" fill="none" transform="translate(0,0)"></path>
<path d="M 1122.16 1315.64 C 1146.57 1299.28 1174.01 1289.57 1191.52 1267.71 C 1197.43 1260.33 1202.18 1250.09 1207.53 1242.2 C 1193.37 1300.16 1184.53 1286.94 1139.39 1314.52 C 1131.82 1329.59 1110.31 1382.41 1099.41 1388.83 C 1092.51 1388.72 1069.64 1396.83 1069.74 1404.39 C 1076.83 1408.58 1113.42 1399.54 1123.22 1397.88 C 1131.06 1400.71 1186.15 1424.64 1189.65 1427.9 C 1189.62 1431.07 1188.86 1432.04 1187.46 1434.84 C 1184.05 1435.63 1185.13 1434.68 1183.51 1437.01 L 1185.23 1440.8 L 1184.57 1441.65 C 1173.25 1436.68 1163.72 1434.02 1151.77 1430.97 C 1149.49 1428.91 1149.49 1426.54 1148.88 1423.41 C 1115.34 1410.16 1121.81 1419.94 1090.21 1430.03 C 1080.24 1433.22 1054.07 1435.67 1041.87 1437.7 C 1046.84 1449.11 1050.48 1452.11 1058.94 1461.51 C 1060 1466.33 1060.37 1467.03 1059.75 1471.79 C 1054.94 1480.65 1038.42 1478.79 1037.76 1481.75 C 1035.33 1492.59 1041.78 1538.27 1031.18 1545.98 L 1030.27 1545.39 C 1029.75 1543.29 1029.46 1541.64 1028.24 1539.83 C 1025.39 1535.61 1017.51 1492.55 1016.51 1484.6 C 1015.88 1479.59 1016.16 1474.55 1015.66 1469.51 C 1006.71 1463.21 995.492 1482.18 989.416 1487.77 C 982.648 1493.99 978.225 1503.42 972.533 1510.34 L 971.719 1511.31 C 973.211 1518.95 972.925 1535.57 974.022 1545.47 C 973.192 1546.81 972.309 1548.12 971.375 1549.39 C 968.09 1553.82 939.509 1577.37 933.2 1581.75 C 931.653 1582.83 926.159 1583.63 924.003 1583.93 C 936.547 1570.3 943.927 1562.84 958.432 1551.29 C 957.79 1543.49 956.432 1534.73 955.372 1526.94 L 957.829 1524.33 C 957.109 1521.88 957.733 1522.98 955.375 1521.32 L 958.289 1517.76 C 960.139 1505.91 962.379 1494.3 964.918 1482.6 C 966.04 1477.42 968.858 1469.24 966.162 1464.83 C 965.121 1464.3 962.415 1462.82 961.234 1463.14 C 946.756 1468.24 933.112 1476.97 919.306 1484.96 C 912.423 1490.29 870.227 1501.31 867.958 1505.16 C 857.389 1523.08 847.187 1544.15 834.634 1559.98 L 835.11 1559.24 L 834.351 1558.01 C 839.75 1541.98 856.605 1516.52 866.005 1500.78 C 876.822 1497.96 901.559 1487.94 909.808 1480.51 C 916.98 1474.04 920.185 1455.97 928.723 1449.16 C 933.245 1445.56 967.873 1435.43 963.337 1425.96 C 960.085 1419.18 943.653 1407.59 936.382 1404.22 C 931.296 1406.54 916.861 1407.22 912.743 1402.39 C 912.684 1402.34 912.636 1402.27 912.565 1402.24 C 909.832 1401.09 900.363 1405.04 896.364 1405.55 C 887.72 1406.64 809.257 1416.01 806.758 1417.37 C 805.872 1417.85 805.16 1418.62 804.257 1419.07 C 801.062 1420.65 791.451 1420.27 787.526 1420.89 C 763.408 1424.69 739.552 1430.22 715.335 1433.54 C 702.373 1435.32 689.306 1435.89 676.259 1436.72 C 670.501 1437.08 663.469 1438.74 657.944 1437.14 C 655.457 1434.91 656.317 1436.27 655.576 1432.75 L 657.306 1431.41 C 672.296 1431.74 682.157 1428.78 696.962 1426.87 C 721.603 1423.7 749.058 1420.48 773.179 1414.7 C 785.777 1410.15 793.442 1401.76 807.171 1399.57 C 835.858 1395.01 858.552 1414.75 884.515 1395.24 C 891.971 1395.79 928.005 1393.17 933.899 1389.88 C 932.869 1384.56 907.782 1370.19 902.241 1364.44 C 892.956 1355.41 893.605 1340.55 885.977 1330.69 C 877.978 1320.35 865.786 1315.32 856.351 1306.22 C 870.873 1310.75 881.757 1316.62 894.994 1323.84 C 906.294 1347.23 909.078 1346.55 929.961 1361.85 C 937.248 1367.19 976.187 1416.61 977.667 1382.44 C 977.912 1376.79 974.014 1365.5 972.808 1359.55 C 967.294 1339.09 962.638 1321.24 962.971 1299.89 C 963.631 1294.1 964.208 1288.31 964.702 1282.52 C 968.222 1290.32 972.123 1298.56 975.332 1306.44 C 975.163 1305.46 998.386 1376.35 997.67 1375.25 C 1006.57 1374.55 1025.74 1336.28 1034.97 1332.71 C 1039.88 1336.32 1034.35 1343.63 1037.01 1348.07 C 1040.25 1350.1 1038.55 1349.75 1042.27 1349.26 C 1046.01 1345.98 1049.08 1326.35 1049.14 1320.85 C 1049.33 1303.35 1048.45 1273.29 1056.02 1257.05 L 1057.18 1256.48 C 1060.49 1262.15 1058.79 1273.88 1059.11 1281.22 C 1059.8 1296.93 1064.35 1314.12 1062.64 1329.85 C 1057.59 1345.12 1025.73 1375.05 1025.45 1391.97 C 1027.08 1394.91 1025.89 1393.91 1029.26 1394.94 C 1039.37 1393.43 1046.52 1385.86 1057.52 1381.88 C 1066.11 1378.75 1074.87 1376.1 1083.76 1373.95 C 1089.95 1372.45 1097.55 1371.39 1103.23 1369.14 C 1106.61 1353.09 1115.46 1330.93 1122.16 1315.64 z" fill="currentColor" transform="translate(0,0)"></path>
<path d="M 1148.88 1423.41 C 1157.62 1425.82 1181.24 1431.24 1187.46 1434.84 C 1184.05 1435.63 1185.13 1434.68 1183.51 1437.01 L 1185.23 1440.8 L 1184.57 1441.65 C 1173.25 1436.68 1163.72 1434.02 1151.77 1430.97 C 1149.49 1428.91 1149.49 1426.54 1148.88 1423.41 z" fill="url(#Gradient2)" transform="translate(0,0)"></path>
<path d="M 912.743 1402.39 C 921.641 1396.21 927.001 1400.32 936.382 1404.22 C 931.296 1406.54 916.861 1407.22 912.743 1402.39 z" fill="currentColor" transform="translate(0,0)"></path>
<path d="M 782.507 590.555 C 793.429 565.058 807.141 531.332 825.546 510.041 C 828.417 506.72 832.898 509.669 835.23 509.194 C 854.073 505.358 872.936 499.92 891.79 495.719 C 920.336 490.021 926.901 490.475 951.371 473.565 C 984.028 451.716 992.181 438.449 998.717 400.907 C 1001.5 384.929 1067.14 339.146 1082 329.684 C 1084.54 328.066 1094.99 327.659 1098 327.84 L 1098.19 329.394 C 1096.01 331.905 1079.23 342.488 1073.8 346.951 C 1074.53 348.457 1075.56 349.854 1074.15 351.909 C 1066.42 363.199 1043.63 373.768 1034.9 382.941 L 1034.18 377.651 C 1029.48 381.465 1014.99 392.785 1012.17 396.825 C 993.638 416.099 999.633 450.974 981.852 469.742 C 974.726 477.263 942.434 492.796 932.462 494.708 C 892.57 502.356 869.912 533.635 838.212 556.482 C 826.773 564.726 811.982 573.108 800.879 581.602 L 803.468 585.348 C 801.243 589.134 789.519 591.725 784.211 597.133 L 782.817 596.142 C 783.072 593.874 783.425 592.691 782.507 590.555 z" fill="none" transform="translate(0,0)"></path>
<path d="M 1073.8 346.951 C 1074.53 348.457 1075.56 349.854 1074.15 351.909 C 1066.42 363.199 1043.63 373.768 1034.9 382.941 L 1034.18 377.651 C 1047.57 367.544 1059.24 356.62 1073.8 346.951 z" fill="currentColor" transform="translate(0,0)"></path>
<path d="M 782.507 590.555 C 788.648 587.604 794.772 584.619 800.879 581.602 L 803.468 585.348 C 801.243 589.134 789.519 591.725 784.211 597.133 L 782.817 596.142 C 783.072 593.874 783.425 592.691 782.507 590.555 z" fill="currentColor" transform="translate(0,0)"></path>
<path d="M 709.833 761.678 C 715.864 745.243 807.013 708.759 828.448 703.658 L 831.514 705.87 L 835.748 705.214 L 836.055 706.243 L 833.215 709.893 C 835.149 711.485 835.854 712.092 838.237 712.85 L 838.546 714.185 C 827.328 723.669 790.431 745.591 776.789 749.87 C 775.1 747.278 776.297 747.438 774.994 745.191 C 759.878 752.349 704.838 779.296 691.963 781.786 L 690.366 781.179 C 692.472 776.667 693.845 773.528 695.504 768.844 C 701.464 766.466 704.512 765.48 709.833 761.678 z" fill="none" transform="translate(0,0)"></path>
<path d="M 709.833 761.678 C 715.864 745.243 807.013 708.759 828.448 703.658 L 831.514 705.87 C 787.559 721.744 751.4 742.943 709.833 761.678 z" fill="currentColor" transform="translate(0,0)"></path>
<path d="M 833.215 709.893 C 835.149 711.485 835.854 712.092 838.237 712.85 L 838.546 714.185 C 827.328 723.669 790.431 745.591 776.789 749.87 C 775.1 747.278 776.297 747.438 774.994 745.191 C 796.854 733.209 812.418 723.724 833.215 709.893 z" fill="currentColor" transform="translate(0,0)"></path>
<path d="M 1102.56 1115.8 L 1101.94 1115.03 C 1099.64 1114.62 1098.82 1114.46 1096.6 1113.72 C 1098.09 1103.57 1111.69 1061.09 1117.03 1049.67 C 1117.48 1048.72 1117.91 1048.93 1119.27 1048.83 C 1118.98 1050.84 1118.99 1051.02 1118.95 1053 L 1122.3 1053.41 L 1123.07 1055.93 C 1126.41 1056.51 1131.82 1056.69 1133.7 1058.44 L 1133.95 1060.1 C 1131.83 1066.7 1129.86 1072.81 1127.39 1079.28 C 1119.27 1103.31 1112.59 1132.79 1104.44 1155.63 C 1097.09 1176.26 1071.57 1223.37 1057.99 1240.61 C 1064.35 1216.33 1078.24 1191.98 1087.41 1168.07 C 1094.53 1149.5 1098 1135.11 1102.56 1115.8 z" fill="none" transform="translate(0,0)"></path>
<path d="M 1102.56 1115.8 L 1101.94 1115.03 C 1099.64 1114.62 1098.82 1114.46 1096.6 1113.72 C 1098.09 1103.57 1111.69 1061.09 1117.03 1049.67 C 1117.48 1048.72 1117.91 1048.93 1119.27 1048.83 C 1118.98 1050.84 1118.99 1051.02 1118.95 1053 L 1122.3 1053.41 L 1123.07 1055.93 L 1120.17 1056.78 C 1115.58 1065.37 1105.83 1104.05 1102.56 1115.8 z" fill="currentColor" transform="translate(0,0)"></path>
<path d="M 857.084 564.341 C 858.22 570.152 859.134 576.307 860.309 581.965 C 862.823 594.075 868.458 603.473 866.753 616.254 C 865.51 625.575 862.167 634.174 860.474 642.836 C 858.87 649.371 857.413 655.125 857.062 661.924 C 851.69 666.49 851.324 690.977 845.33 696.843 C 843.295 696.604 843.849 696.899 842.151 695.99 C 840.252 696.553 839.396 696.946 837.668 697.84 L 836.173 697.267 C 836.122 684.186 838.775 666.988 839.615 653.557 C 839.857 649.695 841.383 648.984 843.791 647.322 L 843.457 646.333 C 844.414 643.071 847.092 617.499 847.965 611.287 C 850.326 595.514 853.369 579.85 857.084 564.341 z" fill="none" transform="translate(0,0)"></path>
<path d="M 843.791 647.322 C 844.443 661.308 843.918 681.893 842.151 695.99 C 840.252 696.553 839.396 696.946 837.668 697.84 L 836.173 697.267 C 836.122 684.186 838.775 666.988 839.615 653.557 C 839.857 649.695 841.383 648.984 843.791 647.322 z" fill="currentColor" transform="translate(0,0)"></path>
<path d="M 889.233 528.041 C 889.698 524.205 889.884 523.12 890.88 519.403 C 896.242 517.249 892.791 521.402 896.667 518.767 L 898.103 517.803 C 905.79 512.432 908.056 515.956 911.113 506.92 L 912.772 505.876 C 913.23 508.304 913.126 507.35 912.31 509.983 L 913.309 511.065 C 919.391 507.246 920.816 500.007 925.732 499.739 C 926.042 501.102 926.677 502.04 925.69 502.979 C 913.694 514.389 912.179 509.622 910.46 526.542 C 909.772 533.32 902.004 555.279 895.02 558.086 C 894.673 558.211 891.685 558.404 891.288 558.432 C 889.003 562.71 888.553 567.084 886.475 571.92 C 882.772 580.541 881.821 584.696 875.385 591.653 C 871.525 580.747 867.504 562.33 866.097 550.916 C 867.042 549.613 874.441 539.536 875.25 539.027 C 882.553 534.43 882.868 535.033 889.233 528.041 z" fill="none" transform="translate(0,0)"></path>
<path d="M 889.233 528.041 C 889.698 524.205 889.884 523.12 890.88 519.403 C 896.242 517.249 892.791 521.402 896.667 518.767 L 898.103 517.803 C 905.79 512.432 908.056 515.956 911.113 506.92 L 912.772 505.876 C 913.23 508.304 913.126 507.35 912.31 509.983 L 913.309 511.065 C 919.391 507.246 920.816 500.007 925.732 499.739 C 926.042 501.102 926.677 502.04 925.69 502.979 C 913.694 514.389 912.179 509.622 910.46 526.542 C 909.772 533.32 902.004 555.279 895.02 558.086 C 894.673 558.211 891.685 558.404 891.288 558.432 C 897.913 542.589 903.774 528.961 908.939 512.578 C 902.307 517.651 895.738 522.806 889.233 528.041 z" fill="currentColor" transform="translate(0,0)"></path>
<path d="M 1051.06 1495.05 C 1051.55 1490.32 1052.1 1490.57 1056.33 1486.61 C 1078.51 1495.28 1108.13 1505.67 1126.91 1520.79 C 1131.81 1524.74 1138.48 1534.81 1142.05 1540.44 C 1140.67 1544 1139.65 1547.82 1136.85 1550.24 C 1134.02 1550.46 1132.2 1549.45 1130.1 1547.58 C 1102.76 1523.03 1120.16 1518.26 1081.94 1508.35 C 1076.01 1503.43 1057.52 1501.41 1051.06 1495.05 z" fill="none" transform="translate(0,0)"></path>
<path d="M 796.123 1246.29 C 809.43 1253.26 826.865 1265.42 836.436 1276.82 C 839.974 1278.59 840.187 1279.46 842.234 1282.79 C 844.02 1280.92 843.44 1281.4 844.393 1278.69 C 848.081 1280.19 851.807 1286.79 853.771 1290.34 C 853.013 1295.22 849.59 1292.32 853.645 1297.32 C 851.47 1298.6 852.162 1298.38 849.769 1299.03 C 842.058 1299.97 833.085 1295.62 826.735 1291.43 C 811.021 1280.96 800.031 1264.76 796.123 1246.29 z" fill="currentColor" transform="translate(0,0)"></path>
<path d="M 836.436 1276.82 C 839.974 1278.59 840.187 1279.46 842.234 1282.79 C 844.02 1280.92 843.44 1281.4 844.393 1278.69 C 848.081 1280.19 851.807 1286.79 853.771 1290.34 C 853.013 1295.22 849.59 1292.32 853.645 1297.32 C 851.47 1298.6 852.162 1298.38 849.769 1299.03 C 845.987 1282.94 841.464 1289.17 836.436 1276.82 z" fill="currentColor" transform="translate(0,0)"></path>
<path d="M 1300.06 1178.83 L 1302.01 1178.97 L 1302.71 1180.45 C 1301.4 1185.77 1298.06 1192.06 1295.65 1197.13 C 1264.38 1205.49 1230.29 1216.39 1208.63 1241.73 L 1207.65 1242.97 L 1207.42 1241.66 C 1218.97 1209.41 1272.38 1192.79 1300.06 1178.83 z" fill="none" transform="translate(0,0)"></path>
<path d="M 1124.32 1043.39 C 1128.04 1031.38 1142.2 986.98 1152.44 980.595 L 1154.09 981.141 C 1155.44 984.984 1153.7 992.559 1152.62 996.678 L 1154.73 998.16 C 1153.81 1008.53 1150.07 1033.32 1140.17 1038 C 1139.57 1039 1137.24 1045.41 1136.68 1046.88 L 1124.32 1043.39 z" fill="none" transform="translate(0,0)"></path>
<path d="M 1140.17 1038 C 1141.47 1031.56 1150.32 1001.98 1152.62 996.678 L 1154.73 998.16 C 1153.81 1008.53 1150.07 1033.32 1140.17 1038 z" fill="currentColor" transform="translate(0,0)"></path>
<path d="M 1023.44 1555.6 C 1026.52 1562.41 1019.22 1585.92 1015.75 1592.82 C 1013.32 1594.82 1010.69 1594.44 1007.37 1594.58 L 1006.16 1591.99 C 1007.05 1577.22 1013.65 1566.53 1023.44 1555.6 z" fill="none" transform="translate(0,0)"></path>
<path d="M 1795.74 197.338 C 1802.12 207.763 1804.5 216.646 1808.18 227.767 C 1826.37 282.665 1814.24 338.089 1796.75 391.266 C 1788.91 417.862 1780.42 444.503 1770.52 470.412 C 1754.16 513.224 1734.33 554.776 1717.02 597.194 C 1701.31 635.676 1686.49 674.638 1671.23 713.291 L 1626.38 824.904 L 1436.76 1302.88 C 1430.82 1318.17 1426.11 1333.97 1420.15 1349.21 C 1375.94 1461.31 1329.72 1572.61 1281.53 1683.05 C 1257.18 1739.55 1235.82 1796.64 1206.9 1851.28 C 1188.6 1885.83 1177.67 1906.52 1144.3 1927.65 C 1096.64 1957.82 1062.4 1954.62 1008.9 1946.53 C 996.103 1944.6 978 1945.33 964.757 1943.54 C 945.498 1940.88 922.894 1940.41 904.07 1936.58 C 880.942 1931.88 856.085 1926.63 833.079 1921.41 C 818.003 1917.98 800.374 1915.87 785.038 1913.83 C 767.108 1910.8 743.169 1909.1 726.062 1905.12 C 705.216 1900.28 684.351 1893.21 662.937 1888.77 C 653.661 1886.84 622.721 1881.81 615.593 1878.79 C 619.609 1877.17 623.614 1875.59 627.845 1874.63 C 647.059 1870.25 668.012 1854.43 636.893 1845.69 C 626.429 1848.83 606.319 1852.9 602.041 1863.98 C 600.325 1868.42 602.995 1872.23 605.051 1876.16 C 579.857 1869.56 555.202 1860.6 530.178 1853.68 C 465.919 1835.91 402.519 1811.67 344.851 1777.96 C 329.137 1768.78 313.409 1756.16 299.406 1744.52 L 296.014 1746 C 294.827 1748.33 294.919 1748.25 293.064 1750.07 C 290.221 1748.52 289.229 1743.06 287.837 1739.9 C 284.277 1731.82 276.219 1729.67 274.65 1721.29 C 269.554 1715.51 253.488 1698.07 250.769 1692.07 L 251.4 1691.06 C 255.367 1693.02 258.834 1696.44 262.973 1698.84 C 318.609 1731.11 377.161 1755.19 437.746 1776.91 C 484.703 1793.68 532.414 1808.26 580.723 1820.6 C 656.072 1839.69 735.045 1852.96 811.575 1866.06 C 881.417 1878.02 965.065 1892.4 1035.22 1889.01 C 1052.36 1888.17 1069.31 1884.99 1085.58 1879.55 C 1111.52 1870.89 1126.65 1860.05 1139.58 1836.01 C 1165.01 1788.73 1184.65 1736.2 1203.7 1686.05 L 1258.74 1544.84 L 1503.37 926.958 C 1557.27 792.54 1611.91 658.414 1667.26 524.583 L 1741.8 344.402 C 1760.38 299.854 1788.43 243.974 1795.74 197.338 z" fill="none" transform="translate(0,0)"></path>
<path d="M 274.65 1721.29 C 282.294 1728.48 291.643 1737.78 299.406 1744.52 L 296.014 1746 C 294.827 1748.33 294.919 1748.25 293.064 1750.07 C 290.221 1748.52 289.229 1743.06 287.837 1739.9 C 284.277 1731.82 276.219 1729.67 274.65 1721.29 z" fill="currentColor" transform="translate(0,0)"></path>
<path d="M 1773.1 324.864 C 1781.26 315.453 1787.11 317.656 1796.8 323.158 C 1798.28 324.716 1799.94 326.45 1800.87 328.395 C 1804.25 335.443 1801.3 344.914 1799.07 351.918 C 1792.89 371.39 1784.04 389.887 1776.17 408.727 C 1768.18 427.843 1757.98 456.725 1746.76 473.399 C 1743.29 478.557 1737.93 483.121 1732.35 485.844 C 1728.77 487.592 1723.79 489.107 1719.97 487.193 C 1717.46 485.93 1716.2 483.466 1715.55 480.852 C 1710.24 459.681 1760.46 347.208 1773.1 324.864 z" fill="currentColor" transform="translate(0,0)"></path>
<path d="M 1786.01 332.032 C 1787.33 332.151 1786.59 331.948 1788.09 333.032 C 1788.21 333.829 1788.34 334.431 1788.35 335.218 C 1788.51 347.824 1746.53 449.37 1738.51 463.572 C 1736.23 467.61 1733.02 470.759 1729.76 473.996 L 1728.5 473.349 C 1727.71 456.59 1772.03 357.471 1780.39 335.429 L 1779.84 335.564 L 1786.01 332.032 z" fill="none" transform="translate(0,0)"></path>
<path d="M 695.146 1875.29 C 712.802 1871.45 730.142 1871.49 747.987 1874.47 C 773.955 1894.99 707.47 1897.63 695.907 1890.98 C 691.798 1887.16 685.684 1882.29 688.519 1876.28 C 691.762 1874.76 691.548 1874.91 695.146 1875.29 z" fill="currentColor" transform="translate(0,0)"></path>
<path d="M 1613.29 95.7958 C 1618.11 98.1469 1619.78 96.3852 1621.79 103.373 L 1620.69 102.747 L 1621.42 104.174 C 1619.35 104.714 1617.28 105.27 1615.22 105.845 L 1614.43 104.893 L 1616.03 105.439 L 1614.6 103.927 L 1614.95 105.076 C 1615.08 101.491 1614.22 99.2352 1613.29 95.7958 z" fill="currentColor" transform="translate(0,0)"></path>
<path d="M 1006.17 81.4352 C 1007.48 82.665 1004.9 81.7603 1007.23 85.7638 L 1006.01 87.5913 C 1002.66 87.5228 1002.67 88.0985 1000.46 86.4651 C 1001.97 83.5139 1003.01 83.5695 1006.17 81.4352 z" fill="url(#Gradient1)" transform="translate(0,0)"></path>
<path d="M 806.725 323.888 L 807.234 324.366 C 807.478 327.252 803.86 330.518 801.585 333.271 L 800.544 332.323 C 800.82 329.317 804.429 326.304 806.725 323.888 z" fill="currentColor" transform="translate(0,0)"></path>
</svg>