<svg xmlns="http://www.w3.org/2000/svg" preserveAspectRatio="none" style="display: block;" version="1.1" viewBox="0 0 2048 2048">
<path d="M 1423.97 94.4984 L 1514.4 93.9042 C 1551.02 93.7185 1584.2 92.0857 1620.64 100.143 C 1677.41 112.697 1719.17 170.708 1721.74 227.369 C 1723.35 262.926 1704.8 311.866 1695.25 348.248 C 1679.36 407.169 1663.84 466.192 1648.71 525.316 L 1367.21 1648.06 C 1350.91 1711.53 1337.13 1775.65 1320.44 1839.04 C 1318.71 1845.61 1317.33 1859.86 1313.78 1863.74 C 1307.91 1870.16 1305.68 1877.06 1300.81 1884.25 C 1288.03 1902.85 1272.03 1919.03 1253.55 1932 C 1197.51 1970.75 1145.72 1961.5 1083.83 1949.17 L 1006.28 1933.54 C 908.895 1913.96 811.384 1895.02 713.755 1876.7 C 658.093 1867.4 600.052 1854.61 544.324 1844.09 L 474.896 1831.23 C 458.734 1828.13 444.578 1825.59 428.882 1820.48 C 372.654 1802.19 330.561 1749.15 328.816 1689.54 C 328.324 1672.69 329.291 1654.88 334.354 1638.68 C 343.252 1611.34 353.049 1584.2 362.452 1557.02 L 416.384 1401.5 L 571.709 954.509 C 635.447 773.12 697.997 591.315 759.353 409.106 L 821.65 223.551 C 827.816 205.583 833.232 187.285 839.775 169.331 C 851.697 136.612 883.912 109.605 917.853 102.463 C 931.071 99.6815 951.793 100.405 965.606 100.241 L 1041.08 99.262 L 1305.51 95.7155 C 1344.78 95.3012 1384.8 95.6567 1423.97 94.4984 z" fill="currentColor" transform="translate(0,0)"></path>
<path d="M 1467.03 112.473 C 1479.34 112.304 1491.99 111.937 1504.17 112.167 C 1555.39 113.136 1620.07 102.367 1640.42 163.707 C 1647.73 185.734 1647.76 207.175 1642.42 229.507 C 1622.7 312.109 1598.44 393.779 1577 475.862 L 1384.13 1202.52 L 1274.31 1626.61 C 1259.57 1686.54 1244.18 1746.3 1228.15 1805.89 C 1222.52 1826.84 1217.76 1849.75 1211.55 1869.61 C 1201.49 1901.78 1162.56 1937.77 1127.42 1936.8 C 1112.34 1936.38 1076.05 1927.53 1059.52 1924.43 C 1016.55 1916.45 973.664 1908.08 930.858 1899.3 C 915.316 1896.19 898.773 1893.84 883.633 1890.42 C 886.165 1882.56 890.237 1868.29 880.452 1863.56 C 869.303 1863.01 867.051 1878.5 865.253 1886.43 C 859.691 1885.55 853.903 1884.86 848.305 1884.12 C 849.35 1877.25 855.591 1863.63 851.827 1858.21 C 836.445 1850.32 833.778 1869.97 830.406 1881.03 C 782.491 1869.2 733.633 1862.35 685.301 1852.68 C 674.058 1850.42 659.335 1848.3 648.793 1844.37 C 652.349 1835.96 658.942 1819.48 649.157 1813.18 C 636.356 1811.06 634.376 1833.45 633.289 1841.53 C 628.231 1841.28 623.471 1840.7 618.453 1840.12 C 620.014 1832.65 626.873 1818.81 624.25 1812.46 C 607.697 1797.97 604.558 1825.13 602.262 1836.02 C 575.818 1831.76 551.024 1826.9 524.763 1821.75 C 493.752 1815.89 460.896 1812.15 431.199 1801.45 C 379.837 1782.93 344.245 1732.49 347.83 1677.41 C 350.065 1643.08 364.94 1608.21 376.052 1575.47 L 410.74 1474.43 C 437.251 1396.95 464.284 1319.64 491.839 1242.52 L 689.531 672.439 L 757.12 472.742 C 765.929 446.674 775.814 420.317 784.318 394.352 L 831.382 251.182 C 839.354 227.146 847.056 202.757 855.615 178.955 C 861.725 161.963 871.775 147.487 884.963 135.16 C 878.027 149.532 874.026 163.416 868.928 178.474 C 860.312 203.922 852.608 229.656 843.504 254.931 C 812.935 341.741 783.473 428.938 755.126 516.5 C 736.573 572.179 716.199 629.62 696.854 685.2 L 462.585 1363.31 L 397.316 1551.68 C 388.275 1576.91 379.497 1602.24 370.983 1627.66 C 360.619 1658.29 343.182 1694.73 362.312 1724.6 C 379.186 1750.96 416.994 1754.99 445.448 1761.25 L 522.504 1778.37 L 856.937 1852.98 C 871.962 1856.79 887.132 1859.46 902.26 1862.83 L 1000.34 1884.88 C 1045.09 1895.03 1089.9 1906.39 1135.22 1914.3 C 1150.92 1917.27 1164.9 1915.83 1178.07 1905.83 C 1197.56 1891.01 1200.78 1856.59 1206.28 1833.29 C 1211.5 1811.68 1216.85 1790.1 1222.34 1768.56 L 1282.33 1530.56 C 1358.46 1233.31 1436.8 936.635 1517.34 640.549 L 1607.86 305.502 C 1621.37 254.233 1656.1 197.902 1618.99 147.215 C 1611.81 137.398 1587.97 122.73 1577.04 131.912 C 1568.85 146.669 1592.02 148.266 1600.3 156.196 C 1636.33 190.71 1605.96 247.503 1594.97 286.57 L 1542.44 476.045 L 1360.13 1159.5 C 1324.62 1290.57 1290.67 1422.07 1258.29 1553.95 C 1243.48 1615.86 1225.93 1679.56 1210.49 1741.77 L 1192.04 1816.88 C 1177.85 1876.38 1181.44 1912.89 1109.99 1890.8 C 1095.54 1886.34 1072.5 1881.82 1057.16 1878.4 C 997.205 1865.48 937.361 1852.05 877.636 1838.11 C 767.179 1814.2 656.877 1789.58 546.734 1764.26 L 461.718 1745.38 C 442.026 1741.17 422.179 1737.19 402.611 1732.41 C 394.983 1730.57 389.299 1726.93 383.449 1721.94 C 371.375 1712.12 370.423 1692.47 374.515 1678.24 C 382.03 1652.09 391.961 1626.02 400.436 1600.09 C 427.732 1518.78 455.774 1437.73 484.557 1356.94 L 734.771 632.724 L 836.947 330.311 L 874.851 217.954 C 881.537 197.499 887.711 174.928 894.947 154.895 C 898.316 145.399 903.591 136.692 910.45 129.31 C 915.719 123.734 923.969 121.003 931.495 120.803 C 980.55 119.5 1030.3 118.777 1079.32 117.74 L 1467.03 112.473 z" fill="none" transform="translate(0,0)"></path>
<path d="M 1447.31 217.432 L 1495.87 216.848 C 1526.64 216.555 1567.07 214.078 1564.9 259.672 C 1564.2 274.33 1558.56 289.749 1554.76 303.991 L 1540.16 358.938 L 1504.01 495.663 C 1471.27 617.592 1441.18 740.554 1409.5 862.869 C 1364.47 1041.96 1318.12 1220.71 1270.43 1399.11 L 1213.3 1615.45 C 1206.5 1640.37 1200.69 1665.74 1193.65 1690.6 C 1190.39 1702.13 1184.05 1710.84 1174.27 1717.82 C 1167.25 1722.83 1154.48 1726.07 1145.85 1725.04 C 1129.79 1723.12 1112.53 1719.19 1096.57 1715.95 L 1001.64 1696.41 L 664.763 1628.21 C 604.344 1614.41 542.469 1605.43 482.283 1590.14 C 456.772 1583.66 445.312 1553 452.588 1529.43 C 458.861 1509.12 467.509 1489.45 474.22 1469.14 L 538.621 1274.28 L 864.763 265.847 C 871.332 246.055 892.601 226.731 913.525 223.894 C 934.264 221.082 957.586 221.754 978.634 221.548 L 1069.49 220.331 L 1335.75 218.123 C 1374.08 217.744 1408.38 218.885 1447.31 217.432 z" fill="currentColor" transform="translate(0,0)"></path>
<path d="M 1188.67 237.525 L 1221.78 237.063 C 1106.37 359.007 989.502 479.553 871.187 598.676 L 746.279 728.756 C 740.292 734.571 734.343 740.424 728.432 746.316 C 744.965 705.416 760.041 653.684 773.795 611.311 L 851.014 372.792 C 862.611 336.932 873.167 300.666 886.085 265.227 C 889.844 254.916 905.442 242.684 916.392 241.642 C 946.092 238.815 977.039 240.103 1007 239.915 C 1067.56 239.78 1128.12 238.984 1188.67 237.525 z" fill="none" transform="translate(0,0)"></path>
<path d="M 1001.42 267.654 C 1007.5 268.073 1011.31 269.888 1012.25 276.266 C 1010.54 282.639 921.015 375.62 911.19 383.987 C 910.177 384.047 909.635 384.103 908.515 384.017 C 905.807 383.809 903.992 382.763 902.365 380.568 C 900.889 378.574 900.392 376.166 900.975 373.747 C 902.203 368.65 989.739 275.756 1001.42 267.654 z" fill="currentColor" transform="translate(0,0)"></path>
<path d="M 1246.56 238.035 C 1268.08 237.046 1292.99 238.295 1315.43 237.699 C 1299.75 255.08 1279.82 270.927 1264.67 287.964 C 1240.26 315.403 1214.87 339.981 1189.63 366.297 L 945.764 621.999 C 869.399 699.316 793.628 777.217 718.457 855.696 C 706.497 868.385 694.243 880.793 681.704 892.91 C 689.14 872.571 695.04 852.483 701.668 831.869 C 706.471 816.93 712.775 793.526 720.574 780.454 C 723.359 775.785 737.818 760.981 742.228 756.423 L 777.074 720.406 C 825.243 669.483 874.179 619.292 923.866 569.849 C 1032.45 460.238 1140.01 349.629 1246.56 238.035 z" fill="none" transform="translate(0,0)"></path>
<path d="M 1178.02 157.442 C 1188.73 156.87 1254.89 155.428 1259.14 158.799 C 1260.69 160.034 1261.47 162.115 1261.72 164.017 C 1262.28 168.238 1261.03 173.315 1258.23 176.586 C 1254.73 180.669 1249.27 181.435 1244.25 181.744 C 1231.14 181.795 1169.49 184.755 1162.94 180.191 C 1160.5 178.486 1159.05 175.438 1158.76 172.528 C 1158.4 168.895 1159.9 166.114 1162.21 163.494 C 1166.77 158.35 1171.53 157.982 1178.02 157.442 z" fill="currentColor" transform="translate(0,0)"></path>
<path d="M 1295.78 155.22 C 1322.44 152.513 1321.92 176.549 1299.41 185.189 C 1275.57 186.151 1274.52 164.431 1295.78 155.22 z" fill="currentColor" transform="translate(0,0)"></path>
<path d="M 1650.04 136.399 C 1666.65 142.67 1682.03 165.763 1689.64 180.889 C 1712.14 225.581 1698.72 262.817 1685.98 307.472 L 1667.75 372.528 C 1655.03 417.457 1642.64 467.352 1630.8 513.01 L 1488.51 1072.38 L 1365.18 1569.65 L 1325.78 1732.6 C 1318.81 1762.46 1311.58 1792.53 1304.39 1822.28 C 1291.22 1876.72 1263.03 1904.77 1213.99 1929.04 C 1202.92 1933.91 1195.26 1935.18 1183.51 1937.61 C 1202.33 1921.88 1221.4 1902.26 1228.62 1878.37 C 1243.37 1829.55 1254.53 1778.65 1267.7 1729.42 L 1371.22 1328.59 L 1661.01 233.159 C 1669.65 199.766 1667.92 166.771 1650.04 136.399 z" fill="none" transform="translate(0,0)"></path>
<path d="M 1630.19 405.848 C 1644.02 407.189 1647.64 413.512 1644.45 426.8 C 1640.72 442.388 1636.28 457.84 1631.9 473.266 C 1629.32 482.385 1628.41 491.12 1619.76 495.996 C 1607.2 491.35 1600.25 488.041 1604.46 473.114 C 1610.05 453.237 1614.78 432.49 1621.94 413.19 C 1622.94 410.489 1627.89 407.338 1630.19 405.848 z" fill="currentColor" transform="translate(0,0)"></path>
<path d="M 1664.15 287.15 C 1690.05 289.231 1668.41 337.987 1660.81 342.34 C 1653.49 339.88 1650.24 335.056 1645.2 329.246 C 1646.1 320.241 1649.91 298.374 1655.38 290.401 C 1657.21 287.734 1660.8 287.771 1664.15 287.15 z" fill="currentColor" transform="translate(0,0)"></path>
</svg>