<svg xmlns="http://www.w3.org/2000/svg" preserveAspectRatio="none" style="display: block;" version="1.1" viewBox="0 0 2048 2048">
<defs>
	<linearGradient gradientUnits="userSpaceOnUse" id="Gradient1" x1="593.047" x2="585.725" y1="902.355" y2="900.591">
		<stop class="stop0" offset="0" stop-color="rgb(28,28,28)" stop-opacity="1"></stop>
		<stop class="stop1" offset="1" stop-color="rgb(61,59,63)" stop-opacity="1"></stop>
	</linearGradient>
	<linearGradient gradientUnits="userSpaceOnUse" id="Gradient2" x1="404.452" x2="404.538" y1="1456.25" y2="1448.66">
		<stop class="stop0" offset="0" stop-color="rgb(80,79,79)" stop-opacity="1"></stop>
		<stop class="stop1" offset="1" stop-color="rgb(121,120,121)" stop-opacity="1"></stop>
	</linearGradient>
	<linearGradient gradientUnits="userSpaceOnUse" id="Gradient3" x1="336.021" x2="275.582" y1="1279.21" y2="1253.73">
		<stop class="stop0" offset="0" stop-color="rgb(38,34,40)" stop-opacity="1"></stop>
		<stop class="stop1" offset="1" stop-color="rgb(46,48,45)" stop-opacity="1"></stop>
	</linearGradient>
	<linearGradient gradientUnits="userSpaceOnUse" id="Gradient4" x1="628.646" x2="628.32" y1="1454.81" y2="1446.31">
		<stop class="stop0" offset="0" stop-color="rgb(79,79,78)" stop-opacity="1"></stop>
		<stop class="stop1" offset="1" stop-color="rgb(112,110,111)" stop-opacity="1"></stop>
	</linearGradient>
	<linearGradient gradientUnits="userSpaceOnUse" id="Gradient5" x1="1186.65" x2="1152.86" y1="1483" y2="1016.68">
		<stop class="stop0" offset="0" stop-color="rgb(49,48,49)" stop-opacity="1"></stop>
		<stop class="stop1" offset="1" stop-color="rgb(74,73,74)" stop-opacity="1"></stop>
	</linearGradient>
	<linearGradient gradientUnits="userSpaceOnUse" id="Gradient6" x1="1678.94" x2="1659.57" y1="971.935" y2="976.277">
		<stop class="stop0" offset="0" stop-color="rgb(45,44,43)" stop-opacity="1"></stop>
		<stop class="stop1" offset="1" stop-color="rgb(69,68,71)" stop-opacity="1"></stop>
	</linearGradient>
	<linearGradient gradientUnits="userSpaceOnUse" id="Gradient7" x1="1053.43" x2="1368.53" y1="1200.35" y2="225.641">
		<stop class="stop0" offset="0" stop-color="rgb(22,23,23)" stop-opacity="1"></stop>
		<stop class="stop1" offset="1" stop-color="rgb(66,63,63)" stop-opacity="1"></stop>
	</linearGradient>
	<linearGradient gradientUnits="userSpaceOnUse" id="Gradient8" x1="1825.95" x2="1831.1" y1="1411.28" y2="1409.91">
		<stop class="stop0" offset="0" stop-color="rgb(46,45,45)" stop-opacity="1"></stop>
		<stop class="stop1" offset="1" stop-color="rgb(78,77,80)" stop-opacity="1"></stop>
	</linearGradient>
	<linearGradient gradientUnits="userSpaceOnUse" id="Gradient9" x1="1420.97" x2="1411.6" y1="1821.52" y2="1838.87">
		<stop class="stop0" offset="0" stop-color="rgb(32,30,30)" stop-opacity="1"></stop>
		<stop class="stop1" offset="1" stop-color="rgb(56,56,56)" stop-opacity="1"></stop>
	</linearGradient>
	<linearGradient gradientUnits="userSpaceOnUse" id="Gradient10" x1="568.901" x2="569.161" y1="1888.55" y2="1883.15">
		<stop class="stop0" offset="0" stop-color="rgb(45,41,42)" stop-opacity="1"></stop>
		<stop class="stop1" offset="1" stop-color="rgb(69,71,69)" stop-opacity="1"></stop>
	</linearGradient>
	<linearGradient gradientUnits="userSpaceOnUse" id="Gradient11" x1="1575.95" x2="1597.15" y1="440.823" y2="432.582">
		<stop class="stop0" offset="0" stop-color="rgb(51,49,51)" stop-opacity="1"></stop>
		<stop class="stop1" offset="1" stop-color="rgb(79,78,78)" stop-opacity="1"></stop>
	</linearGradient>
	<linearGradient gradientUnits="userSpaceOnUse" id="Gradient12" x1="1583.18" x2="816.087" y1="1287.47" y2="2047.03">
		<stop class="stop0" offset="0" stop-color="rgb(33,35,34)" stop-opacity="1"></stop>
		<stop class="stop1" offset="1" stop-color="rgb(75,71,72)" stop-opacity="1"></stop>
	</linearGradient>
</defs>
<path d="M 999.177 147.741 C 1020.46 145.742 1057.67 145.676 1079.87 145.158 C 1144.47 143.814 1209.08 143.667 1273.68 144.717 L 1340.32 145.88 C 1360.95 146.294 1385.17 147.064 1405.43 150.418 C 1437.76 155.775 1505.71 183.784 1518.73 216.03 C 1522.36 222.345 1528.55 247.452 1530.9 255.717 C 1540.01 287.893 1547.8 320.797 1557.09 352.939 C 1565.97 357.582 1572.78 360.667 1575.67 371.109 C 1585.75 407.575 1595.77 444.021 1606.79 480.224 C 1609.08 487.756 1611.48 495.5 1613.06 503.205 C 1614.41 510.38 1610.33 515.002 1605.24 518.849 L 1603.91 519.954 C 1609.07 545.977 1621.24 577.417 1626.43 603.828 C 1630.65 614.876 1635.5 634.295 1638.66 646.198 L 1697.26 856.502 C 1741.12 1017.71 1783.92 1179.2 1825.68 1340.97 L 1856.59 1459.71 C 1857.98 1465.21 1865.3 1488.55 1864.16 1491.55 L 1865.3 1492.94 C 1870.56 1497.84 1872.18 1523.27 1873.09 1531.48 C 1872.21 1533.74 1872.66 1533.17 1871.18 1534.95 L 1871.84 1535.26 L 1874.67 1535.78 C 1878.4 1542.31 1887.05 1569.18 1879.25 1574.19 C 1879.25 1574.47 1879.26 1574.75 1879.26 1575.03 C 1889.05 1629.16 1887.13 1693.5 1856.81 1741.27 C 1788.83 1848.4 1642.86 1858.38 1529 1871.99 C 1378.21 1889.26 1226.73 1899.87 1075 1903.8 C 1018.84 1905.08 962.663 1905.16 906.501 1904.05 C 811.607 1903.61 716.759 1899.77 622.141 1892.54 L 616.174 1891.9 C 587.369 1891.46 551.77 1886.88 522.739 1884.33 C 509.929 1884.23 474.566 1878.88 459.268 1877.48 L 457.754 1877.57 C 437.909 1874.24 418.15 1873.94 396.864 1869.51 C 337.86 1857.2 283.114 1826.23 240.573 1783.84 C 199.114 1742.52 158.819 1669.5 158.84 1610.71 C 151.367 1576.73 176.726 1494.93 186.861 1459.41 L 210.588 1374.25 C 216.549 1353.15 222.362 1332.01 228.027 1310.83 C 231.204 1299.14 235.351 1282.47 239.529 1271.35 C 241.185 1262.91 245.63 1248.73 248.051 1239.93 L 265.219 1177.52 C 267.351 1167.53 272.409 1150.96 275.214 1140.87 L 296.281 1066.08 L 356.599 852.474 C 409.376 661.03 464.7 470.298 522.556 280.328 C 526.347 258.613 536.561 238.533 551.878 222.681 C 596.825 175.846 668.302 165.222 730.121 162.072 C 751.981 160.958 773.625 158.447 795.599 157.91 C 803.8 156.374 820.248 155.6 829.088 154.982 C 850.826 153.421 872.585 152.166 894.359 151.217 C 928.71 150.183 964.98 147.546 999.177 147.741 z" fill="none" transform="translate(0,0)"></path>
<path d="M 999.177 147.741 C 1020.46 145.742 1057.67 145.676 1079.87 145.158 C 1144.47 143.814 1209.08 143.667 1273.68 144.717 L 1340.32 145.88 C 1360.95 146.294 1385.17 147.064 1405.43 150.418 C 1437.76 155.775 1505.71 183.784 1518.73 216.03 C 1522.36 222.345 1528.55 247.452 1530.9 255.717 C 1540.01 287.893 1547.8 320.797 1557.09 352.939 C 1565.97 357.582 1572.78 360.667 1575.67 371.109 C 1585.75 407.575 1595.77 444.021 1606.79 480.224 C 1609.08 487.756 1611.48 495.5 1613.06 503.205 C 1614.41 510.38 1610.33 515.002 1605.24 518.849 L 1603.91 519.954 C 1609.07 545.977 1621.24 577.417 1626.43 603.828 C 1630.65 614.876 1635.5 634.295 1638.66 646.198 L 1697.26 856.502 C 1741.12 1017.71 1783.92 1179.2 1825.68 1340.97 L 1856.59 1459.71 C 1857.98 1465.21 1865.3 1488.55 1864.16 1491.55 C 1862.3 1493.11 1860.83 1494.13 1859.51 1496.18 L 1859.14 1498.16 L 1856.52 1499.31 L 1855.93 1502 C 1850.08 1488.71 1848.7 1479.17 1845.38 1465.17 C 1841.01 1446.44 1836.45 1427.75 1831.69 1409.11 C 1830.71 1404.07 1828.52 1397.7 1824.96 1393.9 L 1822.99 1393.16 C 1818.57 1389.71 1806.52 1333.77 1804.33 1324.83 L 1786.06 1252.48 C 1774.04 1204 1758.39 1155.6 1747.54 1106.58 C 1744 1090.59 1738.17 1053.22 1730.47 1040.57 C 1725.78 1028.85 1716.21 985.186 1712.5 970.223 C 1703.19 933.576 1693.45 897.036 1683.31 860.609 C 1678.56 843.51 1673.03 821.193 1667.4 804.722 C 1666.12 792.285 1658.23 767.213 1654.78 753.473 L 1639.09 691.71 C 1636.24 680.649 1632.27 663.524 1628.26 653.47 C 1626.34 645.993 1620.88 629.038 1620.51 622.991 C 1616.74 607.104 1611.66 591.328 1608.26 575.299 C 1607.18 570.195 1605.77 565.534 1603.73 560.732 C 1603.59 559.781 1600.53 549.634 1600.13 548.137 L 1590.26 511.557 L 1556.62 386.956 C 1553.29 375.041 1547.66 363.112 1544.93 351.356 C 1538.36 323.052 1530.56 294.809 1523.46 266.623 C 1520.88 256.406 1514.15 221.84 1507.09 217.357 L 1505.17 218.82 C 1497.77 209.535 1495.4 205.162 1485.46 197.366 C 1459.95 177.374 1410.19 156.322 1377.65 160.018 C 1362.87 158.802 1349.11 159.102 1334.34 158.606 C 1296.48 157.288 1258.61 156.635 1220.74 156.647 C 1144.88 156.438 1064.71 156.546 989.026 159.982 C 971.983 161.718 950.821 161.993 933.186 162.921 L 809.519 169.703 C 758.308 172.362 707.341 174.075 657.18 185.382 C 640.856 189.061 627.422 194.269 612.148 200.882 C 608.68 202.384 597.234 208 595.129 208.572 C 590.283 211.971 585.399 215.314 580.479 218.603 L 573.901 217.802 C 562.345 229.031 558.194 232.58 548.933 245.986 C 548.498 249.704 548.109 253.383 547.484 257.077 C 545.679 261.237 543.677 266.229 541.649 270.2 C 537.8 284.584 531.405 299.717 527.238 314.851 C 511.096 366.785 492.073 427.009 478.378 478.958 C 474.455 493.225 470.42 507.461 466.272 521.663 L 266.714 1241.08 L 214.799 1429.86 L 199.106 1487.65 C 192.633 1511.19 184.76 1536.14 184.86 1559.64 C 185.212 1642.49 253.949 1703.33 330.002 1722.08 C 333.26 1722.88 352.245 1727.13 353.625 1727.82 C 371.23 1729.71 394.588 1731.36 411.476 1733.84 L 513.699 1741.39 C 586.504 1746.79 659.428 1750.45 732.408 1752.38 C 785.712 1753.27 839.021 1753.79 892.332 1753.95 C 941.832 1753.92 992.279 1752.44 1041.54 1753.16 C 1048.91 1752.52 1063.06 1752.66 1071.05 1752.52 C 1091.8 1752.25 1112.54 1751.86 1133.27 1751.37 C 1281.54 1748.61 1429.62 1739.23 1577.05 1723.23 C 1606.07 1720.36 1635.06 1717.17 1664.02 1713.66 C 1712.31 1707.83 1746.5 1702.7 1787.48 1672.37 C 1826.37 1643.59 1843.02 1618.27 1850.96 1570.88 C 1853.94 1565.45 1853.98 1565.81 1858.74 1563.97 C 1859.99 1567.34 1860.01 1569.63 1860.35 1573.17 C 1860.87 1569.08 1860.16 1568.37 1862.5 1566.41 C 1865.96 1567.85 1866.34 1570.3 1866.47 1573.99 L 1865.32 1575.85 L 1865.7 1576.72 C 1866.92 1575.3 1867.27 1574.38 1868.63 1573.88 C 1872.78 1573.39 1874.3 1572.87 1878.15 1574.09 L 1879.25 1574.19 C 1879.25 1574.47 1879.26 1574.75 1879.26 1575.03 C 1889.05 1629.16 1887.13 1693.5 1856.81 1741.27 C 1788.83 1848.4 1642.86 1858.38 1529 1871.99 C 1378.21 1889.26 1226.73 1899.87 1075 1903.8 C 1018.84 1905.08 962.663 1905.16 906.501 1904.05 C 811.607 1903.61 716.759 1899.77 622.141 1892.54 L 616.174 1891.9 C 587.369 1891.46 551.77 1886.88 522.739 1884.33 C 509.929 1884.23 474.566 1878.88 459.268 1877.48 L 457.754 1877.57 C 437.909 1874.24 418.15 1873.94 396.864 1869.51 C 337.86 1857.2 283.114 1826.23 240.573 1783.84 C 199.114 1742.52 158.819 1669.5 158.84 1610.71 C 151.367 1576.73 176.726 1494.93 186.861 1459.41 L 210.588 1374.25 C 216.549 1353.15 222.362 1332.01 228.027 1310.83 C 231.204 1299.14 235.351 1282.47 239.529 1271.35 C 241.185 1262.91 245.63 1248.73 248.051 1239.93 L 265.219 1177.52 C 267.351 1167.53 272.409 1150.96 275.214 1140.87 L 296.281 1066.08 L 356.599 852.474 C 409.376 661.03 464.7 470.298 522.556 280.328 C 526.347 258.613 536.561 238.533 551.878 222.681 C 596.825 175.846 668.302 165.222 730.121 162.072 C 751.981 160.958 773.625 158.447 795.599 157.91 C 803.8 156.374 820.248 155.6 829.088 154.982 C 850.826 153.421 872.585 152.166 894.359 151.217 C 928.71 150.183 964.98 147.546 999.177 147.741 z" fill="currentColor" transform="translate(0,0)"></path>
<path d="M 1858.74 1563.97 C 1859.99 1567.34 1860.01 1569.63 1860.35 1573.17 C 1858.85 1584.07 1863.68 1584.2 1855.83 1595.63 L 1855.35 1596.32 C 1853.96 1600.31 1852.05 1605.32 1851.12 1609.35 L 1851.09 1610.14 C 1841.95 1630.21 1834.29 1644.65 1818.23 1660.38 C 1816.89 1661.69 1810.63 1668.01 1809.9 1669.09 C 1793.28 1681.29 1785.68 1685.71 1768.07 1695.6 L 1768.11 1697.68 C 1756.45 1702.53 1733.64 1711.18 1721.18 1714.04 C 1671.8 1725.36 1619.33 1728.86 1569.38 1735.36 C 1502.89 1744 1437.41 1747.38 1370.73 1751.91 C 1204.53 1763.17 1037.95 1767.78 871.379 1765.72 C 843.415 1765.35 815.401 1765.53 787.463 1764.26 C 780.821 1763.96 767.512 1764.62 761.863 1763.01 C 754.973 1765.91 706.389 1759.37 695.711 1759.25 C 636.051 1758.59 577.229 1752.61 517.829 1748.2 C 517.612 1746.5 517.529 1747.38 518.231 1745.59 L 524.726 1744.81 C 521.428 1743.94 516.564 1742.8 513.699 1741.39 C 586.504 1746.79 659.428 1750.45 732.408 1752.38 C 785.712 1753.27 839.021 1753.79 892.332 1753.95 C 941.832 1753.92 992.279 1752.44 1041.54 1753.16 C 1048.91 1752.52 1063.06 1752.66 1071.05 1752.52 C 1091.8 1752.25 1112.54 1751.86 1133.27 1751.37 C 1281.54 1748.61 1429.62 1739.23 1577.05 1723.23 C 1606.07 1720.36 1635.06 1717.17 1664.02 1713.66 C 1712.31 1707.83 1746.5 1702.7 1787.48 1672.37 C 1826.37 1643.59 1843.02 1618.27 1850.96 1570.88 C 1853.94 1565.45 1853.98 1565.81 1858.74 1563.97 z" fill="url(#Gradient12)" transform="translate(0,0)"></path>
<path d="M 1768.07 1695.6 L 1768.11 1697.68 C 1756.45 1702.53 1733.64 1711.18 1721.18 1714.04 C 1671.8 1725.36 1619.33 1728.86 1569.38 1735.36 C 1502.89 1744 1437.41 1747.38 1370.73 1751.91 C 1204.53 1763.17 1037.95 1767.78 871.379 1765.72 C 843.415 1765.35 815.401 1765.53 787.463 1764.26 C 780.821 1763.96 767.512 1764.62 761.863 1763.01 C 767.131 1760.84 779.469 1762.33 786.611 1761.93 C 803.683 1762.78 823.002 1762.61 840.375 1763.01 C 900.136 1764.34 959.917 1764.44 1019.68 1763.32 C 1145.18 1762.39 1270.62 1757.33 1395.78 1748.17 L 1486.75 1741.32 C 1497.11 1740.55 1527.27 1738.92 1535.23 1736.86 L 1535.15 1734.35 C 1559.64 1735.89 1563.22 1733.66 1587.43 1731.12 C 1614.74 1728.36 1641.98 1724.92 1669.12 1720.78 C 1686.5 1718.17 1703.16 1716.64 1720.37 1712.52 C 1736.79 1708.46 1752.77 1702.79 1768.07 1695.6 z" fill="currentColor" transform="translate(0,0)"></path>
<path d="M 1041.54 1753.16 C 1048.91 1752.52 1063.06 1752.66 1071.05 1752.52 C 1091.8 1752.25 1112.54 1751.86 1133.27 1751.37 C 1126.45 1754.3 1111.84 1752.48 1101.73 1755 C 1107.48 1754.99 1121.96 1754.62 1126.97 1755.49 C 1106.87 1756.16 1087.69 1756.51 1067.5 1757.95 C 1054.27 1758.9 1037.71 1754.62 1024.3 1757.43 C 986.489 1758.65 948.367 1756.3 910.473 1760.48 C 908.233 1760.73 883.379 1760.35 881.329 1760.04 C 886.544 1755.48 887.621 1759.55 892.332 1753.95 C 941.832 1753.92 992.279 1752.44 1041.54 1753.16 z" fill="currentColor" transform="translate(0,0)"></path>
<path d="M 1858.74 1563.97 C 1859.99 1567.34 1860.01 1569.63 1860.35 1573.17 C 1858.85 1584.07 1863.68 1584.2 1855.83 1595.63 C 1857.43 1584.94 1857.03 1573.54 1858.74 1563.97 z" fill="currentColor" transform="translate(0,0)"></path>
<path d="M 525.243 306.83 C 530.122 292.827 534.744 273.515 541.11 261.008 C 541.313 264.071 541.493 267.135 541.649 270.2 C 537.8 284.584 531.405 299.717 527.238 314.851 C 511.096 366.785 492.073 427.009 478.378 478.958 C 474.455 493.225 470.42 507.461 466.272 521.663 L 266.714 1241.08 L 214.799 1429.86 L 199.106 1487.65 C 192.633 1511.19 184.76 1536.14 184.86 1559.64 C 185.212 1642.49 253.949 1703.33 330.002 1722.08 C 333.26 1722.88 352.245 1727.13 353.625 1727.82 C 371.23 1729.71 394.588 1731.36 411.476 1733.84 L 513.699 1741.39 C 516.564 1742.8 521.428 1743.94 524.726 1744.81 L 518.231 1745.59 C 517.529 1747.38 517.612 1746.5 517.829 1748.2 C 517.522 1748.07 425.554 1741.03 414.269 1739.34 C 407.671 1741.86 378.548 1738.49 371.364 1735.92 L 370.483 1735.01 C 276.886 1728.2 176.077 1659.13 179.212 1556.21 C 180.34 1519.15 189.41 1496.41 197.426 1460.92 C 200.56 1442.89 202.652 1436.87 209.234 1419.76 C 213.447 1401 217.738 1389.18 222.431 1371.71 L 260.142 1234.74 C 262.975 1224.45 264.387 1214.08 267.255 1203.63 L 331.167 977.792 C 353.039 901.897 373.339 824.812 394.694 748.714 L 456.178 537.426 C 460.38 517.696 468.762 488.116 476.262 469.039 C 484.41 448.712 488.23 423.985 494.888 403.069 C 504.903 371.605 513.49 337.532 525.243 306.83 z" fill="currentColor" transform="translate(0,0)"></path>
<path d="M 1878.15 1574.09 L 1879.25 1574.19 C 1879.25 1574.47 1879.26 1574.75 1879.26 1575.03 C 1889.05 1629.16 1887.13 1693.5 1856.81 1741.27 C 1788.83 1848.4 1642.86 1858.38 1529 1871.99 C 1378.21 1889.26 1226.73 1899.87 1075 1903.8 C 1018.84 1905.08 962.663 1905.16 906.501 1904.05 C 811.607 1903.61 716.759 1899.77 622.141 1892.54 C 626.299 1889.97 626.632 1890.02 631.562 1889.18 C 635.891 1890.11 636.615 1890.63 640.37 1888.86 L 641.796 1889.8 C 647.47 1888.13 660.593 1889.09 667.09 1889.27 C 685.095 1891.61 717.465 1892.12 736.902 1893.02 C 793.695 1895.98 850.557 1897.41 907.427 1897.3 C 922.289 1897.38 937.149 1898.26 952.061 1898.33 C 1015.25 1898.29 1078.43 1897.41 1141.59 1895.67 C 1241.6 1891.84 1341.47 1885.04 1441.08 1875.28 C 1519.23 1868.05 1599.78 1860.25 1676.42 1843.81 C 1759.41 1826.01 1849.51 1776.33 1868.89 1686.97 C 1871.35 1675.65 1871.22 1663.45 1873.61 1652.65 L 1874.07 1650.66 C 1878.42 1638.79 1874.44 1609.34 1873.51 1595.24 C 1874.98 1589.86 1871.96 1585.5 1873.1 1582 C 1874.42 1577.96 1875.97 1581.18 1878.15 1574.09 z" fill="currentColor" transform="translate(0,0)"></path>
<path d="M 641.796 1889.8 C 647.47 1888.13 660.593 1889.09 667.09 1889.27 C 659.217 1891.31 649.442 1893.23 641.796 1889.8 z" fill="currentColor" transform="translate(0,0)"></path>
<path d="M 1558.08 365.795 C 1559.7 363.219 1558.6 364.04 1561.43 363.166 C 1569.73 396.915 1578.6 430.523 1588.02 463.978 C 1590.16 471.803 1598.35 505.788 1603.06 509.227 C 1603.42 513.578 1603.21 515.142 1605.24 518.849 L 1603.91 519.954 C 1609.07 545.977 1621.24 577.417 1626.43 603.828 C 1630.65 614.876 1635.5 634.295 1638.66 646.198 L 1697.26 856.502 C 1741.12 1017.71 1783.92 1179.2 1825.68 1340.97 L 1856.59 1459.71 C 1857.98 1465.21 1865.3 1488.55 1864.16 1491.55 C 1862.3 1493.11 1860.83 1494.13 1859.51 1496.18 C 1858.47 1494.67 1858.52 1495.08 1858.15 1493.68 C 1851.74 1470.4 1845.5 1447.08 1839.42 1423.72 C 1838.15 1418.67 1833.6 1396.16 1832.15 1393.25 C 1824.85 1389.95 1826.13 1390.51 1825.44 1382.77 C 1813.44 1331.1 1800.39 1279.68 1786.3 1228.54 C 1783.08 1216.7 1778.73 1205.3 1775.51 1193.11 C 1771.92 1179.54 1770.05 1166.13 1766.71 1152.9 C 1743.54 1061.89 1719.53 971.104 1694.67 880.545 C 1677.78 820.884 1661.84 760.953 1646.88 700.778 C 1641.99 681.73 1631.62 652.358 1629.9 633.904 C 1628.08 625.623 1625.29 616.43 1622.77 608.294 C 1617.09 596.945 1606.01 544.755 1603.07 530.027 C 1601.58 522.552 1596.38 512.328 1594.24 504.33 L 1558.08 365.795 z" fill="currentColor" transform="translate(0,0)"></path>
<path d="M 158.84 1610.71 C 159.659 1611.37 160.478 1612.03 161.297 1612.68 C 167.023 1635.09 172.464 1660.49 180.083 1682.18 C 182.015 1687.68 190.908 1702.86 193.697 1708.43 C 218.858 1758.69 257.971 1796.33 305.59 1825.47 C 336.267 1844.23 375.552 1858.93 410.825 1865.92 C 419.988 1867.74 451.856 1869.61 457.552 1872.58 L 457.754 1877.57 C 437.909 1874.24 418.15 1873.94 396.864 1869.51 C 337.86 1857.2 283.114 1826.23 240.573 1783.84 C 199.114 1742.52 158.819 1669.5 158.84 1610.71 z" fill="currentColor" transform="translate(0,0)"></path>
<path d="M 1504.1 202.849 C 1513.19 208.699 1512.12 213.241 1518.73 216.03 C 1522.36 222.345 1528.55 247.452 1530.9 255.717 C 1540.01 287.893 1547.8 320.797 1557.09 352.939 C 1565.97 357.582 1572.78 360.667 1575.67 371.109 C 1585.75 407.575 1595.77 444.021 1606.79 480.224 C 1609.08 487.756 1611.48 495.5 1613.06 503.205 C 1614.41 510.38 1610.33 515.002 1605.24 518.849 C 1603.21 515.142 1603.42 513.578 1603.06 509.227 C 1598.35 505.788 1590.16 471.803 1588.02 463.978 C 1578.6 430.523 1569.73 396.915 1561.43 363.166 C 1558.6 364.04 1559.7 363.219 1558.08 365.795 C 1557.27 363.403 1556.45 361.016 1555.6 358.636 C 1549.61 342.072 1545.49 321.344 1541.05 304.182 C 1535.65 284.092 1529.68 264.16 1523.15 244.411 C 1522.01 240.919 1519.6 228.799 1518.51 226.725 C 1514.63 219.353 1508.59 209.956 1504.1 202.849 z" fill="url(#Gradient11)" transform="translate(0,0)"></path>
<path d="M 1561.43 363.166 C 1564.19 364.923 1566.87 366.828 1568 370.095 C 1581.8 409.798 1592.13 451.112 1603.99 491.495 C 1605.73 497.435 1606.43 503.897 1603.06 509.227 C 1598.35 505.788 1590.16 471.803 1588.02 463.978 C 1578.6 430.523 1569.73 396.915 1561.43 363.166 z" fill="none" transform="translate(0,0)"></path>
<path d="M 999.177 147.741 C 1020.46 145.742 1057.67 145.676 1079.87 145.158 C 1144.47 143.814 1209.08 143.667 1273.68 144.717 L 1340.32 145.88 C 1360.95 146.294 1385.17 147.064 1405.43 150.418 C 1437.76 155.775 1505.71 183.784 1518.73 216.03 C 1512.12 213.241 1513.19 208.699 1504.1 202.849 C 1454.33 155.979 1404.62 153.335 1340.99 149.379 L 1348.01 148.89 C 1335.58 147.593 1280.89 150.716 1276.85 147.586 C 1280.63 145.629 1282.06 148.251 1286.77 146.413 C 1280.08 145.707 1266.96 146.236 1259.34 146.05 C 1226.36 145.246 1193.22 145.596 1160.24 145.422 C 1148.83 145.362 1137.21 148.375 1125.56 148.837 C 1079.5 150.631 1033.41 151.595 987.316 151.727 C 954.003 152.912 915.351 156.258 882.641 156.066 C 887.612 154.525 889.942 154.079 894.359 151.217 C 928.71 150.183 964.98 147.546 999.177 147.741 z" fill="currentColor" transform="translate(0,0)"></path>
<path d="M 579.113 213.569 C 598.995 196.645 650.542 182.325 676.991 177.754 C 695.651 174.53 715.917 172.812 734.86 171.106 C 769.292 167.968 803.79 165.585 838.327 163.959 C 888.302 161.318 934.269 158.045 984.376 158.079 L 982.22 158.286 C 985.235 159.705 985.695 159.484 989.026 159.982 C 971.983 161.718 950.821 161.993 933.186 162.921 L 809.519 169.703 C 758.308 172.362 707.341 174.075 657.18 185.382 C 640.856 189.061 627.422 194.269 612.148 200.882 C 608.68 202.384 597.234 208 595.129 208.572 C 590.283 211.971 585.399 215.314 580.479 218.603 L 573.901 217.802 C 575.069 216.682 577.741 214.673 579.113 213.569 z" fill="currentColor" transform="translate(0,0)"></path>
<path d="M 522.556 280.328 C 526.347 258.613 536.561 238.533 551.878 222.681 C 596.825 175.846 668.302 165.222 730.121 162.072 C 751.981 160.958 773.625 158.447 795.599 157.91 L 802.888 158.911 L 801.555 159.015 C 805.879 159.419 810.205 159.785 814.535 160.113 C 796.404 162.646 778.443 161.416 760.262 163.895 C 744.705 166.015 729.015 165.655 713.394 166.478 C 657.202 171.04 581.532 186.988 545.375 234.374 C 541.166 239.88 537.59 245.842 534.715 252.149 C 531.455 259.291 526.814 276.644 522.556 280.328 z" fill="currentColor" transform="translate(0,0)"></path>
<path d="M 544.271 1881.68 C 548.349 1880.33 557.296 1881.71 561.988 1882.26 C 565.575 1882.08 574.504 1882.41 577.757 1883.62 C 581.232 1883.98 585.574 1884.3 588.92 1885.04 C 593.052 1885.25 602.878 1885.42 606.217 1886.65 L 606.982 1888.3 L 608.019 1889.87 L 609.21 1889.93 C 612.389 1890.12 613.829 1889.84 616.174 1891.9 C 587.369 1891.46 551.77 1886.88 522.739 1884.33 C 527.205 1884.23 530.436 1883.56 534.8 1882.8 C 537.821 1882.52 541.371 1882.31 544.271 1881.68 z" fill="url(#Gradient10)" transform="translate(0,0)"></path>
<path d="M 588.92 1885.04 C 593.052 1885.25 602.878 1885.42 606.217 1886.65 L 606.982 1888.3 C 600.46 1888.22 595.452 1887.58 589.049 1886.7 L 588.92 1885.04 z" fill="currentColor" transform="translate(0,0)"></path>
<path d="M 544.271 1881.68 C 548.349 1880.33 557.296 1881.71 561.988 1882.26 C 557.68 1885.94 548.935 1883.79 544.271 1881.68 z" fill="currentColor" transform="translate(0,0)"></path>
<path d="M 577.757 1883.62 C 581.232 1883.98 585.574 1884.3 588.92 1885.04 L 589.049 1886.7 C 585.362 1886.78 580.254 1885.82 576.709 1884.59 L 577.757 1883.62 z" fill="currentColor" transform="translate(0,0)"></path>
<path d="M 795.599 157.91 C 803.8 156.374 820.248 155.6 829.088 154.982 C 850.826 153.421 872.585 152.166 894.359 151.217 C 889.942 154.079 887.612 154.525 882.641 156.066 C 864.206 157.397 832.496 160.369 814.535 160.113 C 810.205 159.785 805.879 159.419 801.555 159.015 L 802.888 158.911 L 795.599 157.91 z" fill="currentColor" transform="translate(0,0)"></path>
<path d="M 459.268 1877.48 C 461.24 1876.25 462.097 1876.09 464.325 1875.35 L 461.548 1873.11 L 462.751 1871.93 C 467.823 1872.47 486.42 1874.35 490.332 1875.94 C 499.349 1876.64 519.475 1877.87 527.534 1880.35 C 531.531 1880.87 531.362 1880.76 534.8 1882.8 C 530.436 1883.56 527.205 1884.23 522.739 1884.33 C 509.929 1884.23 474.566 1878.88 459.268 1877.48 z" fill="currentColor" transform="translate(0,0)"></path>
<path d="M 490.332 1875.94 C 499.349 1876.64 519.475 1877.87 527.534 1880.35 C 519.584 1882.56 498.56 1878.87 490.352 1876.79 L 490.332 1875.94 z" fill="currentColor" transform="translate(0,0)"></path>
<path d="M 265.219 1177.52 C 265.654 1178.76 266.778 1181.91 266.466 1183.22 C 261.111 1205.77 255.611 1240.69 245.374 1260.75 L 247.292 1253.96 C 244.987 1259.35 242.659 1268.37 239.529 1271.35 C 241.185 1262.91 245.63 1248.73 248.051 1239.93 L 265.219 1177.52 z" fill="currentColor" transform="translate(0,0)"></path>
<path d="M 1851.09 1610.14 C 1853.1 1622.4 1822.29 1662.97 1811.14 1669.35 L 1809.9 1669.09 C 1810.63 1668.01 1816.89 1661.69 1818.23 1660.38 C 1834.29 1644.65 1841.95 1630.21 1851.09 1610.14 z" fill="currentColor" transform="translate(0,0)"></path>
<path d="M 1874.07 1650.66 C 1874.21 1625.37 1873.94 1611.69 1869.6 1586.35 L 1870.4 1585.28 L 1869.39 1583.47 L 1869.9 1583.66 C 1871.5 1587.8 1872.34 1590.99 1873.51 1595.24 C 1874.44 1609.34 1878.42 1638.79 1874.07 1650.66 z" fill="currentColor" transform="translate(0,0)"></path>
<path d="M 541.11 261.008 C 542.084 256.246 546.248 250.168 548.933 245.986 C 548.498 249.704 548.109 253.383 547.484 257.077 C 545.679 261.237 543.677 266.229 541.649 270.2 C 541.493 267.135 541.313 264.071 541.11 261.008 z" fill="currentColor" transform="translate(0,0)"></path>
<path d="M 631.562 1889.18 C 625.896 1889.29 621.147 1889.73 615.707 1887.99 C 619.869 1885.05 635.358 1887.41 640.37 1888.86 C 636.615 1890.63 635.891 1890.11 631.562 1889.18 z" fill="currentColor" transform="translate(0,0)"></path>
<path d="M 1855.35 1596.32 L 1856.61 1596.99 C 1856.14 1601.12 1854.06 1606.5 1851.12 1609.35 C 1852.05 1605.32 1853.96 1600.31 1855.35 1596.32 z" fill="currentColor" transform="translate(0,0)"></path>
<path d="M 1860.29 1626.02 C 1862.5 1624.44 1861.95 1624.72 1863.35 1622.51 L 1864.57 1622.94 C 1869.92 1651.12 1857.61 1714.2 1840.39 1737.96 C 1833.81 1747.03 1826.52 1755.69 1817.87 1763.2 C 1799.52 1789.34 1747.93 1812.54 1718.59 1824.37 C 1698.27 1831.46 1677.79 1836.9 1657.05 1842.56 C 1648.35 1844.94 1637.64 1845.25 1628.54 1846.73 C 1586.44 1853.55 1543.82 1860.09 1501.2 1862.17 C 1485.63 1862.93 1469.86 1865.23 1454.32 1866.47 C 1439.56 1867.81 1424.79 1868.71 1410.02 1869.82 C 1409.41 1869.89 1407.04 1872.29 1406.49 1872.87 C 1400.66 1872.9 1395.14 1871.28 1389.56 1871.69 C 1372.12 1872.96 1355.29 1878.9 1337.72 1876.59 C 1332.39 1875.88 1324.58 1876.43 1319.15 1876.63 C 1317.12 1878.12 1295.38 1878.89 1291.09 1879.18 C 1263.96 1881.2 1236.81 1882.97 1209.64 1884.5 C 1204.74 1884.76 1185.5 1886.27 1181.98 1885.99 C 1164.73 1888.19 1135.97 1888.59 1117.97 1889.29 C 1099.59 1890.01 1067.61 1891.55 1049.85 1890.24 C 1059.82 1889.95 1118.81 1889.13 1123.66 1886.75 C 1095.56 1883.41 1058.06 1889.85 1029.04 1887.73 C 1023.2 1887.31 1014.84 1888.19 1009.35 1886.9 C 977.599 1885.03 936.105 1885.95 903.562 1885.55 C 897.293 1887.17 891.463 1887.82 884.987 1887.91 C 797.543 1889.16 709.936 1884.33 622.802 1877.25 C 611.507 1876.33 600.824 1874.13 589.491 1873.97 C 579.259 1874.19 561.471 1872.81 551.036 1871.82 C 532.077 1870.02 500.195 1868.67 481.986 1864.48 C 477.383 1863.86 472.703 1864.03 468.071 1863.72 C 447.513 1862.38 427.227 1859.22 406.86 1856.18 C 374.94 1850.68 368.6 1848.25 340.736 1834.74 C 318.232 1826.12 294.111 1813.68 276.154 1797.55 C 254.282 1789.38 206.606 1731.97 201.126 1710.04 C 193.279 1695.75 171.172 1640.23 172.663 1624.99 L 173.834 1624.84 C 176.484 1627.71 183.198 1640.1 183.664 1643.69 C 197.818 1665.41 218.452 1695.15 241.871 1707.81 C 242.615 1707.8 243.359 1707.8 244.104 1707.79 C 277.274 1730.45 316.067 1745.85 355.988 1750.4 C 386.818 1753.92 416.425 1756.22 447.16 1758.85 C 450.45 1759.13 488.089 1761.52 488.499 1761.41 L 488.307 1760.24 C 482.727 1757.89 470.908 1757.54 464.224 1756.58 C 411.561 1749 354.857 1751.54 304.544 1732.97 C 300.848 1731.61 292 1728.76 289.213 1726.37 L 290.112 1725.74 L 291.704 1726.5 L 295.768 1728.39 C 336.576 1747.44 400.334 1748.27 445.501 1753.06 C 462.018 1754.81 534.963 1762.51 547.012 1759.82 L 548.583 1757.31 C 550.652 1757.64 550.647 1757.83 552.274 1758.92 C 565.696 1767.9 882.209 1776.9 926.961 1775.59 C 945.506 1774.42 967.718 1774.85 986.583 1774.56 L 1103.04 1772.85 C 1166.89 1771.99 1236.57 1768.67 1300.74 1765.56 C 1350.82 1762.88 1400.87 1759.51 1450.86 1755.46 C 1514.29 1750.94 1577.56 1744.47 1640.58 1736.05 C 1649.87 1734.73 1660.17 1732.86 1669.18 1731.91 C 1736.31 1724.81 1804.11 1706.98 1842.34 1646.03 C 1846.61 1639.22 1850.55 1629.06 1855.97 1623.09 L 1857.14 1623.53 C 1855.97 1626.4 1855.76 1625.88 1855.98 1628.91 L 1860.29 1626.02 z" fill="none" transform="translate(0,0)"></path>
<path d="M 865.99 1835.01 C 868.532 1823.66 881.126 1809.15 891.834 1807.04 C 908.783 1803.69 934.04 1804.99 951.176 1804.91 L 1031.06 1803.97 L 1097.12 1802.68 C 1116.17 1802.37 1132.35 1799.71 1149.84 1808.3 C 1159.76 1815.91 1167.09 1824.11 1169.01 1837.11 C 1171.24 1852.24 1166.09 1867.61 1152.16 1875.21 C 1140.96 1881.46 1117.69 1881.34 1104.46 1881.79 L 1093.11 1882.32 L 1092.93 1883.42 C 1097.72 1883.53 1101.72 1883.63 1106.52 1884.1 C 1090.41 1886.03 1016.94 1884.27 1009.35 1886.9 C 977.599 1885.03 936.105 1885.95 903.562 1885.55 C 899.701 1884.71 888.924 1884.07 884.475 1883.7 L 890.253 1882.04 C 870.303 1874.92 859.487 1855.35 865.99 1835.01 z" fill="currentColor" transform="translate(0,0)"></path>
<path d="M 865.99 1835.01 C 868.532 1823.66 881.126 1809.15 891.834 1807.04 C 908.783 1803.69 934.04 1804.99 951.176 1804.91 L 1031.06 1803.97 L 1097.12 1802.68 C 1116.17 1802.37 1132.35 1799.71 1149.84 1808.3 C 1159.76 1815.91 1167.09 1824.11 1169.01 1837.11 C 1171.24 1852.24 1166.09 1867.61 1152.16 1875.21 C 1140.96 1881.46 1117.69 1881.34 1104.46 1881.79 L 1093.11 1882.32 L 1089.89 1881.88 C 1097.7 1875.98 1105.52 1877.16 1115.57 1876.97 C 1128.61 1873.87 1136.39 1877.95 1151.69 1870.54 C 1152.21 1869.66 1156.59 1865.09 1157.45 1864.28 C 1163.11 1858.96 1164.52 1849.01 1163.97 1841.76 C 1163.06 1829.67 1157.88 1820.4 1149.04 1812.4 C 1147.42 1811.75 1136.78 1807.24 1136.3 1807.24 C 1096.17 1807.56 1055.34 1808.46 1015.23 1808.42 C 991.366 1808.39 957.228 1811.14 934.369 1807.78 L 950.554 1808.18 C 932.066 1806.56 918.544 1805.77 900.049 1807.15 C 878.501 1808.76 869.21 1833.75 865.99 1835.01 z" fill="currentColor" transform="translate(0,0)"></path>
<path d="M 1089.89 1881.88 L 1093.11 1882.32 L 1092.93 1883.42 C 1097.72 1883.53 1101.72 1883.63 1106.52 1884.1 C 1090.41 1886.03 1016.94 1884.27 1009.35 1886.9 C 977.599 1885.03 936.105 1885.95 903.562 1885.55 C 899.701 1884.71 888.924 1884.07 884.475 1883.7 L 890.253 1882.04 C 901.397 1884.06 937.106 1883.55 950.51 1883.6 C 996.976 1883.98 1043.45 1883.4 1089.89 1881.88 z" fill="currentColor" transform="translate(0,0)"></path>
<path d="M 883.249 1828.73 C 895.718 1814.32 927.384 1817.99 945.599 1817.84 L 1024.97 1817.33 L 1096.87 1815.93 C 1111.7 1815.78 1125.85 1814.84 1140.37 1817.69 C 1156.15 1829.09 1161.56 1844.23 1148.67 1860.76 C 1135.02 1878.26 1085.48 1869.39 1065.47 1872.19 C 1060.02 1872.96 1045.63 1872.27 1040.42 1872 C 1019.16 1872.17 997.898 1872.22 976.636 1872.14 C 973.043 1873.51 940.627 1873.47 933.861 1873.09 C 911.644 1871.85 887.933 1878.05 879.582 1852.25 C 876.628 1844.55 877.243 1834.84 883.249 1828.73 z" fill="currentColor" transform="translate(0,0)"></path>
<path d="M 1133.72 1820.34 C 1140.25 1822.1 1144.91 1824.63 1148.61 1830.64 C 1151.69 1835.65 1152.54 1841.72 1150.95 1847.38 C 1149.52 1852.61 1146.02 1858.01 1141.03 1860.46 C 1120.31 1870.6 1019.41 1863.77 988.767 1867.9 C 965.812 1864.82 933.185 1869.94 909.303 1867.8 C 897.305 1866.73 893.54 1866.57 885.356 1857.69 C 881.168 1844.09 880.862 1839.1 890.939 1828.28 C 894.271 1826.37 896.52 1825.32 900.446 1825.17 C 923.276 1824.27 946.827 1824.27 969.655 1824.05 C 1007.62 1823.64 1045.58 1823 1083.53 1822.13 C 1092.29 1821.99 1126.75 1822.05 1133.72 1820.34 z" fill="none" transform="translate(0,0)"></path>
<path d="M 926.961 1775.59 C 945.506 1774.42 967.718 1774.85 986.583 1774.56 L 1103.04 1772.85 C 1166.89 1771.99 1236.57 1768.67 1300.74 1765.56 C 1350.82 1762.88 1400.87 1759.51 1450.86 1755.46 C 1514.29 1750.94 1577.56 1744.47 1640.58 1736.05 C 1649.87 1734.73 1660.17 1732.86 1669.18 1731.91 C 1736.31 1724.81 1804.11 1706.98 1842.34 1646.03 C 1846.61 1639.22 1850.55 1629.06 1855.97 1623.09 L 1857.14 1623.53 C 1855.97 1626.4 1855.76 1625.88 1855.98 1628.91 C 1855.82 1634.65 1851.85 1641.86 1848.97 1646.85 C 1806.96 1719.34 1724.63 1730.29 1649.86 1740.21 C 1601.42 1747.06 1552.77 1752.4 1503.99 1756.23 C 1361.13 1769.43 1217.8 1776.91 1074.35 1778.65 C 1029.21 1779.34 976.362 1781.51 931.781 1780.08 C 923.631 1780.98 903.804 1780.74 894.979 1780.84 C 863.288 1781.27 831.592 1781.01 799.913 1780.06 C 686.208 1777.23 572.612 1771.03 459.276 1761.45 C 395.343 1756.67 324.711 1755.6 268.56 1724.94 C 261.886 1721.3 246.648 1713.36 241.871 1707.81 C 242.615 1707.8 243.359 1707.8 244.104 1707.79 C 277.274 1730.45 316.067 1745.85 355.988 1750.4 C 386.818 1753.92 416.425 1756.22 447.16 1758.85 C 450.45 1759.13 488.089 1761.52 488.499 1761.41 L 488.307 1760.24 C 482.727 1757.89 470.908 1757.54 464.224 1756.58 C 411.561 1749 354.857 1751.54 304.544 1732.97 C 300.848 1731.61 292 1728.76 289.213 1726.37 L 290.112 1725.74 L 291.704 1726.5 L 295.768 1728.39 C 336.576 1747.44 400.334 1748.27 445.501 1753.06 C 462.018 1754.81 534.963 1762.51 547.012 1759.82 L 548.583 1757.31 C 550.652 1757.64 550.647 1757.83 552.274 1758.92 C 565.696 1767.9 882.209 1776.9 926.961 1775.59 z" fill="currentColor" transform="translate(0,0)"></path>
<path d="M 201.126 1710.04 C 193.279 1695.75 171.172 1640.23 172.663 1624.99 L 173.834 1624.84 C 176.484 1627.71 183.198 1640.1 183.664 1643.69 C 183.484 1651.23 188.544 1664.3 191.322 1671.49 C 205.032 1706.98 225.12 1738.73 251.295 1766.35 C 281.54 1798.25 311.323 1816.51 350.72 1834.51 C 370.827 1843.13 387.239 1849.09 409.249 1852.59 C 424.493 1854.81 439.789 1856.64 455.124 1858.1 C 462.648 1858.82 475.12 1859.35 482.086 1860.65 C 506.423 1863.01 530.773 1865.23 555.135 1867.32 C 568.072 1868.34 583.403 1868.88 596.028 1870.22 C 661.805 1877.32 732.239 1878.64 798.497 1881.6 C 823.853 1882.73 859.95 1885.73 884.475 1883.7 C 888.924 1884.07 899.701 1884.71 903.562 1885.55 C 897.293 1887.17 891.463 1887.82 884.987 1887.91 C 797.543 1889.16 709.936 1884.33 622.802 1877.25 C 611.507 1876.33 600.824 1874.13 589.491 1873.97 C 579.259 1874.19 561.471 1872.81 551.036 1871.82 C 532.077 1870.02 500.195 1868.67 481.986 1864.48 C 477.383 1863.86 472.703 1864.03 468.071 1863.72 C 447.513 1862.38 427.227 1859.22 406.86 1856.18 C 374.94 1850.68 368.6 1848.25 340.736 1834.74 C 318.232 1826.12 294.111 1813.68 276.154 1797.55 C 254.282 1789.38 206.606 1731.97 201.126 1710.04 z" fill="currentColor" transform="translate(0,0)"></path>
<path d="M 1860.29 1626.02 C 1862.5 1624.44 1861.95 1624.72 1863.35 1622.51 L 1864.57 1622.94 C 1869.92 1651.12 1857.61 1714.2 1840.39 1737.96 C 1833.81 1747.03 1826.52 1755.69 1817.87 1763.2 C 1799.52 1789.34 1747.93 1812.54 1718.59 1824.37 C 1698.27 1831.46 1677.79 1836.9 1657.05 1842.56 C 1648.35 1844.94 1637.64 1845.25 1628.54 1846.73 C 1586.44 1853.55 1543.82 1860.09 1501.2 1862.17 C 1485.63 1862.93 1469.86 1865.23 1454.32 1866.47 C 1439.56 1867.81 1424.79 1868.71 1410.02 1869.82 C 1409.41 1869.89 1407.04 1872.29 1406.49 1872.87 C 1400.66 1872.9 1395.14 1871.28 1389.56 1871.69 C 1372.12 1872.96 1355.29 1878.9 1337.72 1876.59 C 1332.39 1875.88 1324.58 1876.43 1319.15 1876.63 C 1317.12 1878.12 1295.38 1878.89 1291.09 1879.18 C 1263.96 1881.2 1236.81 1882.97 1209.64 1884.5 C 1204.74 1884.76 1185.5 1886.27 1181.98 1885.99 C 1164.73 1888.19 1135.97 1888.59 1117.97 1889.29 C 1099.59 1890.01 1067.61 1891.55 1049.85 1890.24 C 1059.82 1889.95 1118.81 1889.13 1123.66 1886.75 C 1095.56 1883.41 1058.06 1889.85 1029.04 1887.73 C 1023.2 1887.31 1014.84 1888.19 1009.35 1886.9 C 1016.94 1884.27 1090.41 1886.03 1106.52 1884.1 C 1122.68 1884.3 1138.34 1882.67 1154.54 1882.87 C 1163.27 1881.37 1198.46 1879.9 1209.22 1879.28 C 1246.93 1877.23 1284.62 1874.89 1322.29 1872.25 C 1398.5 1868.7 1476.46 1858.74 1552.4 1851.12 C 1607.19 1845.62 1662.7 1838.2 1715.28 1821.33 C 1754.6 1805.03 1777.44 1794.87 1810.82 1765.26 C 1811.92 1764.22 1813 1763.15 1814.05 1762.06 C 1853.48 1721.47 1861.27 1681.96 1860.29 1626.02 z" fill="currentColor" transform="translate(0,0)"></path>
<path d="M 405.154 1775.24 C 419.934 1774.43 432.956 1775.86 446.214 1782.82 C 474.391 1797.62 486.872 1831.2 447.245 1840.84 C 433.129 1842.49 422.736 1842.26 409.813 1836.05 C 381.293 1822.36 365.22 1786.63 405.154 1775.24 z" fill="currentColor" transform="translate(0,0)"></path>
<path d="M 411.088 1779.43 C 437.665 1780.63 464.565 1792.03 464.548 1822.61 C 457.61 1830.54 456.673 1831.48 446.691 1834.92 C 394.536 1844.64 369.535 1786.02 411.088 1779.43 z" fill="currentColor" transform="translate(0,0)"></path>
<path d="M 1556.08 1807.48 C 1566.25 1806.98 1578.66 1813.3 1569.89 1824.48 C 1562.21 1830.41 1558.58 1832.07 1548.97 1830.09 C 1535.36 1820.37 1545.83 1812.18 1556.08 1807.48 z" fill="currentColor" transform="translate(0,0)"></path>
<path d="M 1556.08 1807.48 C 1566.25 1806.98 1578.66 1813.3 1569.89 1824.48 L 1564.45 1822.95 C 1565.32 1822.05 1566.14 1820.9 1566.92 1819.89 C 1566.33 1812.39 1560.41 1814.38 1556.08 1807.48 z" fill="currentColor" transform="translate(0,0)"></path>
<path d="M 1564.45 1822.95 L 1569.89 1824.48 C 1562.21 1830.41 1558.58 1832.07 1548.97 1830.09 C 1556.54 1825.31 1553.53 1824.52 1564.45 1822.95 z" fill="currentColor" transform="translate(0,0)"></path>
<path d="M 1472.92 1828.01 C 1479.56 1805.9 1514.49 1812.87 1499.2 1832.96 C 1488.07 1838.7 1479.02 1841.13 1472.92 1828.01 z" fill="currentColor" transform="translate(0,0)"></path>
<path d="M 1472.92 1828.01 C 1481.44 1830.39 1494.76 1830.76 1499.2 1832.96 C 1488.07 1838.7 1479.02 1841.13 1472.92 1828.01 z" fill="currentColor" transform="translate(0,0)"></path>
<path d="M 1421.17 1818.41 C 1440.76 1823.25 1436.71 1836.29 1420.38 1841.8 C 1397.5 1840.19 1403.17 1821.42 1421.17 1818.41 z" fill="url(#Gradient9)" transform="translate(0,0)"></path>
<path d="M 1421.17 1818.41 C 1440.76 1823.25 1436.71 1836.29 1420.38 1841.8 L 1421.99 1838.66 L 1421.02 1837.24 C 1418.09 1837.28 1416.23 1837.46 1413.34 1837.74 L 1412.09 1836.36 L 1412.71 1835.19 C 1417.38 1835.77 1418.99 1836.33 1423.35 1835.02 C 1429.05 1829.94 1424.28 1823.81 1421.17 1818.41 z" fill="currentColor" transform="translate(0,0)"></path>
<path d="M 1857.6 1607.44 L 1859.21 1608.23 C 1858.97 1612.17 1856.85 1615.74 1855.13 1619.38 L 1854.35 1619.68 C 1853.69 1616.89 1856.49 1610.55 1857.6 1607.44 z" fill="currentColor" transform="translate(0,0)"></path>
<path d="M 1377.65 160.018 C 1410.19 156.322 1459.95 177.374 1485.46 197.366 C 1495.4 205.162 1497.77 209.535 1505.17 218.82 L 1507.09 217.357 C 1514.15 221.84 1520.88 256.406 1523.46 266.623 C 1530.56 294.809 1538.36 323.052 1544.93 351.356 C 1547.66 363.112 1553.29 375.041 1556.62 386.956 L 1590.26 511.557 L 1600.13 548.137 C 1600.53 549.634 1603.59 559.781 1603.73 560.732 C 1605.77 565.534 1607.18 570.195 1608.26 575.299 C 1611.66 591.328 1616.74 607.104 1620.51 622.991 C 1620.88 629.038 1626.34 645.993 1628.26 653.47 C 1632.27 663.524 1636.24 680.649 1639.09 691.71 L 1654.78 753.473 C 1658.23 767.213 1666.12 792.285 1667.4 804.722 C 1673.03 821.193 1678.56 843.51 1683.31 860.609 C 1693.45 897.036 1703.19 933.576 1712.5 970.223 C 1716.21 985.186 1725.78 1028.85 1730.47 1040.57 C 1738.17 1053.22 1744 1090.59 1747.54 1106.58 C 1758.39 1155.6 1774.04 1204 1786.06 1252.48 L 1804.33 1324.83 C 1806.52 1333.77 1818.57 1389.71 1822.99 1393.16 L 1824.96 1393.9 C 1828.52 1397.7 1830.71 1404.07 1831.69 1409.11 C 1836.45 1427.75 1841.01 1446.44 1845.38 1465.17 C 1848.7 1479.17 1850.08 1488.71 1855.93 1502 L 1856.52 1499.31 L 1859.14 1498.16 L 1859.51 1496.18 C 1860.83 1494.13 1862.3 1493.11 1864.16 1491.55 L 1865.3 1492.94 C 1870.56 1497.84 1872.18 1523.27 1873.09 1531.48 C 1872.21 1533.74 1872.66 1533.17 1871.18 1534.95 L 1871.84 1535.26 L 1874.67 1535.78 C 1878.4 1542.31 1887.05 1569.18 1879.25 1574.19 L 1878.15 1574.09 C 1874.3 1572.87 1872.78 1573.39 1868.63 1573.88 C 1867.27 1574.38 1866.92 1575.3 1865.7 1576.72 L 1865.32 1575.85 L 1866.47 1573.99 C 1866.34 1570.3 1865.96 1567.85 1862.5 1566.41 C 1860.16 1568.37 1860.87 1569.08 1860.35 1573.17 C 1860.01 1569.63 1859.99 1567.34 1858.74 1563.97 C 1853.98 1565.81 1853.94 1565.45 1850.96 1570.88 C 1852.4 1537.16 1833.11 1470.28 1825.8 1437.53 C 1804.46 1341.94 1777.84 1247.1 1754.26 1152.04 C 1746 1118.73 1734.36 1082.22 1728.04 1049.05 C 1721.54 1031.18 1713.76 994.822 1708.37 975.015 C 1691.66 914.343 1675.52 853.512 1659.97 792.531 C 1655.06 779.401 1646.48 743.157 1642.62 728.61 C 1638.29 712.292 1627.77 676.832 1625.23 661.342 C 1621.21 650.574 1615.33 627.498 1612.4 615.731 C 1610.11 609.743 1605.53 590.953 1604.12 584.352 C 1597.31 565.694 1589.55 531.67 1583.93 511.587 L 1536.1 335.883 C 1529.15 309.46 1511.77 233.628 1498.21 214.126 C 1494.89 209.355 1489.91 205.104 1485.51 201.339 C 1455.67 175.804 1415.63 165.825 1377.65 160.018 z" fill="currentColor" transform="translate(0,0)"></path>
<path d="M 1864.16 1491.55 L 1865.3 1492.94 C 1870.56 1497.84 1872.18 1523.27 1873.09 1531.48 C 1872.21 1533.74 1872.66 1533.17 1871.18 1534.95 L 1871.84 1535.26 L 1874.67 1535.78 C 1878.4 1542.31 1887.05 1569.18 1879.25 1574.19 L 1878.15 1574.09 C 1874.3 1572.87 1872.78 1573.39 1868.63 1573.88 C 1869.59 1568.69 1868.48 1564.18 1867.68 1558.9 C 1865.03 1550.61 1858.37 1511.75 1854.87 1508.32 L 1850.93 1509.04 C 1849.51 1506.43 1850.09 1507.71 1850.35 1504.04 C 1852.91 1501.32 1851.28 1502.3 1855.93 1502 L 1856.52 1499.31 L 1859.14 1498.16 L 1859.51 1496.18 C 1860.83 1494.13 1862.3 1493.11 1864.16 1491.55 z" fill="currentColor" transform="translate(0,0)"></path>
<path d="M 1871.84 1535.26 L 1874.67 1535.78 C 1878.4 1542.31 1887.05 1569.18 1879.25 1574.19 L 1878.15 1574.09 C 1879.37 1566.87 1873.27 1569.07 1873.8 1555.71 C 1877.31 1547.23 1870.42 1548.98 1871.84 1535.26 z" fill="currentColor" transform="translate(0,0)"></path>
<path d="M 1865.3 1492.94 C 1870.56 1497.84 1872.18 1523.27 1873.09 1531.48 C 1872.21 1533.74 1872.66 1533.17 1871.18 1534.95 C 1868.28 1530.75 1865.85 1527.81 1866.23 1522.52 C 1866 1515.87 1862.41 1504.74 1863.54 1499.73 C 1863.09 1497.76 1863.07 1497.64 1862.85 1495.71 L 1865.3 1492.94 z" fill="currentColor" transform="translate(0,0)"></path>
<path d="M 1863.54 1499.73 C 1866.56 1505.36 1867.73 1515.33 1867.8 1521.73 L 1866.99 1523.07 L 1866.23 1522.52 C 1866 1515.87 1862.41 1504.74 1863.54 1499.73 z" fill="currentColor" transform="translate(0,0)"></path>
<path d="M 1831.44 1420.29 C 1836.97 1436.09 1840.63 1457.04 1845.05 1473.51 C 1846.93 1480.53 1847.19 1488.02 1850.23 1494.77 C 1850.86 1496.16 1850.71 1496 1850.87 1497.61 C 1847.31 1494.31 1846.68 1492.11 1844.61 1487.67 C 1843.56 1490.01 1843.94 1488.84 1843.42 1491.18 C 1843.4 1491.14 1830.56 1430.85 1829.71 1426.31 C 1830.8 1423.53 1831.02 1423.2 1831.44 1420.29 z" fill="currentColor" transform="translate(0,0)"></path>
<path d="M 1824.96 1393.9 C 1828.52 1397.7 1830.71 1404.07 1831.69 1409.11 L 1830.22 1410.13 C 1830.56 1413.76 1830.87 1416.69 1831.44 1420.29 C 1831.02 1423.2 1830.8 1423.53 1829.71 1426.31 C 1826.52 1419.31 1823.48 1401.42 1824.96 1393.9 z" fill="url(#Gradient8)" transform="translate(0,0)"></path>
<path d="M 1845.27 1494.89 C 1848.89 1498.24 1847.96 1502.67 1847.8 1507.28 C 1844.77 1503.01 1845.17 1500.03 1845.27 1494.89 z" fill="currentColor" transform="translate(0,0)"></path>
<path d="M 573.901 217.802 L 580.479 218.603 C 564.806 232.006 557.787 238.714 547.484 257.077 C 548.109 253.383 548.498 249.704 548.933 245.986 C 558.194 232.58 562.345 229.031 573.901 217.802 z" fill="currentColor" transform="translate(0,0)"></path>
<path d="M 1153.39 257.996 C 1163.96 256.518 1196.26 257.11 1208.08 257.107 C 1246.84 256.991 1285.61 257.243 1324.37 257.86 L 1394 258.885 C 1403.75 259.063 1420.04 258.774 1429.09 259.875 C 1447.88 259.522 1467.01 261.18 1485.42 260.743 C 1489.78 260.935 1491.73 260.516 1495.01 263.008 C 1499.17 268.633 1508.28 309.355 1510.8 319.113 C 1520.41 355.289 1529.61 391.571 1538.42 427.952 C 1544.05 450.68 1550.66 473.35 1555.69 496.248 C 1557.27 503.45 1560.56 514.966 1561.56 521.956 C 1617.2 741.419 1671.73 961.163 1725.14 1181.18 L 1758.04 1316.74 C 1759.93 1324.65 1769.77 1365.39 1769.81 1370.6 C 1773.23 1382.03 1785.52 1430.83 1783.68 1440.4 C 1771.53 1447.94 1326.47 1448.86 1273.64 1449.09 L 1150.6 1450.68 C 1119.81 1450.84 1089.43 1450.34 1058.46 1450.63 L 911.089 1451.82 C 892.703 1452.11 874.214 1452.68 855.808 1452.43 C 851.089 1452.36 837.327 1452.75 833.407 1452.14 C 824.436 1452.74 814.746 1452.94 805.729 1452.79 C 750.772 1451.88 694.905 1454.84 640.102 1454.12 C 623.088 1455.79 600.889 1454.64 583.292 1455.17 C 543.918 1456.33 502.75 1455.14 463.538 1456.19 C 453.795 1458.26 250.214 1457.84 245.24 1456.28 C 245.521 1444.92 255.277 1411.71 258.714 1398.61 C 266.284 1369.69 273.681 1340.72 280.905 1311.71 L 416.093 796.058 L 420.304 781.489 C 422.168 772.848 425.548 761.988 427.779 752.964 C 436.16 718.745 445.042 684.65 454.42 650.69 C 461.872 623.119 470.62 585.818 479.209 559.548 C 479.489 554.369 489.082 522.058 490.907 514.568 C 503.988 460.88 520.332 407.613 533.542 353.96 C 537.341 338.531 546.627 312.213 548.262 298.081 C 548.947 295.402 549.518 292.118 551.575 290.124 C 560.409 281.566 791.654 267.032 819.328 266.835 C 824.896 265.921 832.1 265.979 837.859 265.822 C 844.26 264.677 867.568 263.921 874.678 263.892 C 879.279 263.024 897.326 262.451 902.623 262.313 C 921.259 261.827 942.268 260.173 960.731 261.091 C 989.847 259 1021.23 259.476 1050.5 258.928 C 1084.58 258.289 1119.34 257.446 1153.39 257.996 z" fill="none" transform="translate(0,0)"></path>
<path d="M 1153.39 257.996 C 1163.96 256.518 1196.26 257.11 1208.08 257.107 C 1246.84 256.991 1285.61 257.243 1324.37 257.86 L 1394 258.885 C 1403.75 259.063 1420.04 258.774 1429.09 259.875 C 1447.88 259.522 1467.01 261.18 1485.42 260.743 C 1489.78 260.935 1491.73 260.516 1495.01 263.008 C 1499.17 268.633 1508.28 309.355 1510.8 319.113 C 1520.41 355.289 1529.61 391.571 1538.42 427.952 C 1544.05 450.68 1550.66 473.35 1555.69 496.248 C 1557.27 503.45 1560.56 514.966 1561.56 521.956 C 1617.2 741.419 1671.73 961.163 1725.14 1181.18 L 1758.04 1316.74 C 1759.93 1324.65 1769.77 1365.39 1769.81 1370.6 C 1771.1 1379.35 1768.44 1383.06 1769.29 1391.15 C 1770.3 1400.75 1777.08 1421.02 1777.41 1429.38 L 1775.21 1432.07 L 1775.58 1433.07 L 1774.26 1433.7 L 1773.5 1432.96 C 1771.46 1433.69 1771.71 1433.42 1769.39 1433.43 C 1764.74 1428.08 1752.44 1356.11 1749.59 1344.32 L 1696.79 1127.84 C 1684.5 1075.89 1674.8 1025.08 1659.16 973.609 L 1655.51 975.035 C 1651.05 951.861 1643.72 924.865 1638.05 901.804 L 1618.8 820.797 C 1615.09 805.567 1607.35 778.959 1605.16 764.322 C 1601.5 753.746 1597.37 734.74 1594.63 723.392 C 1591.75 711.466 1586.61 692.382 1585.09 680.737 C 1582.34 674.773 1575.8 642.691 1573.6 634.008 C 1559.48 578.359 1545.88 522.578 1532.82 466.672 C 1531.64 463.905 1526.61 442.596 1525.79 438.957 C 1521.64 420.441 1516.25 401.098 1512.71 382.612 C 1511.09 379.514 1507.9 364.026 1506.49 359.314 C 1498.93 334.082 1493.81 299.631 1485.47 275.33 C 1474.95 272.897 1446.96 272.906 1434.76 272.637 L 1347.98 270.903 C 1203.56 268.289 1059.1 269.63 914.753 274.926 C 854.978 277.106 795.086 281.289 735.31 284.051 C 702.218 281.082 653.241 287.823 619.496 290.358 C 603.72 291.543 574.386 293.704 559.761 296.864 C 527.194 413.568 496.104 530.678 466.497 648.168 C 463.161 640.287 478.696 597.869 473.421 586.694 C 473.499 586.858 479.783 566.025 479.209 559.548 C 479.489 554.369 489.082 522.058 490.907 514.568 C 503.988 460.88 520.332 407.613 533.542 353.96 C 537.341 338.531 546.627 312.213 548.262 298.081 C 548.947 295.402 549.518 292.118 551.575 290.124 C 560.409 281.566 791.654 267.032 819.328 266.835 C 824.896 265.921 832.1 265.979 837.859 265.822 C 844.26 264.677 867.568 263.921 874.678 263.892 C 879.279 263.024 897.326 262.451 902.623 262.313 C 921.259 261.827 942.268 260.173 960.731 261.091 C 989.847 259 1021.23 259.476 1050.5 258.928 C 1084.58 258.289 1119.34 257.446 1153.39 257.996 z" fill="url(#Gradient7)" transform="translate(0,0)"></path>
<path d="M 1557.71 520.922 L 1559.71 519.843 L 1560.64 521.702 L 1561.56 521.956 C 1617.2 741.419 1671.73 961.163 1725.14 1181.18 L 1758.04 1316.74 C 1759.93 1324.65 1769.77 1365.39 1769.81 1370.6 C 1771.1 1379.35 1768.44 1383.06 1769.29 1391.15 C 1770.3 1400.75 1777.08 1421.02 1777.41 1429.38 L 1775.21 1432.07 L 1775.58 1433.07 L 1774.26 1433.7 L 1773.5 1432.96 C 1765.52 1414.6 1764.25 1389.09 1759 1370.06 C 1750.28 1338.43 1744.8 1306.8 1737.35 1274.97 C 1735.53 1265.45 1734.15 1258.61 1731.38 1249.22 C 1727.63 1240.62 1722.91 1211.03 1720.16 1199.84 L 1665.6 969.633 L 1600.23 700.88 L 1573.25 588.271 C 1567.65 564.842 1561.73 544.956 1557.71 520.922 z" fill="url(#Gradient6)" transform="translate(0,0)"></path>
<path d="M 1731.38 1249.22 L 1733.19 1248.95 C 1735.37 1254.7 1740.59 1269.8 1737.35 1274.97 C 1735.53 1265.45 1734.15 1258.61 1731.38 1249.22 z" fill="currentColor" transform="translate(0,0)"></path>
<path d="M 1512.71 382.612 C 1513.57 383.205 1514.42 383.797 1515.28 384.39 C 1523.86 412.768 1532.47 442.174 1538.62 471.2 C 1538.91 472.586 1538.85 474.997 1538.85 475.544 C 1543.13 485.786 1544.27 502.233 1547.92 513.465 C 1556.84 540.913 1561.09 569.426 1569.01 597.164 C 1574.71 617.093 1579.73 637.217 1583.78 657.549 C 1585.3 665.358 1587.93 674.029 1588.88 681.852 C 1595.55 704.322 1604.68 738.4 1608.24 760.867 C 1612.62 773.398 1619.78 806.045 1623.44 820.604 C 1634.87 864.586 1645.6 908.746 1655.64 953.066 C 1657.17 959.794 1657.73 967.134 1659.16 973.609 L 1655.51 975.035 C 1651.05 951.861 1643.72 924.865 1638.05 901.804 L 1618.8 820.797 C 1615.09 805.567 1607.35 778.959 1605.16 764.322 C 1601.5 753.746 1597.37 734.74 1594.63 723.392 C 1591.75 711.466 1586.61 692.382 1585.09 680.737 C 1582.34 674.773 1575.8 642.691 1573.6 634.008 C 1559.48 578.359 1545.88 522.578 1532.82 466.672 C 1531.64 463.905 1526.61 442.596 1525.79 438.957 C 1521.64 420.441 1516.25 401.098 1512.71 382.612 z" fill="currentColor" transform="translate(0,0)"></path>
<path d="M 1485.42 260.743 C 1489.78 260.935 1491.73 260.516 1495.01 263.008 C 1499.17 268.633 1508.28 309.355 1510.8 319.113 C 1520.41 355.289 1529.61 391.571 1538.42 427.952 C 1544.05 450.68 1550.66 473.35 1555.69 496.248 C 1557.27 503.45 1560.56 514.966 1561.56 521.956 L 1560.64 521.702 L 1559.71 519.843 L 1557.71 520.922 C 1555.6 504.986 1546.6 475.897 1542.39 459.443 L 1506.4 320.731 C 1502.4 305.459 1500.76 286.443 1495.2 270.982 C 1493.07 265.086 1490.32 264.705 1485.42 260.743 z" fill="currentColor" transform="translate(0,0)"></path>
<path d="M 548.262 298.081 C 548.947 295.402 549.518 292.118 551.575 290.124 C 560.409 281.566 791.654 267.032 819.328 266.835 C 813.29 271.801 760.506 272.949 748.821 273.793 L 612.381 284.82 C 595.111 286.384 575.113 287.972 557.985 290.916 C 553.197 291.739 553.85 295.78 548.262 298.081 z" fill="currentColor" transform="translate(0,0)"></path>
<path d="M 1153.39 257.996 C 1163.96 256.518 1196.26 257.11 1208.08 257.107 C 1246.84 256.991 1285.61 257.243 1324.37 257.86 L 1394 258.885 C 1403.75 259.063 1420.04 258.774 1429.09 259.875 C 1424.22 260.652 1417.77 259.69 1413.38 260.565 C 1386.89 265.743 1351.06 260.551 1324.37 259.161 C 1300.46 257.916 1159.98 262.14 1153.39 257.996 z" fill="currentColor" transform="translate(0,0)"></path>
<path d="M 874.678 263.892 C 879.279 263.024 897.326 262.451 902.623 262.313 C 921.259 261.827 942.268 260.173 960.731 261.091 C 951.356 266.19 911.66 265.901 899.563 266.018 C 884.582 269.502 858.887 267.164 842.712 268.23 C 841.342 268.32 838.935 266.583 837.859 265.822 C 844.26 264.677 867.568 263.921 874.678 263.892 z" fill="currentColor" transform="translate(0,0)"></path>
<path d="M 1655.51 975.035 L 1659.16 973.609 C 1674.8 1025.08 1684.5 1075.89 1696.79 1127.84 L 1749.59 1344.32 C 1752.44 1356.11 1764.74 1428.08 1769.39 1433.43 C 1771.71 1433.42 1771.46 1433.69 1773.5 1432.96 L 1774.26 1433.7 L 1775.58 1433.07 L 1775.21 1432.07 L 1777.41 1429.38 C 1777.08 1421.02 1770.3 1400.75 1769.29 1391.15 C 1768.44 1383.06 1771.1 1379.35 1769.81 1370.6 C 1773.23 1382.03 1785.52 1430.83 1783.68 1440.4 C 1771.53 1447.94 1326.47 1448.86 1273.64 1449.09 L 1150.6 1450.68 C 1119.81 1450.84 1089.43 1450.34 1058.46 1450.63 L 911.089 1451.82 C 892.703 1452.11 874.214 1452.68 855.808 1452.43 C 851.089 1452.36 837.327 1452.75 833.407 1452.14 C 824.436 1452.74 814.746 1452.94 805.729 1452.79 C 750.772 1451.88 694.905 1454.84 640.102 1454.12 C 633.563 1453.09 616.127 1453.43 608.846 1453.44 C 589.373 1453.43 569.9 1453.53 550.428 1453.74 C 544.829 1453.81 529.041 1454.56 524.67 1453.64 C 527.097 1452.77 527.642 1452.65 529.806 1451.3 C 528.191 1449.37 529.173 1450.18 526.363 1449.45 C 529.014 1448.36 573.563 1449.04 581.526 1448.45 C 581.753 1444.77 582.186 1441.41 580.1 1438.47 C 636.874 1436.83 696.13 1437.7 753.289 1436.74 L 1308.07 1429.37 C 1458.63 1428.94 1609.18 1426.72 1759.69 1422.71 C 1755.87 1408.97 1753.54 1394.27 1750.07 1380.36 C 1716.54 1245.96 1689.47 1109.26 1655.51 975.035 z" fill="url(#Gradient5)" transform="translate(0,0)"></path>
<path d="M 581.526 1448.45 C 590.767 1449.69 601.267 1448.92 610.615 1448.4 C 645.764 1446.46 681.001 1448.24 716.131 1445.9 C 720.18 1445.63 726.978 1444.81 730.615 1446.33 C 731.031 1448.75 730.96 1447.97 730.679 1450.44 C 735.211 1453.25 752.527 1451.04 758.744 1451.18 C 782.599 1451.74 810.025 1448.72 833.407 1452.14 C 824.436 1452.74 814.746 1452.94 805.729 1452.79 C 750.772 1451.88 694.905 1454.84 640.102 1454.12 C 633.563 1453.09 616.127 1453.43 608.846 1453.44 C 589.373 1453.43 569.9 1453.53 550.428 1453.74 C 544.829 1453.81 529.041 1454.56 524.67 1453.64 C 527.097 1452.77 527.642 1452.65 529.806 1451.3 C 528.191 1449.37 529.173 1450.18 526.363 1449.45 C 529.014 1448.36 573.563 1449.04 581.526 1448.45 z" fill="url(#Gradient4)" transform="translate(0,0)"></path>
<path d="M 1421.24 1437.59 C 1443.24 1436.47 1466.64 1438.21 1488.75 1437.83 C 1526.79 1437.19 1566 1437.37 1604.06 1438.54 L 1603.73 1439.24 L 1607.49 1438.89 L 1606.25 1438.76 C 1597.33 1443.24 1320.54 1436.91 1279.76 1440.51 C 1236.72 1440.49 1193.69 1440.92 1150.66 1441.81 C 1141.24 1441.94 1101.61 1443.18 1095.48 1442.14 C 1098.47 1440 1105.12 1439.25 1108.69 1440.45 C 1118.06 1443.58 1128.28 1439.73 1137.76 1439.82 C 1150.36 1439.94 1162.81 1439.33 1175.37 1439.22 L 1312.42 1437.96 C 1347.98 1437.87 1385.83 1438.6 1421.24 1437.59 z" fill="currentColor" transform="translate(0,0)"></path>
<path d="M 816.308 1444.44 C 819.789 1444.13 820.027 1444.25 823.35 1444.75 L 823.621 1445.44 C 818.215 1447.53 814.744 1447.43 809.118 1448.39 C 805.969 1448.59 805.77 1448.77 802.766 1448.03 L 802.321 1446.78 C 807.449 1444.33 810.626 1444.67 816.308 1444.44 z" fill="currentColor" transform="translate(0,0)"></path>
<path d="M 921.466 1442.49 C 926.119 1442.27 931.508 1441.65 935.4 1444.25 C 932.923 1445.77 930.506 1445.36 927.5 1445.35 C 923.661 1445.66 916.76 1445.15 913.045 1444.01 C 915.459 1442.64 918.594 1442.72 921.466 1442.49 z" fill="currentColor" transform="translate(0,0)"></path>
<path d="M 559.761 296.864 C 574.386 293.704 603.72 291.543 619.496 290.358 C 653.241 287.823 702.218 281.082 735.31 284.051 C 724.788 285.772 704.678 286.263 692.97 287.226 C 667.575 289.462 642.193 291.848 616.826 294.385 C 600.602 295.983 580.028 297.586 564.141 300.412 C 532.414 415.337 501.968 530.612 472.808 646.215 C 429.361 811.371 386.759 976.747 345.002 1142.34 L 292.661 1347.5 L 275.852 1412.11 C 274.611 1416.93 269.117 1437.62 268.939 1441.73 C 266.591 1441.85 266.028 1441.8 263.683 1441.54 L 262.371 1439.25 C 260.51 1446.19 266.476 1445.57 266.171 1451.82 L 267.234 1452.17 C 288.413 1460.8 427.739 1454.7 463.538 1456.19 C 453.795 1458.26 250.214 1457.84 245.24 1456.28 C 245.521 1444.92 255.277 1411.71 258.714 1398.61 C 266.284 1369.69 273.681 1340.72 280.905 1311.71 L 416.093 796.058 L 420.304 781.489 C 422.168 772.848 425.548 761.988 427.779 752.964 C 436.16 718.745 445.042 684.65 454.42 650.69 C 461.872 623.119 470.62 585.818 479.209 559.548 C 479.783 566.025 473.499 586.858 473.421 586.694 C 478.696 597.869 463.161 640.287 466.497 648.168 C 496.104 530.678 527.194 413.568 559.761 296.864 z" fill="currentColor" transform="translate(0,0)"></path>
<path d="M 463.538 1456.19 C 453.795 1458.26 250.214 1457.84 245.24 1456.28 C 245.521 1444.92 255.277 1411.71 258.714 1398.61 C 266.284 1369.69 273.681 1340.72 280.905 1311.71 L 416.093 796.058 C 417.941 796.958 419.778 797.879 421.605 798.82 C 421.372 804.181 418.683 811.7 417.494 817.254 C 411.579 844.954 403.02 871.787 396.96 899.465 C 394.249 911.04 389.557 922.638 386.821 934.132 C 382.527 952.171 378.94 970.069 372.828 987.659 C 362.696 1016.82 356.723 1047.06 348.323 1076.76 L 354.72 1078.52 L 351.575 1079.92 C 352.843 1081.03 354.228 1081.7 353.949 1082.87 C 345.287 1119.1 330.583 1168.46 321.382 1203.28 C 306.384 1260.69 292.069 1318.27 278.441 1376.02 C 273.194 1397.52 267.453 1417.02 262.371 1439.25 C 260.51 1446.19 266.476 1445.57 266.171 1451.82 L 267.234 1452.17 C 288.413 1460.8 427.739 1454.7 463.538 1456.19 z" fill="currentColor" transform="translate(0,0)"></path>
<path d="M 348.323 1076.76 L 354.72 1078.52 L 351.575 1079.92 C 352.843 1081.03 354.228 1081.7 353.949 1082.87 C 345.287 1119.1 330.583 1168.46 321.382 1203.28 C 306.384 1260.69 292.069 1318.27 278.441 1376.02 C 273.194 1397.52 267.453 1417.02 262.371 1439.25 C 260.51 1446.19 266.476 1445.57 266.171 1451.82 C 261.01 1453.32 256.738 1452.79 253.613 1448.16 C 253.175 1445.9 291.783 1289.97 296.683 1271.87 L 332.659 1134.99 C 337.368 1116.68 344.498 1094.91 348.323 1076.76 z" fill="url(#Gradient3)" transform="translate(0,0)"></path>
<path d="M 420.304 781.489 C 422.168 772.848 425.548 761.988 427.779 752.964 C 436.16 718.745 445.042 684.65 454.42 650.69 C 461.872 623.119 470.62 585.818 479.209 559.548 C 479.783 566.025 473.499 586.858 473.421 586.694 C 478.696 597.869 463.161 640.287 466.497 648.168 C 465.332 652.542 463.353 661.092 461.459 664.809 C 458.71 676.151 456.206 687.552 453.949 699.002 C 451.922 712.097 447.559 721.846 444.163 734.338 C 439.716 750.701 436.097 765.987 430.713 782.127 C 427.435 781.255 423.796 781.511 420.304 781.489 z" fill="currentColor" transform="translate(0,0)"></path>
<path d="M 453.949 699.002 C 452.092 690.523 454.631 669.842 461.459 664.809 C 458.71 676.151 456.206 687.552 453.949 699.002 z" fill="currentColor" transform="translate(0,0)"></path>
<path d="M 416.093 796.058 L 420.304 781.489 C 423.796 781.511 427.435 781.255 430.713 782.127 C 426.655 802 420.971 818.739 416.047 837.976 L 375.806 997.131 C 369.602 1021.41 359.692 1054.93 354.72 1078.52 L 348.323 1076.76 C 356.723 1047.06 362.696 1016.82 372.828 987.659 C 378.94 970.069 382.527 952.171 386.821 934.132 C 389.557 922.638 394.249 911.04 396.96 899.465 C 403.02 871.787 411.579 844.954 417.494 817.254 C 418.683 811.7 421.372 804.181 421.605 798.82 C 419.778 797.879 417.941 796.958 416.093 796.058 z" fill="currentColor" transform="translate(0,0)"></path>
<path d="M 266.171 1451.82 C 266.476 1445.57 260.51 1446.19 262.371 1439.25 L 263.683 1441.54 C 266.028 1441.8 266.591 1441.85 268.939 1441.73 C 300.451 1442.59 340.321 1441.07 372.516 1440.76 L 580.1 1438.47 C 582.186 1441.41 581.753 1444.77 581.526 1448.45 C 573.563 1449.04 529.014 1448.36 526.363 1449.45 C 529.173 1450.18 528.191 1449.37 529.806 1451.3 C 527.642 1452.65 527.097 1452.77 524.67 1453.64 C 529.041 1454.56 544.829 1453.81 550.428 1453.74 C 569.9 1453.53 589.373 1453.43 608.846 1453.44 C 616.127 1453.43 633.563 1453.09 640.102 1454.12 C 623.088 1455.79 600.889 1454.64 583.292 1455.17 C 543.918 1456.33 502.75 1455.14 463.538 1456.19 C 427.739 1454.7 288.413 1460.8 267.234 1452.17 L 266.171 1451.82 z" fill="currentColor" transform="translate(0,0)"></path>
<path d="M 482.045 1450.12 C 487.419 1449.91 522.482 1448.83 526.363 1449.45 C 529.173 1450.18 528.191 1449.37 529.806 1451.3 C 527.642 1452.65 527.097 1452.77 524.67 1453.64 C 529.041 1454.56 544.829 1453.81 550.428 1453.74 C 569.9 1453.53 589.373 1453.43 608.846 1453.44 C 616.127 1453.43 633.563 1453.09 640.102 1454.12 C 623.088 1455.79 600.889 1454.64 583.292 1455.17 C 543.918 1456.33 502.75 1455.14 463.538 1456.19 C 427.739 1454.7 288.413 1460.8 267.234 1452.17 C 304.642 1450.15 345.276 1451.13 383.02 1450.61 C 408.808 1450.26 441.519 1448.79 466.828 1450.16 C 471.531 1450.06 477.461 1449.75 482.045 1450.12 z" fill="url(#Gradient2)" transform="translate(0,0)"></path>
<path d="M 466.828 1450.16 C 471.531 1450.06 477.461 1449.75 482.045 1450.12 C 477.968 1452.9 471.023 1452.75 466.828 1450.16 z" fill="currentColor" transform="translate(0,0)"></path>
<path d="M 1276.36 504.856 C 1285.89 503.513 1295.41 504.168 1304.99 503.909 C 1331.66 503.186 1358.89 504.692 1381.53 520.547 C 1395.69 530.459 1401.04 541.543 1402.1 558.356 C 1403.5 562.112 1406.54 581.789 1407.26 586.45 L 1415.32 638.899 L 1451.99 878.94 L 1485.11 1084.27 C 1489.14 1109.67 1498.54 1158.34 1499.34 1182.97 C 1500.01 1200.72 1493.6 1218.01 1481.51 1231.03 C 1452.51 1261.79 1406.32 1258.39 1367.51 1259.27 C 1331.86 1260.25 1296.21 1260.91 1260.55 1261.28 L 917.323 1267.6 C 851.731 1269.02 786.13 1270.01 720.524 1270.57 C 678.497 1271.17 628.164 1274 586.488 1268.3 C 573.417 1265.59 559.882 1257.47 550.423 1248.53 C 518.336 1218.18 534.821 1162.12 541.073 1123.82 C 548.547 1077.37 556.266 1030.96 564.231 984.593 L 611.425 701.495 L 622.948 631.828 C 624.696 620.995 627.064 603.256 629.618 593.146 C 632.993 579.267 640.176 566.605 650.36 556.589 C 679.133 528.058 719.471 524.863 757.505 521.997 C 783.548 520.101 809.616 518.587 835.703 517.454 C 872.201 515.517 920.886 511.652 956.66 511.889 C 967.094 510.164 1006.29 509.592 1019.06 509.11 C 1072.25 506.852 1125.48 505.62 1178.72 505.414 C 1205.59 504.925 1249.96 503.618 1276.36 504.856 z" fill="currentColor" transform="translate(0,0)"></path>
<path d="M 956.66 511.889 C 967.094 510.164 1006.29 509.592 1019.06 509.11 C 1072.25 506.852 1125.48 505.62 1178.72 505.414 C 1170.65 510.122 1056.72 506.565 1050.19 510.558 C 1060.09 513.35 1129.18 508.882 1133.3 512.016 C 1123.68 512.911 1111.23 512.456 1101.48 511.961 C 1074.93 510.614 1049.48 513.227 1023.12 514.35 C 1000.93 515.488 978.696 514.664 956.66 511.889 z" fill="currentColor" transform="translate(0,0)"></path>
<path d="M 1276.36 504.856 C 1285.89 503.513 1295.41 504.168 1304.99 503.909 C 1331.66 503.186 1358.89 504.692 1381.53 520.547 C 1395.69 530.459 1401.04 541.543 1402.1 558.356 C 1395.72 551.326 1396.34 540.547 1390.2 533.937 C 1360.2 501.658 1330.2 511.161 1295.1 507.789 L 1295.48 507.644 C 1289.17 506.516 1281.92 507.206 1276.36 504.856 z" fill="currentColor" transform="translate(0,0)"></path>
<path d="M 956.443 522.091 C 1067.98 515.584 1180.46 517.053 1292.15 513.991 C 1307.64 513.567 1342.46 512.637 1355.48 519.527 C 1349.56 520.093 1336.46 515.486 1329.45 515.239 C 1296.8 514.087 1264.33 515.954 1231.7 516.151 C 1231.01 516.156 1227.77 518.764 1227.05 519.429 C 1212.86 520.598 1203.24 517.585 1194.05 517.177 C 1178.58 516.491 1081.67 516.713 1073.17 521.551 C 1080.2 522.326 1109.19 520.965 1118.31 520.923 L 1270.88 518.711 C 1288.2 518.6 1350.01 514.841 1359.38 528.439 C 1365.45 533.575 1375.86 539.835 1377.93 547.427 C 1382.21 563.166 1384.84 582.658 1387.53 598.851 C 1395.71 649.161 1403.31 699.562 1410.34 750.045 L 1430.98 891.938 C 1435.01 919.234 1442.44 956.157 1443.18 983.269 C 1406.84 1015 1363.23 1048.99 1325.35 1079.72 L 1123.19 1244.01 L 782.242 1249.41 C 741.821 1250.43 701.389 1251.01 660.954 1251.12 C 632.266 1251.16 590.91 1255.74 568.312 1234.21 C 550.026 1216.79 553.064 1191.32 556.567 1168.71 C 555.456 1166.61 554.795 1166.7 552.769 1165.36 L 552.321 1162.34 C 555.019 1153.13 556.252 1137.96 558.169 1127.79 C 564.489 1094.24 567.924 1053.29 575.651 1020.32 C 575.563 1016.44 575.47 1009.06 577.492 1005.69 C 578.762 1003.58 578.581 1007.04 579.743 1001.07 C 583.237 997.756 583.29 997.066 582.299 992.77 L 582.151 993.088 C 579.739 986.706 580.097 985.319 581.844 978.65 C 585.329 963.213 586.815 938.061 591.149 925.037 C 589.76 920.679 589.412 921.763 590.365 917.945 C 593.433 912.542 594.861 901.303 594.589 894.886 L 594.843 892.864 C 600.382 891.53 600.182 850.508 603.602 843.094 L 609.052 842.499 L 609.32 840.825 C 608.376 832.606 604.039 824.402 608.839 815.141 C 609.659 813.56 611.74 813.311 613.399 812.704 C 613.933 810.871 615.091 802.4 615.323 800.043 C 616.903 784.001 622.626 764.961 623.001 749.132 L 622.647 741.971 C 620.78 740.511 621.46 740.992 619.676 739.772 L 618.509 738.984 C 620.601 728.087 849.317 583.248 877.755 562.899 C 889.641 554.393 929.189 532.243 938.068 522.034 C 944.093 521.772 950.393 521.995 956.443 522.091 z" fill="none" transform="translate(0,0)"></path>
<path d="M 956.443 522.091 C 1067.98 515.584 1180.46 517.053 1292.15 513.991 C 1307.64 513.567 1342.46 512.637 1355.48 519.527 C 1349.56 520.093 1336.46 515.486 1329.45 515.239 C 1296.8 514.087 1264.33 515.954 1231.7 516.151 C 1231.01 516.156 1227.77 518.764 1227.05 519.429 C 1212.86 520.598 1203.24 517.585 1194.05 517.177 C 1178.58 516.491 1081.67 516.713 1073.17 521.551 C 1080.2 522.326 1109.19 520.965 1118.31 520.923 L 1270.88 518.711 C 1288.2 518.6 1350.01 514.841 1359.38 528.439 C 1335.5 518.726 1324.83 520.349 1299.44 520.62 C 1282.76 520.85 1266.08 520.951 1249.4 520.923 C 1171.28 521.49 1093.16 522.828 1015.06 524.939 C 996.831 525.411 968.417 528.307 951.378 526.884 C 939.493 529.341 877.388 572.418 864.319 581.056 L 755.385 652.169 C 725.085 671.905 695.02 691.998 665.196 712.444 C 656.003 718.801 632.186 735.081 624.496 742.11 C 624.015 744.454 623.517 746.795 623.001 749.132 L 622.647 741.971 C 620.78 740.511 621.46 740.992 619.676 739.772 L 618.509 738.984 C 620.601 728.087 849.317 583.248 877.755 562.899 C 889.641 554.393 929.189 532.243 938.068 522.034 C 944.093 521.772 950.393 521.995 956.443 522.091 z" fill="currentColor" transform="translate(0,0)"></path>
<path d="M 609.052 842.499 C 607.404 856.757 602.589 887.107 599.536 900.991 C 598.423 908.78 596.684 924.229 594.961 931.319 L 585.224 991.097 C 584.465 999.437 582.621 1012.26 580.896 1020.63 L 563.648 1127.13 C 562.51 1133.98 557.904 1164.5 556.567 1168.71 C 555.456 1166.61 554.795 1166.7 552.769 1165.36 L 552.321 1162.34 C 555.019 1153.13 556.252 1137.96 558.169 1127.79 C 564.489 1094.24 567.924 1053.29 575.651 1020.32 C 575.563 1016.44 575.47 1009.06 577.492 1005.69 C 578.762 1003.58 578.581 1007.04 579.743 1001.07 C 583.237 997.756 583.29 997.066 582.299 992.77 L 582.151 993.088 C 579.739 986.706 580.097 985.319 581.844 978.65 C 585.329 963.213 586.815 938.061 591.149 925.037 C 589.76 920.679 589.412 921.763 590.365 917.945 C 593.433 912.542 594.861 901.303 594.589 894.886 L 594.843 892.864 C 600.382 891.53 600.182 850.508 603.602 843.094 L 609.052 842.499 z" fill="currentColor" transform="translate(0,0)"></path>
<path d="M 609.32 840.825 C 608.376 832.606 604.039 824.402 608.839 815.141 C 609.659 813.56 611.74 813.311 613.399 812.704 C 612.903 817.636 610.655 836.123 609.32 840.825 z" fill="currentColor" transform="translate(0,0)"></path>
<path d="M 1000.57 645.401 C 1000.98 645.347 1001.38 645.294 1001.79 645.24 C 1054.16 642.464 1112.88 651.92 1155.14 684.805 C 1158.77 687.63 1161.16 691.061 1161.38 695.558 C 1158.26 703.779 1132.3 728.45 1124.47 733.277 C 1116.27 728.589 1108.28 722.61 1099.55 718.133 C 1076.05 706.081 1049.66 699.724 1023.18 699.33 C 994.544 698.905 967.202 705.606 945.869 725.772 C 937.505 733.677 933.556 744.618 933.819 756.094 C 934.714 795.2 995.456 806.987 1024.86 814.763 C 1040.3 818.845 1057.94 822.341 1073.33 827.108 C 1107.16 837.938 1148.41 849.042 1174.59 873.915 C 1218.33 915.46 1211.21 987.502 1170.51 1028.6 C 1124.52 1075.04 1065.32 1085.15 1003.34 1086.45 C 969.466 1085.67 935.436 1082.07 903.492 1070.01 C 880.93 1061.49 845.108 1047.44 830.205 1028.25 C 839.179 1016.31 854.249 1005.11 864.188 994.031 C 881.738 974.466 884.891 980.686 905.377 990.954 C 910.503 993.523 916.763 996.676 922.058 999.109 C 952.3 1013.35 985.766 1019.36 1019.07 1016.52 C 1045.68 1014.5 1079.98 1006.38 1097.51 984.896 C 1107.22 972.993 1113.13 957.691 1111.31 942.327 C 1106.23 899.618 1052.25 886.948 1018.47 878.055 C 1001.74 873.76 985.053 869.285 968.417 864.63 C 918.36 850.373 859.484 831.44 853.71 771.494 C 851.503 746.516 859.228 721.675 875.211 702.354 C 906.766 664.118 952.833 649.765 1000.57 645.401 z" fill="currentColor" transform="translate(0,0)"></path>
<path d="M 1014.27 654.558 C 1016.34 654.338 1018.42 654.183 1020.5 654.093 C 1061.74 652.308 1123.98 667.496 1154.93 695.554 C 1145.37 702.866 1133.68 716.169 1124.78 725.234 C 1090.08 702.142 1057.91 692.203 1015.95 692.664 C 988.667 692.964 965.883 699.359 944.538 716.921 C 934.12 725.493 926.746 737.449 926.229 751.135 C 924.308 802.046 985.721 816.642 1024.58 825.474 C 1067.7 835.299 1108.44 845.882 1147.9 866.467 C 1177.77 882.045 1195.01 903.286 1194.14 938.432 C 1194.11 939.568 1196.43 941.793 1196.67 943.002 C 1198.26 958.392 1193.02 974.783 1187.68 988.72 C 1180.46 1007.56 1165.92 1021.51 1151.37 1034.69 C 1140.18 1044.82 1126.93 1051.52 1113.32 1057.55 C 1072.38 1078.02 1024.74 1080.94 979.755 1077.61 C 937.075 1073.61 872.361 1056.86 841.66 1026.56 C 854.102 1014.13 866.813 1002.83 879.1 990.124 C 890.693 994.278 896.893 999.341 907.237 1004.44 C 915.836 1008.68 928.645 1013.74 937.86 1017.17 C 980.528 1033.07 1034.52 1032.65 1076.38 1014.57 C 1090.44 1008.5 1111.74 993.37 1116.3 978.314 C 1117.57 974.121 1119.51 968.677 1117.66 964.745 C 1118.34 964.033 1117.94 964.395 1119.08 963.613 L 1120.03 962.968 L 1119.64 961.55 C 1118.08 961.268 1117.59 961.172 1116.03 960.731 C 1120.81 957.574 1123.95 951.955 1122.35 946.203 C 1118.39 931.984 1109.7 911.705 1097.21 902.884 C 1035.49 859.304 946.469 868.46 886.378 819.997 C 871.908 807.232 862.299 788.269 861.979 769.121 C 860.577 685.237 943.567 657.314 1014.27 654.558 z" fill="currentColor" transform="translate(0,0)"></path>
<path d="M 1082.96 856.193 L 1083.86 857.146 L 1083.27 858.628 C 1078.68 861.136 1075.46 861.446 1070.37 862.473 C 1069.57 861.459 1069.88 862.102 1069.77 860.415 C 1074.24 857.921 1077.98 857.372 1082.96 856.193 z" fill="currentColor" transform="translate(0,0)"></path>
<path d="M 1448.83 1011.93 C 1451.1 1014.17 1450.93 1023.07 1451.12 1026.62 C 1435.76 1041.64 1405.79 1064.28 1388.24 1079.1 C 1322.4 1134.71 1255.45 1189.06 1189.03 1244.13 C 1182.62 1244.89 1174.48 1244.85 1167.91 1244.97 L 1166.77 1244.66 C 1167.11 1243.42 1423.08 1032.15 1448.83 1011.93 z" fill="none" transform="translate(0,0)"></path>
<path d="M 882.834 530.381 C 889.052 527.299 896.005 527.961 903.019 528.018 C 880.22 545.169 853.116 561.258 828.852 577.004 C 787.193 603.66 745.796 630.722 704.665 658.186 C 685.117 671.015 653.785 689.991 636.63 704.347 L 632.414 695.358 C 630.519 693.629 630.519 693.791 629.512 691.465 C 635.149 683.305 703.289 640.834 717.42 631.644 L 806.111 573.389 C 828.944 558.51 851.444 543.097 875.054 529.395 C 877.505 527.973 880.387 529.569 882.834 530.381 z" fill="none" transform="translate(0,0)"></path>
<path d="M 632.414 695.358 C 630.519 693.629 630.519 693.791 629.512 691.465 C 635.149 683.305 703.289 640.834 717.42 631.644 L 806.111 573.389 C 828.944 558.51 851.444 543.097 875.054 529.395 C 877.505 527.973 880.387 529.569 882.834 530.381 C 852.263 551.876 813.096 575.847 781.366 596.408 C 731.274 628.722 681.619 661.708 632.414 695.358 z" fill="currentColor" transform="translate(0,0)"></path>
<path d="M 591.629 887.005 L 591.138 891.079 L 593.603 889.6 C 594.761 891.526 594.557 890.732 594.843 892.864 L 594.589 894.886 C 594.861 901.303 593.433 912.542 590.365 917.945 L 586.546 916.883 C 585.214 931.498 579.662 952.264 577.686 967.525 C 576.538 976.395 575.376 989.463 573.2 997.505 C 571.201 987.592 585.648 905.2 589.383 890.665 C 589.205 889.636 589.421 888.313 589.51 887.193 L 591.629 887.005 z" fill="currentColor" transform="translate(0,0)"></path>
<path d="M 591.629 887.005 L 591.138 891.079 L 593.603 889.6 C 594.761 891.526 594.557 890.732 594.843 892.864 L 594.589 894.886 C 594.861 901.303 593.433 912.542 590.365 917.945 L 586.546 916.883 L 585.956 916.099 C 587.507 910.62 590.247 896.021 589.383 890.665 C 589.205 889.636 589.421 888.313 589.51 887.193 L 591.629 887.005 z" fill="url(#Gradient1)" transform="translate(0,0)"></path>
<path d="M 547.847 1163.09 C 547.875 1166.08 546.92 1173.88 544.444 1175.77 C 544.396 1175.55 550.299 1125.02 550.981 1120.49 C 554.224 1098.97 558.874 1077.5 562.337 1055.96 C 564.343 1043.48 566.331 1014.69 570.557 1004.81 L 572.745 1004.93 C 564.826 1047.58 557.585 1093.49 551.678 1136.44 C 550.713 1143.46 547.394 1156.6 547.847 1163.09 z" fill="currentColor" transform="translate(0,0)"></path>
<path d="M 855.455 1258.7 C 860.646 1257.93 902.448 1257.4 906.634 1259.02 L 905.341 1260.46 C 902.871 1260.7 894.412 1259.91 890.085 1260.18 C 865.853 1261.71 842.364 1261.02 818.251 1260.81 C 812.648 1261.02 765.388 1261.54 763.587 1260.63 L 763.935 1261.02 L 764.417 1259.7 C 773.708 1258.26 798.415 1259.49 809.132 1259.49 C 824.538 1259.49 840.222 1258.72 855.455 1258.7 z" fill="currentColor" transform="translate(0,0)"></path>
<path d="M 1087.5 1254.54 C 1098.35 1253.75 1107.24 1253.61 1117.97 1255.1 C 1113.71 1256.75 1032.75 1258.22 1023.08 1257.45 C 1013.8 1257.92 1002.58 1258.71 993.419 1257.37 L 993.991 1256.72 C 1002.68 1255.1 1016.99 1255.79 1026.36 1255.66 L 1087.5 1254.54 z" fill="currentColor" transform="translate(0,0)"></path>
<path d="M 589.51 887.193 C 592.729 849.398 603.337 807.804 608.766 770.003 C 609.731 763.283 611.221 753.961 613.313 747.716 L 614.544 747.109 C 605.722 790.236 596.635 843.06 591.629 887.005 L 589.51 887.193 z" fill="currentColor" transform="translate(0,0)"></path>
<path d="M 705.235 1260.54 C 712.848 1260.2 737.535 1259.36 743.676 1261.08 L 743.121 1261.72 L 696.5 1262.84 C 687.225 1262.97 665.903 1264.46 658.438 1261.78 C 661.862 1260.47 698.799 1260.62 705.235 1260.54 z" fill="currentColor" transform="translate(0,0)"></path>
<path d="M 563.262 1245.78 C 566.421 1247.18 572.294 1251.31 576.831 1253.36 C 588.898 1259.07 602.357 1260.06 615.411 1261.8 C 621.284 1262.58 626.746 1261.51 632.729 1262.52 C 628.804 1264.63 611.685 1263.43 606.902 1262.86 C 592.759 1261.18 572.625 1257.47 563.262 1245.78 z" fill="currentColor" transform="translate(0,0)"></path>
<path d="M 1152.46 1254.92 C 1158.61 1254.91 1166.12 1254.6 1171.99 1255.72 L 1171.93 1256.8 L 1168.13 1258 C 1163.36 1257.89 1149.65 1257.89 1145.86 1256.77 C 1148.01 1254.81 1148.89 1255.36 1152.46 1254.92 z" fill="currentColor" transform="translate(0,0)"></path>
<path d="M 1188.07 1254.52 C 1192.56 1253.99 1194.01 1253.6 1198.38 1254.29 L 1198.57 1255.79 C 1195.47 1256.48 1191.39 1257.89 1188.71 1256.74 L 1188.07 1254.52 z" fill="currentColor" transform="translate(0,0)"></path>
<path d="M 750.599 1260.45 C 755.806 1259.97 757.143 1259.83 762.276 1260.56 C 757.161 1262.72 755.676 1262.65 750.599 1260.45 z" fill="currentColor" transform="translate(0,0)"></path>
<path d="M 1059.8 1598.04 C 1066.67 1598.52 1075.74 1598.09 1082.81 1597.94 C 1101.77 1639.95 1117.46 1680.02 1138.12 1721.93 L 1118.91 1721.96 C 1112.76 1709.9 1105.29 1690.81 1099.78 1677.92 L 1083.99 1677.97 C 1070.75 1678.11 1057.51 1677.99 1044.28 1677.61 C 1037.64 1693.01 1031.84 1706.21 1025.89 1721.99 C 1019.82 1721.99 1013.58 1721.84 1007.49 1721.76 C 1025.95 1686.41 1041.93 1636.36 1059.8 1598.04 z" fill="currentColor" transform="translate(0,0)"></path>
<path d="M 1069.44 1610.75 C 1072.89 1614.21 1091.41 1658.22 1094.23 1664.96 L 1073.76 1665.37 L 1048.04 1665.81 C 1054.67 1647.53 1062.29 1628.88 1069.44 1610.75 z" fill="none" transform="translate(0,0)"></path>
<path d="M 831.307 1600.38 C 837.5 1599.99 845.388 1600.1 851.719 1600.01 C 865.768 1640.61 880.946 1680.66 894.943 1721.52 C 889.362 1721.89 883.359 1722.56 877.752 1723.1 C 873.483 1708.6 868.624 1694.29 863.188 1680.19 L 834.5 1680.46 L 806.553 1680.73 C 799.552 1694.05 793.361 1708.6 786.786 1722.29 C 780.985 1721.74 775.906 1720.85 770.174 1719.87 C 774.356 1709.76 781.942 1695.27 786.91 1685.26 C 801.298 1656.75 816.099 1628.46 831.307 1600.38 z" fill="currentColor" transform="translate(0,0)"></path>
<path d="M 840.127 1613.57 C 842.91 1616.59 857.191 1660.71 859.678 1668.08 L 832.75 1667.28 L 814.008 1667.26 C 818.218 1656.29 834.551 1623 840.127 1613.57 z" fill="none" transform="translate(0,0)"></path>
<path d="M 712.324 1597.34 C 732.487 1595.99 758.333 1597.73 765.15 1621.47 C 766.114 1624.83 766.61 1628.25 764.747 1631.37 C 762.1 1632.49 753.516 1632.01 750.144 1631.98 C 747.836 1623.06 743.444 1612.88 733.757 1611.11 C 706.871 1606.19 686.565 1614.06 680.852 1643.1 C 678.082 1657.86 671.882 1688.03 679.27 1701.56 C 686.702 1715.19 721.69 1713.9 733.021 1705.16 C 744.596 1696.23 743.632 1681.78 745.542 1669.09 L 728.586 1668.94 C 721.469 1669.06 714.387 1670.51 711.276 1662.58 C 711.936 1658.41 711.08 1660.18 713.925 1657.07 C 721.097 1655.26 754.228 1656.27 762.899 1656.71 C 762.129 1671.42 759.127 1691.23 757.076 1706.19 C 747.214 1713.91 735.74 1719.3 723.506 1721.98 C 698.461 1727.71 663.438 1725.63 659.98 1693.63 C 657.572 1671.36 661.566 1636.68 674.787 1617.62 C 683.694 1604.78 697.48 1599.28 712.324 1597.34 z" fill="currentColor" transform="translate(0,0)"></path>
<path d="M 1137.24 1596.13 C 1144.58 1596.14 1151.42 1596.51 1158.75 1596.9 C 1166.76 1609.12 1186.47 1631.09 1196.66 1643.5 C 1206.03 1628.54 1218.28 1611.88 1228.31 1596.34 C 1234.74 1596.21 1241.63 1596.35 1248.1 1596.36 C 1237.79 1613.98 1220.67 1637.03 1208.91 1655.21 C 1223.36 1674.37 1249.97 1703.14 1266.57 1722.8 C 1260.51 1722.5 1254.8 1722.85 1248.75 1723.12 C 1242.67 1722.47 1205.75 1675.93 1198.51 1667.78 C 1186.35 1684 1172.68 1707.31 1160.35 1721.62 C 1153.6 1722.15 1146.21 1721.99 1139.38 1721.99 C 1155.08 1699.8 1171.84 1677.24 1187.76 1655.07 C 1177.38 1643.33 1145.66 1607.98 1137.24 1596.13 z" fill="currentColor" transform="translate(0,0)"></path>
<path d="M 941.007 1481.51 C 946.105 1481.41 951.642 1481.51 956.764 1481.51 C 958.284 1507.72 954.62 1544.71 954.802 1573.29 C 950.67 1573.81 945.84 1574.12 941.634 1574.5 C 942.223 1548.72 944.131 1525.09 944.255 1498.43 C 940.65 1502.73 938.478 1509.38 935.862 1513.84 C 928.101 1527.07 914.914 1563.17 906.737 1573.56 C 903.708 1574.79 903.917 1574.68 900.668 1574.12 C 897.761 1571.98 873.734 1504.24 869.35 1493.92 C 866.835 1520.34 865.26 1548.3 863.52 1574.82 L 850.842 1574.79 C 851.522 1563.1 856.383 1488.22 859.392 1482.33 L 862.069 1481.49 L 876.817 1481.69 C 884.828 1506.62 895.664 1534.7 904.394 1559.9 C 915.017 1534.72 929.365 1506.96 941.007 1481.51 z" fill="currentColor" transform="translate(0,0)"></path>
<path d="M 1352.58 1595.02 L 1370.27 1595.25 C 1360.72 1620.67 1336.37 1651.88 1329.71 1677.21 C 1328.37 1682.3 1333.23 1715.44 1334.3 1723.11 L 1312.63 1722.5 C 1311.71 1708.37 1310.81 1691.48 1308.45 1677.65 C 1306.96 1668.98 1294.54 1654.2 1288.74 1646.52 C 1276.46 1629.98 1264.81 1612.08 1252.08 1596.1 C 1258.14 1596.28 1264.74 1596 1270.85 1595.87 C 1286.37 1618.92 1301.59 1639.4 1317.66 1661.89 C 1330.15 1640.43 1340.89 1616.86 1352.58 1595.02 z" fill="currentColor" transform="translate(0,0)"></path>
<path d="M 1241.48 1479.88 L 1255.19 1479.61 C 1257.55 1510.39 1260.51 1541.12 1264.08 1571.78 L 1249.21 1571.93 C 1243.58 1566.43 1235.87 1555.68 1230.67 1549.3 C 1217 1532.5 1203.96 1514.55 1189.66 1498.29 C 1190.23 1513.84 1191.93 1530.04 1192.84 1545.61 C 1193.34 1554.08 1195.04 1564.98 1194.29 1573.24 C 1188.91 1574.26 1186.78 1574.27 1181.27 1574.31 C 1178.82 1542.92 1176.92 1511.49 1175.57 1480.03 L 1189.41 1480.01 C 1198.73 1489.64 1208.76 1503.96 1217.3 1514.64 C 1228.12 1528.17 1239.25 1541.81 1249.51 1555.71 C 1248.65 1534.77 1244.4 1501.05 1241.48 1479.88 z" fill="currentColor" transform="translate(0,0)"></path>
<path d="M 790.206 1482.93 L 803.523 1482.98 C 808.428 1494.21 836.362 1566.08 836.451 1573.93 C 833.015 1575.38 828.8 1574.93 824.971 1574.89 C 821.028 1564.88 819.167 1555.61 814.492 1545.11 L 790.058 1545.4 C 782.939 1545.27 775.623 1545.44 768.486 1545.53 C 765.05 1552.39 757.172 1569.31 752.665 1574.11 C 749.12 1574.97 745.355 1576.09 742.672 1573.13 C 745.907 1560.98 781.878 1496.48 790.206 1482.93 z" fill="currentColor" transform="translate(0,0)"></path>
<path d="M 794.818 1494.53 C 799.107 1496.9 808.798 1528.89 810.84 1535 L 789.651 1535.12 L 773.857 1535.06 C 779.918 1521.09 786.922 1507.55 794.818 1494.53 z" fill="none" transform="translate(0,0)"></path>
<path d="M 1063.61 182.305 C 1082.4 181.972 1117.56 183.283 1134.13 181.984 C 1139.1 184.706 1143.39 186.728 1140.41 192.739 C 1130.39 199.713 1081.98 197.183 1066.7 196.982 C 1062.18 197.073 1057.59 197.071 1053.07 197.113 C 1047.29 198.051 1028.96 198.391 1022.45 198.65 L 960.882 200.885 C 948.056 201.281 933.303 202.299 920.465 201.816 C 917.503 201.704 915.27 199.385 913.657 197.019 C 912.509 189.57 917.131 188.701 923.298 186.9 C 970.047 184.766 1016.82 183.234 1063.61 182.305 z" fill="currentColor" transform="translate(0,0)"></path>
<path d="M 923.298 186.9 C 970.047 184.766 1016.82 183.234 1063.61 182.305 C 1050.88 185.552 1043.17 183.319 1031.37 184.585 C 1033.94 184.829 1054.56 185.146 1054.8 185.417 C 1038.24 187.656 936.341 192.502 924.132 189.722 C 922.19 193.516 918.655 195.957 917.813 198.716 C 918.574 199.053 1021.39 192.668 1031.47 194.842 C 1033.64 195.31 1050.53 196.964 1053.07 197.113 C 1047.29 198.051 1028.96 198.391 1022.45 198.65 L 960.882 200.885 C 948.056 201.281 933.303 202.299 920.465 201.816 C 917.503 201.704 915.27 199.385 913.657 197.019 C 912.509 189.57 917.131 188.701 923.298 186.9 z" fill="currentColor" transform="translate(0,0)"></path>
<path d="M 1134.13 181.984 C 1139.1 184.706 1143.39 186.728 1140.41 192.739 C 1130.39 199.713 1081.98 197.183 1066.7 196.982 C 1081.88 192.184 1129.72 193.688 1135.64 190.062 C 1136.3 186.065 1135.66 186.388 1134.13 181.984 z" fill="currentColor" transform="translate(0,0)"></path>
<path d="M 1312.26 1479.15 C 1329.86 1478.08 1355.28 1480.41 1361.52 1500.54 C 1354.67 1513.63 1343.95 1491.63 1335.12 1490.12 C 1325.27 1487.45 1315.98 1487.14 1306.55 1491.83 C 1288.71 1500.7 1290.85 1533.7 1300.09 1548.43 C 1305.33 1556.7 1313.71 1562.47 1323.31 1564.39 C 1352.74 1570.16 1362.5 1535.72 1347.25 1533.95 C 1339.78 1533.72 1332.15 1535.74 1326.28 1532.05 C 1324.09 1529.01 1324.3 1528.99 1324.05 1525.4 C 1327.54 1522.88 1357.05 1523.93 1364.4 1523.78 C 1365.51 1531.61 1369.32 1551.95 1365.76 1557.27 C 1346.1 1586.05 1289.93 1577.29 1283.07 1541.07 C 1277.39 1511.1 1276.64 1487.3 1312.26 1479.15 z" fill="currentColor" transform="translate(0,0)"></path>
<path d="M 1135.04 1480.26 L 1146.8 1480.19 C 1148.32 1502.6 1150.45 1531.62 1148.82 1552.83 C 1143.93 1580.07 1097.46 1581.6 1081.26 1565.72 C 1069.14 1553.84 1072.23 1521.88 1072.09 1504.84 L 1071.98 1481.01 L 1084.94 1480.96 C 1085.15 1502.63 1084.79 1524.79 1086.21 1546.32 C 1086.84 1555.88 1096 1565.64 1105.6 1566.67 C 1116.62 1567.84 1135.71 1563.28 1136.51 1549.63 C 1137.86 1526.58 1134.54 1503.44 1135.04 1480.26 z" fill="currentColor" transform="translate(0,0)"></path>
<path d="M 911.457 1599 C 915.573 1598.97 920.943 1598.66 924.436 1600.55 C 927.447 1611.02 921.807 1654.39 922.467 1668.68 C 924.523 1713.26 958.519 1711.93 992.293 1710.02 L 994.998 1721.83 C 931.626 1722.63 898.284 1719.26 907.871 1642.73 C 909.609 1628.86 907.143 1612.85 911.457 1599 z" fill="currentColor" transform="translate(0,0)"></path>
<path d="M 699.206 1481.24 C 710.19 1480.58 730.756 1482.89 737.915 1492.07 C 738.505 1495.5 738.724 1493.9 737.268 1497.04 C 730.287 1500.63 712.494 1485.88 700.428 1489.21 C 673.21 1497.28 672.129 1514.37 700.943 1521.26 C 720.593 1525.96 749.655 1535.48 732.486 1561.1 C 725.382 1571.71 716.435 1574.2 704.903 1576.87 C 693.151 1577.87 682.228 1577.74 671.222 1572.91 C 666.513 1570.84 659.993 1566.53 662.712 1560.78 C 670.794 1557.1 689.497 1573.84 705.626 1567.39 C 731.583 1557.02 728.745 1540.15 702.839 1533.75 C 692.482 1530.5 669.931 1525.13 667.92 1512.1 C 664.958 1492.89 684.767 1483.77 699.206 1481.24 z" fill="currentColor" transform="translate(0,0)"></path>
<path d="M 1008.56 1479.25 C 1018.94 1478.57 1046.57 1483.33 1045.87 1496.98 C 1038 1503.45 1032.73 1496.13 1026.32 1491.09 C 1015.09 1482.27 987.561 1487.84 989.786 1505.92 C 990.785 1514.03 1008.13 1519.54 1015.36 1521.42 C 1036.25 1526.86 1063.35 1539.93 1046.12 1565.29 C 1040.59 1573.37 1026.56 1575.7 1016.75 1576.48 C 1013.9 1576.43 1011.04 1576.31 1008.19 1576.13 C 999.134 1575.53 976.044 1568.32 977.53 1556.96 C 985.327 1552.26 989.502 1557.26 995.441 1562.72 C 1006.91 1573.25 1044 1567.61 1038.75 1547.64 C 1033.45 1527.49 982.025 1533.12 978.644 1508.39 C 975.855 1487.98 992.564 1481.71 1008.56 1479.25 z" fill="currentColor" transform="translate(0,0)"></path>
<path d="M 1307.11 190.067 C 1324.11 189.13 1344.73 200.675 1322.28 211.436 C 1306.71 211.822 1284.29 203.577 1307.11 190.067 z" fill="currentColor" transform="translate(0,0)"></path>
</svg>