<svg xmlns="http://www.w3.org/2000/svg" preserveAspectRatio="none" style="display: block;" version="1.1" viewBox="0 0 2048 2048">
<path d="M 1173.13 109.093 C 1181.93 108.775 1193.94 117.243 1201.84 120.929 C 1219.14 128.995 1222.26 151.563 1227.28 169.932 C 1220.08 196.025 1200.66 207.017 1182.73 226.287 C 1171.26 238.609 1164.12 247.043 1153.95 260.351 C 1168.35 256.071 1174.16 254.08 1187.09 246.71 C 1199.19 215.473 1209.25 204.677 1236.28 184.591 C 1282.69 150.104 1335.04 123.35 1392.73 114.74 C 1469.06 103.348 1550 116.065 1611.66 164.956 C 1665.24 206.695 1697.63 260.593 1732.04 317.734 C 1752.19 350.364 1773.22 381.879 1788.04 417.487 C 1795.42 435.201 1804.61 456.934 1808.89 475.831 C 1809.96 488.187 1794.97 486.597 1787.91 482.167 C 1747.8 457.004 1710.13 431.507 1664.8 416.053 C 1599.2 393.688 1530.63 380.986 1462.07 371.376 C 1415.86 364.898 1368.1 362.221 1323.98 345.75 C 1301.42 336.988 1265.53 315.347 1248.36 298.11 C 1240.12 289.834 1233.13 280.683 1224.21 272.445 C 1198.06 276.997 1151.35 287.543 1129.73 302.358 C 1099.4 323.135 1057.98 462.015 1051.25 500.868 C 1071.1 497.716 1089.28 492.441 1108.55 487.136 L 1184.15 465.622 C 1261.12 443.152 1392.42 428.96 1472.43 434.377 C 1536.95 438.745 1629.26 459.623 1686 490.877 C 1787.29 546.67 1839.68 624.11 1871.09 734.193 C 1887.62 792.144 1893.81 861.98 1894.26 922.004 C 1895.77 1121.27 1846.5 1318.88 1767.38 1500.96 C 1748.96 1543.36 1725.65 1584.19 1703.26 1624.58 C 1680.53 1664.11 1657.1 1702.88 1629.02 1738.94 C 1613.34 1759.08 1605.45 1763.25 1589.98 1779.05 C 1575.55 1793.8 1565.09 1805.09 1549.8 1819.32 C 1496.56 1868.9 1440.28 1899.92 1370.82 1920.97 C 1355.51 1925.61 1338.21 1932.06 1322.47 1935.47 C 1312.27 1937.68 1299.58 1936.76 1288.97 1937.48 C 1244.91 1940.49 1200.59 1938.9 1157.2 1930.23 C 1135.94 1925.98 1117.6 1918.04 1097.7 1912.31 C 1066.82 1903.41 1019.73 1897.31 987.435 1898.82 C 947.948 1900.67 902.025 1908.9 863.759 1918.87 C 847.042 1923.22 830.472 1931.47 812.971 1934.75 C 786.466 1939.02 755.455 1940.69 728.52 1938.57 C 694.331 1935.87 652.387 1930.48 619.432 1921.52 C 546.418 1901.66 475.211 1858.86 424.384 1802.77 C 387.23 1761.76 354.07 1714.93 324.444 1668.18 C 318.309 1658.4 308.138 1635.89 302.224 1624.47 C 217.304 1461.62 169.058 1282.16 160.874 1098.68 C 159.997 1075.39 158.292 1039.19 160.252 1016.02 C 166.001 948.035 178.26 878.41 197.871 812.975 C 205.882 786.247 213.743 754.514 225.12 729.033 C 257.121 657.366 298.338 584.242 356.939 531.359 C 419.535 474.871 488.435 439.588 572.49 430.661 C 590.205 428.78 608.59 426.809 626.404 427.893 C 672.366 430.688 723.397 441.216 767.042 455.484 C 823.128 473.819 878.042 497.29 936.57 507.207 C 950.683 509.598 966.312 510.434 980.61 511.265 C 996.578 404.88 1031.57 302.24 1083.92 208.258 C 1101.5 177.362 1129.59 132.951 1159.8 113.832 C 1162.97 111.825 1169.32 110.136 1173.13 109.093 z" fill="currentColor" transform="translate(0,0)"></path>
<path d="M 578.583 476.417 C 579.617 476.349 580.653 476.297 581.689 476.261 C 700.118 472.777 795.248 549.452 857.835 644.457 C 881.68 680.435 906.316 717.318 937.735 747.233 C 955.636 764.278 971.604 773.638 996.49 772.973 C 1039.99 731.451 1067.28 679.548 1106.58 636.034 C 1174.65 560.659 1267.14 484.084 1372.18 478.058 C 1452.95 473.596 1532.1 501.939 1591.69 556.658 C 1602.55 566.488 1611.97 577.466 1622.07 587.313 C 1697.57 660.938 1734.24 746.069 1748.95 849.616 C 1753.01 878.15 1757.38 909.359 1758.85 938.815 C 1761.52 1004.51 1758.46 1070.31 1749.7 1135.47 C 1720.66 1342.69 1620.51 1644.34 1479.3 1800.65 C 1458.39 1823.8 1435.46 1847.87 1410.42 1866.6 C 1365.7 1900.05 1310.62 1917.68 1255.14 1920.18 C 1184.75 1923.35 1122.34 1860.08 1082.83 1808.53 C 1075.49 1798.89 1068.24 1789.17 1061.09 1779.39 C 1056.1 1772.47 1052.85 1765.6 1046.26 1760.03 C 1044.31 1750.36 1050.14 1738.21 1045.56 1727.02 C 1031.95 1693.75 1012.53 1665.47 1004.14 1630.02 C 990.956 1574.27 993.996 1514.3 992.826 1457.25 C 992.742 1416.85 994.299 1383.11 998.625 1342.68 C 1001.66 1314.37 1003.81 1280.53 1006.01 1252.03 C 1009.18 1210.89 991.336 1167.29 992.521 1125.16 C 994.496 1054.96 1010.45 985.798 1007.87 915.323 C 1007.26 900.456 999.392 818.281 993.977 812.326 C 990.706 811.225 992.259 811.153 989.155 812.423 C 979.407 824.382 986.323 899.244 985.725 917.765 C 985.456 926.107 989.126 933.272 989.267 938.835 C 989.495 948.246 989.038 957.797 988.618 967.209 C 986.175 1021.84 975.141 1077.04 975.087 1131.6 C 975.048 1171.16 993.624 1209.66 991.026 1250.1 C 989.159 1279.16 982.079 1307.75 980.023 1336.86 C 976.836 1374.3 976.991 1406.77 977.211 1444.09 C 977.315 1461.53 976.54 1479.08 976.642 1497.04 C 972.456 1502.18 973.887 1499.98 975.104 1505.38 C 978.058 1518.49 977.082 1534.06 978.154 1547.99 L 981.495 1595.15 C 982.58 1608.81 985.21 1626.22 983.208 1639.57 C 981.065 1653.85 977.439 1670.16 972.683 1683.96 C 967.626 1698.65 960.176 1715.23 956.954 1730.41 C 956.03 1734.76 957.336 1749.97 957.697 1754.55 C 954.405 1758.85 957.496 1753.76 952.437 1756.85 L 953.182 1759.5 C 949.31 1765.04 930.461 1781.14 924.606 1787.63 C 872.213 1845.69 809.512 1901.83 726.5 1904.12 C 640.766 1906.49 555.05 1855.47 493.323 1799.85 C 449.452 1760.86 410.72 1716.45 378.057 1667.69 C 375.009 1663.16 369.925 1658.37 367.492 1653.98 C 345.021 1612.14 325.526 1568.04 307.192 1524.12 C 294.382 1493.44 285.639 1457.49 272.55 1426.3 C 266.303 1411.42 261.425 1393.28 255.862 1377.9 C 249.994 1361.67 247.597 1342.46 242.74 1325.82 C 210.273 1197.13 197.309 1063.3 221.497 931.916 C 231.361 878.145 251.27 826.471 269.972 775.727 C 299.648 695.209 339.718 628.529 396.901 564.437 C 442.09 513.788 510.694 479.343 578.583 476.417 z" fill="none" transform="translate(0,0)"></path>
<path d="M 930.381 1077.08 C 934.585 1076.81 942.738 1076.24 944.479 1081.02 C 955.08 1110.09 954.807 1146.18 957.028 1176.96 C 958.076 1191.48 960.953 1213.69 960.117 1227.28 C 957.892 1263.47 949.202 1313.49 918.443 1336.57 C 907.325 1344.76 890.708 1348.15 877.842 1345.55 C 827.688 1324.13 844.432 1251.18 858.517 1211.87 C 866.959 1188.3 879.62 1165.61 890.103 1142.88 C 897.889 1125.99 904.037 1108.03 913.401 1092 C 917.658 1084.87 922.868 1080.51 930.381 1077.08 z" fill="currentColor" transform="translate(0,0)"></path>
<path d="M 935.761 1085.84 C 940.231 1089.44 945.023 1121.43 937.732 1122.58 L 936.522 1120.69 C 930.265 1107.48 914.275 1094.93 935.761 1085.84 z" fill="none" transform="translate(0,0)"></path>
<path d="M 940.909 1194.58 C 947.436 1201.33 949.171 1203.55 948.127 1213.59 C 947.682 1217.88 948.129 1223.33 948.069 1227.83 C 945.2 1228.25 946.352 1228.22 943.352 1227.19 C 939.629 1222.73 940.831 1201.32 940.909 1194.58 z" fill="none" transform="translate(0,0)"></path>
<path d="M 939.94 1164.36 C 951.239 1168.93 941.313 1180.31 947.623 1190.58 C 944.726 1191.04 946.174 1191.09 943.285 1189.76 C 939.107 1184.46 940.011 1171.57 939.94 1164.36 z" fill="none" transform="translate(0,0)"></path>
<path d="M 939.544 1145.73 C 941.966 1147.68 943.383 1149.07 945.553 1151.22 C 946.775 1155.59 946.222 1154.59 944.64 1159.75 C 942.391 1158.81 942.512 1158.68 940.483 1157.21 C 938.731 1153.6 939.371 1149.82 939.544 1145.73 z" fill="none" transform="translate(0,0)"></path>
<path d="M 1023.76 1079.11 C 1051.04 1076.91 1066.74 1115.73 1079.77 1134.26 C 1107.72 1174.01 1115.62 1215.67 1118.79 1262.95 C 1120.84 1293.64 1126.96 1322.11 1099.03 1344.04 C 1072.23 1358.13 1043.13 1334.41 1032.24 1310.72 C 1003.12 1247.33 1027.39 1176.17 1018 1109.52 C 1016.43 1098.34 1012.31 1084.21 1023.76 1079.11 z" fill="currentColor" transform="translate(0,0)"></path>
<path d="M 1029.66 1091.54 C 1049.43 1097.96 1082.16 1162.31 1091.2 1182.54 C 1094.25 1189.37 1097.15 1205.86 1098.27 1213.51 C 1093.71 1210.25 1086.24 1184.61 1083.19 1177.35 C 1072.81 1152.69 1062.66 1126.47 1042.04 1108.27 C 1034.7 1101.8 1033.61 1100.08 1029.66 1091.54 z" fill="none" transform="translate(0,0)"></path>
<path d="M 1028.83 798.262 C 1029.74 798.531 1029.92 798.554 1030.91 799.018 C 1042.3 804.364 1053.38 813.599 1061.35 823.275 C 1104.28 875.339 1162.16 1026.29 1182.16 1093.77 C 1188.15 1114 1193.17 1134.62 1195.76 1155.58 C 1201.48 1201.98 1201.8 1322.83 1179.57 1363.72 L 1176.31 1362.61 C 1175.02 1360.73 1174.61 1360.19 1175.26 1357.57 C 1202.04 1249.35 1194.78 1131.3 1150.7 1028.6 C 1146.65 1018.91 1144.12 1010.1 1139.9 1000.33 C 1113.49 939.133 1090.34 870.989 1045.71 820.32 C 1041.19 815.195 1031.22 811.3 1026.32 805.065 C 1026.07 801.272 1026.34 802.234 1028.83 798.262 z" fill="currentColor" transform="translate(0,0)"></path>
<path d="M 579.885 556.42 C 586.087 555.931 597.452 553.523 600.126 560.491 C 599.77 561.986 599.312 563.884 597.847 564.533 C 588.695 568.587 576.063 571.23 566.559 574.233 C 550.057 579.431 534.191 586.466 519.259 595.205 C 496.673 608.406 442.857 652.017 428.139 673.074 C 424.63 678.942 421.572 684.236 417.487 689.735 C 442.908 612.741 496.464 561.957 579.885 556.42 z" fill="currentColor" transform="translate(0,0)"></path>
<path d="M 816.696 990.444 C 819.665 990.944 819.487 990.821 821.811 992.714 C 823.597 998.619 813.63 1009.98 810.401 1015.43 C 790.721 1048.08 777.139 1087.07 763.664 1122.04 C 742.632 1176.62 726.723 1230.32 728.218 1289.21 C 728.215 1289.11 727.741 1292.21 727.709 1292.73 L 727.75 1292.88 L 727.164 1293.72 C 724.505 1291.66 722.732 1286.89 722.339 1283.58 C 714.27 1216.83 739.806 1155.49 763.455 1094.92 C 779.652 1053.45 790.142 1026.8 816.696 990.444 z" fill="currentColor" transform="translate(0,0)"></path>
<path d="M 1162.56 1414.23 C 1165.96 1415.44 1164.87 1414.34 1166.54 1416.95 C 1164.59 1431.85 1157.87 1457.52 1152.35 1471.96 C 1130.08 1530.17 1102.02 1588.03 1070.47 1641.76 C 1066.09 1649.23 1056.92 1664.76 1051.11 1670.53 C 1047.38 1669.28 1047.35 1668.84 1045.93 1665.54 C 1046.26 1657.85 1053.36 1652.58 1057.21 1645.98 C 1066.29 1630.4 1075.08 1614.62 1083.63 1598.74 C 1096.54 1574.6 1108.65 1550.03 1119.94 1525.09 C 1131.7 1499.09 1142.74 1473.5 1151.27 1446.25 C 1154.19 1436.92 1157.91 1422.34 1162.56 1414.23 z" fill="currentColor" transform="translate(0,0)"></path>
<path d="M 729.539 1306.79 C 729.548 1305.98 729.875 1311.06 729.511 1309.36 C 740.593 1360.92 761.528 1414.07 788.86 1459.13 C 798.061 1474.3 810.371 1484.6 820.601 1495.58 C 821.147 1499.11 820.917 1498.05 818.495 1502 C 817.343 1501.54 815.452 1500.71 814.408 1499.85 C 767.649 1461.33 741.849 1385.68 726.615 1328.19 C 724.158 1318.91 724.804 1313.73 729.539 1306.79 z" fill="currentColor" transform="translate(0,0)"></path>
<path d="M 852.698 1531.37 C 876.896 1538.45 932.684 1652.29 951.224 1673.85 C 952.911 1675.81 952.21 1676.86 951.637 1678.91 C 950.032 1678.97 945.968 1678.89 944.983 1678.03 C 938.727 1672.57 926.705 1652.56 923.036 1645.97 C 909.646 1621.91 895.077 1599.57 881.244 1576.1 C 874.836 1565.22 854.955 1542.73 851.204 1535.09 L 852.698 1531.37 z" fill="currentColor" transform="translate(0,0)"></path>
<path d="M 945.583 834.251 C 950.422 833.613 967.198 831.944 967.125 839.342 C 962.903 844.081 956.299 842.565 949.155 843.104 C 927.086 844.768 913.347 858.577 899.782 874.484 C 896.685 878.272 892.064 884.318 886.648 881.608 C 885.253 871.676 902.549 857.336 909.566 851.507 C 920.489 842.435 931.494 836.498 945.583 834.251 z" fill="currentColor" transform="translate(0,0)"></path>
<path d="M 618.145 444.59 C 683.015 439.09 767.893 475.514 829.365 494.612 C 881.254 510.733 921.797 527.357 977.607 529.704 L 964.802 612.59 C 963.713 619.923 959.962 653.807 957.375 657.608 C 956.821 643.572 950.821 618.839 947.845 603.915 C 944.44 586.843 939.374 555.48 933.472 539.954 L 934.207 542.012 L 933.055 542.639 C 936.077 579 943.84 616.843 948.169 653.263 C 949.542 664.81 953.737 680.137 956.165 691.899 C 951.1 676.895 941.257 656.14 935.033 640.985 C 923.739 613.488 911.798 582.636 897.59 556.679 L 896.338 556.693 L 896.445 555.55 C 896.444 561.08 909.602 592.563 912.372 600.237 C 920.036 621.474 927.502 644.596 935.544 665.595 C 945.324 691.13 955.097 709.468 961.219 736.93 C 929.144 718.299 865.892 619.109 840.236 587.057 C 818.234 559.571 791.52 531.072 763.146 509.567 C 750.714 500.145 729.503 486.497 715.928 480.556 C 665.687 458.565 600.3 452.231 546.462 461.075 C 448.411 477.181 380.823 548.971 325.514 626.939 C 255.707 725.347 211.543 857.049 194.271 976.101 C 192.291 989.744 192.442 1006.9 191.255 1020.75 C 185.377 1089.33 190.581 1149.12 201.486 1216.76 C 205.293 1229.52 205.973 1248.29 208.793 1261.78 C 227.306 1351.44 251.218 1439.57 286.464 1524.18 C 298.886 1554 307.248 1585.38 323.527 1614.04 C 331.465 1628.02 337.667 1644.41 345.835 1658.39 C 369.685 1701.34 401.699 1734.53 434.408 1770.16 C 466.614 1805.25 495.959 1829.34 532.67 1859.04 C 499.228 1843.65 463.967 1815.16 437.983 1789.46 C 418.089 1769.79 398.928 1742.73 382.211 1719.54 C 361.108 1690.28 336.53 1658.6 318.97 1627.29 C 308.111 1607.92 298.251 1580.71 289.037 1559.63 C 236.668 1442.94 202.474 1318.93 187.646 1191.9 C 183.194 1154.71 178.799 1110.44 178.954 1072.96 C 179.095 1038.68 178.409 991.539 182.669 958.132 C 194.082 868.616 221.501 779.2 256.595 696.331 C 276.972 648.217 305.243 607.62 342.669 571.098 C 399.631 511.916 466.432 465.151 548.332 448.978 C 570.669 444.567 595.522 444.834 618.145 444.59 z" fill="none" transform="translate(0,0)"></path>
<path d="M 852.708 553.767 C 863.442 561.618 922.382 671.749 920.864 682.984 C 913.499 678.759 860.657 570.802 852.708 553.767 z" fill="currentColor" transform="translate(0,0)"></path>
<path d="M 1456.44 456.056 C 1481.21 455.708 1504.76 457.486 1529.17 461.766 C 1555.56 465.608 1572.86 479.704 1593.58 494.485 C 1722.23 586.254 1779 727.586 1799.29 879.282 C 1815.14 990.72 1812.12 1104.03 1790.36 1214.47 C 1771.81 1308.37 1745.25 1400.51 1710.96 1489.87 C 1681.79 1567.97 1653.16 1631.83 1610.26 1703.94 C 1566.93 1776.77 1532.54 1813.48 1461.56 1860.27 C 1454.68 1864.79 1446.63 1867.78 1438.97 1870.65 C 1456.63 1856.9 1482.29 1829.35 1497.24 1812.18 C 1571.77 1727.2 1622.16 1627.4 1664.39 1523.43 C 1712.62 1404.72 1749.26 1281.59 1768.18 1154.68 C 1772.13 1128.14 1776.77 1102.4 1778.88 1075.49 C 1784.25 1000.96 1781.28 926.067 1770.01 852.202 C 1768.18 840.653 1766.53 829.002 1764.44 817.502 C 1733.15 645.95 1621.21 513.861 1456.44 456.056 z" fill="none" transform="translate(0,0)"></path>
<path d="M 1155.81 146.678 C 1167.36 148.258 1188.63 149.935 1196.77 158.645 C 1200.23 162.346 1200.31 166.639 1198.21 171.026 C 1188.12 192.081 1158.96 219.826 1143.51 239.023 C 1126.89 259.676 1112.64 282.617 1099.13 305.382 C 1050.35 387.618 1016.5 543.459 1001.75 638.73 C 997.743 664.608 993.189 690.9 992.823 717.133 C 991.867 722.744 992.077 743.181 986.22 744.998 C 979.582 738.061 979.621 711.241 980.109 701.547 C 988.307 538.449 1016.75 374.343 1096.39 229.75 C 1111.38 202.54 1133.71 168.563 1155.81 146.678 z" fill="none" transform="translate(0,0)"></path>
<path d="M 779.708 1919.68 C 790.186 1913.14 807.115 1906.02 818.179 1900.17 C 870.116 1872.75 912.378 1836.76 950.78 1792.66 C 954.571 1788.31 964.056 1776.31 968.703 1774.42 C 971.993 1775.12 970.734 1774.27 972.629 1777.01 C 966.405 1787.45 960.627 1797.54 954.074 1807.8 C 947.078 1818.75 936.33 1832.19 930.833 1843.47 L 930.193 1844.8 C 940.252 1836.81 948.543 1825.69 956.61 1815.74 C 962.418 1808.57 969.764 1793.55 976.684 1789.14 C 977.604 1797.62 967.784 1815.59 970.804 1821.04 C 976.741 1815.72 979.991 1803.84 983.342 1796.22 C 984.947 1793.35 985.319 1790.71 987.577 1788.18 C 990.935 1788.12 992.092 1789.48 995.524 1791.29 C 997.197 1799.42 995.06 1830.42 1003.28 1832.66 C 1003.99 1831.98 1004.71 1831.29 1005.42 1830.61 C 1005.9 1821.73 1003.73 1810.47 1004.37 1801.72 L 1005.55 1800.7 C 1015.17 1800.16 1037.49 1829.05 1046.81 1836.56 C 1041.94 1824.61 1035.41 1815.94 1029.8 1804.7 C 1027.89 1800.86 1029.97 1796.83 1025.96 1788.84 C 1029.8 1785.86 1032.29 1783.19 1035.68 1779.75 C 1066.4 1825.94 1112.47 1876.4 1156.2 1910.11 C 1129.27 1901.48 1103.29 1891.3 1076.4 1883.32 C 1064.58 1879.82 1049.36 1879.71 1037.19 1878.24 C 977.577 1871.03 920.38 1884.29 862.855 1898.16 C 836.009 1904.64 806.524 1916.23 779.708 1919.68 z" fill="none" transform="translate(0,0)"></path>
<path d="M 1245.87 470.402 C 1247.18 470.259 1248.95 470.351 1250.31 470.364 C 1246.22 474.852 1222.14 484.633 1215.24 489.068 C 1204.72 495.728 1193.43 502.139 1183.11 509.026 C 1119.6 551.441 1070.39 609.163 1034.09 675.997 C 1031.8 680.214 1030.63 684.603 1027.27 688.122 L 1026.18 687.903 C 1026.43 680.208 1031.46 671.357 1034.03 664.156 C 1050.09 619.204 1079.17 584.476 1104.65 544.738 C 1065.61 581.347 1044 619.084 1023.99 668.11 C 1020.47 676.884 1018.46 681.967 1013.8 690.072 C 1021.32 645.964 1026.95 602.681 1037.41 559.265 C 1039.98 548.608 1043.06 529.249 1046.71 519.853 C 1049.04 517.437 1082.08 512.666 1087.78 511.678 C 1055.43 552.498 1026.91 601.783 1023.78 654.864 C 1029.4 643.279 1034.16 618.721 1040.65 603.555 C 1049 581.928 1060.98 560.654 1073.99 541.463 C 1079.46 536.341 1095.6 511.223 1101.14 508.617 C 1107.64 505.563 1121.49 502.181 1127.11 500.946 C 1165.84 492.43 1206.37 474.113 1245.87 470.402 z" fill="none" transform="translate(0,0)"></path>
<path d="M 1584.52 176.627 C 1600.86 172.872 1640.42 215.394 1649.41 228.582 C 1591.39 214.361 1510.19 223.999 1453.59 241.958 C 1448.05 243.597 1441.93 246.073 1436.46 248.122 C 1418.91 243.837 1406.96 242.444 1389.06 240.273 C 1441.99 203.675 1519.94 178.145 1584.52 176.627 z" fill="none" transform="translate(0,0)"></path>
<path d="M 1586.62 268.428 C 1614.89 265.781 1658.8 271.109 1685.12 279.64 C 1689.88 288.329 1714.78 323.545 1714.98 331.421 C 1694.33 327.869 1686.87 325.133 1664.8 324.713 C 1650.18 324.732 1629.22 313.786 1615.59 307.781 C 1586.38 294.914 1558.53 283.983 1528.03 274.677 C 1542.05 271.841 1572.53 269.332 1586.62 268.428 z" fill="none" transform="translate(0,0)"></path>
<path d="M 1514.66 145.261 C 1537.46 142.368 1556.92 154.749 1576.76 164.912 C 1559.2 167.679 1543.29 168.575 1524.6 171.871 C 1479.1 180.362 1435.42 196.701 1395.52 220.158 C 1387.24 224.557 1379.16 229.444 1371.08 234.219 C 1362.82 233.57 1354.56 232.796 1346.32 231.9 C 1378.98 203.265 1435.24 169.995 1476.3 154.802 C 1487.53 150.647 1502.68 147.606 1514.66 145.261 z" fill="none" transform="translate(0,0)"></path>
<path d="M 1444.06 132.179 C 1460.4 131.106 1480.16 132.764 1495.97 136.994 C 1447.21 146.822 1370.7 190.624 1334.6 224.836 C 1322.91 233.328 1302.58 226.406 1285.68 227.251 C 1315.15 203.142 1408.83 139.491 1444.06 132.179 z" fill="none" transform="translate(0,0)"></path>
<path d="M 1567.7 234.448 C 1597.12 232.801 1632.92 237.238 1661.59 243.543 C 1666.73 251.571 1670.7 256.543 1676.67 263.964 C 1641.15 258.313 1605.68 254.823 1569.69 257.853 C 1557.56 258.518 1545.47 259.596 1533.42 261.086 C 1524.09 262.239 1504.51 265.622 1496.48 264.433 C 1493.83 264.042 1462.54 255.549 1461.31 254.854 C 1470.66 244.584 1550.19 235.119 1567.7 234.448 z" fill="none" transform="translate(0,0)"></path>
<path d="M 1334.36 246.669 C 1348.56 246.154 1358.71 249.283 1372.34 250.832 C 1379.48 257.414 1399.53 283.246 1406.79 292.216 C 1423.41 312.722 1443.02 333.148 1459.09 353.422 C 1445.74 351.571 1432.4 349.611 1419.08 347.541 C 1412.42 340.48 1405.8 333.363 1399.22 326.228 C 1376.12 301.184 1356.82 272.057 1334.36 246.669 z" fill="none" transform="translate(0,0)"></path>
<path d="M 1397.61 135.644 C 1397.63 136.519 1380.52 143.533 1377.58 145.027 C 1353.41 157.339 1269.09 211.364 1254.79 228.606 C 1243.75 229.091 1237.19 229.815 1226.24 231.61 C 1224.43 214.199 1251.87 197.445 1264.31 188.658 C 1301.07 162.697 1352.47 139.652 1397.61 135.644 z" fill="none" transform="translate(0,0)"></path>
<path d="M 1599.58 314.89 C 1604.55 315.834 1635.91 330.584 1641.42 333.507 C 1679.25 353.565 1708.26 382.586 1735.35 415.198 C 1740.81 421.771 1751.42 429.099 1754.09 437.069 C 1745.13 431.623 1734.41 426.548 1725.29 420.727 C 1716.83 415.35 1704.21 411.047 1696.44 404.945 C 1662.06 377.932 1631.95 343.916 1599.58 314.89 z" fill="none" transform="translate(0,0)"></path>
<path d="M 1393.35 255.028 C 1403.79 256.213 1414.04 258.515 1424.28 260.816 C 1442.38 280.11 1460.38 299.506 1478.27 319.003 C 1488.55 330.108 1510.72 354.348 1522.49 362.309 C 1515.07 362.065 1488.6 357.019 1479.57 355.491 C 1472.46 345.278 1457.56 331.16 1449.1 321.068 C 1430.5 298.87 1411.31 277.809 1393.35 255.028 z" fill="none" transform="translate(0,0)"></path>
<path d="M 1453.5 267.787 C 1460.78 269.279 1495.01 278.158 1499.22 282.046 C 1512.91 294.695 1531.05 317.835 1544.02 332.085 C 1557.58 346.811 1571.51 361.199 1585.79 375.235 C 1579.87 374.371 1553.34 368.851 1549.33 365.85 C 1525.48 348.04 1504.05 322.075 1484.02 300.219 C 1473.67 288.93 1463.6 278.582 1453.5 267.787 z" fill="none" transform="translate(0,0)"></path>
<path d="M 1523.18 288.816 C 1528.68 289.509 1564.67 301.33 1568.71 304.648 C 1580.27 314.139 1596.2 331.708 1607.16 342.982 C 1624.1 360.613 1641.58 377.712 1659.58 394.255 C 1645.46 391.318 1635.1 385.185 1615.28 382.095 C 1584.8 356.344 1549.89 319.244 1523.18 288.816 z" fill="none" transform="translate(0,0)"></path>
<path d="M 1288.39 241.349 C 1297.85 241.283 1304.76 242.878 1313.82 245.191 C 1330.89 267.929 1349.74 291.088 1367.42 313.388 C 1375.3 323.32 1386.76 334.301 1395.28 344.495 C 1384.5 343.331 1368.79 338.265 1356 336.44 C 1335.92 317.359 1321.37 285.74 1304.63 263.494 C 1301.85 259.801 1289.22 244.412 1288.39 241.349 z" fill="none" transform="translate(0,0)"></path>
<path d="M 1265.77 243.308 C 1266.96 243.119 1267.48 243.31 1268.73 243.456 C 1273.15 248.031 1285.58 266.028 1289.76 272.156 C 1301.98 290.051 1316.06 308.978 1327.31 327.332 C 1319.69 323.929 1313.43 321.104 1306.13 317.106 C 1278.53 297.798 1252.93 277.115 1235.43 247.77 C 1249.98 243.533 1252.15 245.288 1265.77 243.308 z" fill="none" transform="translate(0,0)"></path>
<path d="M 1693.57 343.996 C 1702.26 345.104 1719.21 349.174 1727.67 351.498 C 1730.69 355.688 1738.6 366.102 1738.56 371.099 C 1736.74 370.542 1723.28 368.721 1724.64 369.755 C 1713.81 361.547 1704.5 352.382 1693.57 343.996 z" fill="none" transform="translate(0,0)"></path>
<path d="M 1739.53 389.593 C 1752.23 390.556 1749.93 395.853 1756.16 404.287 C 1757.88 406.612 1757.2 404.968 1759.14 408.63 L 1757.29 409.229 C 1751.19 403.106 1745.26 396.116 1739.53 389.593 z" fill="none" transform="translate(0,0)"></path>
<path d="M 571.367 1880.61 C 580.982 1884.07 591.429 1889.63 600.92 1893.94 C 585.114 1891.01 584.329 1887.72 570.795 1882.24 L 571.367 1880.61 z" fill="currentColor" transform="translate(0,0)"></path>
<path d="M 570.795 1882.24 C 566.503 1880.33 562.122 1878.78 558.661 1875.71 L 560.791 1877.17 L 558.74 1875.62 C 563.403 1876.31 567.083 1878.52 571.367 1880.61 L 570.795 1882.24 z" fill="currentColor" transform="translate(0,0)"></path>
</svg>