<svg xmlns="http://www.w3.org/2000/svg" preserveAspectRatio="none" style="display: block;" version="1.1" viewBox="0 0 2048 2048">
<path d="M 719.917 496.798 C 723.875 473.607 721.01 472.43 716.138 450.947 C 711.311 429.667 712.332 387.437 725.023 369.024 C 740.907 345.979 735.665 324.339 739.445 298.029 C 743.183 253.733 766.81 220.123 801.826 194.03 C 854.161 156.477 921.677 166.816 981.06 171.974 L 1143.21 187.341 L 1150.5 183.134 C 1172.38 170.49 1211.26 181.766 1235.45 183.698 C 1245.38 184.492 1274.4 187.787 1281.56 193.585 C 1283.25 196.764 1283.42 197.163 1284.48 200.606 C 1328.43 202.977 1369.64 222.706 1399.04 255.456 C 1425.52 284.989 1436.41 313.031 1434.49 352.6 C 1432.7 389.622 1427.68 423.408 1424.15 459.932 C 1445.13 443.402 1461.6 428.897 1490.46 434.011 C 1548.08 444.218 1562.76 497.268 1535.61 544.586 C 1525.05 562.976 1506.04 577.334 1492.43 593.391 C 1463.26 624.75 1432.87 659.24 1402.41 689.261 C 1399.84 697.519 1398.49 711.835 1397.35 720.837 C 1419.32 719.14 1436.18 718.172 1454.35 733.473 C 1469.67 746.383 1477.77 765.267 1479.26 784.756 C 1480.84 805.425 1475.26 836.186 1460.36 851.563 C 1436.39 876.301 1422.82 888.968 1390.23 899.52 C 1481.9 903.12 1483.17 1003.4 1426.23 1053.22 C 1399.87 1076.28 1391.63 1083.35 1357.15 1094.31 C 1356.71 1109.22 1354.11 1123.35 1352.83 1138.04 C 1372.42 1143.07 1390.21 1145.16 1400.7 1164.71 C 1410.87 1183.65 1411.84 1213.65 1405.72 1233.79 C 1395.01 1269.08 1373.56 1301.48 1337.57 1313.62 C 1335.3 1324.38 1325.04 1401.42 1327.6 1407.19 C 1334.28 1407.61 1369.34 1379.45 1378.24 1374 C 1434.08 1339.84 1542.96 1264.33 1609.6 1295.11 L 1618.16 1226.2 C 1621.23 1201.49 1625.22 1179.51 1618.51 1154.84 C 1610 1123.5 1592.02 1095.98 1576.33 1067.91 C 1555.27 1029.79 1533.4 992.12 1510.75 954.925 C 1501.71 940.145 1472.42 893.77 1470.32 878.041 C 1458.59 789.899 1558.09 747.823 1611.19 821.86 C 1614.7 826.716 1624.64 839.624 1626.5 844.845 C 1634.04 854.125 1640.54 864.699 1647.71 874.393 C 1684.37 923.969 1722.66 972.122 1760.12 1021.09 C 1791.82 1062.51 1830.7 1100.54 1854.28 1147.35 C 1860.68 1160.41 1864.35 1197.13 1865.68 1212.02 C 1867.91 1237.03 1870.77 1263.78 1872.42 1288.94 C 1873.55 1306.07 1873.01 1327.36 1873.61 1345.05 L 1879.21 1574.69 L 1883.18 1727.84 C 1884.41 1769.61 1885.66 1811.33 1883.7 1853.11 C 1883.49 1857.66 1881.67 1866.01 1875.71 1864.92 C 1867.21 1855.63 1867.33 1805.65 1866.77 1791.27 L 1863.57 1708.53 L 1856.82 1524.6 C 1855.94 1496.87 1854.73 1468.74 1852.97 1441.16 C 1852.36 1431.66 1852.82 1426.72 1852.73 1417.2 C 1852.46 1387.49 1848.75 1359.32 1847.61 1329.46 C 1845.3 1268.44 1846.9 1202.2 1826.49 1143.91 C 1815.26 1115.92 1757.11 1050.41 1736.78 1025.21 C 1711.93 994.464 1687.68 963.248 1664.04 931.574 C 1659.26 925.296 1635.73 895.532 1633.66 890.039 C 1623.6 877.898 1609.7 855.97 1600.01 842.329 C 1585.89 824.924 1571.79 803.904 1547.4 801.498 C 1532.94 800.071 1518.82 803.478 1507.53 813.091 C 1489.76 828.222 1477.8 857.241 1487.15 879.766 C 1492.89 893.611 1502.11 906.304 1509.27 919.44 C 1539.29 973.078 1572.54 1024.76 1602.61 1078.43 C 1614.89 1100.36 1632.07 1125.06 1638.84 1149.51 C 1645.69 1174.27 1642.51 1203.32 1638.25 1228.26 C 1633.06 1258.61 1629.27 1289.58 1623.06 1319.77 C 1613.43 1372.6 1604.84 1426.96 1589.38 1478.43 C 1575.75 1523.85 1562.64 1575.72 1525.45 1607.91 C 1518.51 1613.89 1512.51 1619.44 1504.51 1623.92 C 1507.84 1627.09 1516.75 1634.49 1518.02 1637.62 L 1517.9 1640.27 C 1503.99 1647.19 1469.68 1615.03 1459.71 1606.12 C 1428.22 1577.95 1405.34 1545.81 1379.67 1512.31 C 1346.83 1469.45 1314.09 1409.25 1267.62 1379.81 C 1238.33 1361.26 1197.33 1384.59 1189.45 1415.29 C 1172.62 1467.06 1217.22 1495.89 1238.07 1536.3 C 1245.62 1550.94 1252.65 1567.33 1259.86 1582.27 C 1301.58 1693.48 1337.21 1806.99 1376.16 1919.13 C 1380.29 1931.04 1406.87 1987.9 1406.3 1994.18 L 1404.99 1995.79 C 1378.67 1994.03 1340.3 1868.83 1331.81 1843.88 C 1319.61 1807.52 1307.02 1771.3 1294.04 1735.21 C 1290.11 1742.81 1286.15 1752.14 1281.98 1759.11 C 1265.87 1786.21 1240.32 1806.41 1210.23 1815.84 C 1199.55 1819.12 1188.41 1820.66 1177.24 1820.41 C 1143.38 1819.65 1108.97 1814.15 1075.02 1812.57 C 1066.81 1812.18 1057.61 1809.46 1049.31 1808.85 C 1022.99 1806.55 996.249 1803.08 970.038 1800.59 L 798.799 1783.61 C 755.594 1779.42 713.91 1782.2 673.764 1763 C 641.638 1793.78 601.646 1820.71 566.541 1848.28 C 556.236 1856.37 511.451 1893.34 500.051 1888.57 C 498.378 1885.13 500.194 1883.21 502.95 1880.74 C 514.469 1870.44 527.319 1861.42 539.168 1851.57 L 621.803 1781.68 C 630.46 1774.25 648.528 1759.45 655.783 1751.58 C 621.317 1726.98 594.807 1686.67 586.794 1644.79 C 581.23 1615.7 586.461 1588.15 589.136 1559.57 L 597.743 1468.23 C 591.411 1476.19 568.949 1502.61 557.945 1500.93 C 553.296 1494.81 575.603 1473.12 580.204 1467 C 617.292 1417.66 654.2 1364.59 674.729 1305.94 C 678.395 1295.49 680.734 1278.93 684.786 1269.73 C 686.281 1257.24 689.958 1242.87 690.812 1230.65 C 693.597 1190.83 691.049 1151.4 689.93 1111.59 C 688.712 1068.24 688.898 1022.88 691.004 979.61 C 691.8 963.253 695.427 936.054 698.568 920.118 C 702.569 899.037 709.587 878.358 713.754 857.353 C 729.865 776.128 749.796 693.715 741.331 610.345 C 738.083 578.351 735.771 555.395 720.571 526.152 C 700.178 499.129 679.629 477.429 646.852 502.688 C 661.684 506.042 667.306 508.962 674.759 523.219 C 674.629 526.775 674.738 533.971 673.339 536.7 C 665.812 579.894 650.138 626.488 606.261 644.231 C 601.489 646.16 596.311 647.309 591.633 649.172 C 588.13 651.87 584.784 657.832 583.26 661.898 C 558.192 728.784 531.11 795.269 504.478 861.505 L 452.659 987.407 C 446.015 1003.39 437.952 1019.47 431.796 1035.5 C 425.421 1051.89 420.274 1069.11 413.964 1085.48 C 387.734 1153.51 369.104 1223.66 349.634 1293.8 C 347.338 1302.07 343.426 1325.41 337.948 1330.92 C 333.866 1332.47 329.261 1331.65 328.582 1326.83 C 325.157 1302.52 333.243 1274.49 338.56 1250.96 C 365.62 1131.24 408.844 1016.78 457.378 904.378 L 504.656 794.691 C 506.638 790.087 508.545 785.516 510.37 780.847 C 525.241 742.814 542.913 705.952 557.415 667.727 C 560.818 658.757 564.569 649.529 568.5 640.792 C 569.169 638.12 576.206 621.473 577.633 617.812 C 584.906 595.429 608.231 538.861 620.548 519.971 C 631.383 494.857 661.276 460.243 692.078 475.524 C 702.334 480.613 711.392 489.245 719.917 496.798 z" fill="none" transform="translate(0,0)"></path>
<path d="M 719.917 496.798 C 723.875 473.607 721.01 472.43 716.138 450.947 C 711.311 429.667 712.332 387.437 725.023 369.024 C 740.907 345.979 735.665 324.339 739.445 298.029 C 743.183 253.733 766.81 220.123 801.826 194.03 C 854.161 156.477 921.677 166.816 981.06 171.974 L 1143.21 187.341 L 1150.5 183.134 C 1172.38 170.49 1211.26 181.766 1235.45 183.698 C 1245.38 184.492 1274.4 187.787 1281.56 193.585 C 1283.25 196.764 1283.42 197.163 1284.48 200.606 C 1328.43 202.977 1369.64 222.706 1399.04 255.456 C 1425.52 284.989 1436.41 313.031 1434.49 352.6 C 1432.7 389.622 1427.68 423.408 1424.15 459.932 C 1445.13 443.402 1461.6 428.897 1490.46 434.011 C 1548.08 444.218 1562.76 497.268 1535.61 544.586 C 1525.05 562.976 1506.04 577.334 1492.43 593.391 C 1463.26 624.75 1432.87 659.24 1402.41 689.261 C 1399.84 697.519 1398.49 711.835 1397.35 720.837 C 1419.32 719.14 1436.18 718.172 1454.35 733.473 C 1469.67 746.383 1477.77 765.267 1479.26 784.756 C 1480.84 805.425 1475.26 836.186 1460.36 851.563 C 1436.39 876.301 1422.82 888.968 1390.23 899.52 C 1481.9 903.12 1483.17 1003.4 1426.23 1053.22 C 1399.87 1076.28 1391.63 1083.35 1357.15 1094.31 C 1356.71 1109.22 1354.11 1123.35 1352.83 1138.04 C 1372.42 1143.07 1390.21 1145.16 1400.7 1164.71 C 1410.87 1183.65 1411.84 1213.65 1405.72 1233.79 C 1395.01 1269.08 1373.56 1301.48 1337.57 1313.62 C 1335.3 1324.38 1325.04 1401.42 1327.6 1407.19 C 1334.28 1407.61 1369.34 1379.45 1378.24 1374 C 1434.08 1339.84 1542.96 1264.33 1609.6 1295.11 L 1618.16 1226.2 C 1621.23 1201.49 1625.22 1179.51 1618.51 1154.84 C 1610 1123.5 1592.02 1095.98 1576.33 1067.91 C 1555.27 1029.79 1533.4 992.12 1510.75 954.925 C 1501.71 940.145 1472.42 893.77 1470.32 878.041 C 1458.59 789.899 1558.09 747.823 1611.19 821.86 C 1614.7 826.716 1624.64 839.624 1626.5 844.845 C 1634.04 854.125 1640.54 864.699 1647.71 874.393 C 1684.37 923.969 1722.66 972.122 1760.12 1021.09 C 1791.82 1062.51 1830.7 1100.54 1854.28 1147.35 C 1860.68 1160.41 1864.35 1197.13 1865.68 1212.02 C 1867.91 1237.03 1870.77 1263.78 1872.42 1288.94 C 1873.55 1306.07 1873.01 1327.36 1873.61 1345.05 L 1879.21 1574.69 L 1883.18 1727.84 C 1884.41 1769.61 1885.66 1811.33 1883.7 1853.11 C 1883.49 1857.66 1881.67 1866.01 1875.71 1864.92 C 1867.21 1855.63 1867.33 1805.65 1866.77 1791.27 L 1863.57 1708.53 L 1856.82 1524.6 C 1855.94 1496.87 1854.73 1468.74 1852.97 1441.16 C 1852.36 1431.66 1852.82 1426.72 1852.73 1417.2 C 1852.46 1387.49 1848.75 1359.32 1847.61 1329.46 C 1845.3 1268.44 1846.9 1202.2 1826.49 1143.91 C 1815.26 1115.92 1757.11 1050.41 1736.78 1025.21 C 1711.93 994.464 1687.68 963.248 1664.04 931.574 C 1659.26 925.296 1635.73 895.532 1633.66 890.039 C 1623.6 877.898 1609.7 855.97 1600.01 842.329 C 1585.89 824.924 1571.79 803.904 1547.4 801.498 C 1532.94 800.071 1518.82 803.478 1507.53 813.091 C 1489.76 828.222 1477.8 857.241 1487.15 879.766 C 1492.89 893.611 1502.11 906.304 1509.27 919.44 C 1539.29 973.078 1572.54 1024.76 1602.61 1078.43 C 1614.89 1100.36 1632.07 1125.06 1638.84 1149.51 C 1645.69 1174.27 1642.51 1203.32 1638.25 1228.26 C 1633.06 1258.61 1629.27 1289.58 1623.06 1319.77 C 1613.43 1372.6 1604.84 1426.96 1589.38 1478.43 C 1575.75 1523.85 1562.64 1575.72 1525.45 1607.91 C 1518.51 1613.89 1512.51 1619.44 1504.51 1623.92 C 1507.84 1627.09 1516.75 1634.49 1518.02 1637.62 L 1517.9 1640.27 C 1503.99 1647.19 1469.68 1615.03 1459.71 1606.12 C 1428.22 1577.95 1405.34 1545.81 1379.67 1512.31 C 1346.83 1469.45 1314.09 1409.25 1267.62 1379.81 C 1238.33 1361.26 1197.33 1384.59 1189.45 1415.29 C 1172.62 1467.06 1217.22 1495.89 1238.07 1536.3 C 1245.62 1550.94 1252.65 1567.33 1259.86 1582.27 C 1301.58 1693.48 1337.21 1806.99 1376.16 1919.13 C 1380.29 1931.04 1406.87 1987.9 1406.3 1994.18 L 1404.99 1995.79 C 1378.67 1994.03 1340.3 1868.83 1331.81 1843.88 C 1319.61 1807.52 1307.02 1771.3 1294.04 1735.21 C 1290.11 1742.81 1286.15 1752.14 1281.98 1759.11 C 1265.87 1786.21 1240.32 1806.41 1210.23 1815.84 C 1199.55 1819.12 1188.41 1820.66 1177.24 1820.41 C 1143.38 1819.65 1108.97 1814.15 1075.02 1812.57 C 1066.81 1812.18 1057.61 1809.46 1049.31 1808.85 C 1022.99 1806.55 996.249 1803.08 970.038 1800.59 L 798.799 1783.61 C 755.594 1779.42 713.91 1782.2 673.764 1763 C 641.638 1793.78 601.646 1820.71 566.541 1848.28 C 556.236 1856.37 511.451 1893.34 500.051 1888.57 C 498.378 1885.13 500.194 1883.21 502.95 1880.74 C 514.469 1870.44 527.319 1861.42 539.168 1851.57 L 621.803 1781.68 C 630.46 1774.25 648.528 1759.45 655.783 1751.58 C 621.317 1726.98 594.807 1686.67 586.794 1644.79 C 581.23 1615.7 586.461 1588.15 589.136 1559.57 L 597.743 1468.23 C 591.411 1476.19 568.949 1502.61 557.945 1500.93 C 553.296 1494.81 575.603 1473.12 580.204 1467 C 617.292 1417.66 654.2 1364.59 674.729 1305.94 C 678.395 1295.49 680.734 1278.93 684.786 1269.73 C 696.403 1256.44 693.698 1160.24 692.302 1139.28 C 692.065 1135.72 691.465 1128.87 692.802 1125.63 C 701.715 1126.55 699.556 1124.68 707.058 1123.95 C 714.173 1127.87 706.181 1206.69 710.855 1219.34 C 711.973 1257.54 697.394 1313.54 678.549 1347.08 C 673.938 1355.28 659.747 1379.04 658.654 1386.21 C 656.091 1403.04 656.07 1423.83 654.388 1441.3 L 640.697 1587.22 C 650.496 1589.1 692.167 1592.12 703.271 1592.83 C 750.824 1595.85 797.44 1599.15 844.989 1603.1 L 1262.26 1640.8 C 1250.68 1612.06 1242.32 1582.97 1226.92 1555.63 C 1222.78 1548.67 1218.72 1538.32 1213.84 1532.18 C 1180.22 1489.9 1148.62 1439.7 1183.22 1387.63 C 1192.7 1373.36 1216.64 1358.52 1233.86 1356.06 C 1253.38 1353.27 1269.99 1358.9 1285.7 1370.89 C 1288.09 1354.17 1290.93 1329.23 1292.49 1312.5 C 1291.55 1312.21 1290.6 1311.91 1289.65 1311.61 C 1272.51 1305.85 1258.47 1293.32 1250.82 1276.92 C 1230.01 1231.89 1264.29 1168.93 1306.65 1150.27 C 1306.91 1137.27 1311.6 1104.83 1313.3 1090.94 C 1303.95 1086.85 1295.65 1083.09 1289.05 1074.91 C 1273.83 1056.02 1267.69 1036.1 1268.98 1012.47 C 1271.45 966.93 1292.24 944.197 1324.59 915.153 C 1325.72 908.486 1326.27 899.26 1327.05 892.204 C 1323.51 889.607 1318.51 886.155 1315.43 883.113 C 1268.89 837.074 1296.65 760.275 1350.92 736.559 C 1350.93 728.962 1351.65 720.544 1352.27 712.88 C 1359.53 622.273 1366.48 531.693 1372.84 441.001 C 1373.74 428.289 1375.93 415.935 1376.23 403.238 C 1364.08 402.208 1349.88 398.547 1336.49 397.322 L 984.779 365.282 C 921.531 359.126 853.739 355.577 791.008 348.271 C 786.833 373.038 783.405 412.107 780.819 437.48 L 770.076 534.316 C 769.501 530.46 769.641 527.5 769.661 523.59 L 768.869 523.54 C 769.814 536.113 766.614 550.947 765.412 563.6 C 764.493 573.264 764.529 583.277 762.821 592.831 C 762.17 596.476 760.768 599.981 759.283 603.353 C 755.736 611.409 761.818 654.126 759.963 668.163 C 759.038 675.17 754.94 670.266 750.667 673.462 C 746.7 673.499 747.97 673.506 744.048 670.481 L 745.238 668.488 C 745.532 622.689 743.721 566.946 722.522 525.7 L 720.571 526.152 C 700.178 499.129 679.629 477.429 646.852 502.688 C 661.684 506.042 667.306 508.962 674.759 523.219 C 674.629 526.775 674.738 533.971 673.339 536.7 C 665.812 579.894 650.138 626.488 606.261 644.231 C 601.489 646.16 596.311 647.309 591.633 649.172 C 588.13 651.87 584.784 657.832 583.26 661.898 C 558.192 728.784 531.11 795.269 504.478 861.505 L 452.659 987.407 C 446.015 1003.39 437.952 1019.47 431.796 1035.5 C 425.421 1051.89 420.274 1069.11 413.964 1085.48 C 387.734 1153.51 369.104 1223.66 349.634 1293.8 C 347.338 1302.07 343.426 1325.41 337.948 1330.92 C 333.866 1332.47 329.261 1331.65 328.582 1326.83 C 325.157 1302.52 333.243 1274.49 338.56 1250.96 C 365.62 1131.24 408.844 1016.78 457.378 904.378 L 504.656 794.691 C 506.638 790.087 508.545 785.516 510.37 780.847 C 525.241 742.814 542.913 705.952 557.415 667.727 C 560.818 658.757 564.569 649.529 568.5 640.792 C 569.169 638.12 576.206 621.473 577.633 617.812 C 584.906 595.429 608.231 538.861 620.548 519.971 C 631.383 494.857 661.276 460.243 692.078 475.524 C 702.334 480.613 711.392 489.245 719.917 496.798 z" fill="currentColor" transform="translate(0,0)"></path>
<path d="M 609.394 587.124 C 615.504 577.76 633.862 513.14 647.902 521.311 C 654.038 532.081 649.83 551.063 647.518 562.818 C 635.083 593.597 631.698 612.064 599.319 625.884 C 597.315 626.756 595.293 627.583 593.253 628.366 C 598.768 613.046 604.955 603.354 609.394 587.124 z" fill="none" transform="translate(0,0)"></path>
<path d="M 647.518 562.818 L 648.27 564.228 C 646.933 571.128 644.441 574.686 642.419 581.296 C 646.764 584.641 650.198 587.495 655.1 590.062 C 662.031 586.881 669.101 540.376 673.339 536.7 C 665.812 579.894 650.138 626.488 606.261 644.231 C 601.489 646.16 596.311 647.309 591.633 649.172 L 591.675 647.768 C 599.475 643.875 610.227 642.905 613.331 637.336 C 613.565 633.584 613.558 632.187 611.87 628.618 C 607.221 618.793 601.582 631.134 593.023 628.74 L 592.284 626.292 C 592.719 623.667 606.251 590.179 608.071 587.019 L 609.394 587.124 C 604.955 603.354 598.768 613.046 593.253 628.366 C 595.293 627.583 597.315 626.756 599.319 625.884 C 631.698 612.064 635.083 593.597 647.518 562.818 z" fill="currentColor" transform="translate(0,0)"></path>
<path d="M 620.548 519.971 L 622.195 520.614 C 614.759 533.478 596.645 568.891 592.749 586.116 C 591.905 589.846 601.36 593.03 597.47 600.794 C 592.513 603.824 585.698 601.897 585.312 602.611 C 583.481 606 582.026 616.423 577.633 617.812 C 584.906 595.429 608.231 538.861 620.548 519.971 z" fill="currentColor" transform="translate(0,0)"></path>
<path d="M 893.718 191.441 C 923.015 189.823 960.525 195.849 990.217 198.342 C 1063.09 204.216 1135.86 211.364 1208.49 219.781 C 1243.55 223.546 1280.83 222.802 1315.11 231.342 C 1338.08 237.067 1355.61 245.648 1372.79 262.129 C 1387.6 276.348 1400.07 294.613 1405.59 314.587 C 1419.89 366.386 1405.56 477.505 1400.28 533.149 L 1389.87 648.405 C 1387.81 669.25 1382.36 702.565 1382.9 722.806 L 1382.95 724.344 C 1375.54 726.092 1370.91 727.719 1363.71 730.333 C 1368.55 697.15 1369.37 658.993 1372.17 625.621 L 1391.3 402.256 C 1390.88 399.239 1389.3 392.589 1386.22 391.583 C 1361.6 383.527 1330.76 383.111 1305.02 380.381 C 1223.57 372.187 1142.05 364.676 1060.47 357.849 L 888.803 341.015 C 855.766 337.835 822.715 335.384 789.646 332.641 C 781.997 332.006 775.739 333.38 774.434 341.968 C 771.449 361.61 770.296 381.634 768.34 401.434 L 756.364 513.966 C 755.027 526.388 754.58 547.396 751.242 558.63 C 749.103 550.915 741.699 528.364 741.626 522.196 C 741.443 506.713 744.821 486.708 746.281 471.069 C 749.941 431.87 752.696 392.763 757.732 353.714 C 760.627 331.266 763.062 304.681 769.289 283.079 C 774.287 265.623 782.957 249.436 794.719 235.603 C 819.392 207.103 856.952 193.906 893.718 191.441 z" fill="none" transform="translate(0,0)"></path>
<path d="M 640.503 1413.72 C 643.799 1419.02 639.019 1445.93 638.301 1453.91 L 630.744 1544.56 C 629.808 1554.93 625.528 1589.31 628.059 1597.84 C 628.761 1598.44 629.463 1599.05 630.165 1599.66 C 658.614 1602.13 699.156 1606.13 726.566 1608.49 L 1141.98 1643.46 C 1168.45 1645.63 1194.9 1648.09 1221.31 1650.85 C 1233.31 1652.02 1254.47 1654.76 1265.67 1654.01 C 1271.47 1668.93 1283.79 1694.71 1281.16 1709.31 C 1275.34 1741.55 1264 1759.21 1239.34 1778.86 C 1195.24 1813.58 1135.61 1797.59 1083.62 1792.96 C 994.525 1785.11 905.527 1776.15 816.652 1766.07 C 774.163 1761.53 701.44 1762.2 666.332 1739.38 C 605.123 1699.59 602.371 1642.25 608.414 1575.47 L 615.35 1504.51 C 617.093 1487.21 620.342 1462.71 617.03 1445.96 L 616.757 1444.63 C 624.591 1434.27 632.507 1423.96 640.503 1413.72 z" fill="none" transform="translate(0,0)"></path>
<path d="M 931.076 1640.25 C 982.402 1632.64 1029.39 1684.82 1000.32 1733.63 C 990.897 1749.45 973.295 1755.67 956.109 1759.47 C 940.407 1761.4 919.885 1761.33 906.71 1751.62 C 858.853 1716.35 872.294 1652.08 931.076 1640.25 z" fill="currentColor" transform="translate(0,0)"></path>
<path d="M 939.67 1652.39 C 949.351 1651.37 960.404 1653.88 968.926 1658.44 C 981.998 1665.56 991.591 1677.71 995.477 1692.07 C 1004.28 1724.26 983.213 1742.53 954.066 1748.87 C 938.938 1749.89 924.518 1749.9 911.875 1740.25 C 892.223 1725.27 884.672 1692.14 900.993 1672.07 C 911.295 1659.4 924.11 1654.16 939.67 1652.39 z" fill="none" transform="translate(0,0)"></path>
<path d="M 1571.62 1304.38 C 1587.15 1303.84 1591.06 1305.76 1605.1 1312.55 C 1602.45 1328.32 1589.64 1409.82 1583.51 1422.24 C 1540.12 1431.58 1476.37 1456.19 1439.94 1482.03 C 1426.87 1491.31 1414.44 1504.96 1404.96 1517.87 L 1392.13 1501.27 C 1380.53 1485.66 1369.89 1470.27 1359.04 1454.15 C 1352.33 1444.19 1343.71 1433.83 1338.14 1423.41 C 1394.97 1381.67 1502.3 1312.76 1571.62 1304.38 z" fill="none" transform="translate(0,0)"></path>
<path d="M 1367.66 916.313 C 1379.68 914.47 1402.96 916.498 1413.13 922.767 C 1444.46 942.062 1453.28 981.939 1434.32 1013.21 C 1418.64 1039.07 1389.3 1069.29 1359.72 1077.48 C 1252.78 1108.44 1267.24 930.256 1367.66 916.313 z" fill="none" transform="translate(0,0)"></path>
<path d="M 1404.16 736.37 C 1417.69 734 1431.6 737.184 1442.75 745.201 C 1473.74 767.745 1469.9 813.951 1448.65 841.618 C 1429.24 866.649 1400.67 882.93 1369.24 886.868 C 1280.78 890.965 1282.74 750.875 1404.16 736.37 z" fill="none" transform="translate(0,0)"></path>
<path d="M 1576.44 1443.95 L 1578.26 1444.92 C 1578.84 1447.66 1572.16 1471.65 1571 1476 C 1561.89 1511.66 1551.63 1544.26 1530.94 1575.13 C 1521.1 1589.8 1507.51 1604.5 1498.53 1618.43 L 1497.75 1619.64 C 1493.03 1615.72 1489.23 1610.89 1484.79 1606.72 C 1475.01 1597.53 1465.63 1588.45 1456.24 1578.86 C 1448.09 1571.5 1418.22 1537.6 1411.53 1527.98 C 1452.58 1491.18 1480.7 1474.4 1533.37 1457.57 C 1543.74 1454.25 1565.71 1448.19 1574.9 1444.56 L 1576.44 1443.95 z" fill="none" transform="translate(0,0)"></path>
<path d="M 1472.18 451.201 C 1528.21 448.841 1542.45 491.544 1518.19 534.963 C 1507.94 553.312 1488.59 569.764 1475.3 586.516 C 1462.63 602.476 1447.08 617.648 1432.93 632.316 C 1423.25 642.096 1413.84 652.136 1404.71 662.424 C 1406.25 633.419 1412.33 601.913 1415.03 572.704 C 1417.84 542.43 1419.4 513.174 1420.9 482.808 C 1441.35 468.746 1447.67 456.141 1472.18 451.201 z" fill="none" transform="translate(0,0)"></path>
<path d="M 1337.28 1155.11 C 1353.52 1153.2 1372.13 1157.89 1381.7 1172.17 C 1390.65 1185.53 1390.61 1208.68 1387.8 1224.14 C 1382.8 1251.7 1365.92 1283.28 1339.12 1295.06 C 1333.98 1297.31 1322.55 1300.84 1317.25 1299.87 C 1305.25 1299.24 1296.48 1299.37 1285.59 1293.32 C 1275.04 1287.41 1267.33 1277.5 1264.19 1265.82 C 1255.17 1233.5 1271.64 1196.86 1296.22 1175.93 C 1309.59 1164.53 1320.62 1159.53 1337.28 1155.11 z" fill="none" transform="translate(0,0)"></path>
<path d="M 1307.64 1315.74 L 1319.48 1316.07 C 1318.24 1329.42 1316.37 1343.02 1315.12 1356.4 C 1314.55 1362.43 1313.76 1387.28 1311.16 1390.73 C 1306.34 1386.68 1302.64 1382.56 1298.35 1377.98 C 1299.23 1362.54 1304.14 1330.43 1307.64 1315.74 z" fill="none" transform="translate(0,0)"></path>
<path d="M 1326.47 1094.86 L 1341.99 1095.31 C 1341.02 1103.41 1338.13 1132.03 1335.43 1138.24 L 1333.72 1138.47 L 1320.09 1142.98 C 1324.14 1128.28 1325.15 1110.2 1326.47 1094.86 z" fill="none" transform="translate(0,0)"></path>
<path d="M 1339.77 897.318 C 1344.16 897.954 1352.89 898.531 1356.09 900.789 C 1354.98 903.402 1353.97 903.035 1350.48 904.621 L 1338.11 908.204 L 1339.77 897.318 z" fill="none" transform="translate(0,0)"></path>
<path d="M 720.571 526.152 L 722.522 525.7 C 743.721 566.946 745.532 622.689 745.238 668.488 L 744.048 670.481 C 747.97 673.506 746.7 673.499 750.667 673.462 C 754.94 670.266 759.038 675.17 759.963 668.163 C 761.818 654.126 755.736 611.409 759.283 603.353 C 760.768 599.981 762.17 596.476 762.821 592.831 C 764.529 583.277 764.493 573.264 765.412 563.6 C 766.614 550.947 769.814 536.113 768.869 523.54 L 769.661 523.59 C 769.641 527.5 769.501 530.46 770.076 534.316 C 768.937 553.945 765.76 574.417 764.084 594.101 C 764.462 597.436 759.918 605.623 760.086 608.17 C 767.477 720.358 738.592 832.074 714.659 940.787 C 703.481 991.563 710.481 1042.86 711.291 1094.04 C 711.935 1134.77 713.237 1178.85 710.855 1219.34 C 706.181 1206.69 714.173 1127.87 707.058 1123.95 C 699.556 1124.68 701.715 1126.55 692.802 1125.63 C 691.465 1128.87 692.065 1135.72 692.302 1139.28 C 693.698 1160.24 696.403 1256.44 684.786 1269.73 C 686.281 1257.24 689.958 1242.87 690.812 1230.65 C 693.597 1190.83 691.049 1151.4 689.93 1111.59 C 688.712 1068.24 688.898 1022.88 691.004 979.61 C 691.8 963.253 695.427 936.054 698.568 920.118 C 702.569 899.037 709.587 878.358 713.754 857.353 C 729.865 776.128 749.796 693.715 741.331 610.345 C 738.083 578.351 735.771 555.395 720.571 526.152 z" fill="currentColor" transform="translate(0,0)"></path>
<path d="M 858.613 787.305 C 861.195 787.146 862.126 787.889 864.52 788.978 C 867.695 793.658 859.217 850.4 860.146 862.204 C 893.151 830.774 919.332 789.935 970.977 791.644 C 1029.16 793.57 1047.99 828.022 1046.8 881.878 C 1072.36 853.613 1107.5 813.69 1145.88 804.658 C 1162.49 801.104 1192.26 803.624 1206.3 814.465 C 1262.65 858 1235.63 940.356 1232.05 999.159 C 1229.12 1047.17 1223.81 1088.78 1220.54 1135.28 C 1217.81 1174.03 1201.72 1223.82 1238.52 1248.71 C 1240.42 1253.48 1241 1254.49 1241.61 1259.47 L 1240.43 1260.97 C 1237.75 1261.86 1234.09 1262.44 1231.32 1262.08 C 1188.93 1256.51 1145.34 1257.84 1103.21 1252.03 C 1101.97 1251.86 1101.91 1249.93 1101.63 1248.86 C 1103.99 1240.21 1117.07 1241.4 1125.19 1240.24 C 1166.03 1234.42 1161.18 1178.94 1163.89 1144.41 C 1165.75 1123.16 1167.84 1101.94 1170.14 1080.74 C 1175.59 1027.21 1180.87 973.279 1187.23 919.808 C 1188.09 904.917 1186.54 890.486 1185.4 875.701 C 1183.52 851.262 1169.71 824.272 1140.68 830.345 C 1108.8 837.014 1085.84 867.293 1065.63 890.701 C 1058.41 899.068 1048.25 909.751 1042.21 918.781 C 1040.26 942.609 1040.01 965.986 1037.89 989.767 C 1034.44 1028.39 1031.76 1067.12 1028.43 1105.75 C 1026.04 1130.35 1023.38 1155.08 1021.23 1179.68 C 1019.26 1202.33 1021.95 1214.28 1036.88 1231.5 C 1043.81 1233.88 1061.67 1237.56 1065.14 1244.29 C 1061.95 1250.06 1026.71 1244.72 1020.37 1243.34 C 1000.67 1239.08 930.941 1242.81 916.254 1235.09 C 914.803 1232.2 914.918 1233.64 915.73 1230.64 C 920.692 1225.36 934.664 1224.21 942.157 1222.03 C 971.296 1213.54 968.638 1179.73 971.105 1155.65 C 974.122 1126.22 975.357 1096.64 977.986 1067.29 L 987.408 955.12 C 990.111 924.028 1013.24 792.881 944.081 818.489 C 916.602 828.664 894.701 855.021 874.854 875.037 C 851.633 898.456 852.026 906.332 852.978 938.599 C 853.116 945.922 853.183 956.313 852.622 963.774 C 851.962 972.561 848.865 982.695 848.529 991.74 C 846.619 1032.32 842.738 1070.7 840.067 1111.44 C 838.495 1135.41 829.668 1174.93 837.917 1197.85 C 845.065 1217.71 866.57 1217.53 882.733 1222.83 C 885.763 1223.83 886.946 1225.25 888.229 1228.18 C 887.138 1231.6 888.053 1230.19 885.427 1232.58 C 878.287 1233.91 869.69 1232.96 862.449 1232.41 C 819.331 1229.14 776.361 1224.91 733.156 1222.78 C 731.737 1222.71 730.839 1222.25 729.641 1221.58 C 727.827 1218.06 728.019 1219.81 728.684 1216.19 C 735.117 1209 752.517 1210.25 759.551 1205.56 C 784.706 1188.77 782.837 1145.25 784.821 1118.78 L 791.652 1030.63 C 795.675 975.022 800.351 916.215 805.667 860.828 C 810.377 811.753 755.011 814.75 761.909 797.2 C 767.504 794.699 775.818 795.065 781.973 795.433 C 808.245 797.001 832.874 792.8 858.613 787.305 z" fill="currentColor" transform="translate(0,0)"></path>
<path d="M 311.972 1369.95 C 315.132 1369.94 315.238 1369.67 317.948 1371.12 C 321.674 1375.66 323.406 1381.4 319.213 1386.34 C 291.188 1419.35 262.267 1451.68 231.033 1481.71 C 212.145 1499.86 192.616 1527.54 171.927 1543.15 C 167.456 1544 167.999 1543.99 165.266 1542.35 C 159.742 1526.77 220.032 1470.72 230.727 1457.07 C 253.592 1427.89 278.702 1401.16 304.467 1374.55 C 306.323 1372.64 309.522 1371.03 311.972 1369.95 z" fill="currentColor" transform="translate(0,0)"></path>
</svg>