<svg xmlns="http://www.w3.org/2000/svg" preserveAspectRatio="none" style="display: block;" version="1.1" viewBox="0 0 2048 2048">
<path d="M 1700.46 168.392 C 1734.7 167.931 1760.04 197.531 1751.08 231.314 C 1743.49 259.76 1717.69 275.283 1693.08 287.704 C 1665.08 301.837 1638.43 317.985 1611.17 333.465 C 1609.94 338.318 1607.86 347.861 1603.98 350.766 C 1562.64 381.717 1510.52 405.564 1467.77 433.732 C 1511.33 488.623 1545.89 553.865 1586.29 610.584 C 1593.79 606.357 1602.56 600.267 1610.13 595.655 C 1647.79 572.724 1683.87 548.131 1722.39 526.506 C 1736.57 518.545 1738.86 523.149 1752.8 518.862 C 1759.22 515.851 1766.06 511.025 1772.13 507.507 C 1797.79 492.656 1823.28 478.338 1847.15 460.705 C 1870.85 443.2 1897.64 422.824 1928.88 427.195 C 1955.97 430.987 1975.43 458.755 1969.38 485.468 C 1966.01 503.327 1955.8 517.969 1940.92 528.18 C 1918.34 543.677 1894.06 556.411 1871.07 571.183 C 1849.27 585.186 1826.56 598.286 1805.12 612.734 C 1803.17 617.627 1799.64 626.234 1795.54 629.371 C 1781.08 640.447 1762.33 651.074 1746.64 660.704 L 1654.42 717.708 C 1664.82 742.118 1680.44 766.078 1690.94 791.068 C 1720.53 861.503 1695.64 900.422 1640.5 945.482 C 1594.78 982.841 1546.43 1012.88 1497.48 1045.1 L 1274.13 1189.66 L 1176.77 1251.87 C 1153.99 1266.47 1126.03 1285.27 1101.56 1296.11 C 1065.74 1311.98 1016.33 1298.64 982.375 1283.69 C 961.816 1274.63 940.096 1264.86 919.293 1255.61 C 901.079 1247.52 877.888 1239.08 860.964 1228.88 C 845.61 1219.63 830.667 1204.88 817.944 1192.24 C 771.382 1146 747.11 1091.06 720.243 1032.39 C 708.318 1006.35 693.983 978.071 683.187 951.527 C 590.76 997.988 481.039 1103.91 460.183 1207.62 C 424.484 1385.12 705.069 1381.48 814.642 1382.02 C 864.586 1382.39 914.532 1382.13 964.47 1381.22 C 1034.72 1381.21 1104.97 1382.04 1175.2 1383.71 C 1293.6 1387.58 1420.36 1397.61 1536.49 1421.89 C 1618.4 1440.82 1763.61 1476.63 1776.38 1576.41 C 1779.82 1604.24 1772.04 1632.31 1754.75 1654.39 C 1717.62 1702.33 1632.4 1730.93 1574.84 1744.55 C 1554.89 1749.27 1534.17 1754.77 1513.76 1757.36 C 1512.48 1771 1500.71 1853.98 1495.9 1860.87 C 1490.88 1862.43 1484.92 1863.61 1479.68 1864.07 C 1442.85 1867.3 1405.77 1869.58 1368.9 1871.88 C 1325.38 1875.02 1281.84 1877.82 1238.28 1880.31 C 1224.5 1881.08 1171.83 1885.66 1162.93 1883.69 C 1129.9 1876.39 1083.62 1849.86 1052.56 1834.19 C 1042.74 1835.87 1026.46 1836.12 1016.16 1836.52 C 995.981 1837.23 975.802 1838.04 955.628 1838.97 C 939.796 1829.95 914.248 1816.32 904.809 1801.18 C 902.231 1797.05 899.961 1789.89 898.377 1785.13 C 854.382 1781.37 812.118 1779.05 767.82 1774.32 C 724.707 1769.59 681.775 1763.33 639.109 1755.54 C 491.952 1729.11 361.858 1686.34 245.797 1588.83 C 146.362 1505.13 84.3748 1385.26 73.5487 1255.74 C 62.5975 1128.55 107.298 1005.08 190.031 908.936 C 295.855 785.962 443.845 735.184 600.604 721.724 C 590.767 652.709 617.427 641.139 672.778 609.71 L 747.177 567.946 L 1039.66 404.93 C 1041.4 391.683 1043.93 378.834 1048.95 366.393 C 1059.46 339.749 1080.33 318.503 1106.78 307.506 C 1122 301.378 1138.14 297.869 1154.53 297.128 C 1211.43 294.386 1312.14 319.862 1365.12 341.899 C 1380.36 334.171 1402.19 320.575 1417.51 311.727 L 1499.88 265.22 C 1511.46 258.691 1523.91 249.709 1536.22 245.108 C 1541.51 243.131 1547.74 244.569 1553.23 245.569 C 1576.85 231.557 1600.39 217.175 1624.02 203.163 C 1651.32 186.972 1667.77 171.125 1700.46 168.392 z" fill="currentColor" transform="translate(0,0)"></path>
<path d="M 607.772 778.413 L 617.78 777.738 C 625.981 800.478 634.069 823.276 643.11 845.696 C 650.127 863.094 659.135 880.711 665.42 898.267 C 644.373 910.688 624.18 920.283 603.361 934.638 C 544.286 975.374 482.212 1033.95 445.319 1095.56 C 413.237 1149.14 390.918 1220.55 406.753 1281.95 C 427.387 1361.96 511.185 1403.14 586.3 1419.45 C 682.075 1440.25 793.105 1437.71 891.149 1438.51 C 1113.57 1440.31 1340.02 1430.47 1557.04 1488.61 C 1604.83 1501.42 1701.9 1525.58 1719.01 1580.49 C 1721.63 1588.91 1719.26 1603.94 1713.78 1610.9 C 1672.97 1662.66 1581.96 1680.25 1522.52 1694.79 C 1531.44 1614.99 1546.72 1632.79 1481.29 1579.8 C 1476.87 1575.72 1474.64 1576.16 1469 1576.72 C 1395.8 1584.02 1322.47 1590.29 1249.24 1597.19 C 1228.92 1599.18 1208.6 1601.03 1188.26 1602.72 C 1174.85 1603.81 1160.72 1604.1 1147.5 1606.54 C 1127.75 1610.19 1111.88 1631.18 1091.34 1636.03 C 1065.23 1642.2 953.39 1655.51 936.707 1664.73 C 916.557 1675.87 916.455 1705.26 910.263 1724.89 C 859.385 1723.78 808.527 1716.87 757.964 1712.5 C 488.54 1689.21 160.451 1575.02 133.741 1258.47 C 123.799 1148.17 158.12 1038.44 229.142 953.464 C 326.439 838.659 461.508 790.655 607.772 778.413 z" fill="none" transform="translate(0,0)"></path>
<path d="M 1154.9 325.406 C 1176.64 324.18 1224.62 332.808 1246.68 336.779 C 1288.63 344.334 1363.2 363.782 1396.56 390.943 C 1416.26 406.981 1458.75 468.069 1474.49 491.332 C 1516.5 553.272 1557.27 616.051 1596.75 679.631 C 1613.1 706.126 1674.48 803.76 1669.19 831.202 C 1659.61 842.998 1531.52 915.311 1510.4 927.679 L 1336.18 1030.38 L 1183.07 1120.79 C 1154.19 1137.91 1117.19 1161.11 1087.95 1175.92 C 1081.77 1163.63 1074.33 1144.34 1068.68 1130.98 L 1037.45 1058.36 C 1011.25 998.099 984.614 938.03 957.556 878.152 C 935.409 828.154 907.136 758.657 873 717.972 C 899.237 701.413 929.092 684.548 956.106 669.113 C 976.525 656.773 997.249 645.477 1017.74 633.349 C 1096.4 587.173 1174.67 540.328 1252.53 492.818 C 1289.31 470.211 1342.79 440.515 1374.64 412.267 C 1356.47 418.702 1337.03 429.459 1319.94 438.688 C 1294.32 452.723 1268.78 466.919 1243.34 481.275 C 1144.54 536.511 1047.41 593.687 948.194 648.33 C 931.349 657.444 914.663 666.85 898.145 676.545 C 885.279 684.088 868.599 694.481 855.332 700.684 C 819.567 672.829 793.691 667.345 751.417 653.831 C 784.192 634.462 818.917 616.273 852.041 597.212 L 1012.78 505.329 C 1032.24 494.174 1051.48 482.185 1070.98 471.228 L 1178.32 409.744 C 1196.01 399.707 1222.61 386.273 1238.84 375.607 C 1219.86 366.378 1174.14 353.473 1153.5 353.331 C 1136.51 353.213 1090.1 380.3 1072.76 388.835 C 1084.91 346.86 1112.5 329.116 1154.9 325.406 z" fill="none" transform="translate(0,0)"></path>
<path d="M 1434.53 466.761 C 1436.44 468.766 1436.9 479.147 1437.02 482.37 C 1440.83 581.957 1486.2 672.261 1544.02 751.273 C 1551.16 761.026 1558.38 771.542 1563.9 782.428 L 1554.99 777.149 C 1481.9 722.679 1425.77 621.586 1423.14 529.169 C 1422.66 512.345 1427.1 481.918 1434.53 466.761 z" fill="currentColor" transform="translate(0,0)"></path>
<path d="M 645.454 668.061 C 656.453 666.578 677.769 674.706 688.976 678.249 C 708.916 684.438 728.802 690.796 748.633 697.323 C 767.386 703.347 786.471 708.656 805.207 715.628 C 834.807 726.642 852.372 755.291 865.837 782.168 C 875.143 800.745 883.488 819.241 891.965 838.174 L 947.847 965.595 C 964.261 1002.42 980.17 1039.06 997.036 1075.77 C 1019.58 1124.83 1042.5 1174.22 1059.13 1225.7 C 1064.5 1242.35 1065.23 1258.19 1062.98 1275.44 C 1016.48 1273.84 978.911 1251.55 937.431 1233.12 C 920.163 1225.44 883.18 1211.71 869.821 1201.56 C 799.72 1148.3 766.282 1066.51 731.283 988.78 C 724.358 973.459 715.501 950.82 707.938 938.465 C 710.923 932.487 713.952 927.598 712.645 920.85 C 711.651 919.596 711.016 918.261 709.629 918.095 C 695.717 919.078 669.156 935.287 657.516 942.302 C 563.996 998.664 469.271 1086.36 442.834 1195.98 C 397.776 1386.45 646.338 1401.78 773.502 1403.89 C 829.37 1404.82 884.142 1404.88 939.864 1404.67 C 1020.76 1404.33 1101.66 1405.26 1182.52 1407.45 C 1306.99 1411.76 1444.26 1422.88 1565.25 1453.17 C 1627.18 1467.79 1743.59 1502.27 1754.77 1576.46 C 1770.6 1681.42 1590.92 1719.09 1515.59 1733.73 C 1516.58 1728.87 1517.36 1723.63 1518.2 1718.71 C 1578.52 1708.68 1787.66 1659.89 1733.58 1557.72 C 1709.06 1511.39 1633.83 1486.87 1584.59 1472.59 C 1416.53 1423.84 1238.54 1418.2 1064.5 1416.95 C 1005.9 1416.21 947.305 1415.85 888.706 1415.89 C 738.644 1415.74 358.689 1440.85 430.464 1178.71 C 462.827 1060.51 585.291 957.568 691.578 907.19 C 698.678 903.825 697.119 900.643 694.165 894.1 C 676.522 854.136 660.289 813.565 645.493 772.462 C 634.74 742.896 608.739 688.383 645.454 668.061 z" fill="none" transform="translate(0,0)"></path>
<path d="M 720.081 776.282 C 727.59 776.184 735.077 777.108 742.336 779.028 C 756.957 782.842 766.486 789.177 774.257 802.311 C 786.479 802.778 794.034 804.586 805.575 808.217 C 828.375 815.39 838.912 822.722 849.594 844.571 C 858.77 863.34 866.762 882.454 875.019 901.645 C 887.978 931.14 900.742 960.721 913.308 990.385 C 928.961 1026.48 946.817 1062.54 960.214 1099.46 C 962.372 1105.59 964.822 1115.63 962.385 1121.72 C 954.505 1141.4 918.062 1117.85 911.701 1107.14 C 906.377 1098.17 902.201 1084.6 898.2 1074.6 C 894.12 1064.41 889.76 1054.14 885.557 1044.01 C 863.765 991.524 841.576 939.207 818.994 887.06 C 810.503 868.3 793.867 842.064 808.284 823.539 C 798.957 820.194 791.686 817.726 782.072 815.058 C 785.769 827.963 793.254 846.165 798.285 859.023 C 813.357 897.548 830.207 935.826 846.643 973.785 C 856.977 997.651 872.752 1031.96 878.944 1057.21 C 878.613 1057.89 878.273 1058.56 877.925 1059.23 C 872.616 1069.3 870.385 1065.68 862.322 1068.13 C 861.548 1069.93 860.754 1071.72 859.941 1073.5 C 858.116 1077.48 854.385 1084.18 849.701 1084.4 C 818.229 1085.87 807.538 1048.43 799.294 1028.22 L 771.977 961.642 L 730.387 860.339 C 722.762 842.013 713.535 823.989 707.807 805.011 C 704.09 792.699 705.999 779.597 720.081 776.282 z" fill="currentColor" transform="translate(0,0)"></path>
<path d="M 825.685 838.96 C 830.102 838.77 837.055 838.877 839.603 842.592 C 852.274 861.069 863.806 891.801 872.532 912.15 L 905.79 988.934 C 921.367 1025.31 938.091 1061.38 952.653 1098.23 C 954.099 1101.88 956.581 1108.95 956.191 1112.78 C 955.903 1115.6 954.349 1115.91 952.37 1117.05 C 943.884 1114.42 934.189 1110.2 927.986 1103.67 C 920.518 1095.82 861.751 952.33 853.676 933.611 C 843.493 910.003 831.93 886.888 822.335 863.041 C 820.798 859.22 818.868 855.14 819.113 850.935 C 819.422 845.632 821.886 842.416 825.685 838.96 z" fill="none" transform="translate(0,0)"></path>
<path d="M 726.445 798.422 C 729.767 799.464 733.346 801.724 734.993 804.86 C 742.891 819.897 748.992 836.077 755.715 851.674 L 798.838 953.632 L 836.368 1042.45 C 838.912 1048.46 849.804 1066.68 847.532 1071.31 L 844.133 1071.52 C 839.137 1069.41 834.052 1066.31 829.796 1062.93 C 825.233 1059.3 822.11 1055.52 819.478 1050.34 C 810.32 1032.31 718.57 814.489 718.508 811.684 C 718.382 806.004 722.71 802.076 726.445 798.422 z" fill="none" transform="translate(0,0)"></path>
<path d="M 743.066 792.784 C 755.199 792.832 757.678 796.505 762.135 807.361 C 775.842 840.751 787.939 874.798 802.072 908.02 C 815.643 939.529 828.949 971.151 841.988 1002.88 C 848.013 1017.17 859.346 1041.68 863.775 1055.73 C 862.046 1055.35 860.13 1054.93 859.213 1053.32 C 850.557 1038.15 843.108 1018.15 836.392 1002.17 C 820.414 964.282 804.243 926.472 787.877 888.745 C 777.062 863.17 758.385 812.442 743.066 792.784 z" fill="none" transform="translate(0,0)"></path>
<path d="M 1421.54 1609.49 L 1422.6 1609.24 L 1423.97 1610.12 C 1428.61 1644.05 1422.94 1689.39 1417.06 1722.83 C 1415.23 1733.25 1411.56 1748.15 1410.87 1758.01 C 1409.22 1781.59 1426.66 1802.98 1443.53 1817.38 C 1450.44 1823.27 1460.44 1830.19 1466.13 1836.69 L 1465.25 1837.48 C 1454.75 1839.25 1439.21 1839.24 1427.88 1840.17 C 1389.38 1843.49 1350.82 1846.17 1312.23 1848.21 L 1221.02 1853.69 C 1203.73 1854.71 1185.08 1856.36 1167.88 1855.87 C 1159.32 1855.62 1146.06 1848.95 1137.7 1845.31 C 1117.24 1836.14 1082.5 1819.51 1064.13 1807.22 C 1065.9 1793.38 1071.53 1771.05 1074.81 1756.7 L 1096.52 1663.98 C 1122.58 1656.19 1137.2 1640.86 1157.22 1633.92 C 1163.55 1631.73 1209.16 1628.77 1219.58 1627.71 C 1286.87 1621.29 1354.19 1615.21 1421.54 1609.49 z" fill="none" transform="translate(0,0)"></path>
<path d="M 1376.15 1753.5 C 1384.35 1752.83 1391.3 1752.77 1399.55 1752.73 C 1401.88 1789.55 1413.38 1801.72 1439.76 1826.59 C 1413.75 1829.53 1385.25 1831.05 1358.99 1832.9 L 1168.76 1845.24 L 1152.48 1847.5 C 1123.99 1836.91 1107.71 1798.08 1105.8 1769.69 C 1131.78 1766.41 1175.86 1765.4 1203.5 1763.92 C 1261.08 1760.94 1318.63 1757.47 1376.15 1753.5 z" fill="currentColor" transform="translate(0,0)"></path>
<path d="M 599.054 745.421 C 602.16 745.062 603.838 744.547 606.712 745.755 C 609.736 748.682 610.26 752.994 611.401 757.275 C 510.531 757.989 391.637 794.936 307.76 850.911 C 208.264 917.73 139.107 1021.06 115.275 1138.52 C 93.2734 1252.46 117.325 1370.48 182.161 1466.72 C 307.749 1653.57 539.324 1711.94 749.869 1736.24 C 783.421 1740.01 817.06 1742.97 850.756 1745.11 C 861.783 1745.76 895.229 1746.27 903.834 1747.95 C 905.216 1750.48 904.144 1753.69 903.63 1756.79 L 902.678 1758.5 C 894.12 1760.5 871.063 1758.08 861.601 1757.48 C 835.084 1755.96 808.598 1753.93 782.16 1751.38 C 574.664 1731.55 337.56 1677.59 199.197 1508.35 C 139.914 1434.94 104.428 1345.2 97.4725 1251.1 C 88.6435 1126.42 131.339 1011.61 213.325 918.301 C 290.915 829.992 408.882 775.066 523.193 754.025 C 548.512 749.364 573.478 747.197 599.054 745.421 z" fill="none" transform="translate(0,0)"></path>
<path d="M 1662.03 882.959 L 1662.83 884.377 C 1646.45 905.98 1615.18 930.414 1592.29 946.193 C 1551.21 974.507 1509.27 1002.12 1467.63 1029.6 C 1373.37 1092.1 1278.29 1153.36 1182.41 1213.34 C 1172.97 1219.32 1116.15 1257.98 1110.36 1257.61 C 1109.78 1246.83 1107.82 1237.31 1105.85 1226.76 C 1278.05 1123 1445.93 1012.04 1619.11 909.77 C 1633.41 901.323 1648.61 892.681 1662.03 882.959 z" fill="none" transform="translate(0,0)"></path>
<path d="M 672.91 645.159 C 692.259 648.356 726.776 660.427 746.493 666.115 C 768.476 673.802 794.304 678.999 815.343 688.711 C 871.558 714.661 898.485 789.181 922.134 841.04 C 948.123 898.771 973.795 956.645 999.148 1014.66 C 1018.97 1059.28 1038.56 1104 1057.93 1148.82 C 1068.45 1173.24 1079.84 1198.93 1088.53 1224.03 C 1092.87 1236.56 1093.06 1252.72 1093.44 1265.96 C 1089.39 1267.93 1080.32 1273.28 1076.35 1271.59 L 1076.71 1268.77 C 1077.48 1252.32 1075.05 1235.89 1069.55 1220.38 C 1063.58 1203.29 1051.51 1179.06 1044.1 1161.29 C 1014.42 1091.89 983.939 1022.82 952.672 954.116 C 930.035 903.656 909.669 852.17 886.063 802.743 C 862.727 748.983 839.844 709.146 778.936 693.971 C 738.357 683.861 690.17 660.063 648.033 655.201 C 656.933 650.494 663.286 647.781 672.91 645.159 z" fill="none" transform="translate(0,0)"></path>
<path d="M 1917.26 448.296 C 1920.88 447.864 1926.67 447.985 1929.83 449.449 C 1960.53 463.681 1946.05 500.85 1926.96 516.845 C 1900.93 538.627 1869.17 554.268 1840.35 572.196 C 1834.14 576.056 1812.44 590.533 1807.22 592.536 L 1806.24 590.943 L 1806.09 589.237 C 1803.52 561.283 1790.84 550.237 1770.58 533.332 C 1778.14 529.438 1788.78 521.877 1796.42 517.277 C 1811.98 507.891 1827.38 498.011 1842.72 488.274 C 1867.54 472.523 1887.38 452.741 1917.26 448.296 z" fill="none" transform="translate(0,0)"></path>
<path d="M 1934.27 474.886 L 1935.9 475.962 C 1936.95 495.51 1914.57 511.083 1899.5 519.86 C 1887.88 526.62 1855.97 548.793 1843.75 547.754 C 1842.87 546.593 1841.96 545.426 1841.15 544.213 C 1840.02 542.535 1838.95 540.219 1839.54 538.162 C 1842.52 527.712 1920.59 482.421 1934.27 474.886 z" fill="currentColor" transform="translate(0,0)"></path>
<path d="M 1693.27 191.149 C 1707.11 189.938 1720.48 191.203 1726.66 205.481 C 1739.53 234.818 1705.18 264.403 1682.37 276.807 C 1658.81 289.622 1634.53 304.921 1610.18 316.125 C 1606.4 290.262 1592.7 270.746 1570.51 256.953 C 1602.88 238.509 1635.96 221.555 1667.52 201.552 C 1675.22 196.676 1684.42 193.238 1693.27 191.149 z" fill="none" transform="translate(0,0)"></path>
<path d="M 1716.05 216.889 C 1732.79 235.749 1658.99 277.199 1643.66 277.376 C 1640.69 273.763 1639.16 272.259 1640.32 267.342 C 1646.89 257.292 1701.84 225.438 1716.05 216.889 z" fill="currentColor" transform="translate(0,0)"></path>
<path d="M 1748.77 541.795 C 1757.89 544.432 1770.57 555.073 1775.7 563.161 C 1763.59 572.552 1735.26 588.544 1721.45 596.795 C 1688.91 615.982 1656.58 635.52 1624.46 655.404 C 1622.2 656.824 1622.14 656.746 1619.54 657.471 C 1613.65 654.97 1604.77 638.854 1600.71 632.453 C 1649.43 602.75 1699.94 570.65 1748.77 541.795 z" fill="none" transform="translate(0,0)"></path>
<path d="M 1549.23 267.988 C 1560.46 271.723 1571.27 278.114 1578.3 287.767 C 1526.54 318.935 1475.87 347.761 1423.74 378.068 L 1422.79 378.593 C 1419.86 378.261 1414.95 372.863 1412.63 370.584 C 1407.26 365.302 1402.63 362.112 1396.21 358.325 C 1400.07 355.862 1404.13 353.7 1408.14 351.493 C 1440.02 333.792 1471.1 314.649 1502.4 295.948 C 1517.83 286.735 1534.32 277.821 1549.23 267.988 z" fill="none" transform="translate(0,0)"></path>
<path d="M 1442.52 1763.93 C 1443.45 1752.81 1446.18 1736.2 1447.82 1724.79 C 1451.06 1702.32 1454.53 1677.01 1459.28 1654.85 C 1471.59 1667.74 1484.81 1682.21 1494.45 1657.29 L 1496.49 1659.38 C 1490.51 1696.58 1484.52 1733.61 1479.64 1770.99 C 1478.6 1778.97 1477.31 1787.09 1475.48 1794.93 C 1466.67 1787.93 1448.96 1772.41 1442.52 1763.93 z" fill="none" transform="translate(0,0)"></path>
<path d="M 1073.45 1667.35 C 1075.19 1667.04 1074.2 1667.04 1076.38 1667.75 C 1076.05 1672.18 1066.47 1711.37 1064.31 1719.38 C 1059.22 1738.22 1053.96 1769.84 1047.77 1786.9 C 1044.69 1788.29 1040.29 1788 1036.75 1788.05 L 1033.64 1787.62 C 1032.55 1784.74 1055.97 1683.72 1059.06 1669.44 L 1073.45 1667.35 z" fill="none" transform="translate(0,0)"></path>
<path d="M 985.496 1678.99 L 1003.03 1678.82 C 992.64 1714.68 986.745 1752.37 975.335 1788.77 L 959.551 1789.98 C 967.87 1753.56 977.688 1715.27 985.496 1678.99 z" fill="none" transform="translate(0,0)"></path>
<path d="M 1036.26 1672.4 C 1037.41 1672.62 1036.68 1672.36 1037.98 1673.98 C 1038 1680.38 1032.91 1700.77 1031.31 1707.87 C 1025.32 1734.53 1019.06 1761.13 1012.54 1787.67 C 1009.04 1787.56 1005.28 1787.73 1001.75 1787.8 C 999.654 1787.64 1000.62 1788.02 998.918 1786.55 C 999.34 1779.5 1003.15 1762.61 1004.69 1755.26 C 1010.58 1727.96 1016.9 1700.74 1023.62 1673.63 C 1027.59 1673.1 1032.22 1672.78 1036.26 1672.4 z" fill="none" transform="translate(0,0)"></path>
<path d="M 948.713 1687.3 L 962.99 1686.93 C 956.347 1721.19 947.035 1756.73 939.295 1791.02 C 934.067 1790.29 930.075 1786.55 926.296 1783.19 L 940.47 1720.55 C 942.355 1712.24 945.907 1694.45 948.713 1687.3 z" fill="none" transform="translate(0,0)"></path>
<path d="M 1786.88 592.007 C 1787.96 594.339 1787.75 596.812 1787.33 599.206 C 1777.49 607.135 1736.4 631.502 1723.73 638.945 C 1696.92 654.694 1664.61 676.883 1637.84 691.202 C 1635.88 688.391 1634.54 687.654 1635.36 684.543 C 1643.29 678.756 1655.48 671.812 1664.24 666.447 C 1683.28 654.693 1702.45 643.159 1721.76 631.846 C 1743.73 618.884 1764.88 604.677 1786.88 592.007 z" fill="none" transform="translate(0,0)"></path>
<path d="M 1589.65 317.885 C 1591.75 319.883 1591.01 319.015 1592.09 321.982 C 1590.33 327.808 1464.6 399.458 1450.04 407.473 C 1448.05 405.739 1448.04 405.863 1446.76 403.588 C 1448.57 399.99 1462.34 392.712 1466.77 390.1 L 1521.73 357.826 C 1540.95 346.607 1570.99 327.284 1589.65 317.885 z" fill="none" transform="translate(0,0)"></path>
<path d="M 1471.68 1616.39 C 1487.71 1617.96 1487.35 1644.66 1477.93 1655.16 C 1474.54 1656.32 1471.52 1654 1470.13 1650.94 C 1464.88 1639.38 1468.18 1627.86 1471.68 1616.39 z" fill="none" transform="translate(0,0)"></path>
<path d="M 1447.43 1598.41 L 1447.54 1599.1 C 1444.58 1604.41 1441.79 1609.74 1439.87 1615.52 L 1439.54 1616.54 L 1438.3 1616.91 L 1433.78 1611.57 L 1429.49 1607.94 C 1428.48 1604.13 1428.32 1605.86 1429.23 1602.55 C 1432.66 1600.32 1442.55 1599.3 1447.43 1598.41 z" fill="none" transform="translate(0,0)"></path>
<path d="M 1494.45 1657.29 C 1495.75 1651.02 1497.11 1635.04 1498.02 1632.43 C 1501.1 1637.96 1497.58 1652.16 1496.49 1659.38 L 1494.45 1657.29 z" fill="currentColor" transform="translate(0,0)"></path>
</svg>