<svg xmlns="http://www.w3.org/2000/svg" preserveAspectRatio="none" style="display: block;" version="1.1" viewBox="0 0 2048 2048">
<path d="M 1595.24 153.407 C 1600.5 152.887 1606.33 151.703 1610.61 155.679 C 1616.2 160.868 1615.91 223.857 1616.3 235.961 C 1637.91 236.127 1659.51 237.011 1681.22 237.423 C 1689.17 237.573 1705.85 237.241 1712.44 242.736 C 1715.17 245.01 1715.3 256.2 1715.18 260.369 C 1713.53 319.612 1711.68 381.089 1709.11 440.119 C 1704.54 553.131 1697.39 666.024 1687.67 778.709 C 1674.95 917.983 1659.06 1056.95 1640 1195.5 C 1618.73 1350.86 1595.06 1508.63 1579.71 1664.55 C 1574.94 1712.79 1570.66 1761.07 1566.89 1809.39 C 1566.06 1820.52 1563.87 1885.47 1558.49 1890.78 C 1547.07 1894.36 1470.62 1890.61 1454.44 1889.91 C 1157.73 1874.43 862.638 1836.26 571.749 1775.75 C 512.559 1763.31 452.829 1753.6 392.749 1746.65 C 383.104 1745.53 346.772 1744.24 340.411 1739.06 C 335.746 1735.26 335.603 1729.72 335.205 1724.1 C 334.449 1713.42 335.555 1702.32 336.161 1691.64 C 337.643 1666.83 339.638 1642.05 342.146 1617.31 C 351.62 1514.77 365.546 1416.2 378.199 1314.32 C 398.999 1156.23 417.567 997.85 433.898 839.233 C 451.699 670.583 466.917 501.332 464.912 331.587 C 464.766 319.242 459.142 247.964 464.275 242.466 C 466.996 239.551 471.03 238.051 474.82 237.152 C 487.857 234.059 521.586 234.547 536.755 233.933 C 535.438 198.129 530.861 199.382 571.739 199.788 C 575.901 199.829 581.031 199.667 585.317 199.612 C 922.453 198.22 1259.38 182.805 1595.24 153.407 z" fill="currentColor" transform="translate(0,0)"></path>
<path d="M 1582.98 173.416 C 1586.03 173.001 1591.6 173.008 1594.87 172.907 C 1595.93 227.846 1598.29 282.798 1599 338.01 C 1599.35 400.235 1598.68 462.461 1597 524.664 C 1584.34 932.754 1530.67 1338.54 1436.81 1735.89 L 1239.9 1708.23 C 1004.64 1676.23 768.966 1647.39 532.935 1621.72 C 493.562 1616.87 447.2 1613.37 407.325 1609.95 C 413.584 1587.51 417.578 1562.98 422.19 1539.99 C 498.279 1160.74 560.419 778.585 560.013 390.591 C 559.63 333.386 557.943 276.197 554.952 219.068 C 592.732 217.938 632.697 218.533 670.863 217.931 L 957.666 211.456 C 1166.39 203.933 1374.89 191.249 1582.98 173.416 z" fill="none" transform="translate(0,0)"></path>
<path d="M 993.164 387.209 C 1023.25 384.446 1028.81 403.931 1054.33 412.976 C 1062.67 411.112 1076.53 407.384 1084.05 408.082 C 1125.13 411.89 1113.24 439.728 1128.36 460.402 C 1132.77 466.441 1157.78 474.936 1166.5 485.737 C 1188.09 512.457 1161.19 529.466 1164.65 553.372 C 1166.5 566.091 1181.66 580.431 1179.69 598.379 C 1177.7 616.48 1162.86 625.112 1149.67 636.316 C 1154.91 650.117 1164.2 666.88 1171.06 680.464 C 1183.97 706.331 1197.07 732.103 1210.36 757.779 C 1217.13 771.021 1223.96 784.371 1229.95 797.977 C 1232.2 803.086 1232.32 812.648 1224.86 812.819 C 1216.63 813.009 1207.2 809.877 1199 809.068 C 1181.24 806.709 1156.8 808.061 1140.59 815.736 C 1134.53 820.63 1128.37 832.13 1126.07 839.368 C 1118.99 861.716 1106.94 874.58 1097.48 844.126 C 1096.29 840.301 1093.52 833.304 1091.78 829.336 L 1041.02 712.916 C 1036.18 716.127 1031.3 719.272 1026.37 722.35 C 1019.7 725.642 1010.63 727.692 1003.28 729.647 C 996.701 741.256 990.27 754.825 983.844 766.789 C 967.29 797.103 950.984 827.552 934.928 858.133 C 932.032 863.611 928.361 871.625 921.838 873.248 C 918.168 874.161 915.107 871.57 913.051 868.809 C 909.748 864.369 907.962 858.253 905.786 853.182 C 900.288 840.368 893.124 827.967 882.685 818.532 C 852.164 790.946 816.63 808.909 804.787 801.628 C 802.851 800.438 801.464 798.133 801.177 795.871 C 799.751 784.65 878.6 681.449 891.793 664.621 C 881.537 633.891 864.303 646.422 849.208 623.898 C 836.994 605.673 853.002 583.861 857.145 566.71 L 857.467 565.326 C 855.202 554.768 851.665 551.044 847.592 542.349 C 829.087 502.85 861.391 501.407 881.302 481.207 C 886.959 475.467 888.025 453.836 891.453 444.297 C 903.976 409.442 936.094 428.612 957.01 418.749 C 968.696 413.238 974.642 396.289 993.164 387.209 z" fill="currentColor" transform="translate(0,0)"></path>
<path d="M 996.658 404.934 C 1014.32 403.622 1030.68 425.364 1047.36 430.234 C 1057.2 433.107 1075.76 425.545 1086.27 426.124 C 1104.48 427.127 1099.98 454.127 1108.51 466.606 C 1118.81 481.674 1141.22 486.628 1151.43 498.105 C 1163.33 511.478 1141.41 533.607 1145.49 554.265 C 1147.35 567.608 1159.36 582.871 1158.14 596.285 C 1157.21 606.67 1146.07 614.015 1138.16 620.104 C 1127.1 628.616 1119.15 634.793 1113.75 648.499 C 1110.52 656.713 1106.79 676.582 1099.16 680.387 C 1085.56 687.174 1066.68 678.863 1052.33 684.678 C 1040.49 689.281 1031.24 697.323 1021.14 704.826 C 992.2 723.384 991.313 689.295 966.112 684.65 C 952.1 682.068 935.785 688.58 923.48 683.399 C 913.475 679.186 911.905 652.976 905.654 644.567 C 894.973 626.662 869.775 626.293 864.564 611.736 C 860.241 599.66 878.68 577.351 875.136 560.469 C 872.108 546.045 865.141 540.135 860.688 526.666 C 868.045 500.542 893.175 507.221 902.79 479.264 C 906.564 468.29 906.305 447.556 915.11 442.655 C 929.272 434.773 951.864 445.444 967.136 434.466 C 978.168 426.536 985.278 415.243 995.552 405.926 L 996.658 404.934 z" fill="none" transform="translate(0,0)"></path>
<path d="M 996.388 439.286 C 1061.72 430.727 1121.52 477.027 1129.6 542.423 C 1137.67 607.819 1090.93 667.274 1025.47 674.863 C 960.703 682.373 902.003 636.224 894.013 571.511 C 886.022 506.797 931.735 447.756 996.388 439.286 z" fill="currentColor" transform="translate(0,0)"></path>
<path d="M 926.657 520.768 C 926.784 524.145 925.599 534.235 925.055 538.014 C 918.455 583.862 945.426 627.095 987.483 645.014 C 989.905 646.047 1005.31 651.568 1005.95 652.511 L 1001.08 652.294 C 986.999 649.614 975.444 646.338 962.918 639.07 C 922.39 615.555 901.788 562.925 926.657 520.768 z" fill="none" transform="translate(0,0)"></path>
<path d="M 975.741 716.411 C 978.56 717.813 980.059 719.444 981.087 722.171 C 976.964 733.336 961.339 762.622 955.587 773.313 L 921.596 836.593 C 917.686 833.905 917.058 830.195 915.517 825.673 C 935.09 797.435 959.718 747.6 975.741 716.411 z" fill="none" transform="translate(0,0)"></path>
<path d="M 1132.64 655.697 C 1138.84 660.255 1163.29 714.604 1169.37 726.611 C 1178.74 745.135 1192.12 770.081 1200.48 789.123 C 1195.96 789.026 1191.98 788.341 1187.52 787.705 C 1170.17 746.965 1147.32 696.4 1132.64 655.697 z" fill="none" transform="translate(0,0)"></path>
<path d="M 1120.93 687.944 C 1123.07 690.476 1157.52 775.36 1162.56 786.364 C 1160.85 788.921 1160.43 788.315 1156.71 789.527 C 1154.7 786.458 1152.69 780.941 1151.12 777.401 C 1138.96 749.995 1127.84 722.011 1113.82 695.481 L 1115.16 694.534 C 1118.94 691.905 1118.8 692.127 1120.93 687.944 z" fill="none" transform="translate(0,0)"></path>
<path d="M 955.98 704.474 C 957.844 705.262 956.962 704.653 958.462 706.519 C 957.206 710.822 953.497 716.172 951.056 720.088 C 933.415 748.386 917.669 777.653 901.733 806.933 C 899.214 804.936 898.444 804.649 896.874 801.838 C 898.771 796.81 911.684 776.036 915.198 770.372 C 928.452 749.012 941.771 725.03 955.98 704.474 z" fill="none" transform="translate(0,0)"></path>
<path d="M 923.333 703.571 C 926.283 704.424 926.381 704.232 928.683 706.16 C 928.553 708 881.543 782.056 875.818 791.342 C 872.228 789.788 873.207 791.007 871.55 788.327 C 881.993 771.712 892.293 755.008 902.448 738.215 C 908.699 727.675 916.299 713.089 923.333 703.571 z" fill="none" transform="translate(0,0)"></path>
<path d="M 1088.96 702.62 C 1096.75 706.733 1128.74 781.58 1135.05 794.546 C 1134.74 795.657 1134.44 796.769 1134.13 797.88 C 1131.79 798.733 1132.99 798.605 1130.53 798.271 C 1127.24 792.289 1121.88 777.696 1118.78 770.636 C 1108.67 748.042 1098.73 725.369 1088.96 702.62 z" fill="none" transform="translate(0,0)"></path>
<path d="M 1059.7 700.606 C 1067.32 705.031 1107.34 802.049 1115.01 816.043 C 1114.87 817.217 1114.73 818.39 1114.58 819.563 C 1112.93 819.756 1113.89 819.757 1111.7 819.279 C 1102.53 797.138 1093 775.15 1083.11 753.323 C 1076.82 739.702 1063.73 713.78 1059.7 700.606 z" fill="none" transform="translate(0,0)"></path>
<path d="M 898.761 695.842 C 898.963 700.322 851.879 771.602 846.569 781.564 C 845.487 783.592 839.82 783.03 837.437 783.088 C 837.993 777.35 861.916 751.515 866.701 744.209 C 877.14 728.273 887.961 711.556 898.761 695.842 z" fill="none" transform="translate(0,0)"></path>
<path d="M 567.643 1179.13 C 568.554 1179.09 569.465 1179.05 570.377 1179.03 C 588.919 1178.51 622.049 1182.9 641.841 1184.7 C 698.775 1189.84 755.637 1195.74 812.411 1202.41 C 953.767 1219.31 1095.28 1234.82 1236.94 1248.95 C 1300.88 1254.8 1364.94 1260.71 1429.14 1262.9 C 1437.17 1263.23 1449 1263.17 1454.94 1269.45 C 1459.33 1274.1 1453.25 1280.95 1449.54 1283.79 C 1447.64 1283.86 1445.73 1283.89 1443.82 1283.9 C 1427.97 1283.89 1406.6 1282.15 1390.44 1281.29 C 1340.16 1278.66 1289.96 1274.71 1239.89 1269.43 C 1128.49 1258.59 1017.23 1246.44 906.122 1232.98 L 669.04 1206.95 C 646.691 1204.54 624.324 1202.3 601.941 1200.24 C 591.07 1199.21 569.093 1200.01 561.402 1192.31 C 559.127 1186.26 562.842 1182.59 567.643 1179.13 z" fill="currentColor" transform="translate(0,0)"></path>
<path d="M 578.423 939.061 C 591.683 938.545 636.439 944.116 651.497 945.691 C 702.119 950.829 752.705 956.313 803.252 962.144 C 968.987 980.936 1138.97 1001.78 1304.93 1016.12 C 1338.57 1018.81 1372.23 1021.26 1405.9 1023.49 C 1415.85 1024.18 1478.9 1021.82 1452.57 1045.06 C 1446.01 1045.59 1435.83 1045.07 1429.03 1044.74 C 1354.41 1040.54 1279.92 1034.43 1205.62 1026.43 L 898.143 992.914 L 688.726 969.661 C 654.737 966.01 620.424 962.086 586.328 959.075 C 573.433 957.936 565.961 949.488 578.423 939.061 z" fill="currentColor" transform="translate(0,0)"></path>
<path d="M 571.316 1063.12 C 587.055 1061.87 620.014 1064.9 636.418 1066.25 C 675.851 1069.57 715.248 1073.32 754.6 1077.5 L 1143.01 1119.81 C 1212.3 1126.96 1281.66 1133.48 1351.07 1139.35 C 1375.33 1141.14 1399.59 1142.8 1423.87 1144.32 C 1434.12 1144.97 1444.37 1145.3 1454.63 1145.96 C 1466.47 1146.72 1472.24 1158.16 1461.51 1165.33 C 1451.53 1166.44 1436.18 1165.11 1425.89 1164.5 C 1402.04 1162.98 1378.21 1161.13 1354.41 1158.96 C 1286.73 1153.6 1219.11 1147.36 1151.59 1140.25 L 717.74 1093.21 C 687.526 1090 657.259 1087.31 626.952 1085.14 C 612.068 1084.05 597.075 1083.32 582.194 1082.17 C 569.719 1081.21 557.93 1075.02 571.316 1063.12 z" fill="currentColor" transform="translate(0,0)"></path>
<path d="M 562.755 1298.05 C 573.967 1296.67 630.629 1303.15 646.024 1304.72 C 718.064 1311.78 790.005 1319.83 861.826 1328.85 L 1101.39 1356.41 C 1211.2 1368.95 1321.3 1381.8 1431.81 1386.07 C 1447.94 1386.69 1453.96 1398.32 1440.6 1406.47 C 1428.25 1406.66 1413.98 1405.7 1401.6 1404.98 C 1359.35 1402.15 1317.14 1398.67 1275 1394.54 C 1129.1 1380.2 983.414 1363.73 837.992 1345.14 C 776.521 1338.21 715.013 1331.63 653.471 1325.37 L 603.07 1320.43 C 592.465 1319.48 581.763 1319.05 571.212 1317.55 C 558.507 1315.73 547.56 1307.84 562.755 1298.05 z" fill="currentColor" transform="translate(0,0)"></path>
<path d="M 567.487 1217.36 C 627.961 1219.66 686.952 1227.97 746.998 1234.13 C 946.102 1254.54 1146.02 1283.23 1345.63 1297.69 L 1407.87 1301.74 C 1414.8 1302.15 1436.86 1300.32 1439.33 1308.98 C 1441.39 1316.2 1436.75 1321 1429.82 1323.06 C 1406.43 1322.4 1377.8 1319.79 1354.29 1318.09 C 1283.36 1312.68 1212.52 1305.97 1141.83 1297.98 L 724.55 1250.92 C 691.232 1247.26 657.882 1243.89 624.502 1240.83 C 608.922 1239.42 560.855 1240.48 555.081 1227.48 C 555.55 1220.45 561.173 1218.38 567.487 1217.36 z" fill="currentColor" transform="translate(0,0)"></path>
<path d="M 566.248 1100.13 C 577.92 1098.88 613.775 1102.9 627.442 1104.11 C 672.85 1107.81 718.206 1112.12 763.498 1117.03 C 937.624 1136.4 1111.89 1154.46 1286.29 1171.21 L 1378.14 1179.05 C 1391.27 1180.13 1404.74 1180.73 1417.83 1182.02 C 1430.16 1183.22 1438.96 1190.22 1426.84 1201.1 C 1409.56 1201.72 1385.74 1199.43 1368.09 1198.09 C 1334.13 1195.59 1300.2 1192.6 1266.32 1189.1 L 1018 1164.05 L 725.994 1132.77 L 620.781 1123.04 C 607.643 1121.89 569.101 1121.36 560.679 1113.96 C 558.006 1107.63 561.288 1104.05 566.248 1100.13 z" fill="currentColor" transform="translate(0,0)"></path>
<path d="M 556.012 1335.09 C 574.085 1334.97 617.822 1340.18 636.895 1342.14 L 797.382 1359.61 C 1000.68 1382.08 1203.35 1410.5 1407.49 1424.92 C 1422.03 1425.95 1425.24 1439.31 1413.48 1445.06 C 1390.06 1444.91 1362.25 1441.79 1338.77 1439.61 C 1303.77 1436.52 1268.78 1433.23 1233.81 1429.74 C 1082.96 1413.39 932.254 1395.8 781.699 1376.95 C 731.796 1371.18 681.836 1365.91 631.828 1361.13 L 573.846 1356.1 C 564.773 1355.3 542.926 1357.15 548.231 1340.59 C 550.634 1337.35 552.255 1336.96 556.012 1335.09 z" fill="currentColor" transform="translate(0,0)"></path>
<path d="M 573.716 978.032 C 587.054 977.791 609.874 980.4 623.624 981.727 L 703.955 989.693 L 1006.19 1022.82 C 1104.69 1033.7 1203.28 1043.72 1301.96 1052.87 L 1395.63 1060.39 C 1405.48 1061.14 1415.26 1061.67 1425.13 1061.94 C 1437.19 1062.27 1441.84 1076.2 1430.49 1082.05 C 1412.24 1081.53 1390.11 1079.47 1371.74 1078.19 C 1320.22 1074.67 1268.78 1070.19 1217.43 1064.75 C 1074.17 1050.08 930.992 1034.55 787.914 1018.17 C 723.088 1011.4 658.265 1004.11 593.3 998.84 C 586.906 998.321 569.983 999.452 567.291 991.448 C 564.982 984.581 567.73 981.222 573.716 978.032 z" fill="currentColor" transform="translate(0,0)"></path>
<path d="M 1088.51 1530.13 C 1096.93 1529.98 1110.4 1531.35 1119.27 1531.97 L 1179.17 1536.27 C 1211.23 1538.45 1243.26 1541.18 1275.23 1544.45 C 1290.1 1545.94 1304.87 1547.32 1319.67 1549.4 C 1331.57 1551.08 1335.23 1560.3 1324.62 1567.59 C 1314.45 1567.33 1299.92 1565.52 1289.36 1564.52 L 1221.83 1558.14 C 1179.44 1554.3 1136.88 1551.05 1094.45 1547.63 C 1090.95 1546.76 1087.12 1547.96 1084.72 1544.84 C 1080.26 1539.06 1083.59 1533.85 1088.51 1530.13 z" fill="currentColor" transform="translate(0,0)"></path>
<path d="M 529.719 271.468 L 534.094 271.387 C 539.836 274.964 538.295 290.239 538.521 297.475 C 539.089 316.231 539.536 334.99 539.861 353.752 C 540.715 412.164 539.83 470.588 537.206 528.946 C 529.277 743.194 506.829 956.658 470.016 1167.87 C 461.996 1216.18 454.74 1264.13 445.635 1312.43 L 406.685 1516.08 L 393.012 1584.5 C 390.875 1594.97 383.285 1618.1 388.439 1626.82 C 399.795 1629.72 432.707 1631.65 445.757 1632.75 C 479.701 1635.69 513.616 1638.95 547.499 1642.52 L 962.515 1691.44 C 1016.1 1698.18 1069.65 1705.21 1123.16 1712.53 C 1175.2 1719.37 1227.99 1725.81 1279.89 1733.33 L 1390.32 1749.68 C 1397.27 1750.7 1449.3 1760.85 1451.47 1753.7 C 1465.33 1708.04 1474.67 1660.03 1484.88 1613.34 C 1579.66 1172.85 1624 723.004 1617.05 272.484 C 1633.18 272.806 1652.2 273.178 1668.15 274.96 C 1668 306.23 1667.41 337.497 1666.38 368.751 C 1659.52 593.349 1642.59 817.526 1615.63 1040.61 C 1597.89 1192.56 1572.47 1345.62 1553.66 1497.58 C 1543.94 1579.81 1535.34 1662.18 1527.86 1744.64 C 1524.8 1782.45 1523.24 1820.51 1520.27 1858.35 C 1494.37 1856.46 1457.88 1850.44 1431.59 1846.93 L 1282.38 1827.37 C 1111.06 1804.97 939.928 1781.13 769.011 1755.84 C 640.535 1737 505.948 1713.93 377.083 1703.88 C 382.516 1607.88 394.21 1515.36 406.785 1420.04 L 436.401 1196.15 C 446.734 1116.38 456.221 1036.51 464.858 956.546 C 482.029 815.828 495.005 674.629 503.77 533.139 C 508.073 446.546 509.51 359.835 508.078 273.147 C 514.774 272.315 522.88 271.947 529.719 271.468 z" fill="none" transform="translate(0,0)"></path>
</svg>