<svg xmlns="http://www.w3.org/2000/svg" preserveAspectRatio="none" style="display: block;" version="1.1" viewBox="0 0 2048 2048">
<path d="M 1656.59 722.47 C 1701.71 721.748 1695.76 722.837 1727.68 754.111 C 1741.77 768.043 1756.15 781.684 1770.79 795.026 C 1843.53 861.788 1916.28 927.371 1985.53 997.889 C 1984.82 1037 1980.54 1075.71 1978.5 1114.56 C 1975.62 1169.78 1972.18 1223.07 1966.83 1278.1 L 1980.23 1279.05 L 1979.85 1295.85 C 1968.28 1295.45 1951.29 1296.69 1939.04 1296.94 L 1842.9 1298.62 L 1463.5 1304.61 L 399.819 1321.66 C 324.779 1321.97 249.416 1324.86 174.336 1325.27 C 146.032 1325.42 117.206 1327.11 88.9651 1326.83 C 76.7071 1313.79 78.7034 1298.03 77.6353 1280.9 L 74.2208 1226.64 L 61.1592 1024.75 C 135.159 961.839 208.122 896.027 281.645 832.443 C 306.467 810.977 332.069 790.58 356.175 768.358 C 365.639 759.633 378.253 749.074 386.065 739.165 L 1656.59 722.47 z" fill="currentColor" transform="translate(0,0)"></path>
<path d="M 1898.01 1023.47 C 1919.73 1023.03 1941.45 1022.81 1963.17 1022.82 C 1963.16 1040.65 1960.15 1070.05 1959.08 1089.16 C 1955.45 1151.67 1951.37 1214.16 1946.85 1276.61 L 149.328 1305.8 C 133.297 1306.02 117.268 1306.39 101.245 1306.92 C 97.125 1252.62 93.4436 1198.29 90.201 1143.92 C 88.2734 1113.1 85.3083 1080.77 84.3788 1050.11 C 110.731 1048.97 137.978 1049.15 164.468 1048.78 C 206.958 1047.88 249.453 1047.23 291.951 1046.83 L 644.339 1041.74 L 1898.01 1023.47 z" fill="none" transform="translate(0,0)"></path>
<path d="M 1604.62 744.492 L 1646.21 743.943 C 1702.19 799.148 1756.01 854.643 1810.97 910.527 C 1823.57 923.283 1836.25 935.95 1849.02 948.526 C 1854.29 953.749 1865.94 964.583 1869.72 970.225 C 1870.22 976.588 1861.35 976.699 1856.57 976.72 C 1821.93 976.869 1787.33 977.573 1752.69 978.111 L 1442.94 981.215 L 448.036 994.535 C 397.988 996.291 342.347 995.779 291.811 996.52 L 228.337 997.215 C 217.333 997.289 205.531 997.662 194.574 996.775 C 191.41 996.519 186.955 992.904 184.168 990.9 C 267.457 915.035 349.574 837.892 430.489 759.498 C 474.974 758.54 519.466 757.958 563.961 757.752 L 795.818 754.826 C 1065.4 749.718 1335 746.274 1604.62 744.492 z" fill="none" transform="translate(0,0)"></path>
<path d="M 1400.44 812.455 C 1426.26 811.804 1459.19 810.359 1476.41 833.251 C 1485.45 845.264 1507.43 863.824 1510.56 879.015 C 1512.74 889.557 1492.37 897.449 1483.15 898.104 C 1448.18 900.589 1412.79 900.562 1377.68 900.888 L 1218.62 902.894 L 678.75 909.294 C 667.632 909.446 564.751 913.567 569.439 890.434 C 574.893 863.523 619.373 827.015 648.325 824.276 C 668.646 822.354 692.997 821.962 714.494 821.558 L 854.463 819.818 L 1163.42 815.404 C 1241.77 814.577 1322.2 814.447 1400.44 812.455 z" fill="currentColor" transform="translate(0,0)"></path>
<path d="M 1350.16 825.469 C 1381.6 824.982 1426.1 820.002 1454.91 831.793 C 1460.02 833.885 1498.43 873.509 1493.84 880.325 L 1491.26 880.669 L 1489.56 878.98 C 1487.04 869.211 1486.03 871.14 1480.08 864.366 C 1451.9 832.295 1408.25 840.173 1368.78 840.647 L 1229.46 842.607 L 731.75 849.422 C 701.94 850.858 669.58 848.057 640.414 853.354 C 617.837 857.454 599.68 879.124 581.326 889.592 L 580.088 890.285 C 618.277 825.314 656.524 833.797 722.852 833.2 C 761.938 832.897 801.023 832.38 840.104 831.648 L 1350.16 825.469 z" fill="none" transform="translate(0,0)"></path>
<path d="M 1012.75 862.35 C 1019 862.24 1028 862.053 1033.93 863.549 C 1036.71 865.983 1035.86 869.787 1038.69 874.787 L 1040.73 875.335 C 1044.09 874.108 1045.27 871.613 1047.43 868.605 C 1054.34 869.135 1072.83 870.397 1076.38 876.493 L 1075.01 878.478 C 1067.36 882.718 1059.62 883.378 1050.99 884.818 C 1034.1 886.082 994.898 885.3 979.545 878.054 L 978.859 876.061 C 983.432 869.848 1000.28 871.493 1008.82 869.779 C 1010.08 867.275 1011.39 864.798 1012.75 862.35 z" fill="none" transform="translate(0,0)"></path>
<path d="M 1675.64 743.562 L 1688.7 743.013 C 1715.99 772.913 1962.53 998.904 1964.62 1005.51 C 1965.04 1006.82 1964.25 1007.73 1963.73 1008.9 C 1961.87 1010.17 1961.41 1010.37 1959.04 1010.42 C 1925.99 1011.06 1892.52 1011.61 1859.5 1012.02 C 1795.18 1012.34 1730.87 1013.24 1666.56 1014.69 L 459.587 1031.16 L 188.06 1035.21 L 119.182 1036.46 C 111.017 1036.62 89.543 1037.5 82.665 1036.3 C 80.7226 1033.45 81.3651 1035.07 81.4395 1031.04 C 83.9798 1025.92 92.2874 1019.21 96.8162 1015.41 C 142.061 977.394 185.088 936.95 229.536 898.031 C 253.108 877.392 277.608 857.739 300.912 836.799 C 316.474 823.62 331.842 810.214 347.012 796.586 C 356.13 788.233 380.265 765.068 389.676 759.345 C 397.329 759.73 404.652 759.515 412.311 759.369 C 392.863 780 368.295 801.355 347.519 821.134 L 275.803 888.565 C 261.639 902.031 247.74 916.356 233.494 929.605 C 215.964 945.558 197.749 960.898 180.51 977.154 C 174.769 982.569 171.377 986.998 173.696 995.055 C 176.387 1004.31 189.39 1009.66 198.36 1010.09 C 212.736 1010.79 228.63 1009.86 243.119 1009.52 L 321.001 1008.28 L 597.866 1004.29 L 1553.5 991.301 L 1769 989.282 L 1834.03 988.885 C 1844.72 988.874 1856.18 989.544 1866.77 988.842 C 1880.27 987.946 1881.34 976.758 1881.7 966.654 C 1873.55 955.433 1861.25 943.59 1851.33 933.616 L 1806.43 888.742 L 1726.57 808.344 C 1705.03 786.482 1685.24 765.455 1663.12 744.04 L 1675.64 743.562 z" fill="none" transform="translate(0,0)"></path>
</svg>