<svg xmlns="http://www.w3.org/2000/svg" preserveAspectRatio="none" style="display: block;" version="1.1" viewBox="0 0 2048 2048">
<path d="M 934.639 455.45 C 986.038 454.214 1038.81 461.701 1088.24 475.656 C 1336.64 545.772 1445.65 719.473 1564.6 931.568 C 1571.27 932.412 1579.69 932.549 1583.04 939.11 C 1603.81 979.778 1628.99 1023.34 1646.57 1065.17 C 1658.29 1066.41 1681.66 1063.31 1690.63 1071.64 C 1694.4 1075.14 1697.63 1081.96 1699.74 1086.68 C 1706.77 1102.41 1771.41 1264.6 1770.81 1269.57 C 1770.17 1274.78 1765.33 1278.59 1761.83 1282.13 C 1765.48 1295.25 1786.61 1346.53 1785.16 1354.96 C 1777.49 1367.4 1716.63 1402.57 1701.15 1410.8 C 1696.99 1413.01 1692.82 1413.95 1688.26 1412.28 C 1676.56 1408.02 1658.7 1350.51 1653.25 1337.64 C 1643.5 1335.08 1636.66 1334.03 1632.27 1323.84 C 1627.46 1312.67 1623.33 1301.27 1618.68 1290.05 L 1588.56 1216.94 C 1579.76 1195.04 1562.78 1162.32 1558.63 1138.36 C 1556.35 1125.2 1568.07 1108.15 1577.41 1098.26 C 1573.79 1089.43 1568.81 1080.07 1564.47 1071.5 C 1548.5 1039.95 1533.12 1008.05 1515.89 977.171 C 1512.22 970.063 1514.16 963.011 1510.1 955.709 C 1486.19 912.695 1462.35 868.654 1436.35 826.918 C 1481.63 999.265 1408.42 1189.36 1258.3 1285.97 C 1215.58 1313.45 1181.86 1327.92 1133.04 1341.4 C 1006.55 1368.88 894.709 1349.36 779.941 1290.27 C 674.062 1235.75 574.43 1135.64 537.828 1020.7 C 521.504 1056.53 509.684 1093.99 491.874 1132.12 C 494.494 1134.65 497.08 1137.98 499.427 1140.81 C 498.248 1145.76 496.247 1150.61 494.545 1155.41 C 479.692 1197.3 458.66 1241.12 445.775 1283.25 C 451.953 1292.92 461.716 1305.23 457.874 1317.25 C 439.318 1375.13 418.827 1432.34 398.255 1489.53 C 391.645 1507.91 393.524 1512.56 373.591 1516.16 C 352.059 1566.41 361.329 1626.56 281.071 1565.66 C 274.194 1560.44 270.472 1555.76 266.231 1548.11 C 269.57 1530.25 279.532 1502.8 285.625 1485.2 C 283.472 1482.97 278.307 1477.37 278.21 1474.65 C 277.752 1461.71 286.579 1442.07 290.842 1429.85 L 312.988 1365.81 C 322.502 1338.25 332.653 1302.91 345.208 1276.63 C 350.06 1266.47 369.669 1261.26 380.496 1258.89 C 382.731 1249.98 387.732 1237.15 390.939 1228.19 L 407.662 1180.89 C 412.441 1167.4 417.134 1153.88 421.741 1140.33 C 424.064 1133.47 426.722 1124.89 429.288 1118.35 C 433.526 1109.59 440.69 1114.42 444.191 1105.44 C 465.278 1051.41 486.602 997.521 508.498 943.798 C 512.215 935.221 511.174 926.807 511.235 917.742 C 512.586 801.579 544.443 678.739 624.513 591.37 C 709.614 498.512 811.167 459.986 934.639 455.45 z" fill="currentColor" transform="translate(0,0)"></path>
<path d="M 1041.66 625.438 C 1049.6 624.761 1076.42 623.913 1082.89 626.3 C 1232.53 681.866 1373.58 830.603 1336.88 1001.83 C 1323.1 1066.09 1280.22 1115.58 1225.99 1150.55 C 1145.83 1202.26 1054.36 1207.48 963.485 1187.53 C 949.804 1185.02 933.031 1179.95 919.751 1175.67 C 852.324 1154.61 791.732 1115.95 744.211 1063.68 C 685.259 999.058 645.626 910.713 649.703 822.168 C 665.186 805.352 680.719 787.515 697.57 772.195 C 799.445 679.577 904.803 632.242 1041.66 625.438 z" fill="none" transform="translate(0,0)"></path>
<path d="M 875.372 545.41 C 890.099 543.54 921.721 544.923 936.576 546.13 C 1029.73 553.653 1119.48 584.622 1197.45 636.155 C 1284.32 693.962 1359.77 785.436 1381.41 889.591 C 1395.42 959.262 1384.02 1040.82 1342.18 1099.48 C 1213.57 1279.77 954.401 1279.08 784.213 1164.43 C 713.096 1117.51 656.734 1051.39 621.66 973.749 C 612.046 952.707 603.635 932.382 599.16 909.546 C 606.147 895.184 613.973 882.747 622.436 869.288 C 647.442 977.526 685.214 1047.04 771.855 1117.81 C 775.308 1120.6 778.806 1123.34 782.349 1126.02 C 873.826 1194.32 988.412 1224.07 1101.56 1208.91 C 1182.14 1197.3 1260.42 1155.58 1310.44 1089.99 C 1349.87 1038.28 1361.92 971.702 1352.73 907.757 C 1339.44 815.334 1281.24 736.956 1208.26 681.822 C 1103.95 603.353 968.724 559.049 838.151 579.969 C 758.36 592.754 693.757 634.753 659.888 709.278 C 657.321 714.927 651.348 731.403 647.945 735.376 C 632.146 753.82 614.441 769.652 599.998 789.456 C 603.281 770.437 608.974 753.493 615.096 735.381 C 657.368 610.318 748.458 556.485 875.372 545.41 z" fill="none" transform="translate(0,0)"></path>
<path d="M 915.296 468.571 C 972.254 465.371 1017.92 471.074 1073.01 485.054 C 1180.07 512.223 1262.6 558.814 1341.92 635.186 C 1371.64 663.938 1398.97 695.07 1423.62 728.272 C 1455.41 771.877 1483.7 818.305 1511.44 864.573 C 1525.53 888.079 1538.18 912.608 1552.14 936.344 C 1543.09 941.936 1533.08 947.164 1523.69 952.279 C 1427.82 782.634 1344.65 626.265 1155.29 545.021 C 1142.22 539.49 1128.96 534.448 1115.52 529.906 C 1000.17 489.934 871.431 486.674 760.679 541.123 C 677.603 581.965 620.287 651.104 586.63 735.876 C 573.808 768.173 559.344 798.854 554.225 833.854 C 552.953 842.555 553.732 853.316 551.349 861.716 C 542.28 880.611 531.849 895.334 524.185 915.31 C 528.261 803.841 553.349 692.947 628.774 606.129 C 701.696 522.192 804.011 474.355 915.296 468.571 z" fill="none" transform="translate(0,0)"></path>
<path d="M 1338.09 696.604 C 1341.8 698.824 1345.43 704.429 1348.3 707.741 C 1468.53 846.577 1459.69 1040.33 1349.89 1184.63 C 1285.44 1267.87 1191.01 1322.61 1086.75 1337.17 C 940.408 1357.31 781.695 1299.14 673.655 1200.1 C 631.495 1161.45 590.947 1115.04 570.291 1061.04 C 565.903 1049.57 563.957 1037.27 562.289 1025.15 C 559.837 1007.28 552.985 985.976 559.621 968.795 C 564.705 982.299 569.571 997.982 575.135 1010.92 C 585.922 1036 600.766 1063.75 615.629 1086.61 C 688.665 1196.57 802.333 1273.07 931.699 1299.34 C 1151.75 1346.05 1351.45 1228.97 1398.57 1003.02 C 1414.53 926.481 1410.76 834.762 1377.8 763.049 C 1366.46 738.379 1352.91 719.193 1338.09 696.604 z" fill="none" transform="translate(0,0)"></path>
<path d="M 586.391 922.702 C 588.314 925.818 595.783 945.857 597.506 950.332 C 601.607 960.989 606.094 971.493 610.957 981.825 C 689.756 1153.35 870.278 1262.32 1058.24 1256.36 C 1146.3 1253.56 1230.19 1223.85 1298.28 1167.44 C 1311.35 1156.61 1323.54 1143.01 1335.15 1130.55 C 1328.44 1141.21 1321.12 1151.47 1313.21 1161.26 C 1263.91 1222.89 1196.67 1268.78 1119.46 1285.98 C 1095.85 1291.38 1070.66 1296.12 1046.31 1295.92 C 864.312 1294.42 677.267 1188.04 599.843 1020.43 C 588.627 996.147 581.483 967.743 575.302 941.719 L 586.391 922.702 z" fill="none" transform="translate(0,0)"></path>
<path d="M 965.169 605.548 C 995.886 603.879 1014.89 605.751 1044.89 610.275 C 915.649 623.378 841.116 644.987 734.454 724.559 C 598.129 826.259 552.67 946.197 492.98 1098.35 C 488.109 1110.11 483.122 1122.87 476.618 1133.74 C 469.541 1133.2 454.851 1132.71 451.649 1125.62 C 456.199 1107.38 470.916 1075.1 477.897 1055.82 C 506.379 977.148 540.918 897.59 589.164 828.862 C 602.435 809.957 628.596 779.998 644.902 763.224 C 712.9 693.274 803.04 628.997 900.641 610.465 C 923.007 606.218 942.733 606.025 965.169 605.548 z" fill="none" transform="translate(0,0)"></path>
<path d="M 1634.82 1077.81 C 1644.63 1077.53 1660.61 1078.91 1664.64 1089.12 C 1685.5 1141.91 1710.47 1196.41 1729.45 1249.68 C 1707.95 1261.13 1677.5 1281.15 1656.47 1294.58 C 1650.59 1298.63 1645.04 1302.14 1638.97 1305.91 C 1616.26 1254.25 1594.59 1197.87 1572.78 1145.65 C 1560.51 1116.3 1612.99 1090.14 1634.82 1077.81 z" fill="none" transform="translate(0,0)"></path>
<path d="M 349.356 1296.95 C 373.8 1321.64 391.7 1326.73 425.646 1327.15 C 413.432 1360.53 402.214 1394.81 390.721 1428.54 C 383.082 1450.96 371.202 1482.89 365.763 1504.98 C 336.21 1505.47 307.031 1496.52 288.754 1471.99 C 290.233 1465.66 294.921 1453.91 297.304 1447.41 C 302.661 1432.88 307.923 1418.33 313.09 1403.74 C 325.618 1368.34 336.846 1331.67 349.356 1296.95 z" fill="none" transform="translate(0,0)"></path>
<path d="M 1736.88 1277.93 C 1737.88 1278.85 1759.88 1341.55 1762.04 1348.06 C 1735.5 1363.82 1716.58 1377.73 1688.77 1392.86 C 1683.45 1383.7 1680.42 1370.03 1676.42 1359.83 C 1671.86 1348.19 1666.8 1336.89 1662.62 1325.13 C 1687.15 1308.65 1712.15 1294.47 1736.88 1277.93 z" fill="none" transform="translate(0,0)"></path>
<path d="M 1745.95 1333.65 L 1747.92 1334.11 L 1748.34 1335.87 C 1743.94 1346.26 1702.08 1368.32 1690.12 1374.14 C 1687.66 1372.56 1688.48 1373.61 1687.5 1370.95 C 1691.22 1366.35 1736.47 1340.2 1745.95 1333.65 z" fill="currentColor" transform="translate(0,0)"></path>
<path d="M 437.731 1131.81 C 449.605 1145.74 454.348 1146.69 472.17 1148.41 C 457.819 1192.4 437.835 1236.2 423.375 1280.33 C 421.127 1287.2 418.862 1294.02 416.176 1300.73 C 411.076 1300.81 405.863 1300.19 400.822 1299.45 C 395.721 1298.7 385.956 1297.55 383.06 1292.81 C 381.798 1290.74 432.431 1146.61 437.731 1131.81 z" fill="none" transform="translate(0,0)"></path>
<path d="M 927.867 512.579 C 939.725 511.495 955.643 512.142 967.707 512.674 C 1038.21 515.783 1116.07 537.031 1177.54 571.774 C 1129.99 556.461 1080.95 546.204 1031.24 541.171 C 1014.68 539.799 997.848 539.898 981.545 538.614 C 966.202 537.406 950.254 534.581 934.59 533.291 C 896.746 530.539 858.706 532.444 821.327 538.965 C 802.816 542.385 789.249 547.565 771.519 551.973 C 823.462 526.857 870.035 515.576 927.867 512.579 z" fill="none" transform="translate(0,0)"></path>
<path d="M 896.024 586.566 C 902.462 586.113 909.098 586.17 915.567 586.108 C 830.734 605.872 746.003 655.303 678.662 709.356 L 670.115 717.059 C 711.458 620.09 798.42 591.305 896.024 586.566 z" fill="none" transform="translate(0,0)"></path>
<path d="M 1555.38 948.777 L 1556.95 949.063 C 1561.58 955.379 1577.54 988.885 1581.93 997.658 C 1594.16 1022.05 1607.63 1046.81 1619.6 1071.19 C 1609.6 1077.7 1599.9 1084.07 1589.61 1090.12 C 1589.47 1090.09 1589.31 1090.11 1589.19 1090.02 C 1587.27 1088.69 1532.56 980.035 1525.78 966.391 L 1555.38 948.777 z" fill="none" transform="translate(0,0)"></path>
<path d="M 293.019 1491.54 C 313.748 1507.21 320.463 1509.87 345.256 1515.54 C 339.195 1535.92 332.278 1556.24 326.133 1576.78 C 325.851 1577.2 324.815 1578.04 324.377 1578.42 C 313.488 1576.98 283.052 1559.64 278.346 1549.91 C 275.175 1543.35 290.548 1500.87 293.019 1491.54 z" fill="none" transform="translate(0,0)"></path>
<path d="M 1063.6 558.827 C 1070.76 559.117 1074.19 559.827 1081.21 561.181 C 1177.4 575.216 1258.16 617.645 1316.98 696.184 C 1318.37 698.041 1319.71 699.936 1321 701.868 C 1303.23 684.292 1287.94 668.817 1267.09 654.583 C 1243.81 638.686 1219.87 628.772 1194.6 616.861 C 1185.2 612.429 1174.54 604.961 1165.13 600.428 C 1137.66 587.196 1109.08 573.341 1080.09 563.945 C 1074.43 562.356 1069.18 560.651 1063.6 558.827 z" fill="none" transform="translate(0,0)"></path>
<path d="M 1674.05 1079.44 C 1681.03 1081.6 1683.67 1082.38 1686.71 1089.36 C 1695.15 1108.74 1702.25 1128.77 1710.23 1148.36 C 1718.45 1168.27 1726.56 1188.22 1734.57 1208.22 C 1740.07 1221.95 1747.92 1240.81 1751 1255.08 C 1742.73 1253.63 1730.91 1219.29 1727.26 1210.28 L 1692.13 1121.42 C 1686.88 1108.46 1680.56 1091.33 1674.05 1079.44 z" fill="none" transform="translate(0,0)"></path>
<path d="M 439.413 1321.41 C 443.185 1324.86 439.3 1330.27 437.771 1335.2 C 423.555 1381.05 406.494 1425.91 390.655 1471.2 C 387.665 1479.75 382.625 1496.08 377.597 1502.46 C 376.23 1501.27 376.759 1502.04 376.218 1500.01 C 386.952 1470.94 397.179 1441.69 406.892 1412.26 C 411.861 1397.41 433.253 1329.88 439.413 1321.41 z" fill="none" transform="translate(0,0)"></path>
<path d="M 481.212 1146.63 L 482.36 1147.87 C 482.456 1154.55 432.002 1285.79 426.25 1299.16 C 423.218 1296.07 460.548 1204.87 463.831 1193.29 C 467.454 1180.51 475.994 1159.41 481.212 1146.63 z" fill="none" transform="translate(0,0)"></path>
<path d="M 1732.42 1262.71 L 1734.52 1263.07 C 1732.69 1267.06 1657.13 1312.63 1646.56 1319.11 L 1645.67 1319.36 L 1644.8 1318.71 C 1648.57 1310.93 1718.52 1269.97 1732.42 1262.71 z" fill="none" transform="translate(0,0)"></path>
<path d="M 1569.94 943.634 C 1575.04 946.89 1628.67 1053.79 1633.48 1065.55 L 1630.9 1064.66 C 1627.68 1060.58 1608.71 1022.78 1605.79 1016.34 C 1596.17 995.164 1577.61 964.285 1569.94 943.634 z" fill="none" transform="translate(0,0)"></path>
<path d="M 355.91 1515.46 C 357.182 1516.65 356.551 1515.87 357.519 1518 C 355.589 1526.75 341.703 1570.97 337.297 1578.02 L 336.989 1577.73 C 336.119 1575.02 353.585 1520.87 355.91 1515.46 z" fill="none" transform="translate(0,0)"></path>
</svg>