<svg xmlns="http://www.w3.org/2000/svg" preserveAspectRatio="none" style="display: block;" version="1.1" viewBox="0 0 2048 2048">
<path d="M 1338.21 75.4777 C 1341.13 76.0801 1350.56 85.4716 1353.6 88.05 C 1386.43 115.898 1413.7 148.827 1433.08 187.447 C 1485.83 292.587 1508.02 410.954 1532.13 525.186 C 1553.07 625.036 1570.89 725.874 1593.53 825.074 C 1641.49 1036.59 1703.53 1244.67 1779.22 1447.92 C 1802.55 1509.35 1827.17 1570.27 1853.08 1630.66 C 1868.08 1665.46 1885.35 1700.01 1898.05 1735.45 C 1901.96 1749.18 1908.25 1765.96 1904.44 1780.24 C 1903.19 1784.93 1896 1789.73 1891.4 1788.09 C 1846.5 1772.08 1803.03 1751.89 1758.13 1735.82 C 1742.37 1754.71 1728.49 1779.76 1713.64 1799.51 C 1704.83 1811.22 1685.86 1791.63 1678.79 1785.78 L 1647.31 1760.05 C 1639.1 1769.49 1598.43 1819.65 1586.92 1821.43 C 1579.27 1822.61 1537.41 1784.51 1528.94 1776.73 C 1517.98 1786.47 1481.38 1829.49 1470.74 1832.44 C 1467.64 1833.29 1465.51 1832.29 1462.89 1830.7 C 1457.48 1827.42 1452.97 1822.42 1448.42 1818.08 C 1436.64 1806.87 1423.53 1792.82 1409.46 1784.6 C 1409.11 1784.4 1408.76 1784.21 1408.41 1784.01 C 1398.32 1796.12 1391.07 1810.37 1385.02 1824.85 C 1382.35 1831.25 1380.1 1838.68 1376.44 1844.52 C 1374.5 1847.62 1371.48 1850.53 1367.69 1851.04 C 1357.34 1852.42 1310.93 1810.94 1298.41 1802.42 C 1283.18 1815.96 1233.42 1871.61 1219.11 1875.41 C 1217.06 1875.96 1215.55 1875.93 1213.52 1875.2 C 1197.58 1869.49 1159.5 1841.28 1142.7 1830.56 C 1134 1840.2 1094.93 1881.53 1085.69 1884.78 C 1082.04 1886.06 1078.46 1885.75 1074.82 1884.59 C 1066.39 1881.89 1058.04 1875.78 1050.35 1871.36 C 1037.93 1864.13 1025.35 1857.21 1012.6 1850.58 C 1001.93 1866.09 988.227 1880.5 976.259 1894.89 C 970.997 1901.21 963.057 1909.17 955.147 1905.23 C 929.99 1892.71 905.373 1876.78 879.588 1865.59 C 869.778 1876.72 842.243 1919.71 834.387 1922.49 C 825.954 1922.26 822.476 1917.92 815.491 1912.45 C 794.781 1899.98 774.388 1887 754.332 1873.5 C 745.14 1885.75 699.351 1951.25 689.217 1955.52 C 686.926 1956.49 685.629 1956.17 683.398 1955.03 C 681.487 1954.06 680.677 1952.3 680.018 1950.38 C 676.06 1938.87 675.515 1925.31 673.926 1913.27 L 666.498 1859.68 C 648.076 1734.44 625.872 1609.78 599.917 1485.88 C 589.075 1434.54 575.345 1365.2 560.429 1315.69 C 538.949 1383.01 521.558 1375.22 458.245 1386.23 C 410.753 1394.48 360.741 1400.36 313.44 1408.87 C 303.266 1426.94 290.09 1438.83 268.872 1442.04 C 248.686 1445.1 225.713 1433.91 224.227 1411.5 C 222.597 1386.94 240.631 1368.12 255.121 1350.54 C 267.795 1335.39 273.262 1317.68 276.412 1298.35 C 285.641 1230.31 274.204 1155.55 262.79 1088.44 C 252.901 1031.26 241.594 974.345 228.878 917.733 C 215.807 860.087 200.494 802.024 188.233 743.415 C 171.161 661.805 153.421 577.425 144.205 493.892 C 136.005 419.57 135.898 295.727 183.437 232.459 C 189.743 224.065 197.063 221.924 207.012 220.304 C 229.315 216.672 252.212 214.329 274.67 211.339 C 318.929 205.03 363.26 199.24 407.654 193.969 L 696.763 157.228 L 1168.34 97.4034 L 1274.45 83.6801 C 1295.19 80.9 1317.49 77.4242 1338.21 75.4777 z" fill="currentColor" transform="translate(0,0)"></path>
<path d="M 1331.03 96.4369 C 1332.79 96.6096 1332.45 96.3162 1333.68 97.2273 C 1397.82 145.081 1430.02 217.319 1454.29 290.87 C 1475.23 354.331 1489.87 419.768 1503.17 484.75 C 1515.99 545.588 1528.25 606.542 1539.95 667.606 C 1570.93 821.453 1607.87 974.042 1650.66 1125.03 C 1669.56 1189.53 1688.58 1246.35 1709.71 1309.57 C 1734.71 1386.49 1761.87 1462.7 1791.16 1538.09 C 1806.71 1577.46 1825.6 1618.92 1842.54 1657.85 C 1858.45 1694.41 1876.76 1724.61 1885.09 1764.76 C 1861.59 1755.28 1837.25 1745.36 1813.69 1736.16 C 1799.84 1730.75 1763.22 1713.03 1750.09 1713.11 C 1741.75 1719.04 1711.14 1769.39 1703.59 1780.62 C 1693.47 1772.3 1655.65 1737.59 1645.47 1737.95 C 1642.96 1738.04 1640.75 1739.06 1638.77 1740.55 C 1634.48 1743.77 1631.04 1748.7 1627.4 1752.63 C 1613.28 1767.82 1599.93 1783.69 1585.74 1798.81 C 1574.93 1789.94 1537.53 1755.65 1527.45 1755.41 C 1524.28 1755.34 1521.31 1756.66 1518.8 1758.5 C 1512.86 1762.83 1507.68 1769.29 1502.53 1774.57 C 1491.25 1786.13 1480.12 1797.87 1468.38 1808.97 C 1450.55 1795.29 1434.37 1776.52 1415.28 1764.12 C 1404.58 1757.18 1395.64 1762.04 1389.75 1772.14 C 1379.54 1789.68 1370.94 1808.02 1362.45 1826.41 C 1349.66 1817.2 1307.1 1781.57 1296.91 1779.63 C 1285.14 1783.07 1229.81 1841.89 1216.91 1854.3 C 1205.2 1848.25 1181.24 1832.87 1170.93 1825.6 C 1138.73 1802.91 1140.43 1804.9 1112.65 1832.84 C 1103.18 1842.36 1090.68 1854.87 1080.54 1865.06 C 1065.08 1857.19 1021.42 1830.27 1009.55 1826.84 C 996.84 1834.68 969.127 1872.67 958.825 1886.09 C 946.494 1878.48 888.017 1844.55 875.34 1842.56 C 866.34 1844.37 850.41 1870.48 844.153 1879.45 C 839.573 1886.27 834.857 1893 830.008 1899.64 C 809.335 1887.88 770.102 1856.81 749.442 1849.3 C 738.006 1858.96 706.376 1905.22 694.337 1920.49 C 687.791 1875.1 682.128 1828.61 675.058 1783.44 C 660.337 1691.99 643.578 1600.89 624.795 1510.19 C 562.641 1219.64 485.675 932.453 394.198 649.761 C 388.515 632.061 383.61 614.183 378.025 596.523 C 362.581 547.271 346.264 498.297 329.084 449.623 C 305.534 382.641 271.988 288.508 220.799 238.553 C 235.681 236.548 254.566 234.557 269.039 231.708 C 310.41 249.282 336.27 284.053 347.261 327.206 C 349.801 337.176 348.603 355.627 355.364 361.033 C 362.541 362.005 394.919 358.445 403.518 357.621 L 499.07 348.409 L 864 314.003 C 975.786 304.224 1087.51 293.708 1199.15 282.454 C 1240.7 278.461 1282.3 275.275 1323.77 270.371 C 1330.99 269.518 1337.75 269.091 1344.84 267.409 C 1345.66 261.99 1345.63 253.826 1345.2 248.326 C 1340.3 185.107 1319.74 145.131 1274.25 103.745 C 1292.59 102.134 1312.47 98.7576 1331.03 96.4369 z" fill="none" transform="translate(0,0)"></path>
<path d="M 1751 1545.06 C 1753.62 1545.19 1753.36 1545.28 1755.96 1545.99 C 1757.47 1547.31 1758.56 1548.44 1759.23 1550.33 C 1761.54 1556.81 1762.21 1620.62 1759.48 1625.07 C 1757.47 1628.34 1753.14 1629.73 1749.57 1630.32 C 1725.69 1634.23 1701.34 1636.76 1677.35 1640.15 L 1497.55 1665.4 C 1372.61 1682.66 1247.76 1700.55 1123 1719.06 C 998.941 1736.53 877.94 1752.33 754.078 1772.64 C 744.813 1767.55 747.733 1757.2 746.74 1747.88 C 745.229 1733.7 744.018 1718.75 743.655 1704.57 C 743.426 1695.64 745.557 1690.64 754.797 1690.03 C 779.404 1686.74 803.939 1683.49 828.472 1679.84 C 895.569 1669.6 962.723 1659.74 1029.93 1650.25 L 1567.07 1570.89 C 1605.51 1565.18 1644.02 1559.89 1682.58 1555.01 C 1696.1 1553.3 1739.53 1548.73 1751 1545.06 z" fill="currentColor" transform="translate(0,0)"></path>
<path d="M 849.357 1691.41 L 853.025 1691.26 L 853.648 1692.43 C 848.364 1702.68 823.801 1734.51 815.766 1745.31 L 791.714 1749.42 C 790.387 1749.46 789.015 1749.4 787.681 1749.38 C 787.383 1747.03 823.609 1700.53 828.114 1694.04 C 834.88 1693 842.496 1692.24 849.357 1691.41 z" fill="none" transform="translate(0,0)"></path>
<path d="M 1353.65 1615.37 C 1356.95 1614.88 1358.15 1614.42 1361.29 1615.6 C 1361.79 1623.91 1331.97 1664.16 1325.32 1673.47 L 1312.5 1675.99 C 1309.52 1676.51 1305.95 1677.63 1303.46 1676.44 C 1311.19 1658.68 1328.82 1639.2 1337.01 1618.03 C 1342.31 1617 1348.26 1616.2 1353.65 1615.37 z" fill="none" transform="translate(0,0)"></path>
<path d="M 896.866 1684.48 L 897.435 1684.87 C 896.89 1688.17 863.984 1730.79 859.25 1738.4 C 851.984 1740.07 842.91 1741.28 835.426 1742.47 C 835.043 1742.07 834.929 1741.48 834.714 1740.96 C 847.315 1722.67 861.802 1706.41 874.325 1688.08 C 881.802 1686.66 889.319 1685.46 896.866 1684.48 z" fill="none" transform="translate(0,0)"></path>
<path d="M 974.362 1673.45 C 976.029 1673.21 976.624 1673.39 978.329 1673.52 C 975.596 1682.18 945.749 1716.92 938.898 1726.6 L 938.209 1727.59 C 932.328 1728.63 926.436 1729.62 920.533 1730.54 C 917.568 1730.66 918.838 1731.12 916.474 1729.8 C 919.024 1721.61 952.389 1681.31 959.693 1674.96 C 964.101 1674.24 969.821 1673.87 974.362 1673.45 z" fill="none" transform="translate(0,0)"></path>
<path d="M 1094.14 1656.52 L 1095.42 1657.32 C 1091.79 1667.16 1066.31 1700.96 1058.43 1710.61 L 1037.43 1713.42 L 1036.55 1713.47 C 1037.04 1711.04 1070.33 1665.37 1074.45 1659.27 C 1082.12 1657.66 1086.29 1657.18 1094.14 1656.52 z" fill="none" transform="translate(0,0)"></path>
<path d="M 1628.6 1577.43 L 1632.04 1577.33 L 1632.93 1578.52 C 1631.82 1591.31 1612.23 1623.55 1604.86 1634.65 L 1590.33 1636.61 C 1586.5 1636.9 1587.31 1637.63 1585.42 1636.04 C 1596.32 1615.99 1606.16 1600.48 1616.04 1579.15 C 1619.53 1578.3 1624.89 1577.86 1628.6 1577.43 z" fill="none" transform="translate(0,0)"></path>
<path d="M 1050.39 1662.38 C 1052.93 1662.11 1051.79 1661.79 1053.96 1662.88 C 1052.09 1671.49 1021.9 1706.68 1014.46 1716.72 C 1009.52 1717.05 1003.22 1718.42 998.245 1719.33 C 995.495 1719.54 996.671 1719.96 994.514 1718.62 C 1001.47 1706.22 1022.66 1681.1 1032.92 1664.99 L 1050.39 1662.38 z" fill="none" transform="translate(0,0)"></path>
<path d="M 1310.68 1621.37 L 1320.58 1620.55 C 1311.72 1636.35 1301.61 1653.02 1291.56 1668.13 C 1286.89 1675.15 1284.52 1679.22 1276.24 1680.74 C 1273.18 1681.08 1269.18 1681.87 1266.06 1682.38 C 1275.72 1665.64 1293.11 1639.67 1299.76 1623.03 L 1310.68 1621.37 z" fill="none" transform="translate(0,0)"></path>
<path d="M 1249.15 1631.43 L 1250.95 1631.47 C 1251.22 1633.97 1250.57 1635.63 1249.1 1637.78 C 1237.5 1654.83 1226.42 1671.71 1215.66 1689.33 C 1211.63 1690.63 1206.37 1691.4 1202.12 1692.17 C 1201.51 1692.09 1200.43 1691.6 1199.79 1691.35 C 1200.34 1683.76 1226.06 1647.71 1232.06 1633.54 L 1249.15 1631.43 z" fill="none" transform="translate(0,0)"></path>
<path d="M 1699.65 1568.53 L 1700.36 1568.89 C 1700.35 1572.84 1675.21 1617.2 1671.09 1624.57 L 1652.75 1627.52 L 1652.29 1627.14 C 1652.36 1624.38 1679.52 1577.9 1683.43 1570.29 C 1688.71 1569.57 1694.33 1569.08 1699.65 1568.53 z" fill="none" transform="translate(0,0)"></path>
<path d="M 1531.55 1590.48 C 1532.72 1590.26 1532.94 1590.47 1534.22 1590.71 C 1532.76 1597.67 1502.09 1637.15 1495.85 1645.4 C 1492.16 1650.3 1488.8 1650.6 1482.92 1650.77 C 1481.33 1650.49 1482.29 1650.71 1480.09 1649.93 C 1480.72 1646.55 1510.41 1600.07 1514.64 1592.34 C 1520.27 1591.44 1525.88 1591.01 1531.55 1590.48 z" fill="none" transform="translate(0,0)"></path>
<path d="M 1495.04 1594.43 C 1495.9 1594.91 1495.41 1594.52 1496.05 1596.04 C 1485.61 1615.33 1467.48 1636.51 1457.99 1654.37 L 1441.72 1656.5 L 1441.61 1656.43 C 1440.91 1654.32 1441.38 1654.44 1443.5 1651.53 C 1455.98 1634.45 1468.59 1616.47 1477.67 1597.31 C 1484.68 1595.45 1487.86 1595.16 1495.04 1594.43 z" fill="none" transform="translate(0,0)"></path>
<path d="M 1597.88 1581.42 C 1598.97 1581.83 1598.41 1581.46 1599.19 1582.93 C 1587.66 1603.5 1578.8 1619.85 1565.6 1639.47 C 1560.68 1640.64 1554.53 1641.46 1549.45 1642.28 C 1548.87 1635.42 1574.5 1602.99 1579.05 1595.91 C 1579.61 1595.04 1581.24 1588 1581.52 1586.59 L 1581.89 1584.63 C 1587.16 1582.49 1592.22 1582.17 1597.88 1581.42 z" fill="none" transform="translate(0,0)"></path>
<path d="M 931.021 1679.4 C 933.725 1678.8 933.579 1678.88 936.336 1679.37 C 934.055 1685.22 901.961 1724.61 895.402 1734.21 L 884.231 1735.66 C 881.674 1736.18 881.244 1736.06 878.597 1735.94 C 878.547 1733.79 913.387 1689.69 917.71 1681.26 L 931.021 1679.4 z" fill="none" transform="translate(0,0)"></path>
<path d="M 1420.61 1605.38 L 1424.06 1605.08 L 1425.06 1606.39 C 1423.33 1615.12 1397.37 1651.01 1391.1 1659.65 C 1386.2 1666.4 1385.37 1665.48 1377.43 1666.6 C 1375.99 1666.71 1375.07 1666.55 1373.62 1666.43 C 1374.44 1663.5 1390.69 1640.95 1393.41 1636.59 C 1400.15 1625.74 1404.06 1619.52 1408.82 1607.28 L 1420.61 1605.38 z" fill="none" transform="translate(0,0)"></path>
<path d="M 1122.64 1652.34 C 1125.66 1652.04 1126.55 1652.16 1129.52 1652.35 L 1130.06 1653.26 C 1121.03 1668.6 1105.89 1689.56 1098.6 1704.41 L 1097.92 1705.82 C 1094.03 1706.37 1090.14 1706.88 1086.24 1707.34 C 1082.71 1707.84 1082.12 1708.54 1079.35 1707.33 C 1081.37 1703.19 1089.69 1693.88 1092.99 1688.74 C 1099.88 1678 1105.48 1666.67 1112.55 1656.16 C 1115.15 1652.29 1118.25 1652.81 1122.64 1652.34 z" fill="none" transform="translate(0,0)"></path>
<path d="M 1728.51 1564.39 L 1729.82 1564.33 L 1730.68 1565.38 C 1724.07 1586.66 1717.3 1598.6 1708.45 1618.54 L 1694.18 1621.21 L 1691.6 1620.87 C 1691.41 1619.74 1712.74 1576.24 1715.14 1566.58 C 1719.62 1565.4 1723.92 1564.99 1728.51 1564.39 z" fill="none" transform="translate(0,0)"></path>
<path d="M 1456.68 1599.26 C 1459.45 1598.95 1458.17 1598.64 1460.65 1599.71 C 1461.24 1604.04 1426.91 1650.35 1421.81 1659.61 L 1412.58 1661.72 C 1410.89 1661.91 1410.33 1661.83 1408.64 1661.76 C 1408.4 1660.5 1441.24 1609.59 1445.52 1601.31 L 1456.68 1599.26 z" fill="none" transform="translate(0,0)"></path>
<path d="M 798.965 1698.5 C 802.428 1697.95 803.144 1697.71 806.731 1698.17 C 804.753 1703.69 772.486 1744.81 766.896 1751.23 C 764.665 1752.71 765.798 1752.59 763.521 1752.19 C 761.525 1748.32 761.944 1743.05 761.838 1738.48 C 770.251 1727 779.036 1712.55 787.752 1700.24 C 791.36 1699.53 795.302 1699.04 798.965 1698.5 z" fill="none" transform="translate(0,0)"></path>
<path d="M 1553.94 1587.53 L 1568.63 1586.63 C 1564.92 1592.69 1560.33 1598.68 1555.99 1604.28 C 1546.18 1616.91 1538.21 1630.23 1530.82 1644.36 C 1529.84 1644.79 1528.87 1645.22 1527.89 1645.65 L 1514.27 1647.02 C 1519.76 1639.21 1552.17 1588.88 1553.94 1587.53 z" fill="none" transform="translate(0,0)"></path>
<path d="M 1004.57 1668.13 C 1007.83 1667.9 1010.6 1667.33 1013.53 1668.6 C 1011.97 1673.69 974.844 1722.26 970.969 1723.68 L 958.547 1725.19 C 970.189 1708.92 986.181 1688.4 997.559 1671.36 C 998.5 1669.96 1002.7 1668.71 1004.57 1668.13 z" fill="none" transform="translate(0,0)"></path>
<path d="M 1278.98 1626.32 L 1282.08 1626.18 L 1282.24 1627.53 C 1272.6 1644.82 1259.26 1667.4 1247.99 1684.24 C 1246.63 1686.26 1240.57 1686.38 1237.78 1686.6 C 1235.33 1686.21 1236.44 1686.68 1234.45 1685.18 C 1242.09 1673.88 1249.49 1662.43 1256.64 1650.82 C 1260.93 1643.79 1265.64 1635.99 1270.05 1628.99 C 1271.28 1627.05 1276.46 1626.68 1278.98 1626.32 z" fill="none" transform="translate(0,0)"></path>
<path d="M 1208.18 1637.03 C 1209.74 1637.13 1211.29 1637.33 1212.84 1637.51 L 1213.54 1638.83 C 1208.59 1650.73 1188.34 1679.4 1181.32 1692.87 C 1180.24 1694.93 1173.97 1695.81 1171.14 1696.35 L 1168.41 1696.65 L 1167.46 1695.88 C 1168.42 1690.91 1199.05 1648.53 1202.38 1640.13 C 1202.92 1638.77 1206.7 1637.53 1208.18 1637.03 z" fill="none" transform="translate(0,0)"></path>
<path d="M 1392.75 1609.54 C 1393.13 1615.19 1366.38 1649.8 1361.94 1656.98 C 1355.22 1667.83 1357.49 1669.04 1345.04 1670.42 C 1345.95 1665.59 1371.48 1633.81 1377.9 1611.72 C 1383.08 1610.63 1387.52 1610.16 1392.75 1609.54 z" fill="none" transform="translate(0,0)"></path>
<path d="M 1665.82 1572.53 C 1666.56 1572.85 1666.08 1572.56 1666.73 1573.95 C 1663.99 1580.07 1652.59 1593.96 1648.04 1601.61 C 1642.75 1610.49 1635.62 1622.96 1629.61 1631.54 C 1628.03 1632.18 1626.69 1632.72 1625.6 1633.17 C 1623.14 1629.83 1626.01 1627.42 1628.21 1623.71 C 1638.25 1606.83 1644.1 1593.62 1647.09 1574.27 L 1665.82 1572.53 z" fill="none" transform="translate(0,0)"></path>
<path d="M 1157.28 1646.49 L 1158.24 1646.45 L 1158.67 1647.68 C 1148.23 1665.16 1137.56 1683.44 1126.25 1700.36 C 1123.89 1703.91 1121.82 1703.24 1117.26 1703.87 C 1115.7 1703.34 1116.33 1703.82 1115.43 1702.36 C 1123.08 1690.73 1130.46 1678.94 1137.58 1666.98 C 1141.06 1661.23 1144.74 1654.9 1148.31 1649.15 C 1149.92 1646.55 1153.72 1646.92 1157.28 1646.49 z" fill="none" transform="translate(0,0)"></path>
<path d="M 1741.53 1574.82 C 1744.05 1578.69 1743.9 1608.33 1743.67 1614.44 C 1738.38 1615.54 1732.56 1616.22 1727.18 1616.97 L 1725.33 1616.57 C 1725.16 1614.01 1739.18 1581.91 1741.53 1574.82 z" fill="none" transform="translate(0,0)"></path>
<path d="M 1178.32 1641.79 C 1181.06 1641.78 1181.84 1641.83 1184.55 1642.23 C 1179.07 1657.21 1157.76 1677.93 1149.65 1699.27 C 1146.18 1699.76 1147.29 1700.32 1145.35 1698.88 C 1148.11 1692.01 1173.71 1647.86 1178.32 1641.79 z" fill="none" transform="translate(0,0)"></path>
<path d="M 1529.36 1251.33 C 1531.43 1251.05 1531.73 1251.28 1533.86 1251.55 C 1539.36 1256.29 1548.38 1277.77 1543.26 1285.22 C 1540.06 1287.45 1525.28 1287.86 1518.91 1289.02 C 1385.42 1313.32 1250.25 1325.71 1115.56 1341.79 C 1039.42 1351.2 963.181 1359.88 886.868 1367.81 C 849.929 1371.71 806.293 1377.06 769.75 1379.25 C 767.225 1379.43 766.534 1379.23 763.997 1378.86 C 761.388 1376.03 757.402 1364 756.281 1359.82 C 750.865 1339.63 756.979 1341.26 772.755 1340.23 C 893.237 1332.32 1012.63 1317.56 1132.47 1303.71 C 1240.52 1291.89 1348.4 1278.5 1456.06 1263.54 C 1480.81 1259.87 1504.73 1255.39 1529.36 1251.33 z" fill="currentColor" transform="translate(0,0)"></path>
<path d="M 1320.55 459.404 C 1326.06 458.88 1329.06 458.126 1332.61 463.306 C 1336.36 468.765 1346.27 485.849 1345.24 491.841 C 1342.04 494.494 1338.01 494.531 1333.52 494.98 C 1271.32 501.191 1208.9 506.294 1146.7 512.189 C 968.043 528.934 789.51 546.975 611.114 566.308 L 601.965 567.469 C 595.796 556.454 590.938 546.955 585.439 535.587 C 595.476 533.065 609.931 531.618 620.387 530.363 C 852.415 502.525 1088.27 482.695 1320.55 459.404 z" fill="currentColor" transform="translate(0,0)"></path>
<path d="M 731.601 917.307 L 734.923 917.103 C 739.153 920.747 742.203 940.533 743.532 946.836 C 753.237 948.46 761.053 949.855 770.676 952.185 C 772.22 958.666 775.227 968.857 774.523 975.115 C 768.724 982.589 730.573 982.111 728.603 998.571 C 726.618 1016.77 752.526 1014.01 763.594 1012.25 C 786.367 1008.63 811.122 1009.48 826.517 1029.81 C 834.341 1040.1 837.682 1053.11 835.785 1065.9 C 831.994 1090 815.401 1100.48 797.636 1113.52 C 800.162 1122.57 802.003 1128.87 803.314 1138.25 C 793.772 1140.82 780.613 1145.05 771.088 1144.57 C 767.537 1142.62 769.081 1143.96 766.958 1139.74 L 762.872 1127.28 C 758.3 1128.25 733.304 1135.79 730.648 1134.23 C 723.689 1130.14 717.409 1104.19 720.87 1096.24 C 728.367 1091.09 753.275 1092.89 763.807 1088.16 C 771.727 1084.61 782.441 1079.93 786.559 1071.35 C 788.03 1068.28 788.715 1061.25 786.913 1058.61 C 773.545 1039.07 734.244 1054.5 713.688 1047.18 C 702.998 1043.98 691.858 1037 686.761 1026.27 C 672.24 995.707 684.543 966.004 713.022 951.521 C 712.533 949.527 712.012 947.54 711.459 945.561 C 704.748 920.668 706.025 921.206 731.601 917.307 z" fill="currentColor" transform="translate(0,0)"></path>
<path d="M 459.221 615.86 C 462.635 616.334 462.787 616.384 466.013 617.613 C 472.756 624.019 488.321 682.39 491.452 693.727 C 511.222 763.396 529.154 833.574 545.229 904.188 C 557.635 959.719 569.557 1015.36 580.995 1071.1 C 603.96 1177.84 625.769 1284.83 646.42 1392.05 C 651.86 1419.68 658.652 1446.68 662.867 1474.59 C 666.607 1499.36 672.1 1524.07 674.959 1548.96 C 675.229 1551.31 671.744 1553.86 670.196 1555.38 C 666.84 1555.17 666.251 1555.4 663.281 1553.78 C 659.529 1547.84 640.401 1437.66 637.854 1424.46 L 610.209 1285.68 L 566.758 1078.16 C 551.909 1005.47 536.913 927.869 518.982 855.896 C 506.583 804.369 493.159 753.093 478.718 702.099 C 473.873 684.998 468.885 667.938 463.757 650.92 C 461.132 642.414 457.108 632.239 455.461 623.589 C 454.78 620.012 457.155 618.095 459.221 615.86 z" fill="currentColor" transform="translate(0,0)"></path>
<path d="M 1451.18 492.367 C 1456.74 493.859 1458.57 495.567 1459.95 501.245 C 1465.16 522.652 1468.96 544.533 1473.12 566.188 L 1497.61 693.757 C 1524.03 827.97 1552.4 971.419 1590.1 1102.74 C 1617.58 1201.65 1650.23 1299.05 1687.9 1394.55 C 1693.5 1408.36 1702.56 1428.57 1706.32 1443.29 C 1706.94 1445.71 1703.62 1448.94 1701.83 1450.94 C 1691.16 1450.72 1690.11 1439.17 1686.26 1429.93 C 1562.46 1132.98 1505.92 815.342 1446.14 500.967 C 1445.49 497.527 1449.01 494.672 1451.18 492.367 z" fill="currentColor" transform="translate(0,0)"></path>
<path d="M 1535.97 1348.37 C 1542.01 1347.33 1545.76 1347.07 1548.75 1353.02 C 1546.83 1364.89 1520.11 1364.77 1509.56 1366.23 C 1483.06 1369.87 1456.52 1373.28 1429.95 1376.44 C 1355.16 1385.91 1280.29 1394.79 1205.36 1403.06 C 1152.07 1409.16 1099.75 1416.56 1046.69 1423.17 C 964.391 1433.99 881.892 1443.21 799.237 1450.83 C 793.613 1451.34 788.717 1451.5 786.491 1445.46 C 788.251 1433.33 821.459 1434.66 832.05 1433.67 C 860.705 1431.15 889.314 1428.14 917.866 1424.65 L 1535.97 1348.37 z" fill="currentColor" transform="translate(0,0)"></path>
<path d="M 1298.78 743.413 C 1304.62 742.797 1310.31 741.964 1313.81 747.723 C 1313.68 750.392 1314.18 749.805 1312.93 751.801 C 1311.1 754.732 1305.64 756.935 1302.24 757.24 C 1283.91 758.884 1265.27 760.553 1246.94 762.171 L 1134.65 771.982 L 793.397 799.981 C 745.402 803.919 692.792 806.605 645.239 811.823 C 638.795 812.748 634.432 813.967 630.689 807.394 C 630.748 805.309 630.677 802.928 632.513 801.714 C 640.875 796.187 667.27 796.085 676.511 795.271 L 825.028 783.543 C 983.061 771.589 1140.98 758.212 1298.78 743.413 z" fill="currentColor" transform="translate(0,0)"></path>
<path d="M 1225.24 669.412 C 1233.95 668.597 1239.79 666.72 1246.29 673.797 C 1247.39 677.515 1247.57 675.803 1245.99 679.128 C 1240 683.908 1217.79 683.832 1208.98 684.488 L 1140.82 689.75 C 976.088 702.771 811.542 718.096 647.234 735.721 C 639.184 736.954 627.357 739.579 622.481 730.831 C 622.886 726.141 626.521 724.139 630.973 723.592 C 651.608 721.055 672.348 719.01 693.03 716.834 C 737.816 712.11 782.627 707.618 827.46 703.358 C 959.947 690.841 1092.55 679.525 1225.24 669.412 z" fill="currentColor" transform="translate(0,0)"></path>
<path d="M 1237.28 1459.38 C 1244.41 1458.58 1251.48 1460.27 1249.07 1469.21 C 1243.65 1475.21 1217.99 1476.55 1208.64 1477.72 L 1145.47 1485.82 L 918.138 1515.35 C 885.02 1519.73 843.948 1523.79 812.263 1529.7 C 808.507 1530.16 808.303 1530.33 804.432 1529.71 C 800.322 1527.12 798.178 1523.49 801.515 1519 C 803.369 1516.5 807.877 1515.68 810.821 1515.22 C 829.732 1512.3 848.798 1510.17 867.796 1507.82 L 953.046 1496.86 L 1237.28 1459.38 z" fill="currentColor" transform="translate(0,0)"></path>
<path d="M 1455.63 914.359 C 1462.56 913.404 1466.81 912.199 1469.35 920.082 C 1469.02 922.676 1468.95 923.943 1466.92 925.87 C 1456.8 935.476 1068.35 963.213 1028.3 966.583 C 1020.28 967.844 1012.44 966.213 1014.99 956.205 C 1017.1 953.941 1018.28 953.101 1021.47 952.838 C 1036.44 951.602 1051.53 950.535 1066.49 949.478 L 1157.5 943.111 C 1257.14 936.44 1356.56 926.852 1455.63 914.359 z" fill="currentColor" transform="translate(0,0)"></path>
<path d="M 1443.87 827.398 C 1448.74 827.446 1449.98 828.448 1451.87 832.669 C 1451.75 837.772 1448.21 840.989 1443.31 841.589 C 1427.67 843.506 1411.92 844.979 1396.23 846.563 L 1301.64 856.057 C 1203.64 865.948 1105.5 874.394 1007.25 881.393 C 1003.61 881.733 1002.97 880.801 1000.63 878.622 C 999.442 874.204 999.444 876.364 1000.71 871.897 C 1002.55 869.819 1004.38 868.001 1007.33 867.841 C 1021.1 867.093 1035.15 865.725 1048.85 864.532 L 1156.82 855.542 C 1252.63 847.543 1348.32 838.161 1443.87 827.398 z" fill="currentColor" transform="translate(0,0)"></path>
<path d="M 1468.64 1029.33 C 1474.96 1028.44 1478.28 1027.85 1481.97 1033.99 C 1482.12 1036.48 1482.32 1037.57 1480.38 1039.53 C 1464.82 1055.17 1092.88 1080.15 1047.94 1083.58 C 1041.08 1084.38 1037.78 1085.07 1034.07 1078.21 C 1033.86 1074.51 1033.45 1076.19 1035.33 1073 C 1042.89 1067.74 1113.37 1065.36 1128.61 1064.24 C 1242.07 1055.94 1356.27 1047.41 1468.64 1029.33 z" fill="currentColor" transform="translate(0,0)"></path>
<path d="M 1474.51 1099.31 C 1481.42 1097.97 1491.03 1098.7 1488.71 1108.37 C 1480.8 1117.05 1326.41 1133.24 1304.89 1135.53 C 1223.54 1144.16 1140.05 1147.97 1058.4 1154.18 C 1051.16 1155.18 1046.28 1156.5 1042.69 1148.56 C 1042.84 1146.9 1042.59 1145.37 1043.75 1144.29 C 1048.44 1139.88 1066.51 1140.21 1072.97 1139.7 L 1135.25 1135.26 C 1195.72 1131.18 1256.13 1126.28 1316.46 1120.54 C 1369.39 1115.44 1422.11 1108.36 1474.51 1099.31 z" fill="currentColor" transform="translate(0,0)"></path>
<path d="M 1537.64 1421.39 C 1544.58 1420.8 1547.24 1426.14 1544.67 1432.28 C 1540.54 1436.3 1509 1438.93 1501.68 1439.89 C 1474.49 1443.28 1447.33 1446.97 1420.23 1450.95 C 1414.11 1450.99 1410.35 1447.77 1411.63 1441.35 C 1416.8 1434.88 1448.79 1432.78 1458.78 1431.51 L 1537.64 1421.39 z" fill="currentColor" transform="translate(0,0)"></path>
<path d="M 1400.05 658.422 C 1405.89 657.68 1419 658.209 1416.53 667.086 C 1411.11 672.599 1387.02 672.736 1378.63 673.298 L 1324.25 676.88 C 1318.7 677.113 1302.44 679.705 1305.52 668.774 C 1312.9 661.651 1334.28 662.286 1344.73 661.686 L 1400.05 658.422 z" fill="currentColor" transform="translate(0,0)"></path>
<path d="M 1366.54 1443.36 C 1373.02 1441.96 1378.49 1441.96 1381.15 1448.9 C 1379.38 1459.26 1330.55 1462.01 1320.61 1463.33 C 1316.23 1464.09 1312.2 1465.28 1308.04 1464.17 C 1305.19 1462.15 1305.41 1462.27 1303.99 1459.04 C 1305.71 1446.32 1354.8 1444.81 1366.54 1443.36 z" fill="currentColor" transform="translate(0,0)"></path>
<path d="M 1424.99 733.42 C 1432.08 732.532 1437.89 737.194 1434.42 744.057 C 1427.09 748.363 1380.81 750.583 1369.24 751.461 C 1361.71 752.327 1357.07 746.74 1362.05 740.044 C 1368.88 736.244 1413.67 734.461 1424.99 733.42 z" fill="currentColor" transform="translate(0,0)"></path>
<path d="M 1247.61 107.376 C 1248.72 107.135 1255.53 106.603 1257.02 106.463 C 1263.76 114.254 1274.09 122.58 1281.64 130.589 C 1311.9 162.645 1331.66 210.948 1330.07 255.269 C 1307.9 259.136 1267.81 261.689 1244.32 263.826 L 1081.21 279.046 L 685.49 316.892 C 584.73 326.064 482.295 334.725 381.76 345.281 L 365.499 346.823 C 358.864 296.676 340.859 256.422 296.734 229.093 C 403.1 213.287 514.377 201.111 621.327 187.33 L 1247.61 107.376 z" fill="none" transform="translate(0,0)"></path>
<path d="M 1253.99 213.607 C 1260.38 212.762 1270.11 211.413 1273.4 218.773 C 1272.47 224.867 1265.05 227.422 1259.63 228.031 C 1241.78 230.037 1223.86 231.716 1205.99 233.502 C 1169.23 237.06 1132.5 240.838 1095.79 244.835 C 925.131 263.443 754.033 277.867 583.496 297.593 C 550.996 301.352 518.09 304.637 485.764 309.569 C 478.788 310.61 470.62 313.077 466.858 305.052 C 469.168 292.89 489.802 293.992 499.997 292.717 L 553.383 286.097 C 620.427 277.895 687.604 270.822 754.886 264.88 L 1136.26 225.975 C 1175.53 222.096 1214.77 217.973 1253.99 213.607 z" fill="currentColor" transform="translate(0,0)"></path>
<path d="M 1229.64 135.212 C 1234.85 134.301 1238.55 135.09 1241.44 139.577 C 1241.31 142.153 1241.19 142.918 1239.37 144.976 C 1233.42 151.716 1170.16 161.009 1158.21 163.214 C 1024.7 188.259 890.46 209.197 755.67 225.999 C 702.895 232.397 650.059 238.288 597.171 243.671 C 551.634 248.13 504.687 251.819 459.388 256.966 C 452.922 257.397 450.617 257.691 445.308 254.187 C 443.769 251.472 443.953 252.852 444.542 249.94 C 451.944 239.747 489.845 239.573 503.305 238.187 C 620.514 227.111 737.512 213.901 854.241 198.564 C 927.33 188.29 1000.22 176.649 1072.87 163.646 C 1125.27 154.976 1177.53 145.497 1229.64 135.212 z" fill="currentColor" transform="translate(0,0)"></path>
<path d="M 423.936 304.212 C 424.806 304.12 425.677 304.039 426.549 303.969 C 433.261 303.461 438.003 305.593 437.576 312.96 C 435.614 316.629 435.273 316.642 431.466 318.717 C 430.46 318.782 429.454 318.832 428.446 318.866 C 421.961 319.064 415.682 316.828 416.874 309.162 C 418.983 305.942 420.398 305.733 423.936 304.212 z" fill="currentColor" transform="translate(0,0)"></path>
<path d="M 400.494 249.147 C 414.159 248.226 421.019 257.084 407.509 263.508 C 394.405 264.541 388.238 256.979 400.494 249.147 z" fill="currentColor" transform="translate(0,0)"></path>
<path d="M 257.082 325.565 C 265.802 337.501 280.94 376.703 286.65 391.365 C 304.071 437.038 320.368 483.132 335.525 529.605 C 346.886 563.571 358.231 597.674 369.13 631.797 C 374.395 648.28 378.527 665.291 383.672 681.878 C 419.088 794.566 452.487 907.879 483.854 1021.76 C 494.688 1059.75 505.036 1097.88 514.894 1136.13 C 523.581 1169.44 533.107 1204.52 537.579 1238.72 C 541.698 1270.23 546.442 1319.98 525.776 1346.66 C 516.095 1359.16 505.956 1360.06 491.821 1361.74 C 448.064 1371.06 396.586 1375.64 351.597 1384.7 C 353.906 1366.56 359.4 1348.16 361.877 1328.05 C 369.229 1268.38 366.88 1214.6 361.721 1155.11 C 352.632 1056.67 339.028 958.69 320.952 861.493 C 311.989 813.12 302.572 764.833 292.701 716.638 C 284.953 679.712 277.413 642.742 270.083 605.731 C 258.855 549.844 247.529 488.424 245.094 431.292 C 243.898 403.232 246.125 350.044 257.082 325.565 z" fill="none" transform="translate(0,0)"></path>
<path d="M 280.837 740.151 C 283.443 743.366 285.206 759.966 285.939 765.182 C 274.505 771.125 262.654 778.091 251.381 784.495 C 248.033 781.482 246.698 764.255 245.966 758.655 C 255.728 752.661 270.472 745.298 280.837 740.151 z" fill="none" transform="translate(0,0)"></path>
<path d="M 257.676 625.057 C 259.237 627.348 263.539 649.747 264.416 653.96 C 252.377 658.344 243.512 662.574 231.968 668.088 C 228.532 665.162 226.655 647.096 225.77 641.531 C 234.237 636.928 249.202 627.999 257.676 625.057 z" fill="none" transform="translate(0,0)"></path>
<path d="M 240.642 542.924 C 241.823 543.125 241.056 542.913 242.748 544.048 C 245.108 551.329 247.034 565.924 248.46 574.129 C 236.498 577.619 231.185 580.665 220.374 587.069 L 219.067 587.257 C 216.502 584.283 214.217 563.441 213.481 558.239 C 223.49 551.856 229.953 548.163 240.642 542.924 z" fill="none" transform="translate(0,0)"></path>
<path d="M 272.92 701.091 C 275.618 705.032 277.641 718.923 278.644 724.444 C 268.006 729.557 255.039 737.04 244.511 742.794 L 244.153 742.769 C 240.886 740.362 239.32 724.794 238.515 719.682 C 249.944 713.862 261.213 707.088 272.92 701.091 z" fill="none" transform="translate(0,0)"></path>
<path d="M 300.889 852.8 L 302.692 852.973 C 306.194 856.862 306.587 868.181 307.252 873.936 C 295.832 880.775 284.231 887.308 272.461 893.527 L 271.742 893.602 C 268.418 890.941 267.23 876.829 266.513 871.977 C 275.726 865.916 290.78 858.261 300.889 852.8 z" fill="none" transform="translate(0,0)"></path>
<path d="M 288.998 779.89 C 292.614 784.057 292.996 797.229 293.435 803.006 C 282.945 808.025 268.185 816.877 257.693 822.762 L 257.098 822.541 C 254.458 818.881 254.04 805.226 253.754 800.405 L 288.998 779.89 z" fill="none" transform="translate(0,0)"></path>
<path d="M 345.664 1173.92 C 348.701 1177.69 348.552 1191.79 348.79 1197.5 L 316.318 1217.14 C 313.236 1214.25 313.495 1197.21 313.312 1192.32 C 323.956 1185.94 334.743 1179.81 345.664 1173.92 z" fill="none" transform="translate(0,0)"></path>
<path d="M 348.915 1250.04 C 351.189 1253.45 349.498 1271.79 349.204 1277.06 C 338.65 1282.96 329.178 1287.71 318.315 1293.01 C 315.962 1290.44 317.506 1271.81 317.688 1267.08 C 327.904 1261.86 338.786 1255.62 348.915 1250.04 z" fill="none" transform="translate(0,0)"></path>
<path d="M 294.594 817.877 C 295.323 818.138 296.052 818.4 296.781 818.661 C 299.269 824.16 299.972 830.135 301.066 836.13 C 288.524 843.737 278.594 849.763 265.456 856.235 C 264.46 856.539 265.128 856.447 263.484 855.777 C 261.561 850.079 261.031 843.955 260.213 837.954 C 271.627 831.181 283.087 824.489 294.594 817.877 z" fill="none" transform="translate(0,0)"></path>
<path d="M 338.27 1099.63 C 339.853 1099.59 339.007 1099.4 340.675 1100.61 C 342.4 1106.9 342.649 1114 343.164 1120.56 C 331.363 1126.63 321.76 1132.84 310.786 1140.06 L 309.469 1140.81 L 308.314 1139.99 C 306.989 1133.25 307.145 1125.2 307.035 1118.23 C 316.957 1113.2 328.258 1105.44 338.27 1099.63 z" fill="none" transform="translate(0,0)"></path>
<path d="M 314.702 923.865 C 318.197 927.224 318.689 939.205 319.373 944.726 C 308.545 950.324 296.205 959.026 285.363 963.4 C 282.996 960.5 281.885 947.714 281.31 943.285 C 291.261 938.527 304.675 929.679 314.702 923.865 z" fill="none" transform="translate(0,0)"></path>
<path d="M 326.813 993.824 L 328.1 994.71 C 329.515 999.498 330.182 1010.41 330.674 1015.88 C 318.938 1021.24 308.252 1028.3 297.319 1035.15 C 295.292 1031.86 294.57 1019.05 294.133 1014.3 C 304.899 1007.27 315.794 1000.45 326.813 993.824 z" fill="none" transform="translate(0,0)"></path>
<path d="M 250.109 587.098 C 252.654 589.786 255.133 606.521 255.882 610.879 C 245.466 614.498 236.099 619.944 226.47 625.237 L 225.011 625.144 C 222.662 622.497 221.214 608.247 220.591 603.946 C 230.376 597.127 239.564 592.359 250.109 587.098 z" fill="none" transform="translate(0,0)"></path>
<path d="M 309.219 889.227 C 312.096 893.029 312.916 903.66 313.292 908.581 C 301.686 914.78 290.526 922.684 278.761 928.126 C 276.076 921.987 275.317 915.911 274.281 909.354 C 285.792 902.19 297.092 895.313 309.219 889.227 z" fill="none" transform="translate(0,0)"></path>
<path d="M 341.303 1136.68 C 342.402 1136.59 341.636 1136.59 343.543 1137.2 C 345.343 1141.84 345.853 1152.5 346.329 1157.98 C 337.295 1162.22 323.313 1170.65 314.4 1175.78 L 312.624 1175.45 C 310.904 1170.26 310.521 1161.8 310.028 1156.09 L 341.303 1136.68 z" fill="none" transform="translate(0,0)"></path>
<path d="M 320.866 958.955 C 323.954 962.756 324.573 972.517 325.318 977.799 C 314.025 985.176 303.783 991.365 292.113 998.15 L 290.492 997.619 C 288.484 992.162 288.249 986.45 287.63 980.616 C 298.468 973.033 309.553 965.809 320.866 958.955 z" fill="none" transform="translate(0,0)"></path>
<path d="M 236.029 505.135 C 238.876 508.725 240.314 524.189 241.034 529.578 L 213.596 541.13 L 212.338 540.778 C 210.44 537.992 209.22 524.153 208.685 519.867 C 218.719 514.276 225.115 509.276 236.029 505.135 z" fill="none" transform="translate(0,0)"></path>
<path d="M 264.587 667.873 L 266.254 668.281 C 267.863 672.167 269.679 681.763 270.642 686.26 C 259.95 691.724 250.443 697.765 239.272 702.6 L 237.509 702.971 C 234.039 699.476 234.46 688.553 234.162 683.067 C 244.194 678.283 254.605 672.869 264.587 667.873 z" fill="none" transform="translate(0,0)"></path>
<path d="M 228.835 397.068 L 229.529 397.733 C 230.453 402.649 229.302 415.733 228.982 421.346 C 218.04 423.923 209.816 427.678 199.528 432 C 198.285 425.549 197.955 418.805 197.455 412.24 C 208.305 406.195 217.564 402.038 228.835 397.068 z" fill="none" transform="translate(0,0)"></path>
<path d="M 346.918 1294.94 C 349.571 1298.4 347.703 1309.78 347.283 1314.79 C 337.891 1321.31 328.278 1327.51 318.461 1333.37 C 316.171 1329 316.923 1315.58 316.987 1310.04 C 325.984 1304.86 337.463 1299.58 346.918 1294.94 z" fill="none" transform="translate(0,0)"></path>
<path d="M 330.985 1031.07 C 333.186 1033.73 334.527 1045.31 335.157 1049.22 C 325.952 1054.97 313.125 1062.86 303.631 1067.59 C 302.753 1067.53 303.395 1067.64 301.992 1066.53 C 300.536 1062.06 300.161 1055.23 299.672 1050.37 C 308.951 1042.79 320.399 1036.63 330.985 1031.07 z" fill="none" transform="translate(0,0)"></path>
<path d="M 347.626 1213.95 C 350.269 1217.11 349.985 1228.57 350.131 1233.05 C 339.636 1239.65 328.975 1245.98 318.159 1252.03 C 316.462 1249.22 316.5 1237.02 316.36 1232.9 C 327.266 1227.21 336.985 1218.66 347.626 1213.95 z" fill="none" transform="translate(0,0)"></path>
<path d="M 335.171 1065.72 L 336.853 1066.58 C 338.69 1072.56 338.858 1078.04 339.354 1084.26 C 327.781 1090.06 318.395 1095.97 307.639 1102.93 L 306.641 1102.62 C 305.142 1098.86 304.325 1088.78 303.809 1084.18 C 315.059 1078.69 324.756 1072.51 335.171 1065.72 z" fill="none" transform="translate(0,0)"></path>
<path d="M 240.31 296.87 C 242.83 298.221 245.059 302.004 246.926 304.571 C 245.732 308.876 243.496 314.435 241.912 318.734 C 232.054 319.751 222.201 322.21 212.548 324.468 C 210.021 325.353 209.027 326.067 206.502 325.414 C 203.569 311.158 230.132 300.909 240.31 296.87 z" fill="none" transform="translate(0,0)"></path>
<path d="M 230.729 335.259 C 233.563 334.883 234.35 334.439 236.863 335.689 C 238.105 339.182 235.356 346.177 234.177 350.248 C 224.916 353.193 214.417 357.701 205.637 361.682 C 203.211 363.077 202.354 363.944 199.609 363.945 L 198.276 361.994 C 197.798 357.194 199.807 350.603 200.951 345.682 C 211.06 339.581 219.324 337.389 230.729 335.259 z" fill="none" transform="translate(0,0)"></path>
<path d="M 342.618 1333.95 L 343.424 1334.88 C 343.139 1342.98 339.504 1355.39 337.248 1363.26 C 329.639 1367.11 323.467 1370.37 315.374 1373.24 C 313.256 1369.49 315.223 1355.94 315.664 1351.13 C 321.297 1346.53 335.956 1338 342.618 1333.95 z" fill="none" transform="translate(0,0)"></path>
<path d="M 230.472 468.71 L 231.751 468.942 C 233.714 471.92 234.743 486.451 235.27 491.052 C 226.444 494.432 217.441 497.706 209.353 502.552 L 208.369 502.949 L 207.244 502.027 C 205.499 494.751 205.281 490.632 204.737 483.104 C 213.196 478.096 221.777 473.297 230.472 468.71 z" fill="none" transform="translate(0,0)"></path>
<path d="M 225.807 438.017 C 228.054 437.749 227.243 437.659 229.332 438.511 C 231.056 443.131 230.665 448.472 230.724 453.529 C 221.193 456.313 214.147 460.458 205.494 465.109 C 203.86 465.809 204.793 465.66 202.66 465.18 C 200.765 460.362 200.939 455.368 200.673 450.119 C 208.853 444.476 216.546 441.367 225.807 438.017 z" fill="none" transform="translate(0,0)"></path>
<path d="M 229.521 365.794 L 231.004 366.173 C 232.044 369.089 231.122 377.014 230.894 380.536 C 219.8 384.665 210.122 389.09 199.355 393.962 L 197.71 393.882 C 196.352 391.014 196.998 385.352 197.112 381.924 C 207.824 376.366 218.629 370.989 229.521 365.794 z" fill="none" transform="translate(0,0)"></path>
<path d="M 224.415 270.5 C 227.708 273.402 231.133 280.119 233.413 284.123 L 222.231 288.442 C 220.321 289.212 219.666 289.131 217.587 289.443 L 216.8 288.048 C 217.789 282.509 221.733 275.756 224.415 270.5 z" fill="none" transform="translate(0,0)"></path>
<path d="M 333.919 1379.15 L 334.339 1379.72 C 334.571 1383.51 334.982 1381.8 333.11 1385.05 C 328.872 1388.01 319.754 1389.79 314.319 1391.15 L 313.389 1388.44 C 315.181 1384.61 327.63 1381.8 333.919 1379.15 z" fill="none" transform="translate(0,0)"></path>
</svg>