<svg xmlns="http://www.w3.org/2000/svg" preserveAspectRatio="none" style="display: block;" version="1.1" viewBox="0 0 2048 2048">
<path d="M 707.737 97.4199 C 732.144 93.8579 770.952 99.9463 792.24 110.142 C 866.993 145.941 891.091 217.198 837.154 283.832 C 805.002 323.553 759.356 370.067 703.875 359.294 C 701.965 364.209 699.98 369.093 697.92 373.946 C 695.323 379.973 692.448 386.444 687.326 390.768 C 677.694 398.9 616.459 421.348 601.116 427.497 C 619.978 484.251 638.175 541.059 661.303 596.745 C 671.783 621.978 693.522 656.875 702.196 683.506 C 703.919 688.796 697.105 697.869 693.623 702.391 C 702.527 714.005 709.581 727.346 717.813 739.505 C 736.624 767.288 755.726 794.034 776.447 820.43 C 816.976 872.059 859.806 921.861 900.638 973.246 C 923.544 1002.07 946.634 1031.12 966.355 1062.26 C 995.175 1107.77 1018.16 1157.55 1036.22 1208.22 C 1095.06 1373.26 1097.03 1549.3 1089.21 1722.37 C 1087.99 1749.31 1087.95 1810 1076.98 1833.17 C 1070.6 1810.63 1075 1772.68 1076.38 1748.22 C 1077.16 1732.46 1077.72 1716.68 1078.06 1700.9 C 1079.2 1659.48 1080.47 1618.07 1080.53 1576.69 C 1080.82 1397.68 1049.95 1208.58 948.938 1057.03 C 881.651 956.077 792.223 868.87 723.797 768.405 C 710.257 748.526 698.44 727.977 685.331 707.91 L 672.585 713.552 C 690.329 741.196 711.059 768.061 731.244 793.942 C 755.689 823.367 779.743 858.37 804.595 888.224 C 848.513 940.983 892.098 991.434 930.412 1048.63 C 1038.67 1210.25 1074.08 1396.75 1074.9 1588.29 C 1075.15 1647.78 1072.11 1706.97 1069.35 1766.56 L 1064.35 1876.08 C 1062.93 1904.99 1061.27 1942.21 1055.51 1970.65 C 1049.65 1940.03 1054.88 1863.03 1056.22 1828.88 C 1059.8 1742.18 1064.23 1655.91 1063.26 1569.08 C 1061.07 1372.06 1013.63 1169.25 890.415 1011.55 C 820.594 922.19 745.467 837.159 680.382 744.071 C 674.348 735.44 668.825 726.165 663.336 717.159 C 647.867 714.023 642.148 712.081 632.733 698.711 C 625.627 688.621 619.961 678.42 613.847 667.715 C 586.762 620.511 563.146 571.401 543.186 520.771 C 531.995 491.53 523.209 461.693 512.18 432.332 C 380.272 378.751 387.077 189.705 527.918 153.553 C 566.53 143.642 590.564 128.101 630.473 141.088 C 643.795 106.315 674.551 100.442 707.737 97.4199 z" fill="currentColor" transform="translate(0,0)"></path>
<path d="M 696.205 106.375 C 741.573 100.715 802.33 120.38 828.244 160.52 C 872 228.297 832.406 290.338 771.991 329.861 C 750.34 342.854 731.645 349.84 706.621 352.439 C 736.02 273.611 721.095 205.255 654.335 152.429 C 660.593 119.211 661.723 110.448 696.205 106.375 z" fill="none" transform="translate(0,0)"></path>
<path d="M 727.324 210.631 C 731.061 212.921 737.577 222.272 739.67 226.436 C 751.653 250.277 750.205 266.264 743.002 290.502 L 741.118 293.714 C 739.718 289.587 741.67 272.163 741.209 265.862 C 739.688 245.101 734.929 229.729 727.324 210.631 z" fill="currentColor" transform="translate(0,0)"></path>
<path d="M 500.135 173.478 C 505.375 177.446 517.644 208.661 520.982 216.687 C 548.332 282.462 567.017 350.543 585.515 419.374 C 559.502 425.491 546.338 430.339 520.746 422.497 C 516.878 421.136 513.063 419.628 509.309 417.978 C 473.412 401.988 451.439 376.12 436.488 339.933 C 413.115 283.361 439.845 195.528 500.135 173.478 z" fill="none" transform="translate(0,0)"></path>
<path d="M 475.762 203.107 C 475.618 204.001 458.936 229.672 456.635 235.593 C 428.065 309.108 464.695 384.382 536.967 414.444 L 535.476 414.983 L 536.079 414.115 L 535.065 415.036 L 530.359 414.495 C 510.74 409.963 490.12 397.51 475.75 383.577 C 422.511 331.953 425.109 255.316 475.762 203.107 z" fill="currentColor" transform="translate(0,0)"></path>
<path d="M 589.638 147.236 C 592.28 146.838 593.311 146.959 595.957 147.043 C 598.37 148.525 599.607 150.192 601.151 152.563 C 611.165 167.929 619.244 185.18 626.321 202.062 C 633.848 220.015 687.148 366.624 682.312 378.864 C 679.694 385.492 640.66 400.038 632.256 403.616 L 624.143 406.951 C 606.008 336.63 581.167 265.879 555.394 197.95 C 550.532 185.136 544.384 173.064 539.983 159.963 C 556.318 154.915 572.889 150.668 589.638 147.236 z" fill="none" transform="translate(0,0)"></path>
<path d="M 576.35 432.248 L 578.86 432.57 C 587.899 443.98 603.584 491.911 610.067 507.444 C 627.011 548.04 641.958 592.405 662.136 631.387 C 648.312 645.382 634.408 653.752 615.687 644.003 C 592.883 626.785 538.152 469.553 526.295 434.917 C 546.044 439.306 557.031 436.298 576.35 432.248 z" fill="none" transform="translate(0,0)"></path>
<path d="M 541.76 446.594 C 550.787 454.766 566.009 493.901 571.477 506.671 L 601.934 577.761 C 607.918 591.911 627.186 633.94 629.01 645.376 C 624.276 642.535 618.593 631.687 615.669 626.694 C 589.642 582.201 568.673 535.01 552.34 486.137 C 548.596 474.933 542.079 458.098 541.76 446.594 z" fill="currentColor" transform="translate(0,0)"></path>
<path d="M 528.187 164.019 L 530.96 163.981 C 539.831 171.019 582.262 304.435 589.097 323.501 C 597.592 347.2 604.458 385.196 616.309 409.898 L 605.197 413.909 C 602.463 411.133 567.286 294.69 561.644 278.372 C 548.8 240.69 533.841 203.762 516.84 167.764 L 528.187 164.019 z" fill="none" transform="translate(0,0)"></path>
<path d="M 666.838 642.972 C 670.445 646.422 674.088 656.848 676.007 661.721 C 666.292 670.973 642.059 683.752 630.124 673.193 C 625.279 666.369 622.849 661.605 618.942 654.11 C 639.369 660.325 650.573 654.917 666.838 642.972 z" fill="none" transform="translate(0,0)"></path>
<path d="M 681.873 672.115 C 686.343 676.839 687.926 681.708 690.235 687.63 C 681.164 698.348 663.805 711.264 649.628 702.718 C 644.028 697.014 641.91 692.71 638.108 685.802 C 657.756 686.084 666.015 683.274 681.873 672.115 z" fill="none" transform="translate(0,0)"></path>
<path d="M 1326.37 121.367 C 1366.69 117.094 1413.21 128.392 1441.69 158.507 C 1471.53 160.242 1530.88 186.769 1558.18 200.309 C 1657.1 249.381 1651.93 384.395 1564.13 441.892 C 1549.41 451.532 1536.41 455.761 1519.94 460.868 C 1509.07 475.383 1500.97 493.815 1492.17 509.757 C 1470.23 549.537 1391.9 699.097 1361.73 716.866 C 1354.14 721.337 1346.96 720.216 1338.92 718.087 C 1329.01 745.163 1315.37 772.058 1305.15 799.654 C 1255.6 933.523 1224.35 1074.13 1222.1 1217.23 C 1221.69 1243.71 1222.5 1270 1222.19 1296.45 C 1221.64 1342.72 1218.87 1388.93 1213.89 1434.93 C 1194.72 1605.38 1147.11 1770.7 1125.47 1940.83 C 1121.6 1971.3 1122.63 1999.67 1113.83 2029.71 C 1091.08 1975.47 1153.6 1717.69 1167.4 1647.78 C 1179.82 1591.8 1188.44 1535.84 1197.58 1479.34 C 1218.66 1349.09 1203.61 1212.33 1222.49 1082.97 C 1234.33 1002.43 1253.07 923.068 1278.52 845.749 C 1292.96 800.408 1310.49 756.11 1330.99 713.164 C 1327.25 710.719 1322.29 708.307 1318.26 706.197 C 1261.56 826.506 1210.28 1007.22 1201.53 1140.31 C 1199.38 1176.73 1198.56 1213.23 1199.07 1249.71 C 1199.37 1275.88 1200.77 1301.4 1199.79 1327.72 C 1198.64 1358.77 1195.01 1389.54 1191.37 1420.37 C 1188.45 1445.73 1185.39 1471.08 1182.19 1496.4 C 1174.75 1548.45 1164.99 1600.14 1152.96 1651.31 C 1144.98 1685.51 1135.09 1720.16 1128.09 1754.52 C 1116.76 1810.15 1107.69 1866.97 1098.91 1923.01 C 1095.15 1892.64 1103.04 1843.56 1108.34 1813.59 C 1113.63 1782.52 1119.61 1751.57 1126.28 1720.76 C 1131.99 1695.16 1138.83 1670 1144.48 1644.41 C 1157.72 1586.62 1168.32 1528.25 1176.24 1469.5 C 1184.5 1406.92 1189.35 1349.58 1186.81 1286.54 C 1186.17 1270.82 1188.67 1252.72 1188.65 1236.7 C 1188.57 1161.81 1194.63 1088.44 1208.82 1014.82 C 1229.95 907.033 1263.51 802.055 1308.81 701.993 C 1295.17 676.964 1313.2 660.955 1323.9 638.392 C 1337.12 610.536 1356.41 584.156 1370.69 557.163 C 1389.18 522.213 1408.64 484.161 1423.2 447.553 C 1415.09 441.776 1403.72 436.182 1394.88 430.942 C 1381.33 422.91 1368.06 414.559 1354.86 405.966 C 1348.2 401.626 1341.99 392.227 1334.95 388.498 C 1330.83 386.315 1322.68 383.831 1317.89 382.42 C 1304.19 378.382 1292.7 373.074 1281.41 364.018 C 1250.42 339.142 1216.46 296.875 1211.06 256.284 C 1206.66 223.27 1219.25 192.589 1239.01 166.958 C 1262.26 136.813 1289.21 125.953 1326.37 121.367 z" fill="currentColor" transform="translate(0,0)"></path>
<path d="M 1531.86 198.611 C 1544.46 201.055 1562.15 211.737 1572.66 219.366 C 1661.36 283.751 1611.34 438.557 1507.04 450.915 C 1477.79 451.682 1444.08 448.179 1419.79 430.595 C 1414.28 426.602 1421.66 402.342 1423.42 395.95 C 1439.81 336.739 1483.64 237.565 1531.86 198.611 z" fill="none" transform="translate(0,0)"></path>
<path d="M 1548.3 222.792 C 1618.97 271.874 1619.83 369.401 1555.54 424.14 C 1552.6 426.049 1548.08 428.185 1544.85 429.834 C 1551.38 419.537 1558.16 409.299 1564.3 398.611 C 1593.45 347.886 1596.94 282.94 1558.47 236.063 C 1554.99 231.817 1551.6 227.182 1548.3 222.792 z" fill="currentColor" transform="translate(0,0)"></path>
<path d="M 1545.92 256.824 C 1568.12 280.914 1573.52 319.617 1567.11 350.654 C 1559.84 385.822 1539.68 413.39 1509.81 432.831 L 1498.49 438.643 C 1504.73 431.769 1511.08 424.846 1517.07 417.755 C 1550.67 378.017 1569.59 324.253 1550.88 273.509 C 1548.94 268.269 1547.36 262.202 1545.92 256.824 z" fill="currentColor" transform="translate(0,0)"></path>
<path d="M 1331.79 135.42 C 1358.19 134.205 1399.63 141.033 1420.35 158.971 C 1370.49 188.212 1341.8 226.096 1329.22 282.958 C 1324.36 304.919 1320.25 325.323 1324.82 347.778 C 1325.76 352.392 1329.54 365.521 1327.65 369.306 L 1324.78 369.125 C 1312.03 365.481 1300.25 359.792 1290.22 350.68 C 1260.91 324.074 1230.76 272.61 1227.49 232.634 C 1225.63 209.865 1234.89 185.14 1249.8 168.443 C 1271.51 144.121 1300.88 137.459 1331.79 135.42 z" fill="none" transform="translate(0,0)"></path>
<path d="M 1369.77 169.021 L 1370.32 169.459 C 1369.44 172.15 1356.64 186.683 1353.96 189.938 C 1329.56 219.668 1317.14 252.156 1307.76 288.867 L 1307.05 287.923 C 1306.32 238.941 1330.4 197.084 1369.77 169.021 z" fill="currentColor" transform="translate(0,0)"></path>
<path d="M 1441.28 453.635 C 1464.26 460.014 1479.6 462.744 1503.18 462.049 C 1494.59 480.177 1483.08 500.358 1473.48 518.174 C 1445.91 569.442 1416.72 619.815 1385.93 669.217 L 1378.84 678.921 C 1362.89 662.518 1354.01 657.093 1332.6 649.182 C 1345.95 618.054 1374.66 576.849 1392.1 546.691 C 1410.07 515.606 1425.48 485.82 1441.28 453.635 z" fill="none" transform="translate(0,0)"></path>
<path d="M 1479.4 477.834 C 1479.4 478.296 1479.41 478.759 1479.42 479.221 C 1466.71 527.28 1412.36 624.233 1379.83 654.434 C 1377.47 642.456 1460.99 513.815 1471.46 491.294 C 1472.64 488.762 1477.67 480.664 1479.4 477.834 z" fill="currentColor" transform="translate(0,0)"></path>
<path d="M 1455.77 172.625 C 1469.4 174.799 1489.65 183.462 1502.65 188.716 C 1443.42 252.845 1408.75 320.532 1390.78 405.799 L 1389.17 414.512 C 1376.66 407.174 1365.43 400.362 1354.93 390.324 C 1350.51 363.655 1357.96 343.605 1366.45 318.844 C 1385.95 262.004 1416.19 217.201 1455.77 172.625 z" fill="none" transform="translate(0,0)"></path>
<path d="M 1513.54 192.65 C 1516.63 195.047 1515.96 193.585 1516.77 196.65 C 1467.31 255.783 1431.06 320.507 1411.17 395.171 C 1409.4 401.822 1407.27 419.647 1403.47 423.315 C 1401.87 422.067 1400.79 421.054 1399.28 419.692 C 1397.54 415.27 1398.17 408.471 1399.13 403.918 C 1411.19 347.047 1433.76 296.838 1465.82 248.557 C 1478.9 228.859 1493.6 206.101 1513.54 192.65 z" fill="none" transform="translate(0,0)"></path>
<path d="M 1327.56 660.713 C 1347.54 668.707 1357.06 674.124 1372.22 689.539 C 1367.85 697.412 1364.1 700.735 1357.64 706.647 C 1347.52 712.409 1321.59 698.605 1315.8 689.973 C 1312.72 685.38 1324.72 665.879 1327.56 660.713 z" fill="none" transform="translate(0,0)"></path>
</svg>