<svg xmlns="http://www.w3.org/2000/svg" preserveAspectRatio="none" style="display: block;" version="1.1" viewBox="0 0 2048 2048">
<path d="M 1186.44 161.386 C 1256.06 154.892 1312.42 178.55 1376.52 199.888 L 1555.84 260.285 C 1632.6 286.209 1709.74 310.87 1786.05 338.128 C 1822.62 351.193 1861.89 362.569 1895.09 383.164 C 1918.33 397.582 1929.81 416.995 1935.82 443.357 C 1940.61 464.361 1950.2 523.497 1944.74 543.172 C 1935.37 576.905 1869.05 666.276 1845.6 699.248 C 1815.86 741.075 1788.1 784.435 1758.17 826.128 L 1701.7 905.739 C 1692.5 918.627 1680.4 933.064 1672.34 946.127 L 1671.43 947.626 C 1680.28 945.477 1694.97 942.057 1703.19 938.809 C 1736.99 925.451 1755.18 912.745 1793.1 914.426 C 1782.88 918.719 1766.94 924.341 1756.06 928.407 C 1728.85 938.568 1692.8 958.974 1664.34 959.312 C 1651.49 974.806 1634.46 999.511 1621.96 1016.52 C 1597.99 1048.52 1574.55 1080.91 1551.62 1113.66 C 1587.67 1121.8 1621.74 1127.24 1657.8 1138.06 C 1682.05 1145.34 1694.95 1146.88 1718.42 1159.23 C 1669.01 1155.37 1620.85 1141.18 1573.57 1127.06 C 1564.74 1124.42 1556.33 1121.92 1547.74 1118.56 C 1533.63 1135.21 1518.66 1159.06 1505.08 1177.2 C 1467.73 1227.12 1431.39 1278.59 1393.84 1328.32 C 1401.88 1333.41 1418.53 1340.67 1427.68 1345.71 C 1458.55 1362.7 1539.83 1403.72 1559.43 1428.88 C 1546 1425.08 1533.1 1417.22 1520.57 1411.11 C 1475.86 1389.32 1433.6 1356.94 1388.24 1337.19 C 1377.8 1348.08 1364.09 1368.52 1354.65 1381.46 L 1295.31 1462.86 C 1231.54 1551.03 1166.9 1638.57 1101.4 1725.47 C 1074.49 1763.62 1050.33 1798.69 1020.21 1835.18 C 986.142 1876.47 954.707 1882.49 902.776 1887.99 C 861.379 1892.37 819.742 1889.55 780.235 1875.47 C 750.655 1864.93 718.695 1846.79 690.361 1832.15 L 528.926 1747.74 L 327.73 1645.43 C 298.905 1631.07 270.202 1616.47 241.627 1601.62 C 213.06 1586.96 146.444 1554.34 129.307 1528.12 C 124.756 1521.02 121.135 1513.36 118.534 1505.34 C 111.073 1481.62 106.308 1441.76 102.319 1417.03 C 94.5149 1368.66 142.149 1322.22 171.326 1287.89 C 205.603 1247.74 240.196 1207.86 275.104 1168.26 L 572.873 819.221 C 549.806 815.848 528.244 810.63 505.62 805.098 C 477.667 798.263 430.261 789.323 405.427 775.634 C 417.185 776.488 448.165 782.569 460.713 785.135 C 493.428 791.825 548.67 799.952 578.931 812.324 C 590.82 799.584 605.966 779.993 617.835 766.172 C 659.561 717.347 700.808 668.114 741.571 618.482 C 768.697 585.851 796.517 554.106 823.689 521.718 C 882.263 451.537 940.176 380.807 997.42 309.538 C 1020.98 280.196 1045.23 251.723 1069.41 222.941 C 1101.97 184.175 1136.58 166.844 1186.44 161.386 z" fill="currentColor" transform="translate(0,0)"></path>
<path d="M 1193.64 180.405 C 1258.14 170.736 1342.7 211.049 1403.05 230.071 C 1487.54 256.705 1571.43 286.056 1655.51 313.989 L 1781.59 356.679 C 1799.3 362.795 1817.23 368.476 1834.78 375.166 C 1951.72 419.733 1917.34 455.357 1862.72 536.056 C 1808.49 614.738 1753.58 692.945 1697.98 770.668 L 1630.9 862.387 L 1308.31 1310.23 L 1089.28 1615.83 C 1061.04 1655.34 1035.04 1696.35 1005.68 1735.12 C 965.85 1787.69 911.115 1810.69 846.236 1797.61 C 807.545 1786.26 758.323 1758.88 721.437 1740.63 L 527.485 1645.41 L 268.322 1518.93 C 229.828 1499.91 187.402 1483.26 152.435 1458.26 C 139.756 1449.2 122.724 1428.12 121.004 1412.38 C 118.882 1392.95 130.66 1371.04 141.357 1355.6 C 158.818 1332.33 178.577 1309.28 197.594 1287.17 L 264.066 1209.55 L 477.559 960.373 C 665.376 740.033 851.065 517.888 1034.6 293.967 C 1084.32 234.351 1112.16 187.789 1193.64 180.405 z" fill="none" transform="translate(0,0)"></path>
<path d="M 1073.51 322.819 C 1096.06 328 1125.49 338.228 1147.63 345.553 L 1259.57 382.54 L 1644.42 506.809 L 1728.16 533.238 C 1742.82 537.836 1758.62 541.706 1772.75 547.652 C 1775.55 548.828 1778.94 550.371 1781 552.68 C 1782.78 554.672 1783.64 557.532 1783.31 560.216 C 1781.94 571.287 1590.1 843.317 1568.29 874.154 L 1045.24 1601.44 C 1037.22 1612.41 1033.32 1618.82 1018.61 1613.41 C 1006.55 1608.97 995.059 1603.57 983.365 1598.29 C 961.741 1588.55 940.201 1578.61 918.749 1568.49 C 785.919 1506.83 653.654 1443.95 521.972 1379.87 L 398.551 1319.84 C 383.861 1312.55 356.938 1300.36 343.979 1291.95 C 357.296 1277.83 375.04 1263.3 388.65 1249.02 C 394.097 1243.31 400.954 1237.99 405.606 1231.56 L 404.735 1231.11 C 391.075 1237.15 347.631 1277.27 338.295 1289.24 C 322.027 1282.56 292.511 1268.67 278.232 1258.69 C 282.986 1250.98 295.304 1237.36 301.094 1230.01 C 320.337 1205.6 341.864 1183.2 362.008 1159.73 L 556.057 933.717 L 903.087 524.097 C 959.835 456.84 1015.35 388.931 1073.51 322.819 z" fill="currentColor" transform="translate(0,0)"></path>
<path d="M 756.356 798.074 C 764.668 798.286 779.122 796.688 786.469 800.352 C 797.49 805.847 817.203 884.332 853.274 904.478 C 848.397 918.031 840.878 928.919 836.384 943.165 C 817.748 941.138 779.758 940.1 764.91 935.65 C 763.92 933.748 756.73 923.692 755.082 921.175 C 748.26 910.925 742.052 900.28 736.491 889.295 C 734.915 885.366 731.118 873.884 727.79 872.405 L 727.104 874.17 C 728.605 890.85 749.124 921.832 758.086 936.05 C 731.988 935.743 703.15 933.359 676.498 932.463 C 687.559 909.481 706.781 880.555 720.116 858.277 C 730.962 840.156 744.664 814.626 756.356 798.074 z" fill="none" transform="translate(0,0)"></path>
<path d="M 766.848 841.675 C 767.199 841.804 767.549 841.933 767.9 842.063 C 771.17 843.626 776.581 856.481 778.311 860.119 C 785.917 876.116 794.632 890.817 803.333 906.171 C 806.496 911.752 813.786 922.498 815.684 927.486 C 813.316 927.745 813.114 927.624 810.726 927.262 C 800.424 919.26 769.466 856.35 766.848 841.675 z" fill="currentColor" transform="translate(0,0)"></path>
<path d="M 948.341 788.175 C 949.065 796.375 862.457 952.923 852.732 967.277 C 827.576 966.186 801.179 963.361 774.743 962.257 L 775.189 960.909 C 785.458 955.537 784.641 950.226 786.202 949.949 C 803.066 946.959 827.321 957.207 843.351 953.125 C 846.462 952.333 849.371 945.833 850.986 942.674 C 856.344 932.195 860.51 920.923 865.349 910.138 L 893.239 848.108 C 900.324 832.638 911.221 814.719 916.935 800.23 C 927.095 795.619 937.826 792.384 948.341 788.175 z" fill="none" transform="translate(0,0)"></path>
<path d="M 795.71 799.993 C 810.792 800.213 825.861 800.954 840.892 802.216 C 846.107 825.93 858.138 841.502 872.669 860.493 C 868.556 869.03 864.126 879.949 860.068 888.848 L 853.934 902.44 C 829.993 880.5 803.125 831.658 795.71 799.993 z" fill="none" transform="translate(0,0)"></path>
<path d="M 929.711 769.493 C 935.653 769.386 942.406 769.813 948.423 770.059 C 941.113 775.527 919.51 784.902 908.688 791.266 C 904.438 790.655 887.102 791.222 881.955 791.211 C 863.549 791.243 845.144 790.88 826.753 790.123 C 820.029 789.959 812.948 789.417 806.206 789.004 C 813.353 782.547 822.159 779.295 827.133 772.946 C 844.418 770.2 862.023 770.928 879.591 770.813 C 896.304 770.701 913.014 770.262 929.711 769.493 z" fill="none" transform="translate(0,0)"></path>
<path d="M 846.104 801.387 C 858.864 800.383 885.374 802.491 899.221 803.278 C 893.005 816.977 886.984 830.764 881.16 844.634 C 878.73 849.877 876.31 854.169 873.492 859.203 C 868.169 847.45 840.883 812.911 846.104 801.387 z" fill="none" transform="translate(0,0)"></path>
<path d="M 702.527 829.478 C 705.947 831.753 712.651 838.064 717.043 841.341 C 710.196 852.999 702.701 867.097 694.525 877.78 C 692.196 880.823 690.842 880.226 687.716 880.245 C 682.611 881.435 678.746 882.676 673.507 882.489 L 672.75 881.023 C 674.64 870.34 695.101 838.876 702.527 829.478 z" fill="none" transform="translate(0,0)"></path>
<path d="M 715.421 945.388 C 722.881 944.75 764.108 947.703 772.377 948.795 C 768.21 952.73 756.84 961.767 751.006 962.021 C 744.014 960.781 733.159 961.682 725.558 961.747 C 713.72 961.875 701.881 961.637 690.058 961.034 C 698.106 956.154 707.546 949.093 715.421 945.388 z" fill="none" transform="translate(0,0)"></path>
<path d="M 1170.05 700.312 L 1171.31 700.589 L 1170.89 702.303 C 1158.41 714.497 1105.07 738.812 1088.51 741.839 L 1087.46 741.68 L 1087.2 740.274 C 1101.38 722.305 1146.5 704.292 1170.05 700.312 z" fill="none" transform="translate(0,0)"></path>
<path d="M 1211.99 387.937 C 1214.62 390.58 1214.07 389.08 1214.2 392.377 C 1204.35 410.523 1161.34 444.876 1144.76 458.21 C 1143.23 457.746 1144.05 458.167 1142.56 456.543 C 1150.37 440.241 1196.21 398.468 1211.99 387.937 z" fill="none" transform="translate(0,0)"></path>
<path d="M 777.256 771.576 C 777.634 771.496 807.218 772.741 810.365 772.814 C 801.401 779.391 794.944 779.55 789.294 789.075 C 783.851 788.939 777.298 788.255 771.766 787.806 C 767.485 787.31 760.957 787.25 756.485 787.066 C 748.781 782.394 743.23 778.513 736.588 772.505 C 749.299 772.117 764.833 772.785 777.256 771.576 z" fill="none" transform="translate(0,0)"></path>
<path d="M 575.653 1076.92 L 576.474 1078 C 575.146 1080.69 567.079 1087.79 564.217 1090.51 C 543.845 1109.89 514.649 1139.53 489.798 1152.84 C 489.095 1152.23 489.57 1152.71 488.839 1151.05 C 506.724 1125.74 550.246 1094.03 575.653 1076.92 z" fill="none" transform="translate(0,0)"></path>
<path d="M 731.734 784.605 C 737.763 788.376 738.822 789.524 743.713 794.526 C 743.621 798.954 727.679 826.029 724.102 830.978 C 719.082 824.707 715.06 822.762 708.266 818.507 C 713.579 809.217 725.269 793.53 731.734 784.605 z" fill="none" transform="translate(0,0)"></path>
<path d="M 682.835 892.218 L 683.785 893.43 C 681.413 898.416 677.407 904.11 674.568 909.167 C 669.787 917.686 666.386 925.348 662.706 934.352 L 645.238 940.853 L 644.564 940.051 C 645.19 931.767 657.048 908.289 661.182 900.146 C 669.288 895.944 674.102 894.562 682.835 892.218 z" fill="none" transform="translate(0,0)"></path>
<path d="M 653.208 983.827 L 654.438 984.072 L 655.113 985.423 C 651.548 994.122 587 1044.18 575.823 1049.73 L 574.712 1048.91 C 576.9 1040.62 624.999 1003.35 633.343 996.35 C 638.301 992.193 647.233 986.73 653.208 983.827 z" fill="none" transform="translate(0,0)"></path>
<path d="M 1072.21 727.886 C 1073.23 728.305 1072.67 727.949 1073.57 729.319 C 1061.43 750.351 1007.65 770.507 984.446 779.569 L 983.286 779.315 C 985.332 776.129 1064.17 731.426 1072.21 727.886 z" fill="none" transform="translate(0,0)"></path>
<path d="M 1027.98 581.784 L 1029.15 583.455 C 1027.54 588.406 1022.22 594.858 1018.43 598.449 C 1001.92 614.067 984.294 629.06 967.033 643.848 C 956.122 653.196 944.798 667.633 932.895 674.784 C 932.706 674.249 932.517 673.713 932.327 673.178 C 939.543 663.221 960.681 644.634 970.583 635.443 L 1027.98 581.784 z" fill="none" transform="translate(0,0)"></path>
<path d="M 894.47 1238.65 C 908.129 1248.74 894.687 1292.97 889.616 1305.74 L 886.62 1305.79 C 882.908 1300.14 889.646 1245.28 894.47 1238.65 z" fill="none" transform="translate(0,0)"></path>
<path d="M 890.024 1444.54 C 891.977 1445.7 891.612 1445.59 893.246 1447.28 C 897.357 1459.75 894.696 1504.92 890.872 1517.96 C 889.156 1516.71 888.194 1515.84 886.574 1514.45 C 881.016 1503.1 886.988 1457.13 890.024 1444.54 z" fill="none" transform="translate(0,0)"></path>
<path d="M 678.538 944.174 C 685.245 943.315 691.801 943.725 698.561 943.917 C 690.947 949.698 679.858 955.973 671.472 961.032 L 654.554 960.87 C 651.467 960.791 648.381 960.682 645.295 960.543 C 641.422 960.35 638.239 960.429 635.722 957.624 C 639.284 953.091 671.281 945.846 678.538 944.174 z" fill="none" transform="translate(0,0)"></path>
<path d="M 873.716 708.93 C 874.239 709.796 873.936 709.174 874.17 710.958 C 863.877 728.888 844.082 745.185 828.688 759.047 C 824.965 762.4 822.465 761.114 816.999 760.708 L 816.064 760.629 C 816.412 758.366 867.084 714.536 873.716 708.93 z" fill="none" transform="translate(0,0)"></path>
<path d="M 626.831 933.778 C 628.507 934.775 627.853 934.034 628.508 936.222 C 621.617 951.602 587.083 974.711 572.548 984.584 L 570.712 983.712 L 570.767 982.053 C 585.241 966.475 609.465 945.696 626.831 933.778 z" fill="none" transform="translate(0,0)"></path>
<path d="M 1077.78 521.92 C 1078.37 522.241 1078.97 522.563 1079.56 522.885 C 1069.8 539.419 1039.14 559.163 1022.59 568.99 L 1021.85 568.838 L 1021.47 567.641 C 1031.55 554.613 1062.51 528.625 1077.78 521.92 z" fill="none" transform="translate(0,0)"></path>
<path d="M 544.011 1451.36 C 590.468 1445.13 641.359 1476.25 648.512 1524.37 C 651.183 1542.13 646.662 1560.22 635.95 1574.63 C 621.659 1593.62 601.652 1604.44 578.247 1607.71 C 552.234 1610.47 525.402 1603.86 504.402 1588.07 C 487.532 1575.61 476.338 1556.93 473.308 1536.18 C 467.252 1491.69 500.969 1456.45 544.011 1451.36 z" fill="currentColor" transform="translate(0,0)"></path>
<path d="M 549.516 1469.32 C 635.367 1466.05 663.886 1575.81 573.647 1588.46 C 568.555 1588.7 562.433 1589.12 557.282 1588.63 C 521.363 1585.19 485.945 1556.71 492.403 1517.46 C 497.7 1485.26 520.263 1473.62 549.516 1469.32 z" fill="none" transform="translate(0,0)"></path>
<path d="M 1483.13 305.31 C 1495.67 302.91 1505.24 305.985 1514.4 314.666 C 1515.37 317.981 1516.14 320.587 1516.57 323.898 C 1519.84 349.134 1495.39 352.81 1491.68 357.597 C 1497.12 362.016 1534.82 366.394 1539.84 377.832 C 1543.67 386.585 1540.14 397.646 1531.55 402.031 C 1527.03 404.297 1521.97 405.283 1516.93 404.881 C 1508.3 404.209 1460.05 387.456 1447.57 383.368 C 1430.07 376.759 1377.18 363.995 1368.17 351.478 C 1365.92 348.342 1364.88 344.471 1365.61 340.644 C 1366.68 334.987 1371.05 329.865 1375.88 326.967 C 1379.39 324.861 1383.48 323.674 1387.59 323.915 C 1403.36 324.841 1445.21 342.023 1465.07 347.28 C 1455.74 334.841 1457.45 325.835 1468.25 313.855 C 1473.05 308.54 1476.23 307.202 1483.13 305.31 z" fill="currentColor" transform="translate(0,0)"></path>
<path d="M 1384.74 341.194 C 1387.92 340.891 1389.99 340.981 1393.91 342.164 C 1435.97 354.851 1477.44 370.258 1519.17 383.979 C 1519.72 384.895 1520.27 385.812 1520.81 386.728 C 1519.21 387.22 1517.11 387.752 1515.4 387.196 C 1474.15 373.773 1432.71 360.284 1391.72 346.068 C 1388.03 344.788 1386.82 344.187 1384.74 341.194 z" fill="none" transform="translate(0,0)"></path>
<path d="M 1483.46 322.897 C 1489.68 322.484 1499.71 322.035 1498.05 331.181 C 1495.38 335.034 1494.58 335.184 1490.37 337.621 C 1485.27 339.302 1482.5 340 1477.89 336.732 C 1474.38 329.498 1478.07 327.159 1483.46 322.897 z" fill="none" transform="translate(0,0)"></path>
<path d="M 1223.19 216.17 L 1225.93 217.132 C 1230.45 225.525 1211.64 278.679 1205.71 287.615 L 1203.93 287.878 C 1201.88 283.784 1220.36 224.806 1223.19 216.17 z" fill="currentColor" transform="translate(0,0)"></path>
<path d="M 803.449 1658.7 L 805.45 1660.35 C 807.782 1671.94 796.488 1711.96 791.164 1723.6 L 790.019 1722.84 C 788.083 1709.94 797.488 1670.26 803.449 1658.7 z" fill="currentColor" transform="translate(0,0)"></path>
<path d="M 751.695 1557.26 L 753.681 1558.41 C 755.755 1568.17 743.61 1609.86 738.243 1620.65 C 737.665 1620.13 735.957 1618.57 736.005 1617.99 C 737.165 1604.08 745.617 1567.84 751.695 1557.26 z" fill="currentColor" transform="translate(0,0)"></path>
<path d="M 224.619 1340.74 L 227.125 1341.29 C 226.35 1345.2 201.592 1371.8 197.119 1375.53 L 194.998 1374.83 L 194.957 1372.65 C 199.731 1362.29 214.513 1346.31 224.619 1340.74 z" fill="currentColor" transform="translate(0,0)"></path>
<path d="M 799.962 1524.69 C 804.61 1525.12 803.88 1524.28 806.131 1526.89 C 807.68 1537.32 802.867 1549.04 798.5 1558.45 C 796.619 1559.62 797.673 1559.26 795.299 1559.4 C 793.131 1554.46 798.046 1530.62 799.962 1524.69 z" fill="currentColor" transform="translate(0,0)"></path>
<path d="M 1698.45 366.664 L 1699.72 368.517 C 1697.93 379.993 1687.35 396.793 1679.47 405.329 L 1678.26 403.894 C 1678.19 394.035 1692.48 374.666 1698.45 366.664 z" fill="currentColor" transform="translate(0,0)"></path>
<path d="M 1425.5 259.767 C 1430.03 264.372 1416.44 284.474 1412.39 287.95 C 1411.73 286.848 1410.46 285.27 1410.68 284.338 C 1412.54 276.491 1420.23 265.229 1425.5 259.767 z" fill="currentColor" transform="translate(0,0)"></path>
<path d="M 326.394 1350.7 L 327.778 1351.28 C 327.527 1352.31 308.093 1370.79 304.798 1374.74 C 303.795 1374.75 304.454 1374.82 302.933 1374.05 C 304.661 1365.4 318.748 1354.38 326.394 1350.7 z" fill="currentColor" transform="translate(0,0)"></path>
<path d="M 378.505 1503.79 C 382.156 1508.47 369.781 1521.81 366.335 1525.19 C 362.391 1521 375.084 1506.86 378.505 1503.79 z" fill="currentColor" transform="translate(0,0)"></path>
<path d="M 644.822 1639.37 C 646.95 1640.35 646.065 1639.63 647.188 1641.91 C 647.135 1648.13 645.122 1651.36 641.057 1655.98 C 635.179 1649.78 640.164 1644.12 644.822 1639.37 z" fill="currentColor" transform="translate(0,0)"></path>
<path d="M 1922.63 481.689 C 1931.5 537.147 1923.3 555.991 1889.6 601.382 C 1879.63 614.821 1868.37 632.471 1858.86 646.641 C 1794.54 742.174 1728.25 836.365 1660.03 929.153 L 1240.12 1503.48 L 1082.62 1719.27 C 1059.01 1751.48 1010.93 1821.47 981.947 1846.67 C 955.567 1869.61 871.529 1872.74 835.73 1868.88 C 787.05 1863.63 740.233 1834.99 696.512 1812.5 L 585.285 1755.8 C 566.405 1745.99 547.491 1734.99 528.676 1725.47 L 308.462 1613.04 C 279.936 1598.37 251.246 1583.77 222.874 1568.83 C 195.214 1554.26 162.452 1538.32 143.097 1513.15 C 136.288 1499.8 131.175 1481.71 131.327 1466.62 C 137.14 1470.14 141.216 1473.91 146.572 1477.9 C 175.49 1499.43 211.253 1512.67 243.283 1528.66 L 487.268 1647.45 L 698.985 1751.09 C 739.389 1770.69 781.133 1793.6 823.005 1808.97 C 885.053 1831.75 956.057 1814.44 1001.9 1767.44 C 1023.89 1744.89 1038.69 1720.73 1056.7 1695.49 C 1100.9 1633.56 1144.15 1571.07 1188.36 1509.16 L 1755.43 722.182 C 1806.82 651.365 1858.4 577.531 1907.23 504.764 C 1912.44 496.997 1915.78 488.502 1922.63 481.689 z" fill="none" transform="translate(0,0)"></path>
<path d="M 133.134 1474.99 C 139.136 1476.58 142.317 1483.88 145.442 1489.26 C 160.012 1492.79 215.532 1523.73 233.936 1532.35 C 282.836 1554.81 330.87 1579.11 377.935 1605.19 C 399.498 1617.01 420.524 1630.54 442.066 1642.05 C 527.578 1686.68 613.645 1730.24 700.245 1772.72 C 747.627 1795.9 794.083 1823.21 845.164 1837.46 C 888.315 1849.49 931.158 1835.54 970.234 1816.9 C 976.141 1814.08 1001.77 1798.61 1005.85 1799.36 C 1005.57 1801.85 1004.92 1801.62 1002.56 1803.87 C 984.203 1817.66 972.606 1825.58 950.855 1834.79 C 920.839 1847.5 882.962 1853.98 850.571 1850.13 C 839.838 1848.86 810.675 1838.54 800.026 1833.78 C 759.904 1815.86 719.671 1794.6 680.802 1774.02 C 616.328 1738.9 547.774 1709.61 484.106 1673.27 C 435.616 1645.6 387.929 1616.51 336.961 1593.09 C 279.397 1566.63 220.688 1541.64 166.037 1509.32 C 151.951 1500.98 139.466 1490.42 133.134 1474.99 z" fill="currentColor" transform="translate(0,0)"></path>
<path d="M 1902.15 546.569 C 1903.04 546.964 1903.57 547.556 1904.36 548.223 C 1903.86 555.59 1768.68 746.972 1755.2 765.101 C 1728.8 800.578 1702.71 836.283 1676.93 872.211 C 1669.22 883.033 1662.13 894.252 1654.4 905.037 L 1531.08 1074.89 C 1474.84 1151.95 1414.59 1228.05 1360.24 1306.04 L 1174.82 1572.26 L 1106.98 1670.12 C 1089.29 1695.91 1052.14 1752.7 1030.24 1772.36 L 1028.88 1772.89 L 1028.2 1772.12 C 1035.88 1756.78 1060.5 1725.22 1071.89 1709.49 L 1149.73 1600.31 C 1201.87 1524.54 1254.65 1449.2 1308.05 1374.3 C 1326.18 1348.43 1342.86 1322.34 1361.7 1296.58 C 1417.21 1220.69 1475.94 1145.92 1530.5 1069.44 L 1777.62 722.431 L 1846.23 623.318 C 1859.3 604.066 1886.84 560.786 1902.15 546.569 z" fill="currentColor" transform="translate(0,0)"></path>
<path d="M 375.349 500.005 C 376.519 499.898 377.209 499.805 378.374 499.813 C 399.632 499.955 592.556 626.222 610.252 645.235 C 595.842 643.594 447.211 551.39 427.659 538.369 C 423.44 535.56 380.534 504.855 375.349 500.005 z" fill="currentColor" transform="translate(0,0)"></path>
<path d="M 1540.2 1254.36 C 1566.18 1250.98 1756.98 1291.3 1765.42 1304.11 C 1756.45 1304.38 1746.1 1303.09 1737.12 1301.84 C 1700.26 1296.71 1664.73 1287.4 1628.86 1277.84 C 1600.04 1270.17 1570.02 1265.37 1541.46 1256.38 C 1541.04 1255.7 1540.62 1255.03 1540.2 1254.36 z" fill="currentColor" transform="translate(0,0)"></path>
<path d="M 403.96 910.995 L 404.671 911.457 C 404.434 911.707 404.222 911.984 403.96 912.207 C 392.792 921.682 266.815 936.091 244.806 937.601 C 228.721 938.705 212.919 938.619 196.822 938.032 L 195.143 937.546 L 195.711 936.374 C 204.676 933.529 223.748 931.043 233.664 929.135 C 257.985 924.455 283.378 921.929 307.998 918.788 C 337.179 915.066 374.614 910.397 403.96 910.995 z" fill="currentColor" transform="translate(0,0)"></path>
<path d="M 1941.75 983.385 C 1944.41 982.83 1953.62 982.523 1956.8 982.342 C 1930.13 994.379 1889.61 1003.97 1860.87 1011.09 C 1834.32 1017.67 1802.72 1025.84 1775.87 1030.75 C 1770.39 1031.97 1765.69 1032.55 1760.16 1033.27 C 1766.67 1027.73 1773.61 1023.76 1781.78 1021.38 C 1832.13 1006.75 1890.02 988.915 1941.75 983.385 z" fill="currentColor" transform="translate(0,0)"></path>
<path d="M 673.013 459.473 C 693.056 466.859 710.5 492.113 725.274 506.912 C 730.175 511.821 743.777 524.734 744.92 531.125 C 718.73 523.449 688.637 485.418 672.982 463.476 C 672.992 462.142 673.002 460.807 673.013 459.473 z" fill="currentColor" transform="translate(0,0)"></path>
</svg>