<svg xmlns="http://www.w3.org/2000/svg" preserveAspectRatio="none" style="display: block;" version="1.1" viewBox="0 0 2048 2048">
<path d="M 1738.46 482.687 C 1741.24 484.323 1798.47 481.599 1811.62 483.914 C 1871.85 494.52 1910.15 538.449 1923.7 596.958 C 1928.5 617.702 1927.3 655.73 1925.51 678.22 C 1897.7 755.776 1861.7 832.109 1828.24 907.587 L 1661.83 1289.44 L 1488.93 1685.6 C 1474.58 1718.92 1458.88 1752.89 1444.96 1785.82 C 1436.6 1805.82 1427.92 1825.7 1418.94 1845.43 C 1413.52 1857.64 1408.82 1870.92 1401.22 1881.96 C 1380.85 1911.57 1328.91 1939.32 1294.35 1948.56 C 1281.95 1951.87 1269.07 1955.07 1256.41 1957.18 C 1251.4 1958.02 1245.93 1957.62 1241.07 1958.73 C 1235.57 1959.98 1230.31 1962.47 1224.67 1963.19 C 1220.04 1963.78 1215.27 1962.78 1210.62 1962.96 C 1199.64 1963.39 1174.72 1966.51 1163.8 1968.67 C 1160.24 1969.38 1159.67 1966.56 1155.36 1967.36 C 1144.7 1969.33 1111.84 1973.07 1102.68 1968.86 C 1102.31 1968.69 1101.95 1968.5 1101.59 1968.32 C 1100.02 1970.08 1100.63 1969.56 1098.48 1970.81 C 1093.18 1970.87 1064.4 1972.1 1061.42 1971.35 C 1047.2 1967.77 1045.36 1975.51 1030.36 1971.77 L 1028.57 1971.32 C 1021.1 1969.48 1023.59 1969.07 1018.09 1972.34 C 999.621 1972.02 980.821 1971.44 962.361 1971.37 C 947.08 1971.31 930.955 1972.72 915.518 1972.43 C 903.463 1972.2 891.929 1971.5 879.593 1971.69 C 872.062 1971.67 864.531 1971.9 857.006 1972.16 C 856.408 1972.18 854.902 1969.79 854.795 1969.64 C 845.55 1970.85 834.798 1972.34 825.496 1972.79 C 822.827 1972.92 819.9 1970.45 817.258 1970.64 C 790.413 1972.59 763.819 1969.23 737.028 1969.34 C 734.655 1969.35 726.635 1967.6 722.525 1967.31 C 715.1 1971.39 713.509 1968.94 705.582 1966.35 C 703.836 1966.97 699.937 1968.52 698.259 1968.68 C 691.285 1969.33 683.056 1963.66 677.143 1968.27 C 665.137 1962.75 618.218 1968 601.328 1962.84 C 597.507 1961.67 577.887 1964.37 572.662 1962.38 C 571.397 1961.9 572.204 1960.03 568.381 1958.74 L 569.575 1961.25 C 567.868 1961.88 525.284 1959.52 520.627 1958.85 C 513.458 1953.27 514.452 1956.38 505.039 1956.86 C 499.325 1957.49 495.138 1958.59 490.559 1954.04 C 488.824 1952.11 484.77 1955.39 482.229 1955.24 C 453.443 1953.63 424.221 1950.07 395.598 1946.55 C 382.639 1944.95 369.441 1942.26 356.721 1941.67 C 339.6 1939.41 322.156 1937.62 305.183 1934.47 C 286.114 1930.97 267.156 1926.89 248.334 1922.24 C 201.839 1910.8 182.158 1902.03 151.61 1860.72 C 143.064 1849.16 138.541 1836.78 133.565 1823.35 C 114.939 1773.06 117.804 1719.11 128.022 1667.35 C 131.874 1647.84 138.375 1626.73 149.648 1610.08 C 164.471 1588.19 181.842 1566.71 197.44 1545.41 L 280.24 1430.52 L 523.758 1095.35 L 759.016 771.397 L 864.182 625.167 C 880.579 602.638 897.056 579.777 913.786 557.477 C 927.771 538.835 942.904 527.187 962.022 514.276 C 970.29 508.693 994.412 495.426 1004.48 496.77 C 1014.56 497.738 1025.41 496.323 1035.73 496.171 C 1072.88 495.623 1110.31 496.609 1147.35 493.409 C 1150.35 493.149 1153.7 494.918 1157.65 494.679 C 1178.85 493.201 1200.12 492.967 1221.34 493.98 C 1223.13 493.011 1227.74 490.376 1228.42 490.864 C 1237.62 497.41 1246.71 489.603 1256.44 491.146 C 1269.45 493.208 1281.07 491.463 1294.13 491.329 C 1322.24 491.039 1350.46 489.692 1378.56 490.143 C 1385.08 490.247 1392.65 491.597 1398.68 489.252 C 1403.19 487.494 1406.2 489.579 1410.16 491.485 C 1412.24 490.71 1412.03 490.822 1413.43 489.264 C 1424.65 488.871 1468.91 486.513 1476.38 489.245 C 1477.77 489.755 1478.46 490.021 1479.93 489.483 C 1481.87 488.768 1483.16 487.736 1485.35 487.48 C 1492.12 486.69 1499.66 488.094 1506.54 487.981 C 1516.4 487.819 1541.27 485.124 1549.34 486.732 C 1551.23 487.107 1552.06 487.405 1554.02 487.035 C 1567.95 484.403 1583.87 486.141 1598.13 485.917 C 1636.29 485.318 1674.63 485.578 1712.75 484.222 C 1719.58 483.979 1730.26 485.329 1736.64 483.312 C 1737.25 483.119 1737.85 482.895 1738.46 482.687 z" fill="currentColor" transform="translate(0,0)"></path>
<path d="M 1798.2 500.71 C 1800.91 502.382 1824.05 509.568 1832.5 511.471 C 1849.65 515.333 1875.89 543.934 1880.84 556.954 C 1882.19 560.493 1864.77 598.184 1861.33 605.927 C 1829.84 676.92 1796.01 747.134 1763.76 817.83 L 1583.69 1219.39 L 1454.5 1504.13 C 1419.99 1580.19 1385.03 1656.06 1351.83 1732.72 C 1350.53 1735.73 1345.55 1745.36 1343.32 1747.52 C 1296.18 1793.1 1232.41 1810.47 1168.54 1814.52 C 1103.4 1818.49 1038.44 1818.51 973.414 1818.68 L 899.096 1818.38 C 890.876 1818.38 882.281 1819.54 874.14 1819.17 C 870.415 1819 866.854 1817.55 863.126 1817.39 C 857.144 1817.13 850.855 1818.15 844.778 1818.1 C 825.111 1817.96 805.277 1817.42 785.608 1816.95 C 732.964 1815.68 680.008 1813.27 627.402 1810.73 C 620.858 1810.42 589.887 1811 586.646 1809.52 C 581.729 1807.27 519.999 1807 508.918 1806.15 C 498.464 1805.35 487.961 1802.25 477.361 1801.64 C 470.36 1801.23 463.485 1802.85 456.52 1801.51 C 445.54 1799.4 433.699 1798.21 422.533 1797.55 C 416.344 1797.19 409.969 1798.53 403.955 1796.73 C 399.477 1795.39 394.677 1793.52 389.966 1793.62 C 375.57 1793.91 361.264 1791.64 347.027 1789.79 C 317.19 1785.93 287.816 1780.67 258.097 1776.27 C 257.025 1775.74 256.045 1775.56 254.877 1775.29 C 214.888 1765.83 170.013 1762.5 150.295 1720.17 C 139.929 1697.18 139.368 1667.21 149.178 1643.56 C 159.887 1617.74 184.242 1586.75 200.746 1563.94 L 259.814 1482.51 L 428.065 1252.61 C 531.006 1108.78 635.079 965.767 740.276 823.579 L 842.935 682.569 C 868.948 646.319 896.603 606.046 924.085 571.304 C 934.086 558.455 946.002 547.218 959.416 537.989 C 969.817 530.956 990.726 520.314 1002.71 517.994 C 1002.49 518.037 1031.35 516.386 1032.96 516.381 C 1099.42 516.144 1166.43 515.211 1232.64 512.856 C 1233.15 512.566 1233.66 512.276 1234.17 511.986 C 1236.92 509.507 1240.33 513.495 1241.49 513.465 C 1274.48 512.616 1306.18 512.996 1338.48 509.85 C 1339.34 510.383 1342.09 511.936 1343 511.885 C 1377.45 509.949 1412.04 509.822 1446.55 509.496 C 1456.82 509.4 1466.81 508.905 1476.99 507.838 C 1479.2 509.33 1479.58 509.556 1482.02 510.617 C 1482.61 510.274 1486.98 507.701 1486.92 507.697 C 1500.21 508.204 1514.34 509.115 1527.61 508.341 C 1576.7 505.476 1625.96 506.702 1675.13 504.586 C 1685.45 504.142 1695.8 503.746 1706.13 503.576 L 1772.5 502.392 C 1779.54 502.284 1787.32 502.009 1794.44 502.68 C 1795.93 501.898 1797.19 501.241 1798.2 500.71 z" fill="none" transform="translate(0,0)"></path>
<path d="M 1830.86 590.292 C 1847.11 584.726 1841.56 609.64 1838.27 617.158 C 1830.5 634.905 1821.62 652.041 1813.55 669.488 L 1749.61 807.907 L 1542.08 1254.63 L 1432.74 1493.97 C 1425.07 1510.9 1372.98 1632.59 1364.91 1639.78 C 1362.86 1641.6 1361.9 1641.49 1359.32 1641.62 C 1357.65 1640.61 1354.36 1638.44 1352.52 1638.5 C 1325.75 1639.31 1299.03 1638.17 1272.26 1637.83 L 1062.37 1635.82 C 1047.78 1635.61 1032.73 1635.7 1018.12 1636.43 C 1017.46 1636.46 1012.8 1634.01 1010.55 1633.59 L 1007.13 1636.02 C 949.806 1634.51 892.558 1634.28 835.237 1635.22 C 826.218 1635.37 817.552 1634.07 808.708 1634.03 L 739.2 1634.11 C 716.642 1634.01 717.034 1635.93 694.214 1631.91 C 693.149 1632.64 689.715 1635.13 688.536 1635.04 C 667.762 1633.51 646.979 1633.68 626.157 1633.46 C 596.97 1633.15 567.059 1634.56 538.042 1631.6 C 537.053 1632.22 536.063 1632.84 535.074 1633.47 C 509.257 1630.97 495.996 1632.39 471.868 1632.21 L 333.394 1630.07 C 320.115 1629.8 307.343 1629.29 294.107 1630.87 C 293.038 1631 287.192 1628.62 284.976 1628.1 L 283.843 1630.35 C 278.056 1632.75 256.461 1629.33 249.315 1629.33 C 243.949 1629.34 240.494 1630.37 234.493 1630.31 C 228.095 1630.89 191.144 1630.65 186.338 1626.74 C 187.711 1617.68 188.041 1613.13 193.891 1605.29 C 201.336 1595.31 209.204 1585.61 216.571 1575.59 L 294.931 1468.56 C 307.569 1451.29 320.174 1433.5 332.228 1415.84 C 361.35 1373.16 392.452 1332 422.275 1289.87 C 544.559 1113.53 668.492 938.328 794.059 764.303 C 825.037 721.958 854.412 678.241 885.399 635.889 C 892.038 626.816 896.883 619.532 905.105 611.7 C 921.008 610.509 941.497 610.708 957.764 610.255 L 1082.47 607.876 C 1098.61 607.696 1115.92 606.574 1132.45 606.232 L 1285.36 603.16 L 1379.95 600.994 C 1387.84 600.758 1397.48 600.031 1405.48 599.519 C 1407.34 600.661 1408.91 601.625 1410.19 602.412 C 1424.3 597.677 1443.84 599.414 1459.31 599.199 L 1535.47 598.029 L 1766.58 591.923 C 1776.66 591.606 1824.94 591.887 1830.86 590.292 z" fill="currentColor" transform="translate(0,0)"></path>
<path d="M 1626.02 610.394 C 1629.04 610.795 1632.94 610.351 1636.08 610.127 C 1627.95 617.586 1597.81 636.263 1587.44 643.474 C 1522.4 688.693 1453.52 727.945 1387.13 770.893 C 1375.69 778.293 1343.18 796.372 1335.06 804.289 C 1336.95 810.226 1340.04 816.501 1342.2 822.507 C 1355.65 859.76 1347.72 894.473 1322.03 924.172 C 1290.77 960.305 1257.43 963.112 1212.88 964.108 L 1154.97 965.366 L 1069.58 967.631 C 1055.98 967.895 1028.2 966.964 1015.98 969.468 C 1010.28 970.636 985.247 988.889 977.535 993.868 L 851.908 1075.82 C 808.774 1104.22 764.351 1131.3 720.903 1159.15 L 597.286 1239.69 C 583.453 1248.59 568.693 1256.77 555.059 1265.86 C 514.825 1292.69 474.426 1319.44 433.995 1345.96 C 412.419 1360.12 389.164 1378.77 367.509 1391.75 C 372.383 1383.29 378.329 1375.83 384.215 1368.06 C 397.393 1350.69 408.6 1333.6 421.24 1316.01 L 520.853 1175.99 C 531.693 1160.43 541.903 1144.33 552.712 1128.93 L 797.926 785.271 L 881.383 668.656 C 889.182 657.828 896.6 646.736 904.344 635.912 C 905.532 634.25 911.925 626.553 912.786 626.528 C 948.121 625.517 983.967 625.773 1019.3 625.233 C 1032.22 625.036 1040.63 624.38 1053.15 623.12 C 1055 622.934 1058.03 624.931 1060.73 624.724 C 1081.76 623.114 1103.58 622.79 1124.71 622.414 L 1413.44 615.396 C 1423.53 615.128 1475.12 615.704 1480.72 613.572 C 1482.93 612.731 1483.98 612.184 1486.34 612.66 C 1501.99 615.823 1521.66 613.284 1537.74 612.899 C 1567.15 612.196 1596.64 611.812 1626.02 610.394 z" fill="none" transform="translate(0,0)"></path>
<path d="M 1146.66 848.057 C 1149.55 848.393 1155.48 848.929 1157.97 850.233 C 1174.12 858.765 1171.3 882.522 1163.54 895.832 C 1157.02 907.018 1150.32 911.578 1138.36 914.708 C 1120.14 915.24 1113.53 900.206 1118.46 884.258 C 1123.21 868.904 1132.54 856.03 1146.66 848.057 z" fill="currentColor" transform="translate(0,0)"></path>
<path d="M 1150.36 858.621 L 1152.05 858.61 C 1163.28 864.549 1160.31 875.842 1156.57 886.436 C 1153.32 895.619 1145.78 901.475 1136.87 905.233 L 1135.68 904.742 C 1115.49 896.641 1136.44 862.456 1150.36 858.621 z" fill="none" transform="translate(0,0)"></path>
<path d="M 820.988 850.533 C 826.803 852.939 833.213 869.674 836.175 876.162 C 844.971 869.029 852.412 860.791 860.379 852.763 C 861.09 852.74 861.801 852.717 862.511 852.694 C 873.031 861.553 860.922 899.931 857.071 911.232 C 856.1 914.08 850.068 918.137 846.503 916.058 C 846.342 914.004 854.098 886.559 855.246 881.503 C 855.6 877.901 856.371 877.12 854.844 874.754 C 848.483 876.57 843.586 887.832 833.998 889.577 C 828.404 887.671 824.242 877.456 821.058 871.571 C 817.412 883.239 815.24 894.758 812.492 906.626 C 811.286 911.833 809.67 918.118 803.291 916.19 C 797.457 906.892 815.273 859.416 820.988 850.533 z" fill="currentColor" transform="translate(0,0)"></path>
<path d="M 1221.6 847.31 L 1224.99 848.552 C 1226.14 850.18 1226.49 850.326 1226.69 852.448 C 1227.28 858.608 1214.35 910.479 1211.3 913.379 C 1209.57 915.021 1209.34 914.969 1206.98 914.713 C 1198.23 908.193 1196.12 886.222 1191.63 873.969 L 1191.06 872.443 C 1186.15 885.045 1184.64 895.248 1180.9 908.031 C 1179.44 913.032 1178.71 913.572 1174.71 915.616 C 1174.16 914.834 1172.58 912.596 1172.66 911.691 C 1173.65 901.383 1180.3 850.088 1192.17 850.639 C 1199.58 855.943 1203.79 884.429 1206.83 895.267 C 1208.44 886.982 1217.54 853.318 1221.6 847.31 z" fill="currentColor" transform="translate(0,0)"></path>
<path d="M 942.19 850.996 C 970.574 851.077 977.243 860.658 955.015 880.945 C 958.679 889.509 963.56 908.007 955.95 915.507 L 954.033 915.419 C 949.092 909.869 949.276 899.977 948.641 892.36 C 947.658 889.684 947.385 889.536 945.679 887.189 C 942.656 885.824 940.031 886.918 936.628 887.654 C 934.435 895.981 932.475 909.914 927.474 915.734 C 924.38 915.962 925.696 916.397 923.359 914.511 C 919.544 904.887 931.856 869.833 935.177 856.986 L 942.19 850.996 z" fill="currentColor" transform="translate(0,0)"></path>
<path d="M 945.89 859.927 C 949.324 860.777 951.237 860.965 954.116 863.064 C 956.223 866.871 955.997 864.981 955.42 868.825 C 952.917 872.466 952.436 872.532 948.489 874.823 C 945.178 875.714 944.864 875.973 941.353 875.848 L 940.066 874.431 C 939.525 869.727 943.372 863.948 945.89 859.927 z" fill="none" transform="translate(0,0)"></path>
<path d="M 901.228 851.605 L 903.982 852.073 C 910.405 858.044 913.138 892.97 913.557 902.581 C 913.756 907.147 912.106 913.44 909.606 917.422 L 908.063 917.681 C 903.637 913.581 903.339 903.081 902.666 897.105 C 897.088 896.919 887.507 895.721 883.565 898.894 C 879.376 904.657 877.569 914.953 870.149 916.564 C 867.101 914.475 868.171 915.825 866.847 912.354 C 869.56 901.033 892.293 858.841 901.228 851.605 z" fill="currentColor" transform="translate(0,0)"></path>
<path d="M 898.533 867.809 C 900.746 870.287 902.061 885.169 900.124 887.736 L 893.022 888.374 L 891.691 887.638 C 890.302 882.681 896.069 872.964 898.533 867.809 z" fill="none" transform="translate(0,0)"></path>
<path d="M 1046.24 851.435 C 1067.4 850.501 1068.25 886.753 1028.96 892.175 C 1027.09 894.282 1024.37 905.368 1023.19 909.019 C 1021.15 912.513 1020.52 913.672 1017.04 915.541 C 1009.51 910.39 1025.83 860.104 1030.61 853.214 C 1034.64 851.419 1041.54 851.632 1046.24 851.435 z" fill="currentColor" transform="translate(0,0)"></path>
<path d="M 1035.21 861.407 C 1051.8 862.149 1053.42 866.63 1043.8 879.382 C 1040.58 881.917 1036.62 883.491 1033.03 881.137 C 1030.2 876.05 1033.63 867.018 1035.21 861.407 z" fill="none" transform="translate(0,0)"></path>
<path d="M 1099.02 875.692 C 1100.54 869.604 1103.64 853.449 1107.8 850.423 C 1111.19 849.724 1109.69 849.438 1112.5 851.006 C 1114.79 855.679 1104.69 902.674 1102.72 911.545 C 1100.02 914.22 1101.02 913.388 1096.23 913.789 C 1088.56 902.684 1100.98 893.523 1095.12 887.178 C 1088.62 884.674 1083.5 885.803 1076.46 886.346 C 1073.59 895.457 1071.55 907.453 1065.69 914.467 L 1063.44 914.57 C 1058.97 905.775 1072.44 856.347 1077.95 849.346 C 1081.55 850.042 1080 849.246 1082.65 852.016 C 1084.99 858.891 1081.07 868.051 1078.85 875.362 L 1099.02 875.692 z" fill="currentColor" transform="translate(0,0)"></path>
<path d="M 1248.94 847.964 C 1256.57 849.591 1263.57 846.877 1268.28 849.52 C 1269.7 853.711 1270.33 854.198 1267.63 857.317 C 1261.44 860.072 1254.84 859.391 1248.34 858.611 C 1246.03 865.622 1245.57 868.699 1244.44 876.042 C 1250.43 874.208 1260.41 870.542 1265.28 875.873 C 1265.14 885.249 1247.77 883.979 1241.6 883.966 C 1240.39 889.238 1238.67 895.426 1238.53 900.725 L 1240.04 901.989 C 1245.54 901.889 1264.42 900.101 1264.02 908.323 C 1258.51 914.035 1231.49 915.258 1226.61 910.799 C 1228.87 896.142 1231.53 883.996 1235.29 869.613 C 1236.53 864.867 1236.55 857.502 1238.25 852.98 C 1241.2 849.954 1244.8 849.313 1248.94 847.964 z" fill="currentColor" transform="translate(0,0)"></path>
<path d="M 785.501 851.166 C 792.649 850.608 798.856 851.802 800.959 859.413 C 800.289 862.784 800.549 862.778 798.298 865.277 C 792.792 865.654 791.968 860.257 785.119 860.616 C 781.994 862.091 781.762 862.898 779.89 865.755 C 779.637 872.745 790.596 878.628 795.24 886.502 C 797.864 890.861 798.518 896.128 797.039 900.996 C 794.519 909.147 787.608 914.139 780.62 918.046 L 768.414 915.97 C 762.749 910.237 758.844 903.643 760.281 895.2 C 770.07 882.953 767.444 909.014 779.267 908.734 C 787.496 904.006 787.815 897.497 786.897 889.386 C 777.991 882.588 764.526 878.843 772.26 862.416 C 775.635 855.246 778.034 853.689 785.501 851.166 z" fill="currentColor" transform="translate(0,0)"></path>
<path d="M 978.369 850.998 C 986.996 850.895 1013.47 847.516 1016.43 856.286 L 1015.23 858.213 C 1010.26 860.789 1003.51 860.942 997.731 861.567 C 996.965 869.296 990.364 893.946 988.209 903.239 C 987.001 908.349 986.23 914.879 981.035 916.976 C 973.4 913.332 977.72 903.498 979.514 896.752 C 982.629 885.048 986.591 873.276 990.274 861.725 C 984.935 861.426 978.848 862.234 975.681 857.657 C 975.852 854.069 976.335 853.925 978.369 850.998 z" fill="currentColor" transform="translate(0,0)"></path>
<path d="M 715.503 1673.15 C 718.85 1673.97 733.432 1673.3 737.971 1673.02 C 787.224 1669.9 830.439 1707.63 830.092 1757.72 C 829.948 1778.51 828.307 1792 813.425 1807.2 C 804.998 1799.5 806.04 1798.82 807.964 1786.84 C 809.142 1777.53 812.717 1766.91 811.197 1757.48 C 803.366 1708.92 772.619 1694.98 728.941 1695.01 C 685.221 1699.43 656.625 1715.89 628.182 1749.9 C 620.723 1758.82 611.619 1789.12 602.938 1791.99 C 582.824 1784.71 607.979 1744.9 615.176 1735.35 C 637.424 1705.85 671.866 1683.93 707.886 1675.97 C 711.612 1675.15 712.055 1675.19 715.503 1673.15 z" fill="currentColor" transform="translate(0,0)"></path>
<path d="M 1891.45 574.277 C 1904.99 579.821 1910.91 651.169 1910.38 666.542 C 1909.55 690.686 1889.47 729.495 1879.54 752.383 C 1865.26 786.136 1850.64 819.744 1835.68 853.201 L 1702.47 1157.43 C 1631.37 1324.07 1558.94 1490.14 1485.19 1655.62 C 1462.04 1708.14 1439.57 1761.28 1415.38 1813.33 C 1406.71 1831.99 1393.47 1867.85 1379.81 1881.34 C 1317.19 1942.77 1223.51 1945.71 1141.2 1949.98 C 1122.75 1950.94 1105.42 1949.03 1087.35 1953.06 C 1082.83 1954.07 1084.31 1949.87 1078.46 1950.5 C 1052.76 1953.25 1026.18 1950.83 1000.52 1951.33 C 998.922 1953.11 999.094 1953.19 996.804 1953.73 C 991.558 1949.25 957.913 1950.52 950.351 1951.56 L 949.638 1953.83 C 946.092 1953.82 944.41 1950.81 939.39 1950.98 C 901.761 1952.28 864.214 1949.77 826.604 1950.92 C 822.506 1951.3 815.997 1948.63 812.309 1948.83 C 771.626 1951.01 730.672 1946.71 689.941 1947.15 C 677.198 1947.29 663.914 1942.34 652.241 1945.39 C 641.737 1948.13 631.022 1941.63 620.774 1943.54 C 619.248 1943.88 619.915 1944.59 617.19 1944.3 C 567.425 1939.15 517.51 1935.57 467.519 1933.57 C 459.513 1933.2 450.987 1930.38 443.005 1929.37 C 441.266 1929.15 439.617 1930.84 438.462 1931.89 C 433.261 1927.36 427.979 1929.49 421.232 1928.49 C 413.797 1927.4 406.342 1926.29 398.877 1925.51 C 394.265 1925.02 393.881 1927.81 389.617 1927.75 C 390.544 1925.54 390.611 1926.55 389.906 1924.73 C 383.696 1923.44 378.235 1922.6 371.973 1921.69 C 369.359 1922.91 369.269 1923.14 366.458 1923.43 C 365.455 1922.65 363.224 1920.77 361.932 1920.6 C 328.872 1915.99 294.38 1912.21 261.951 1904.4 C 243.251 1899.9 216.543 1894.6 199.772 1886.24 C 185.693 1879.23 166.738 1858.02 158.867 1844.64 C 149.141 1825.11 142.351 1804.35 138.554 1782.96 C 137.433 1777.47 134.902 1772.64 136.305 1767.04 C 138.038 1760.12 130.195 1734.51 137.174 1729.66 C 139.584 1730.68 141.095 1732.48 141.866 1735.06 C 145.08 1745.82 168.751 1766.96 178.334 1770.6 C 223.01 1787.54 271.509 1796.85 318.922 1801.91 C 326.345 1802.48 335.217 1806.51 342.523 1806.68 C 370.006 1807.3 397.812 1813.97 425.076 1814.41 C 434.415 1814.57 433.086 1814.34 441.922 1817.86 C 443.211 1818.37 444.489 1816.75 445.541 1815.9 C 451.157 1815.52 459.115 1818.56 464.798 1819.11 C 474.242 1820 482.455 1815.23 491.039 1820.08 C 495.084 1822.37 509.523 1820.68 515.349 1820.43 C 523.939 1825.83 520.961 1823.07 528.757 1821.78 C 535.546 1820.66 546.99 1824.31 554.291 1824.43 C 560.716 1824.54 567.063 1823.66 573.482 1823.76 C 579.403 1823.65 586.488 1825.92 592.197 1825.98 C 617.227 1826.23 642.433 1829.29 667.431 1827.55 C 667.431 1827.55 671.155 1829.57 671.492 1829.75 C 693.74 1828.46 734.129 1832.22 757.984 1832.55 C 855.085 1834.75 952.218 1835.14 1049.33 1833.72 C 1114.48 1833.02 1183.73 1834.02 1247.42 1817.71 C 1279.9 1809.39 1309.15 1795.66 1335.76 1775.57 C 1340.76 1771.79 1354.1 1762.51 1357.14 1757.4 C 1368.4 1738.45 1378.41 1712.33 1387.39 1692.13 C 1411.41 1636.68 1436 1581.49 1461.16 1526.55 L 1671.18 1063.66 C 1709.58 978.693 1746.34 892.669 1786.08 808.343 C 1788.54 803.121 1791.13 797.952 1793.59 792.723 C 1817.05 742.039 1840.23 691.233 1863.16 640.306 C 1869.21 626.434 1875.06 612.48 1880.72 598.445 C 1883.89 590.736 1887.22 581.368 1891.45 574.277 z" fill="none" transform="translate(0,0)"></path>
<path d="M 625.399 1869.89 C 632.212 1872.67 645.641 1870.46 654.473 1871.28 C 696.632 1875.18 738.592 1875.97 780.912 1877.82 C 795.55 1878.47 831.934 1869.92 838.695 1886.67 C 842.607 1898.31 826.44 1904.1 817.239 1905.76 C 786.828 1913.81 722.319 1911.03 689.15 1910.6 C 673.96 1909.15 659.437 1905.64 644.088 1905.55 C 636.389 1905.5 635.876 1899.4 627.087 1902.26 C 624.363 1903.15 615.348 1895.27 613.533 1891.91 C 606.219 1878.33 614.568 1874.43 625.399 1869.89 z" fill="currentColor" transform="translate(0,0)"></path>
<path d="M 1350.4 1777.64 C 1352.98 1778.69 1352.07 1777.81 1353.18 1780.41 C 1352.64 1784.27 1348.36 1790.91 1345.56 1793.92 C 1324.87 1816.14 1294.24 1835.94 1263.84 1839.8 L 1260.59 1837.74 L 1260.52 1835.56 C 1269.21 1826.63 1302.76 1809.71 1315.35 1801.18 C 1323.13 1795.91 1343.33 1780.56 1350.4 1777.64 z" fill="currentColor" transform="translate(0,0)"></path>
<path d="M 1334.88 1838.19 C 1338.26 1838.6 1338.13 1838.63 1341.26 1840.06 L 1342.18 1842.53 C 1335.09 1858.84 1298.84 1871.89 1281.99 1873.4 C 1279.05 1872.47 1277.06 1872.28 1275.38 1869.81 C 1278.3 1862.3 1325.67 1839.87 1334.88 1838.19 z" fill="currentColor" transform="translate(0,0)"></path>
<path d="M 1339.71 1867.3 C 1342.57 1867.09 1342.78 1866.93 1345.52 1867.54 C 1349.93 1878.89 1300.57 1903.61 1286.15 1898.12 C 1283.18 1899.54 1282.01 1898.39 1279.5 1896.98 L 1278.95 1894.91 C 1284.62 1886.88 1329.05 1869.01 1339.71 1867.3 z" fill="currentColor" transform="translate(0,0)"></path>
<path d="M 164.952 1776.45 C 170.547 1777.42 207.054 1799.04 208.984 1802.33 C 209.783 1806.02 208.782 1807.27 207.23 1810.75 C 206.883 1810.82 206.536 1810.89 206.189 1810.96 C 189.123 1806.61 165.783 1793.95 164.952 1776.45 z" fill="currentColor" transform="translate(0,0)"></path>
<path d="M 186.075 1840.87 L 186.731 1840.91 C 192.635 1846.18 205.198 1847.75 206.722 1859.95 C 205.155 1863.1 206.283 1861.86 203.057 1863.65 C 194.924 1862.92 175.716 1850.81 178.977 1841.92 C 181.459 1841.74 183.646 1841.41 186.075 1840.87 z" fill="currentColor" transform="translate(0,0)"></path>
<path d="M 180.295 1817.49 C 186.251 1818.4 205.379 1831.6 208.989 1837.29 C 209.911 1838.75 208.816 1839.89 208.145 1841.49 C 205.498 1840.64 205.805 1840.64 203.089 1840.51 C 198.964 1840.34 194.901 1839.45 191.085 1837.87 C 182.293 1834.32 183.047 1827.91 178.515 1821.72 L 180.295 1817.49 z" fill="currentColor" transform="translate(0,0)"></path>
<path d="M 1728.71 74.239 C 1733.74 77.2308 1743.16 74.6027 1742.21 85.6491 C 1740.08 110.477 1734.65 133.619 1734.85 158.903 C 1735 178.208 1740.71 196.618 1749 214.048 C 1769.8 255.259 1814.76 274.457 1857.28 284.864 C 1862.98 287.107 1876.17 285.883 1880.42 289.79 C 1884.04 293.111 1885.26 301.302 1881.29 305.278 C 1874.28 307.839 1844.38 301.504 1835.01 300.859 C 1806.72 298.91 1777.13 299.824 1752.54 314.705 C 1698.57 347.363 1692.68 400.804 1678.94 455.783 C 1677.93 456.213 1676.92 456.631 1675.91 457.039 C 1671.33 458.867 1670.27 459.459 1665.65 457.513 C 1658.87 450.991 1663.64 431.49 1664.79 422.384 C 1671.47 369.691 1668.22 303.826 1617.81 272.896 C 1613.09 268.59 1599.7 264.971 1595.95 261.041 C 1584.39 248.923 1528.03 250.89 1521.11 239.874 C 1520.25 232.025 1524.37 227.578 1531.79 227.98 C 1561.17 229.571 1585.84 234.776 1615.61 231.233 C 1678.08 223.799 1704.66 177.162 1716.59 120.107 C 1719.4 106.627 1720.29 85.0904 1728.71 74.239 z" fill="currentColor" transform="translate(0,0)"></path>
<path d="M 1717.91 172.933 C 1720.22 176.097 1718.7 187.213 1721.1 194.321 C 1736.1 238.621 1758.51 262.124 1798.5 283.132 C 1755.94 286.979 1723.71 305.841 1699.9 341.791 C 1695.08 349.067 1692.58 356.8 1687.44 364.205 L 1688.34 365.813 C 1687.67 368.669 1688.3 367.416 1686.04 369.396 L 1684.36 368.976 C 1682.53 362.529 1683.25 354.685 1682.29 348.045 C 1681.36 341.557 1679.08 332.605 1676.9 326.483 C 1662.37 285.569 1648.89 268.364 1611.16 249.355 C 1660.3 246.529 1699.6 218.834 1717.91 172.933 z" fill="none" transform="translate(0,0)"></path>
<path d="M 1116.8 75.8929 C 1133.61 76.0971 1129.17 86.3485 1131.98 99.5015 C 1136.19 119.897 1135.74 141.785 1141.94 161.578 C 1160.66 221.349 1213.53 243.448 1271.71 244.31 C 1280.73 244.443 1311.04 242.145 1316.45 248.285 C 1318.45 253.663 1316.42 258.848 1311.07 260.987 C 1305.79 263.098 1297.47 261.409 1292.32 262.788 C 1274.11 267.665 1255 271.105 1237.62 278.483 C 1183.73 303.55 1163.62 354.827 1163.6 411.604 C 1164.3 419.269 1163.64 427.914 1164.39 435.451 C 1165.28 444.424 1168.01 445.611 1164.66 454.851 C 1161.76 457.689 1159.16 458.012 1155.12 459.274 C 1149.96 456.85 1149.21 456.267 1144.91 452.49 C 1145.66 412.952 1133.4 359.28 1106.3 329.702 C 1081.47 305.115 1042.07 293.104 1007.64 293.921 C 998.746 294.132 961.486 300.075 958.043 294.11 C 947.447 275.747 976.144 278.348 984.889 276.952 C 1015.87 272.007 1045.78 263.779 1070.28 243.265 C 1108.8 212.395 1120.26 170.506 1114.95 122.905 C 1113.75 110.839 1111.17 95.5845 1111.65 83.5406 C 1111.79 79.8456 1114.12 77.8977 1116.8 75.8929 z" fill="currentColor" transform="translate(0,0)"></path>
<path d="M 1131.27 179.616 C 1136.53 206.049 1173.98 239.005 1198.88 247.319 C 1210.82 251.304 1225.21 254.133 1236.47 258.69 C 1235.84 259.795 1212.45 272.738 1208.82 275.176 C 1184.94 291.179 1167.72 316.589 1158.43 343.413 C 1155.97 350.521 1150.46 362.954 1151.27 367.979 C 1150.43 370.769 1151.27 369.911 1149.39 371.346 C 1140.83 352.475 1139 343.461 1125.4 325.54 C 1109.04 303.97 1073.5 284.188 1047.11 281.359 C 1096.62 248.797 1110.73 239.54 1131.27 179.616 z" fill="none" transform="translate(0,0)"></path>
</svg>