<svg xmlns="http://www.w3.org/2000/svg" preserveAspectRatio="none" style="display: block;" version="1.1" viewBox="0 0 2048 2048">
<path d="M 1277.92 68.4124 C 1285.36 68.4469 1292.8 68.703 1300.23 69.1804 C 1319.56 70.3256 1361.89 70.8795 1375.49 86.2012 C 1444.35 84.2136 1513.34 97.1059 1550.51 161.858 C 1573.52 201.953 1563.49 246.565 1563.02 290.217 C 1562.85 299.829 1565.98 310.529 1566.01 319.981 C 1566.1 352.477 1562.69 384.766 1553.35 415.985 C 1551.63 421.734 1551.52 435.652 1551.47 442.165 C 1551.03 491.629 1541.16 542.017 1549.05 591.095 C 1551.15 614.601 1546.84 637.228 1541.58 659.952 C 1539.78 667.763 1536.13 680.201 1535.78 687.679 L 1518.19 1046 L 1491.5 1572.76 L 1482.85 1722.92 C 1481.54 1747.81 1480.68 1791.37 1477.47 1814.23 C 1474.03 1840.27 1462.9 1864.69 1445.49 1884.36 C 1428.5 1903.24 1414.97 1909.39 1393.49 1921.31 C 1386.54 1925.17 1374.66 1938.19 1365.89 1943.32 C 1321.72 1969.17 1270.86 1972.35 1220.98 1975.47 C 1214.78 1975.86 1206.97 1974.9 1200.55 1974.27 C 1199.47 1975.05 1198.39 1975.84 1197.31 1976.62 C 1170.79 1976.56 1146.2 1973.67 1120.02 1971.35 C 1113.96 1970.81 1106.13 1973.7 1100.73 1973.13 C 1077.88 1970.7 1054.46 1970.48 1031.51 1969.24 C 1021.89 1968.73 1012.38 1966.69 1002.83 1965.83 C 986.716 1964.53 970.552 1963.95 954.386 1964.08 L 954.917 1961.93 C 947.481 1961.67 954.441 1963.66 947.576 1964.42 L 945.445 1961.87 L 943.975 1961.99 L 944.541 1964.37 C 936.89 1965.04 931.037 1961.62 923.426 1962.08 L 922.665 1963.89 C 921.708 1964.55 908.208 1959.41 900.506 1961.74 C 891.415 1964.49 870.527 1957.58 860.234 1959.19 C 832.284 1963.56 805.232 1963.25 777.005 1963.2 C 747.697 1962.86 722.703 1960.89 693.207 1959.35 C 647.953 1956.99 603.527 1953.6 560.132 1938.76 C 550.728 1935.31 543.082 1929.14 535.177 1923.49 C 477.47 1882.26 481.825 1825.53 484.477 1762.61 L 488.345 1668.46 C 489.563 1629.3 486.929 1590.37 492.07 1551.15 C 492.557 1547.44 491.369 1540.53 491.938 1537.54 C 493.517 1529.25 495.504 1523.65 493.495 1515.02 C 491.34 1496.07 494.694 1476.24 495.533 1457.28 C 497.323 1416.79 498.626 1376.86 497.702 1336.33 C 497.241 1316.15 500.44 1294.64 500.544 1274.39 C 500.825 1219.51 500.477 1164.72 505.054 1109.96 C 507.954 1070.87 506.52 1030.37 508.532 991.127 C 510.055 961.436 515.038 931.766 516.305 902.048 L 523.872 679.258 C 524.914 636.594 522.117 594.859 527.425 552.021 C 528.623 542.351 526.731 529.874 527.558 519.796 C 528.446 508.982 528.349 497.847 529.133 487.008 C 530.109 471.781 531.52 456.547 532.916 441.349 C 533.351 436.61 535.852 432.31 536.55 427.707 C 536.179 417.002 536.476 406.164 536.696 395.454 C 537.359 363.168 538.491 332.626 542.926 300.603 C 540.914 300.64 541.863 300.8 540.069 300.184 C 541.278 284.938 542.511 271.055 543.217 255.762 C 544.926 205.683 547.698 158.58 589.181 123.888 C 636.15 84.6069 706.849 78.0688 765.679 77.657 C 893.016 76.7657 1020.05 78.0411 1147.25 82.6315 C 1178.35 83.7542 1209.73 82.157 1240.76 83.5012 C 1252.88 72.3503 1261.85 69.5095 1277.92 68.4124 z" fill="currentColor" transform="translate(0,0)"></path>
<path d="M 692.971 105.416 C 748.644 101.755 808.529 109.933 864.544 108.211 C 871.82 107.987 881.835 108.122 889.291 108.567 C 890.149 107.963 891.006 107.358 891.864 106.753 C 903.186 108.086 912.86 107.506 923.633 108.423 C 942.868 110.06 962.123 111.773 981.369 113.382 C 984.291 115.269 984.049 115.308 987.479 115.528 C 999.607 108.755 1066.75 117.493 1083.38 118.427 C 1091.25 118.869 1105.95 113.872 1115.01 114.29 C 1131.1 115.031 1147.19 115.802 1163.29 116.491 C 1168.01 116.694 1173.64 116.395 1178.43 115.969 C 1178.43 115.969 1182.11 118.916 1182.11 118.916 C 1186.19 119.202 1191.34 119.287 1195.3 119.528 C 1207.79 120.29 1220.03 119.048 1232.48 118.99 C 1251.45 118.902 1270.35 119.468 1289.32 119.695 C 1290.59 121.13 1291.11 121.687 1292.55 122.935 C 1299.76 122.019 1315.4 121.503 1323.32 121.451 C 1324.22 122.214 1325.12 122.978 1326.02 123.742 C 1329.48 123.649 1337.04 120.924 1340.09 121.293 C 1346.29 122.041 1351.78 122.265 1357.7 123.44 L 1359.22 125.849 C 1363.03 127.933 1365.73 122.932 1368.69 123.668 C 1374.46 125.104 1384.33 130.787 1390.04 129.784 C 1394.54 128.995 1396.33 128.707 1400.84 130.142 L 1401.2 132.34 C 1404.28 134.433 1408.27 133.501 1411.42 135.115 C 1420.69 139.871 1429.13 146.269 1438.59 150.711 C 1439.75 150.464 1440.9 150.218 1442.05 149.972 C 1443.56 150.516 1443.94 150.739 1444.77 152.23 C 1448.32 158.608 1452.83 160.378 1458.1 164.856 C 1467.36 172.712 1476.83 186.503 1481.94 197.47 C 1487.15 208.658 1494.11 228.683 1495.57 241.019 C 1497.36 256.095 1494.96 271.705 1493.67 286.437 C 1491.9 306.569 1492.28 327.21 1489.45 347.438 C 1488.81 352 1490.27 362.969 1489.31 367.127 C 1486.34 379.989 1483.16 393.191 1481.96 406.429 C 1481.84 407.682 1483.9 411.543 1484.57 412.835 L 1485.18 413.994 C 1475.89 428.547 1486.21 452.047 1479.1 467.972 C 1478.41 469.522 1482.29 479.002 1483.26 481.498 C 1482.16 482.652 1479.14 485.954 1479.14 487.48 C 1479.23 506.127 1476.81 524.421 1475.54 542.976 C 1474.21 548.135 1477.74 567.463 1475.89 571.207 C 1471.85 579.378 1471.73 584.242 1472.6 594.315 C 1472.74 595.981 1475.61 596.321 1475.56 600.545 L 1472.23 601.184 C 1470.49 605.194 1472.34 608.38 1474.18 611.953 L 1474.72 612.981 C 1472.47 614.122 1472.41 614.162 1470.5 615.808 C 1469.7 621.049 1472.59 626.53 1472.1 630.367 C 1467.96 663.002 1469.47 696.141 1468.13 729.021 C 1467.44 746.1 1463.62 770.609 1466.6 786.87 L 1466.92 788.559 L 1467.15 788.278 C 1460.47 799.47 1466.41 799.1 1466.01 806.348 C 1465.62 813.421 1458.54 824.192 1462.15 833.111 C 1456.85 848.395 1456.81 912.583 1454.75 932.346 C 1454.17 937.863 1454.01 948.285 1453.29 954.377 C 1453.26 954.673 1454.42 963.693 1454.56 965.341 L 1452.38 966.293 L 1452.29 968.506 L 1455.05 970.943 C 1454.97 978.708 1450.7 983.217 1449.98 987.989 C 1447.5 1004.39 1445.14 1020.72 1441.76 1037 C 1440.29 1038.85 1442.93 1050.13 1442.89 1050.17 C 1437.95 1056.69 1439.42 1061.85 1439.63 1069.21 C 1440.34 1094.66 1439.85 1120.57 1437.68 1145.93 C 1437.4 1149.19 1440.11 1155.46 1439.65 1159.02 C 1435.97 1187.6 1434.18 1216.45 1430.6 1245.06 C 1429.37 1255.18 1430.74 1266.94 1430.16 1277.22 C 1429.61 1287.13 1428.42 1297.08 1427.35 1306.95 C 1428.53 1308.7 1429.71 1309.95 1431.22 1311.42 C 1429.56 1311.32 1430.48 1311.25 1428.48 1311.85 C 1425.18 1324.17 1421.58 1373.02 1425.19 1384.63 C 1427.02 1390.52 1418.94 1396.99 1422.38 1404.13 C 1422.91 1405.24 1423.76 1406.57 1424.06 1407.78 C 1424.74 1410.58 1422.61 1440.61 1422.5 1446.95 C 1422.03 1473.04 1423.5 1498.87 1422.44 1525.04 C 1421.62 1545.32 1420.47 1565.73 1418.85 1585.95 C 1417.97 1596.99 1416.34 1607.89 1415.77 1618.97 C 1409.76 1627.54 1416.73 1634.58 1415.01 1640.92 C 1410.07 1659.09 1411.64 1676.36 1408.46 1695.13 C 1406.13 1708.87 1406.7 1724.86 1404.51 1738.99 C 1402.68 1750.85 1405.56 1764.29 1403.45 1776.06 C 1401.71 1786.5 1402.98 1793.31 1403.27 1803.82 C 1404.3 1841.58 1402.2 1863.94 1379.68 1895.69 C 1360.11 1918.09 1352.03 1922.43 1327.48 1938.35 C 1310.4 1950.79 1292.91 1955.58 1271.57 1956.35 C 1217.2 1958.31 1161.18 1954.91 1106.77 1953.62 L 732.737 1941.09 C 718.258 1940.5 707.852 1941.62 693.778 1942.95 C 694.133 1942.92 666.034 1940.78 665.914 1940.76 C 655.88 1939.29 620.384 1939.28 612.116 1936.72 C 576.185 1925.6 536.145 1897.36 516.036 1865.3 C 509.401 1854.72 501.49 1838.25 500.927 1826.05 C 500.194 1810.18 501.576 1793.16 502.221 1777.35 C 503.59 1743.77 507.105 1708.13 507.531 1674.66 C 508.029 1635.54 506.804 1595.95 507.478 1556.65 C 508.066 1522.3 509.634 1488.59 510.955 1454.24 C 511.46 1441.13 509.371 1428.36 510.761 1416.3 C 511.308 1411.55 513.183 1410.29 510.946 1403.58 C 510.526 1402.31 509.245 1397.25 509.362 1396.02 C 509.809 1391.33 510.813 1387.43 510.98 1382.57 C 511.893 1356.15 514.479 1329.67 515.753 1303.31 L 515.221 1303.88 C 517.376 1298.68 516.343 1301.98 515.968 1297.09 C 514.309 1278.43 519.669 1257.85 519.166 1238.99 C 518.76 1223.74 521.154 1211.2 516.714 1197.13 C 514.658 1190.61 524.295 1162.71 518.526 1154.19 C 517.754 1153.05 517.595 1151.34 517.397 1150.05 C 519.161 1148.17 519.516 1147.74 520.938 1145.59 C 523.201 1114.98 525.786 1085.94 524.296 1055.26 C 524.053 1050.25 527.448 1038.2 527.85 1032.17 C 529.942 1000.79 533.2 969.585 534.02 938.094 C 534.889 910.292 538.781 881.872 539.061 854.143 C 539.488 812.023 540.498 769.981 541.196 727.87 C 541.294 721.95 535.378 723.764 536.526 720.517 C 538.658 714.484 542.871 710.24 538.865 703.806 C 535.526 697.889 539.688 691.076 539.278 684.207 C 537.124 659.043 541.138 633.361 541.595 608.365 C 542.25 572.537 546.001 538.267 549.218 502.664 C 553.286 457.644 551.756 411.919 557.281 366.952 C 557.754 363.105 554.497 364.764 554.19 360.208 C 555.831 358.918 557.097 357.892 558.643 356.494 C 557.262 354.63 556.302 354.125 556.338 352.478 C 556.745 333.955 558.159 316.364 558.609 297.707 C 559.352 270.498 557.805 242.647 561.616 215.652 C 561.911 213.566 573.095 182.123 574.432 180.889 C 580.132 175.628 586.489 161.604 590.018 157.857 C 608.95 137.754 634.263 119.168 660.597 110.302 C 669.991 107.154 683.029 106.253 692.971 105.416 z" fill="none" transform="translate(0,0)"></path>
<path d="M 709.964 121.368 C 731.213 120.578 761.846 122.083 783.821 122.4 C 848.763 123.363 913.69 125.166 978.586 127.806 C 980.793 126.092 981.414 125.656 983.852 124.305 C 984.939 125.977 985.915 128.244 987.995 128.336 C 994.01 128.604 1001.35 128.702 1007.26 128.844 L 1058.35 130.086 C 1133.91 132.056 1209.36 133.928 1285.01 135.849 C 1337.82 137.19 1389.34 134.806 1434.85 167.99 C 1455.14 182.782 1472.25 205.394 1475.99 230.664 C 1478.01 242.544 1475.22 255.661 1475.83 267.506 C 1477.09 292.016 1475.33 314.914 1471.84 339.137 C 1471.06 344.551 1473.73 354.929 1473.19 361.632 C 1470.39 396.954 1470.93 432.465 1468.39 467.836 C 1463.76 535.066 1458.42 602.314 1453.5 669.509 L 1421.39 1115.43 C 1411.29 1262.04 1403.39 1408.8 1397.7 1555.65 C 1395.01 1620.74 1391.71 1685.81 1387.81 1750.85 C 1386.22 1779.31 1385.13 1807.85 1383.17 1836.23 C 1381.9 1854.67 1377.71 1871.72 1366.32 1886.65 C 1343.36 1916.74 1305.38 1932.23 1269.03 1937.72 C 1243.41 1940.76 1226.76 1939.78 1200.93 1939.23 C 1173.52 1938.6 1146.12 1937.77 1118.72 1936.74 L 915.999 1931.14 L 738.219 1926.85 L 674.389 1924.99 C 639.286 1923.93 603.04 1923.16 573.193 1904.01 C 553.484 1891.37 521.657 1858.65 520.729 1834.97 C 519.011 1791.17 522.338 1735.75 523.939 1691.69 L 536.049 1360.98 C 543.273 1104.53 552.83 848.154 564.72 591.879 C 568.008 497.386 572.128 402.924 577.081 308.503 C 578.824 277.699 579.737 246.313 581.669 215.557 C 582.639 200.111 592.714 180.036 602.971 168.279 C 632.582 134.34 667.107 125.171 709.964 121.368 z" fill="currentColor" transform="translate(0,0)"></path>
<path d="M 701.645 134.41 C 714.682 132.768 743.372 134.637 756.504 135.222 C 785.456 136.511 814.273 138.606 843.321 138.904 C 927.926 139.63 1012.52 141.223 1097.09 143.684 C 1108.26 144.015 1119.88 144.199 1130.99 144.872 C 1140.16 145.429 1148.9 147.143 1158.4 147.155 C 1192.76 147.197 1227.25 149.513 1261.58 149.815 C 1280.98 149.985 1299.72 149.777 1319.25 150.701 C 1330.25 151.221 1343.48 149.653 1354.67 150.85 C 1372.36 152.743 1386.09 156.962 1402.58 163.396 C 1426.07 172.561 1445.41 189.028 1455.61 212.404 C 1459.69 221.727 1460.83 243.715 1461.16 254.535 C 1460.98 258.133 1459.02 261.683 1459.31 265.313 C 1461.18 289.295 1459.16 313.009 1458.65 337.008 C 1458.4 349.179 1459.24 361.642 1458.85 373.666 C 1458.52 383.838 1456.1 394.859 1455.5 405.375 L 1445.59 559.866 L 1412.77 1007.65 C 1407.33 1084.1 1401.91 1162.49 1397.77 1238.94 L 1377.72 1656.56 L 1371.83 1771.51 C 1370.68 1796.42 1370.82 1842.14 1362.19 1864.84 C 1352.93 1889.21 1324.24 1905.9 1300.51 1915.06 C 1284 1921.01 1264.42 1923.99 1246.91 1926.18 C 1241.93 1926.81 1227.79 1925.63 1221.87 1925.43 C 1204.76 1924.97 1187.66 1924.4 1170.56 1923.71 L 1002.4 1918.38 L 747.322 1911.82 C 719.121 1911.05 691.013 1911.18 662.867 1909.92 C 650.122 1909.35 636.592 1909.16 624.037 1907.27 C 603.388 1904.03 584.076 1895.02 568.335 1881.27 C 556.49 1871.06 535.096 1843.9 535.135 1828.56 C 535.206 1800.53 537.3 1770.65 538.403 1742.45 L 542.771 1592.68 L 562.846 1052 C 568.919 870.847 576.126 689.737 584.466 508.679 C 586.8 437.197 589.907 365.743 593.784 294.328 C 595.203 268.625 595.507 242.885 597.691 217.232 C 600.547 183.69 627.401 156.248 657.386 143.796 C 672.96 137.328 684.988 135.498 701.645 134.41 z" fill="none" transform="translate(0,0)"></path>
<path d="M 622.105 348.269 C 633.315 347.48 653.186 348.766 664.905 349.198 L 743.114 352.113 L 973.817 359.12 C 1075.85 362.497 1177.9 365.194 1279.97 367.209 L 1373.5 369.649 C 1388.82 369.988 1404.51 369.901 1419.81 370.568 C 1423.17 370.715 1424.87 370.848 1426.62 373.555 C 1427.86 375.481 1428.72 377.586 1428.67 379.915 C 1428.19 404.86 1425.27 430.898 1423 455.607 L 1412.6 575.421 C 1391.95 814.832 1374.93 1054.54 1361.52 1294.47 L 1350.08 1523.61 L 1346.48 1599.79 C 1345.83 1612.97 1345.29 1634.37 1343.12 1646.95 C 1335.29 1653.81 1318.32 1650.33 1308.07 1649.77 C 1295.8 1649.21 1283.52 1648.8 1271.24 1648.54 L 1106.99 1644.61 C 1104.94 1641.11 1104.48 1639.25 1101.33 1637.66 C 1089.67 1649.87 1086.84 1642.54 1071.92 1642.01 L 753.96 1633.87 L 630.63 1631.67 C 611.145 1631.2 590.049 1631.26 570.745 1629.72 C 572.402 1572.6 574.574 1515.49 577.262 1458.41 L 588.766 1213.55 L 606.561 781.196 L 617.314 448.419 C 617.82 434.101 619.686 355.319 622.105 348.269 z" fill="currentColor" transform="translate(0,0)"></path>
<path d="M 635.522 361.998 C 656.282 360.547 688.424 363.499 710.378 364.305 L 841.951 368.416 C 886.792 370.098 931.723 370.229 976.484 371.583 C 1061.57 374.875 1146.68 377.384 1231.81 379.109 C 1262.93 379.843 1294.05 380.777 1325.16 381.911 C 1342.54 382.461 1361.51 383.447 1378.67 382.894 C 1362.24 411.451 1342.48 439.808 1326.14 468.643 C 1313.04 491.753 1300.41 514.58 1287.25 537.712 C 1316.23 506.211 1334.71 478.019 1358.62 442.841 C 1372.57 422.322 1385.19 405.624 1398.33 384.167 C 1402.7 382.257 1410.8 383.19 1414.32 386.675 C 1414.98 391.037 1412.95 397.173 1412.35 401.695 C 1408.54 430.22 1406.62 458.977 1403.49 487.556 C 1402.37 497.801 1387.92 510.208 1382.81 519.505 C 1378.52 527.323 1375.39 535.667 1371.19 543.587 L 1369.36 543.23 C 1367.31 544.539 1307.59 635.032 1301.75 644.161 C 1198.65 805.338 1078.56 954.563 968.135 1110.49 C 922.834 1175.61 878.083 1241.11 833.886 1306.99 C 813.054 1338.18 791.93 1371.6 770.503 1402.27 L 674.953 1538.13 C 653.331 1568.3 637.411 1587.42 616.709 1619.62 C 597.805 1618.87 567.648 1627.39 590.071 1592.97 C 595.796 1584.19 606.237 1575.95 612.053 1566.53 C 641.324 1519.1 676.322 1475.29 708.381 1429.72 C 722.063 1410.37 734.55 1390.62 747.913 1371.1 L 804.199 1290.48 L 848.409 1227.15 C 858.203 1212.91 864.097 1205.78 872.451 1190.55 C 920.314 1121.05 966.633 1050.15 1012.55 979.362 C 1024.51 960.916 1037.73 943.054 1049.85 924.586 C 1070.83 892.451 1090.93 859.761 1110.16 826.551 C 1115.08 818.145 1127.7 799.096 1130.35 791.753 C 1129.04 788.874 1130.08 789.931 1126.9 788.703 C 1123.46 790.259 1115.19 804.491 1112.38 808.575 C 1077.7 858.985 1044.81 910.736 1010.12 961.17 L 881.349 1150.55 C 868.524 1169.14 854.431 1187.39 841.834 1205.82 C 804.865 1259.91 767.717 1313.84 730.672 1367.87 C 724.007 1377.59 718.398 1388.44 711.985 1398.44 L 648.735 1497.42 C 639.333 1512.44 626.752 1528.65 615.951 1542.73 C 605.771 1556.01 593.724 1568.94 585.85 1583.86 L 595.623 1355.73 C 596.203 1343.06 596.904 1273 601.251 1266.39 C 615.743 1244.38 651.02 1190.8 665.492 1164.38 C 671.402 1153.59 683.379 1138.28 687.076 1127.25 C 685.559 1122.39 686.97 1122.1 690.749 1117.84 C 705.253 1102.19 714.403 1082.22 726.038 1064.67 C 739.127 1044.92 747.174 1028.23 756.476 1006.62 C 748.886 1015.69 741.103 1023.25 733.355 1031.96 C 730.039 1035.69 727.189 1047.07 722.151 1050 C 720.545 1051.14 718.073 1053.03 717.079 1054.7 C 707.021 1071.58 697.814 1090.04 685.548 1105.36 C 682.773 1108.82 678.809 1114.88 679.365 1119.48 C 682.205 1120.07 681.653 1119.74 684.137 1121.02 C 680.385 1124.62 681.437 1122.56 675.995 1124.45 C 675.562 1124.57 672.937 1125.82 672.779 1126.11 C 658.057 1153.5 637.888 1177.68 625.224 1206.16 C 624.395 1208.03 625.282 1208.43 626.145 1210.56 C 624.657 1212.91 622.588 1213.78 620.216 1215.06 C 619.351 1215.53 603.241 1249.19 601.299 1252.85 C 599.28 1234.16 602.897 1186.58 603.743 1164.81 L 611.653 969.463 L 628.103 545.531 C 630.567 485.163 631.82 421.933 635.522 361.998 z" fill="none" transform="translate(0,0)"></path>
<path d="M 826.692 545.763 C 827.004 546.207 827.317 546.651 827.629 547.095 C 825.086 556.227 817.973 579.601 814.746 587.389 C 806.845 605.301 797.372 622.397 788.384 639.762 C 782.847 650.459 778.867 661.447 773.079 672.057 C 768.966 680.325 764.614 688.055 760.437 696.332 C 755.011 707.084 748.254 712.741 745.474 724.895 C 744.48 729.239 731.264 741.53 732.072 747.103 C 732.154 747.569 732.235 748.035 732.317 748.501 L 699.509 806.199 C 688.252 826.099 678.632 845.6 662.755 862.519 L 660.783 864.52 L 659.371 864.451 C 660.028 859.498 664.681 852.843 666.674 847.741 C 680.167 813.203 698.788 781.453 714.389 747.655 C 715.089 747.377 717.003 746.706 717.351 745.95 C 729.411 719.726 743.801 693.151 756.818 667.432 C 777.729 626.118 795.794 580.725 826.692 545.763 z" fill="currentColor" transform="translate(0,0)"></path>
<path d="M 811.2 1129.33 L 812.846 1130.6 L 813.192 1133.46 C 807.566 1150.51 783.756 1174.04 775.405 1191.93 C 774.601 1193.65 767.009 1209.85 767.825 1208.91 C 762.352 1208.38 762.845 1211.09 761.566 1215.73 C 758.896 1225.43 745.987 1241.34 738.96 1247.86 C 738.706 1249.6 737.844 1253.57 736.777 1254.99 C 716.003 1282.83 698.378 1312.86 678.036 1341.04 C 670.165 1351.95 664.072 1364.78 655.904 1375.57 C 645.725 1389.02 635.094 1402.23 624.163 1415.07 L 624.458 1416.96 L 624.808 1418.97 C 619.119 1426.67 599.555 1454.24 592.856 1459.06 C 588.555 1443.13 614.803 1412.61 622.886 1398.41 C 630.879 1384.38 643.571 1370.37 653.694 1357.74 C 663.554 1345.44 670.288 1330.93 681.327 1319.27 C 683.824 1315.51 684.667 1310.94 687.078 1307.1 C 698.449 1288.99 712.497 1270.14 723.582 1252.2 L 721.877 1249.21 C 722.607 1246.56 722.343 1247.86 723.63 1246.56 C 736.884 1233.15 738.025 1218.65 755.037 1205.01 L 756.101 1204.18 C 755.419 1203.34 754.73 1202.6 754.005 1201.8 C 754.814 1199.08 764.255 1189.77 768.43 1184.55 C 781.638 1168.03 791.66 1141.31 810.063 1130.47 C 810.442 1130.09 810.821 1129.71 811.2 1129.33 z" fill="currentColor" transform="translate(0,0)"></path>
<path d="M 828.823 707.978 L 829.27 708.717 C 831.245 729.514 791.674 792.699 781.053 813.118 C 779.693 818.225 773.237 820.915 771.371 825.388 C 759.832 853.047 738.251 876.758 726.257 904.176 C 724.608 907.946 722.621 908.049 719.177 909.426 C 719.219 911.116 719.302 912.699 719.405 914.387 C 716.927 917.688 704.714 935.037 703.012 936.048 C 699.249 936.483 697.254 936.857 693.556 937.705 C 693.266 937.941 693.507 937.82 692.547 937.852 C 697.248 930.627 696.573 930.552 699.643 923.4 C 702.065 918.565 706.824 914.23 709.231 909.502 C 726.153 876.262 746.753 843.645 765.792 811.65 C 778.569 790.178 809.547 721.01 828.823 707.978 z" fill="currentColor" transform="translate(0,0)"></path>
<path d="M 1180.57 547.773 C 1185.84 567.098 1107.3 682.055 1092.13 704.464 C 1086.97 712.091 1076.91 723.739 1071.87 732.18 C 1060.42 751.368 1055.51 770.972 1037.75 785.549 C 1037.99 786.786 1038.22 788.026 1038.43 789.269 C 1027.37 805.361 1017.28 822.181 1005.72 837.964 C 999.564 846.362 1000.23 853.81 988.755 854.434 C 988.068 846.928 994.219 838.882 998.325 831.725 C 1001.27 830.464 1001.81 830.46 1004.17 828.218 C 1006.4 819.297 1016.13 801.08 1024.4 797.797 C 1029.52 795.766 1026.57 788.584 1029.5 784.836 C 1030.48 784.634 1034.42 783.848 1034.67 782.779 C 1038.86 765.072 1049.44 754.738 1059.6 739.928 C 1061.01 739.439 1064.27 738.495 1065.1 737.304 C 1073.77 725.309 1079.02 707.164 1086.89 695.49 C 1118.79 648.205 1144.17 591.45 1180.57 547.773 z" fill="currentColor" transform="translate(0,0)"></path>
<path d="M 1269.29 578.119 C 1270.97 578.405 1270.07 578.071 1271.81 579.503 C 1269.93 588.896 1219.41 660.13 1210.35 672.227 C 1206.65 677.162 1200.48 687.761 1196.23 692.481 C 1195.72 692.178 1194.4 690.967 1193.88 690.522 C 1193.75 689.471 1193.62 688.419 1193.48 687.368 C 1198.82 679.049 1204.21 670.837 1209.32 662.365 C 1213.51 655.411 1216.89 648.212 1220.43 640.872 C 1224.03 633.393 1229.02 626.408 1233.26 619.273 C 1237.48 612.186 1241.13 604.767 1245.63 597.852 C 1248.28 593.778 1251.28 590.013 1254.32 586.234 C 1259.17 580.066 1261.8 579.615 1269.29 578.119 z" fill="currentColor" transform="translate(0,0)"></path>
<path d="M 956.251 894.25 C 959.343 895.257 962.001 896.359 963.687 899.197 C 962.198 908.129 908.497 977.01 899.717 987.014 C 899 987.88 899.499 987.397 898.02 988.221 C 898.588 981.484 950.021 907.14 956.251 894.25 z" fill="currentColor" transform="translate(0,0)"></path>
<path d="M 684.224 948.483 L 686.822 950.107 C 688.438 950.155 689.689 950.245 691.298 950.401 C 694.776 961.366 653.412 1009.64 647.228 1021.24 C 645.331 1024.8 645.507 1025.24 642.801 1028.54 C 641.068 1030.63 640.997 1031.22 638.544 1032.13 C 637.367 1025.08 677.322 959.31 684.224 948.483 z" fill="currentColor" transform="translate(0,0)"></path>
<path d="M 1168.67 724.461 C 1172.1 725.151 1173.71 725.829 1174.8 729.021 C 1173.93 732.343 1171.82 734.216 1169.44 737.034 C 1160.38 747.731 1153.06 760.418 1144.9 771.869 C 1143.34 772.575 1142.05 773.161 1141.02 773.628 C 1139.04 780.44 1138.42 781.192 1133.98 786.611 C 1131.28 787.096 1132.27 787.218 1129.74 786.292 C 1129.51 773.546 1133.21 776.985 1140.91 770.25 C 1140.73 766.358 1140.53 764.673 1142.71 761.463 C 1151.25 748.894 1159.06 736.266 1168.67 724.461 z" fill="currentColor" transform="translate(0,0)"></path>
<path d="M 873.098 1028.66 L 874.209 1029.17 L 874.756 1030.89 C 868.076 1051.25 854.108 1066.3 841.072 1082.33 L 839.85 1082.44 C 841.419 1078.77 842.68 1071.97 844.06 1069.38 C 851.305 1055.78 862.388 1039.53 873.098 1028.66 z" fill="currentColor" transform="translate(0,0)"></path>
<path d="M 984.583 854.462 L 986.054 855.036 C 990.72 863.215 986.173 866.381 981.133 872.729 C 978.52 876.019 975.499 879.226 972.711 882.38 L 970.106 882.902 C 967.728 877.587 980.845 857.604 984.583 854.462 z" fill="currentColor" transform="translate(0,0)"></path>
<path d="M 1400.71 523.861 L 1401.43 524.681 C 1403 536.165 1397.4 539.041 1397.59 543.021 C 1398.45 561.577 1398.19 569.726 1389.36 587.232 L 1387.15 585.57 C 1383.22 589.812 1372.4 610.377 1368.35 616.884 C 1351.76 643.437 1334.93 669.839 1317.86 696.086 C 1312.95 703.791 1306.71 715.861 1301.94 722.437 C 1291.61 736.678 1282.05 750.121 1272.15 764.725 L 1149.04 945.377 C 1141.13 956.906 1132.15 972.048 1124.3 984.137 C 1105.04 1013.8 1085.38 1043.21 1065.33 1072.34 C 1051.49 1092.26 1035.91 1111.49 1021.88 1131.59 L 1020.07 1130.97 L 1019.51 1128.62 C 1021.79 1120.96 1038.93 1091.06 1044.08 1081.97 C 1064.88 1044.69 1086.72 1008 1109.6 971.958 C 1121.31 953.729 1134.88 935.297 1146.74 916.937 L 1378.97 562.433 C 1379.06 560.444 1379.1 557.706 1380.18 555.515 C 1380.22 555.446 1384.22 554.687 1384.22 554.69 C 1388.11 549.247 1390.5 539.989 1393.83 534.179 C 1396.13 530.156 1398.39 527.108 1400.71 523.861 z" fill="none" transform="translate(0,0)"></path>
<path d="M 1350.54 836.599 C 1351.32 836.954 1352.62 837.129 1352.55 838.141 C 1351.18 857.866 1331 878.663 1319.78 891.827 L 1274.3 944.844 C 1247.42 976.388 1221.59 1011.08 1194.7 1042.89 C 1182.26 1058.56 1167.49 1072.62 1155.59 1088.64 C 1152.68 1092.56 1152.06 1094.45 1146.28 1094.33 C 1154.59 1081.5 1172.8 1058.18 1182.19 1046.15 C 1181.31 1043.83 1181.5 1044.96 1181.46 1042.79 L 1182.82 1041.82 C 1193.62 1034.05 1202.43 1014.01 1211.72 1003.07 C 1217.83 995.881 1217.35 998.928 1224.5 994.487 C 1220.23 986.249 1244.66 969.079 1246.71 960.706 C 1247.07 959.243 1246.55 958.527 1247.48 957.495 C 1282.83 918.254 1312.1 872.926 1350.54 836.599 z" fill="none" transform="translate(0,0)"></path>
<path d="M 1319.49 1032.68 C 1321.12 1034.3 1324.52 1039.09 1326.32 1041.17 C 1323.6 1056.39 1258.57 1124.96 1245.53 1142.3 L 1246.59 1144.56 C 1243.89 1151.31 1227.12 1167.58 1221.44 1173.33 L 1222.62 1175.78 L 1221.6 1177.55 C 1214.74 1179.53 1212.12 1185.92 1207.45 1192.13 C 1208.65 1194.02 1208.1 1193.07 1209.12 1194.99 C 1199.95 1202.87 1188.55 1214.18 1179.99 1223 C 1178.3 1224.73 1179.25 1226.72 1179.68 1229.41 L 1178.46 1230.6 C 1175.21 1229.04 1174.87 1228.95 1171.29 1229.33 C 1169.43 1229.59 1170.22 1229.47 1168.1 1228.64 C 1167.75 1225.92 1167.57 1227.31 1169.73 1224.49 C 1173.1 1222.79 1173.64 1223.14 1177.19 1223.65 L 1177.94 1223 C 1177.36 1222.15 1175.26 1218.81 1175.24 1218.05 C 1174.93 1205.71 1206.59 1182.67 1207.75 1173.02 L 1205.31 1171.49 L 1205.44 1170.11 C 1212.24 1162.57 1216.07 1161.57 1223.73 1155.52 L 1223.58 1151.63 C 1226.09 1147.96 1229.88 1146.37 1233.83 1144.13 L 1234.16 1143.18 C 1235.42 1139.66 1236.85 1135.24 1240.34 1133.56 C 1241.86 1135.38 1241.04 1134.82 1242.54 1135.57 C 1245.81 1120.28 1251.37 1118.57 1262.3 1108.47 C 1261.48 1106.44 1261.78 1107.49 1261.4 1105.33 C 1278.93 1087.11 1291.34 1069.78 1306.77 1049.98 C 1311.66 1043.71 1314.07 1038.57 1319.49 1032.68 z" fill="none" transform="translate(0,0)"></path>
<path d="M 1169.27 1232.56 L 1170.94 1232.99 L 1172.39 1235.53 C 1170.68 1240.09 1159.08 1245.55 1156.38 1251.07 C 1155.73 1252.38 1154.98 1252.16 1152.97 1252.84 C 1150.13 1250.02 1149.73 1248.93 1150.79 1245.3 C 1154.95 1241.16 1160.24 1244.82 1163.87 1238.92 L 1162.78 1235.27 C 1165 1232.89 1165.47 1233.48 1169.27 1232.56 z" fill="none" transform="translate(0,0)"></path>
<path d="M 1151.42 1257.49 C 1152.72 1257.4 1153.36 1258.26 1154.95 1259.27 C 1156.13 1262.58 1156.07 1260.89 1154.68 1264.51 C 1151.98 1266.37 1152.12 1266.51 1148.96 1267.12 L 1144.67 1267.54 L 1143.09 1266.15 C 1142.93 1263.07 1143.45 1263.49 1145.59 1260.31 C 1147.96 1259.37 1149.19 1258.68 1151.42 1257.49 z" fill="none" transform="translate(0,0)"></path>
<path d="M 944.153 1709.72 C 988.831 1703.71 1029.92 1735.07 1035.9 1779.75 C 1041.88 1824.43 1010.48 1865.5 965.795 1871.44 C 921.158 1877.38 880.151 1846.03 874.178 1801.39 C 868.205 1756.76 899.525 1715.73 944.153 1709.72 z" fill="currentColor" transform="translate(0,0)"></path>
<path d="M 948.563 1730.72 C 982.006 1727.09 1012 1751.4 1015.37 1784.88 C 1018.73 1818.35 994.165 1848.14 960.667 1851.23 C 927.556 1854.28 898.178 1830.07 894.855 1796.98 C 891.531 1763.9 915.506 1734.32 948.563 1730.72 z" fill="none" transform="translate(0,0)"></path>
<path d="M 950.123 245.098 C 967.012 243.699 1113.22 248.265 1121.47 251.25 C 1123.04 251.816 1123.47 251.927 1124.16 253.512 C 1126.02 257.771 1125.74 272.103 1123.18 276.168 C 1121.53 278.77 1119.47 278.915 1116.76 279.773 C 1086.68 280.062 1054.08 277.619 1023.67 277.338 C 1000.43 276.387 976.95 276.533 953.778 274.666 C 939.426 273.51 939.799 263.185 941.874 252.528 C 944.458 249.748 947.232 247.54 950.123 245.098 z" fill="currentColor" transform="translate(0,0)"></path>
<path d="M 855.899 243.186 C 870.669 243.09 895.544 241.583 909.019 244.474 C 924.755 247.851 925.397 265.226 909.169 273.253 C 900.708 274.609 889.739 273.36 880.633 273.288 C 869.649 273.202 837.431 274.291 844.829 254.981 C 847.631 247.668 848.853 246.298 855.899 243.186 z" fill="currentColor" transform="translate(0,0)"></path>
<path d="M 1007.36 175.055 C 1031.26 174.023 1040.8 196.714 1017.26 207.153 C 991.216 208.491 984.213 187.041 1007.36 175.055 z" fill="currentColor" transform="translate(0,0)"></path>
<path d="M 1273.7 91.5131 C 1294.58 90 1335.88 93.581 1358.12 94.2325 C 1387.92 95.9204 1416.8 95.0527 1445.98 101.321 C 1515.69 116.298 1562.23 169.489 1554.09 242.251 C 1553.63 246.368 1552.51 279.328 1552.34 279.766 C 1538.11 278.041 1535.12 281.787 1529.77 294.563 C 1525.1 304.925 1525.01 314.496 1522.42 325.503 C 1514.18 360.519 1514.96 396.549 1525.12 431.065 C 1526.15 434.573 1534.72 436.513 1538.06 437.521 C 1539.08 438.672 1539.61 438.783 1539.68 440.384 C 1540.1 450.946 1535.68 547.255 1533.43 550.686 C 1530.72 554.82 1521.13 553.109 1516.78 558.31 C 1506.11 571.08 1499.09 654.202 1500.86 672.532 C 1502.07 685.169 1506.59 705.726 1516.75 713.889 C 1518.86 715.584 1520.68 717.12 1522.46 719.152 C 1525.04 728.583 1520.35 784.521 1519.69 798.329 C 1517.57 853.982 1514.94 909.614 1511.82 965.219 L 1487.68 1442.69 C 1484 1525.8 1479.32 1608.86 1473.65 1691.85 C 1471.26 1729.96 1470.22 1768.01 1466.48 1806.51 C 1463.13 1841.11 1446.69 1870.1 1420.24 1892.63 C 1417.93 1894.6 1412.81 1897.79 1409.55 1897.32 C 1407.54 1888.62 1414.53 1885.05 1416.63 1875.05 C 1419.48 1861.47 1421.59 1846.39 1425.04 1833.19 C 1425.31 1830.29 1424 1826.8 1423.89 1827.5 C 1427.05 1807.43 1427.57 1787.74 1427.8 1767.45 C 1427.93 1755.75 1423.62 1754.74 1427.03 1743.13 C 1432.04 1726.09 1428.77 1703.39 1429.98 1685.56 C 1430.4 1679.68 1433.76 1673.2 1434.16 1667.81 C 1435.1 1655.14 1436.3 1643.26 1437.95 1630.7 C 1438.75 1619.79 1444.16 1592.92 1443.56 1583.53 L 1441.39 1582.04 L 1441.25 1580.82 C 1451.04 1572.65 1442.12 1572 1443.15 1568.97 C 1447.41 1556.38 1444.47 1545.89 1442.86 1533.16 C 1443.58 1531.04 1444.25 1530.42 1445.81 1528.81 C 1444.99 1523.97 1441.64 1524.58 1440.75 1520.99 C 1442.46 1518.8 1445.23 1515.83 1446.24 1513.24 C 1447.74 1509.44 1444.01 1507.7 1444.12 1503.72 C 1444.53 1487.37 1450.83 1429.89 1444.98 1419.28 C 1443.38 1416.4 1447.47 1411.62 1446.32 1407.71 L 1444.32 1407.16 C 1443.9 1403.76 1447.07 1399.29 1446.9 1395.01 C 1446.31 1379.84 1447.56 1362.84 1447.43 1348.07 L 1444.77 1348.71 C 1444.34 1344.39 1450.21 1337.34 1448.22 1331.85 L 1445.46 1331.49 L 1445.05 1330.05 C 1447.2 1328.93 1447.24 1329.01 1448.93 1327.31 C 1450.26 1316.42 1449.06 1303.36 1449.82 1292.11 C 1450.22 1285.49 1450.8 1278.88 1451.37 1272.26 C 1451.4 1271.91 1449.4 1269.73 1449.29 1269.6 C 1455.12 1257.75 1454.07 1256.26 1455.85 1242.96 C 1457.39 1231.42 1460.14 1220.46 1460.94 1208.66 C 1461.45 1201.14 1457.58 1187.89 1462.98 1183.8 C 1462.5 1184.19 1460.96 1172.52 1461.21 1170.31 C 1462.95 1155.13 1465.15 1137.61 1463.13 1122.58 C 1461.22 1111.47 1465.56 1090.82 1466.77 1079.6 C 1469.87 1054.76 1469.49 1029.03 1471.87 1004.23 C 1475.57 987.773 1478.04 977.841 1477.78 960.815 C 1477.28 929.315 1487.32 897.059 1485.38 864.906 C 1485.18 861.566 1488.33 851.288 1488.49 846.778 C 1489.2 826.885 1487.05 806.914 1487.78 787.096 C 1488.77 764.045 1490.04 741.007 1491.6 717.987 C 1492.52 703.732 1494.32 690.652 1493.23 676.387 C 1492.21 675.952 1491.18 675.516 1490.16 675.081 C 1491.21 674.161 1491.94 673.626 1493.06 672.795 C 1493.75 660.06 1494.46 649.237 1494.48 636.404 C 1492.83 635.523 1491.72 634.898 1490.15 633.881 C 1491.52 631.716 1491.41 631.981 1493.49 630.545 C 1493.79 627.477 1491.51 622.203 1490.54 618.504 C 1501.63 606.171 1493.55 586.49 1498.17 571.697 C 1500.76 563.428 1499.09 552.104 1501.36 543.07 C 1501.01 544.464 1499.28 539.896 1499.33 540.101 L 1502.63 536.578 C 1503.91 514.559 1506.24 492.148 1508.23 470.172 C 1508.84 466.108 1506.96 460.957 1507.19 457.094 C 1508.1 441.284 1507.97 425.462 1508.31 409.633 C 1508.4 405.537 1509.05 400.303 1508.51 396.331 L 1505.57 395.337 C 1504.51 390.552 1508.52 395.647 1508.28 392.671 C 1507.14 378.458 1505.62 372.779 1513.1 359.886 C 1516.39 354.219 1513.51 339.889 1513.85 333.416 C 1514.18 327.037 1515.91 319.32 1516.31 312.812 C 1517.58 293.778 1515.78 273.037 1515.6 254.393 C 1516.85 231.127 1515.74 208.243 1503.51 187.574 C 1495.94 174.791 1490.73 158.573 1475.8 152.479 C 1472.4 144.815 1455.29 129.45 1447.27 125.72 C 1408.08 107.49 1362.58 103.299 1320.02 99.1945 C 1304.52 97.7001 1279.32 98.9723 1265.05 95.0136 L 1264.64 93.9268 C 1267.62 91.3171 1269.67 91.7094 1273.7 91.5131 z" fill="none" transform="translate(0,0)"></path>
<path d="M 1548.03 297.54 C 1557.08 308.461 1552.81 350.324 1551.8 365.564 C 1551.3 373.108 1544.35 411.924 1539.56 416.473 C 1538.33 414.527 1536.32 411.302 1536.31 408.968 C 1536.3 386.807 1536.97 364.613 1538.02 342.477 C 1538.87 324.511 1536.63 312.835 1548.03 297.54 z" fill="none" transform="translate(0,0)"></path>
<path d="M 1526 568.958 C 1527.82 570.353 1532.48 574.798 1533.18 576.66 C 1542.69 601.999 1530.1 662.46 1522.13 685.829 L 1520.7 687.245 L 1519.49 686.812 C 1518.86 683.912 1517.37 655.939 1518 654.079 C 1524.94 633.591 1519.55 586.085 1526 568.958 z" fill="none" transform="translate(0,0)"></path>
<path d="M 876.932 87.4354 L 973.687 87.4333 C 982.239 87.4992 991.79 88.5909 1000.83 88.786 C 1028.09 89.3745 1058.86 88.5891 1085.81 90.5017 C 1084.95 91.4815 1084.03 92.686 1082.5 92.6738 C 1071.65 92.5878 1060.7 92.045 1049.85 92.1511 C 1017.98 92.4627 986.175 90.973 954.329 90.3164 L 903.421 89.5973 C 896.694 89.5056 882.32 89.6953 876.612 88.6438 L 876.932 87.4354 z" fill="currentColor" transform="translate(0,0)"></path>
<path d="M 1096.93 90.3482 C 1105.36 89.2761 1131.41 90.8525 1141.26 90.8184 C 1154.4 90.773 1171.66 90.3735 1184.51 91.7329 L 1183.65 92.8961 C 1179.6 95.2355 1106.38 93.8221 1098.19 92.3781 L 1096.93 90.3482 z" fill="none" transform="translate(0,0)"></path>
<path d="M 1197.93 91.5546 C 1204.11 89.5595 1235.91 94.5845 1244.39 93.0247 C 1249.37 92.1087 1258.61 90.318 1262.79 93.1477 L 1262.43 94.7149 C 1259.01 96.6576 1259.63 95.9453 1254.84 95.5165 C 1233.72 93.4534 1206.48 96.4459 1185.81 92.9966 C 1188.92 91.5907 1194.33 91.722 1197.93 91.5546 z" fill="currentColor" transform="translate(0,0)"></path>
</svg>