<svg xmlns="http://www.w3.org/2000/svg" preserveAspectRatio="none" style="display: block;" version="1.1" viewBox="0 0 2048 2048">
<path d="M 951.892 294.438 C 1014.36 293.665 1082.36 308.993 1143.32 322.844 C 1190.73 333.198 1237.98 344.322 1285.03 356.214 C 1310.15 362.185 1335.23 368.31 1360.28 374.589 C 1397.39 383.827 1432.78 391.362 1462.35 416.756 C 1484.87 436.093 1500.54 472.73 1500.68 501.735 C 1500.94 552.847 1476.24 605.15 1463.98 654.327 L 1309.11 1258.8 C 1291 1331.29 1273.24 1403.86 1255.86 1476.53 C 1243.12 1531.52 1231.49 1587.4 1215.97 1641.78 C 1208.8 1666.91 1192.55 1703.05 1174.44 1721.75 C 1150.3 1746.67 1133.05 1752.54 1100.25 1753.81 C 1041.15 1752.92 944.482 1722.15 887.134 1704.85 C 851.578 1694.49 815.942 1684.41 780.229 1674.6 C 751.466 1666.77 722.65 1659.14 693.783 1651.7 C 607.57 1629.04 553.083 1614.81 550.37 1514.31 C 548.69 1452.05 564.417 1410.86 579.112 1352.04 C 594.655 1289.82 612.927 1229.09 629.63 1167.43 L 740.043 756.446 C 760.531 680.489 780.267 604.332 799.249 527.985 L 818.685 448.631 C 827.559 411.79 833.723 371.883 860.798 343.206 C 892.005 310.153 904.761 296.06 951.892 294.438 z" fill="currentColor" transform="translate(0,0)"></path>
<path d="M 924.516 330.346 C 963.685 325.057 1026.72 342.714 1065.4 351.495 L 1219.12 386.845 C 1250.6 394.156 1282.13 401.284 1313.69 408.229 C 1336.83 413.272 1360.13 417.768 1382.89 424.321 C 1401.99 429.82 1420.69 437.803 1434.99 451.993 C 1442.11 459.065 1446.67 466.855 1448.29 476.857 C 1450.18 488.483 1448.84 500.063 1446.49 511.506 C 1439.8 544.051 1431.01 576.108 1422.55 608.221 L 1391.43 729.627 C 1382.73 764.789 1376.72 799.589 1368.59 834.625 C 1364.15 853.735 1357.51 875.2 1352.32 894.362 L 1318.01 1024.17 C 1293.75 1123.74 1268.88 1223.17 1243.41 1322.44 C 1225.69 1389.55 1207.27 1456.48 1188.15 1523.21 C 1179.13 1555.69 1150.72 1672.16 1132.82 1696.26 C 1122.74 1709.83 1108.4 1715.32 1092.32 1717.97 C 1047.22 1719.73 1006.26 1700.97 964.415 1687.5 C 933.596 1677.58 902.119 1668.25 871.018 1659.17 C 829.461 1647.22 787.823 1635.56 746.106 1624.17 C 696.335 1610.77 637.679 1598.74 594.299 1570.12 C 579.505 1560.1 568.721 1545.18 567.02 1527.06 C 560.696 1459.68 584.928 1387.16 602.269 1322.87 C 615.809 1271.29 629.816 1219.83 644.29 1168.49 L 743.373 805.006 C 770.204 706.989 794.87 604.1 820.018 505.376 L 836.337 441.173 C 850.394 384.265 856.619 339.607 924.516 330.346 z" fill="none" transform="translate(0,0)"></path>
<path d="M 863.211 434.081 C 869.881 434.13 876.503 435.533 883.036 436.741 C 914.274 442.516 945.264 449.515 976.414 455.735 L 1281.15 517.532 C 1304.29 522.068 1327.46 526.447 1350.66 530.669 C 1360.91 532.558 1389.88 536.135 1396.21 542.656 C 1396.15 547.235 1395.23 554.305 1394.16 558.802 C 1380.12 617.622 1364.74 676.338 1350.18 735.004 L 1257.62 1104.83 C 1250.47 1132.96 1244.09 1161.53 1237.06 1189.77 C 1219.55 1260.98 1201.29 1331.99 1182.27 1402.81 C 1173.73 1434.96 1165.99 1467.67 1156.97 1499.69 C 1155.62 1504.48 1151.39 1515.41 1146.8 1517.7 C 1143.29 1519.46 1137.02 1516.86 1133.24 1515.65 C 1104.84 1507.33 1073.98 1500.47 1045.16 1493.24 C 1018.89 1486.66 993.435 1479.67 967.282 1472.71 C 945.866 1467.1 924.497 1461.31 903.176 1455.34 C 880.366 1448.86 855.137 1441.01 831.858 1436.88 C 810.397 1433.06 786.948 1430.18 765.255 1426.99 C 723.645 1421.17 682.232 1414.03 641.078 1405.57 C 632.609 1403.78 608.974 1399.82 602.229 1397.57 C 601.116 1396.43 598.821 1393.67 599.385 1391.98 C 618.135 1335.67 634.86 1279.21 650.792 1221.97 L 713.052 989.51 L 811.794 618.786 C 819.948 588.165 828.683 555.573 837.159 525.215 C 841.587 509.357 855.185 443.792 863.211 434.081 z" fill="currentColor" transform="translate(0,0)"></path>
<path d="M 871.318 450.185 C 902.765 453.977 953.115 465.905 985.098 472.629 L 1134.22 503.016 C 1166.3 509.8 1198.42 516.408 1230.57 522.841 C 1249.31 526.462 1275.66 530.504 1293.52 535.378 C 1274.38 559.563 1251.79 584.777 1231.74 608.631 L 1051.94 819.24 C 1035.1 838.956 1018.08 858.528 1000.9 877.954 C 993.843 885.99 978.258 902.7 973.199 911.231 C 987.265 903.512 1018.13 865.435 1031.03 850.664 L 1070.64 804.732 C 1080.22 812.022 1090.19 818.783 1100.51 824.987 C 1084.5 841.437 1068.74 858.124 1053.23 875.042 C 1046.32 882.668 1028.54 903.622 1021.7 909.19 C 1012.98 908.44 1002.95 907.2 994.348 908.282 C 989.464 908.897 983.747 911.23 979.086 911.315 C 975.128 908.249 972.311 903.257 969.449 898.987 C 973.59 877.237 987.497 817.204 986.758 798.528 C 983.249 807.826 980.164 824.247 978.008 834.486 C 973.847 854.177 969.881 873.909 966.11 893.678 C 954.257 875.386 944.285 858.608 933.104 840.056 C 936.335 828.356 942.054 794.931 942.027 783.04 C 936.44 797.309 932.711 819.443 930.279 834.985 C 916.914 809.035 899.475 783.542 886.36 758.659 C 884.521 755.154 883.01 751.487 881.845 747.704 C 875.134 725.895 868.873 698.016 862.418 674.455 C 854.576 645.831 843.292 608.57 837.883 580.07 C 837.448 577.774 849.037 534.994 850.628 529.395 C 857.808 504.125 863.635 475.042 871.318 450.185 z" fill="none" transform="translate(0,0)"></path>
<path d="M 1298.99 536.665 C 1306.84 536.867 1323.66 540.487 1331.61 542.066 L 1381.68 551.932 C 1370.13 604.651 1354 657.726 1342.13 710.515 C 1337.73 730.047 1333.11 752.492 1327.2 771.467 C 1281.07 798.532 1235.14 825.935 1189.4 853.673 C 1157.59 873.137 1123.51 895.008 1091.16 913.188 C 1084.89 903 1077.86 892.499 1071.33 882.428 L 1063.22 870.308 C 1077.34 855.222 1091.62 840.281 1106.05 825.488 C 1118.26 813.173 1136.72 796.432 1145.81 782.603 C 1131.98 794.505 1117.19 808.929 1103.89 821.504 C 1096.43 815.736 1080.89 806.232 1072.8 801.598 C 1081.05 791.369 1090.46 780.559 1099.21 770.639 C 1166.91 693.857 1231.61 613.579 1298.99 536.665 z" fill="none" transform="translate(0,0)"></path>
<path d="M 912.883 978.076 L 913.75 978.071 L 914.57 978.924 C 911.613 985.596 907.2 991.691 903.699 998.357 C 896.719 1011.85 890.206 1025.59 884.174 1039.53 C 890.861 1054.02 892.558 1068.59 898.971 1082.01 C 887.502 1101.97 868.81 1126.9 855.35 1146.55 L 780.902 1256.34 C 764.412 1280.53 743.22 1315.11 724.931 1337.9 C 721.949 1341.61 682.035 1361.93 674.544 1365.79 C 662.448 1372.03 646.009 1381.32 633.41 1388.27 C 631.133 1388.96 619.328 1386.92 616.229 1386.45 C 640.006 1313 661.727 1238.91 681.369 1164.24 C 691.869 1125.58 702.464 1081.55 714.473 1043.55 C 729.893 1036.73 751.152 1030.16 767.29 1024.32 C 815.198 1007.01 864.723 994.315 912.883 978.076 z" fill="none" transform="translate(0,0)"></path>
<path d="M 1087.86 1171.77 C 1092.17 1175.58 1119.93 1215.33 1123.97 1221.15 L 1190.27 1316.24 L 1141.61 1503.03 C 1134.11 1501.27 1126.35 1499.11 1118.87 1497.14 C 1088.52 1489.31 1058.11 1481.69 1027.65 1474.28 C 1019.51 1398.05 1019.75 1314.58 1010.83 1238.64 C 1031.23 1222.71 1069.41 1189.83 1087.86 1171.77 z" fill="none" transform="translate(0,0)"></path>
<path d="M 934.167 1041.87 C 943.892 1044.61 954.788 1046.24 964.81 1047.99 C 964.717 1052.17 963.927 1056.06 963.247 1060.2 C 966.382 1063.3 968.143 1064.57 971.729 1067.23 L 953.27 1197.06 C 941.93 1185.27 929.039 1173.7 916.957 1162.55 L 946.806 1085.59 C 950.142 1076.75 957.35 1059.82 958.593 1051.2 C 947.384 1063.39 938.716 1094.17 931.797 1110.54 C 912.021 1157.34 896.845 1205.8 879.754 1253.61 C 863.293 1299.66 847.14 1345.91 831.54 1392.26 C 828.545 1401.98 825.304 1411.63 821.82 1421.19 C 762.472 1408.88 699.435 1405.38 638.498 1390.74 C 667.272 1378.18 699.742 1356.79 728.809 1342.86 C 779.805 1266.18 831.57 1190.01 884.098 1114.37 C 900.486 1090.94 917.014 1064.5 934.167 1041.87 z" fill="none" transform="translate(0,0)"></path>
<path d="M 783.662 783.378 C 788.885 785.022 794.699 787.169 799.881 789.082 C 831.167 800.631 863.875 809.505 894.396 822.939 C 900.2 852.266 911.101 894.916 928.502 918.588 C 933.316 925.136 940.501 930.822 946.8 936.048 C 945.895 939.994 944.418 947.647 944.198 951.567 C 942.915 974.377 929.067 964.249 914.876 958.522 C 902.492 953.447 889.681 949.483 876.595 946.675 C 889 954.271 914.529 961.522 929.706 967.21 C 916.923 972.146 903.78 976.27 890.752 980.536 C 868.012 987.993 844.719 994.262 821.935 1001.46 C 786.249 1012.68 750.886 1024.91 715.889 1038.13 C 737.43 952.937 760.023 868.013 783.662 783.378 z" fill="none" transform="translate(0,0)"></path>
<path d="M 1323.98 779.143 L 1324.39 779.633 C 1324.45 783.558 1314.36 823.131 1312.82 829.046 C 1301.57 872.25 1291.54 915.772 1280.22 958.924 C 1210.68 964.187 1140.94 966.503 1071.2 965.865 L 1070.54 965.367 C 1070.26 963.386 1084.09 928.998 1085.77 922.829 C 1093.27 916.679 1106.02 909.503 1114.76 904.235 L 1162.76 875.387 L 1323.98 779.143 z" fill="none" transform="translate(0,0)"></path>
<path d="M 1060.85 873.017 C 1067.04 880.285 1080.02 905.557 1086.44 915.847 C 1069.82 925.561 1044.86 935.809 1028.55 947.386 C 1027.57 948.08 1028.05 949.221 1028.16 950.924 C 1029.74 950.706 1075.1 927.098 1081.35 924.017 C 1075.59 937.621 1070.21 951.38 1065.21 965.278 C 1056.18 964.348 1031.71 959.569 1024.56 962.299 C 1038.62 974.342 1141.14 970.266 1163.45 969.734 C 1133.8 989.66 1103.42 1008.47 1072.36 1026.12 C 1061.88 1020.13 1030.27 995.45 1021.67 995.719 C 1023.42 1001.39 1064.67 1027.1 1073.59 1034.03 C 1098.38 1051.58 1125.84 1068.3 1151.38 1085.36 C 1143.12 1129.42 1133.5 1173.16 1127.51 1217.53 C 1084.14 1157.18 1041.77 1096.12 1000.42 1034.37 C 1006.34 1008.63 1014.39 971.001 1018.09 944.776 C 1027.61 939.043 1036.57 920.28 1026.23 911.379 C 1037.45 900.682 1050.43 885.04 1060.85 873.017 z" fill="none" transform="translate(0,0)"></path>
<path d="M 1266.58 964.419 L 1278.4 963.981 C 1264.39 1021.7 1248.8 1079.11 1235.88 1136.94 C 1227.29 1129.16 1205.39 1115.14 1195.32 1108.64 C 1179.82 1098.76 1164.51 1088.58 1149.4 1078.12 C 1125.23 1061.56 1100.35 1046.35 1076.42 1029.65 C 1109.22 1011.82 1140.54 988.728 1172.57 969.941 C 1175.58 968.178 1209.85 967.44 1215.87 967.22 C 1232.79 966.617 1249.69 965.683 1266.58 964.419 z" fill="none" transform="translate(0,0)"></path>
<path d="M 914.975 1168.01 C 926.512 1178.02 942.01 1192.23 951.658 1204.24 C 949.411 1227.43 942.591 1257.45 938.918 1281.49 C 930.745 1334.99 924.108 1390.36 913.799 1443.34 L 875.378 1432.67 C 859.622 1428.57 843.792 1424.77 827.896 1421.27 C 844.359 1367.16 864.236 1312.82 883.012 1259.36 C 893.486 1229.54 903.873 1197.31 914.975 1168.01 z" fill="none" transform="translate(0,0)"></path>
<path d="M 1004.14 1238.7 L 1005.85 1239.57 C 1007.1 1244.37 1007.69 1260.33 1008.08 1265.97 C 1009.46 1283.48 1010.71 1301 1011.84 1318.54 C 1014.97 1367.54 1020.17 1424.21 1021.35 1472.56 C 999.301 1466.77 977.312 1460.77 955.381 1454.57 C 943.404 1451.61 931.481 1448.44 919.618 1445.06 L 944.791 1278.34 C 964.775 1265.43 984.561 1252.22 1004.14 1238.7 z" fill="none" transform="translate(0,0)"></path>
<path d="M 1156.31 1088.71 C 1183.59 1106.64 1208.05 1122.62 1234.2 1142.26 L 1195.57 1295.81 L 1191.95 1309.74 C 1180.91 1293.48 1169.76 1277.29 1158.5 1261.17 C 1149.54 1248.61 1139.15 1235.17 1130.84 1222.37 C 1135.41 1201.69 1138.83 1178.36 1142.53 1157.34 C 1146.73 1134.39 1151.32 1111.51 1156.31 1088.71 z" fill="none" transform="translate(0,0)"></path>
<path d="M 834.134 589.667 C 840.372 608.195 845.211 630.223 850.92 649.264 C 867.502 704.565 879.232 760.138 892.789 815.938 C 883.147 813.566 865.195 806.631 855.224 803.079 C 831.607 795.301 808.099 787.197 784.706 778.768 L 815.065 663.329 C 821.659 638.789 828.873 614.53 834.134 589.667 z" fill="none" transform="translate(0,0)"></path>
<path d="M 1032.74 1092.73 C 1034.66 1094.51 1042.43 1105.23 1044.47 1107.99 C 1058.76 1127.35 1072.46 1147.14 1085.57 1167.32 C 1068.43 1181.52 1049.91 1198.49 1032.96 1213.3 C 1025.62 1219.83 1018.18 1226.25 1010.63 1232.54 C 1006.57 1195.52 1002.92 1158.46 999.68 1121.36 C 1010.36 1112.72 1023.15 1102.35 1032.74 1092.73 z" fill="none" transform="translate(0,0)"></path>
<path d="M 992.792 1126.88 L 994.599 1127.31 C 996.468 1132.54 999.124 1176.75 1000.12 1185.92 C 1001.68 1200.26 1003.8 1217.22 1005.69 1231.86 C 996.706 1236.06 964.917 1258.43 954.824 1265.08 L 946.328 1270.4 C 948.569 1253.66 952.464 1234.92 955.21 1217.99 C 959.133 1192.44 962.583 1166.83 965.559 1141.15 C 973.813 1136.31 984.162 1131.32 992.792 1126.88 z" fill="none" transform="translate(0,0)"></path>
<path d="M 887.064 770.81 C 893.493 776.795 923.334 832.979 928.964 842.589 C 946.214 872.038 957.537 893.68 978.977 920.61 C 979.862 923.839 978.143 927.719 977.083 931.113 L 976.597 932.049 C 974.463 933.001 955.527 931.106 950.158 931.031 C 916.128 907.658 912.348 871.923 902.413 834.379 C 896.849 813.349 892.388 791.936 887.064 770.81 z" fill="none" transform="translate(0,0)"></path>
<path d="M 937.553 969.933 L 939.401 970.162 C 941.108 974.841 930.619 1026.43 929.982 1039.26 C 924.654 1046.03 906.261 1075.27 901.405 1078.14 L 900.217 1075.77 C 897.274 1062.38 894.018 1051.09 890.071 1038.04 C 896.67 1021.02 913.767 991.001 922.695 974.741 C 927.791 973.376 932.572 971.65 937.553 969.933 z" fill="none" transform="translate(0,0)"></path>
<path d="M 998.791 1041.41 C 1003.85 1046.68 1025.38 1080.46 1030.82 1088.82 L 1014.36 1103 C 1009.51 1106.84 1004.28 1111.46 999.502 1115.49 C 996.981 1082.87 990.138 1072.88 998.791 1041.41 z" fill="none" transform="translate(0,0)"></path>
<path d="M 990.015 1065.44 L 990.608 1065.92 C 992.739 1081.89 993.937 1104.16 995.164 1120.57 C 987.105 1125.26 978.688 1129.56 970.428 1133.91 L 967.985 1134.87 L 966.852 1134.19 C 966.22 1125.73 974.494 1079.29 976.277 1068.42 C 982.456 1067.63 984.025 1067.37 990.015 1065.44 z" fill="none" transform="translate(0,0)"></path>
<path d="M 860.065 1481.27 C 909.625 1481.55 907.285 1584.29 846.997 1595.13 C 793.323 1591.44 801.768 1490.77 860.065 1481.27 z" fill="currentColor" transform="translate(0,0)"></path>
<path d="M 1093.37 418.798 C 1110.25 420.029 1182.13 438.553 1202.31 442.956 C 1204.24 443.378 1205.17 446.784 1205.64 448.579 C 1204.82 452.637 1204.87 452.414 1201.82 455.29 C 1181.63 453.246 1115.47 435.97 1091.83 430.725 C 1089.75 430.263 1089.31 427.348 1088.92 425.412 C 1090.12 421.328 1090.06 421.553 1093.37 418.798 z" fill="currentColor" transform="translate(0,0)"></path>
<path d="M 949.481 309.441 C 1009.44 307.403 1072.79 323.051 1131.02 336.046 C 1187.01 348.465 1242.85 361.539 1298.54 375.265 L 1368.61 392.752 C 1406.64 402.445 1440.38 408.271 1464.49 441.985 C 1501.98 494.409 1480.92 544.395 1463.46 599.055 C 1457.55 617.549 1452.07 640.405 1447.16 659.696 C 1413.31 794.426 1378.59 928.934 1342.98 1063.21 C 1312.72 1179.7 1283.63 1296.5 1255.72 1413.58 L 1226.04 1540.04 C 1212.62 1598.1 1198.23 1686.7 1148 1725.81 C 1124.7 1743.95 1090.15 1740.87 1062.52 1735.92 C 977.788 1720.74 895.931 1691.55 812.915 1668.78 L 702.219 1638.9 C 661.793 1628.07 609.757 1618.8 584.308 1582.22 L 584.796 1581.64 L 588.634 1583.83 C 623.045 1610 705.659 1628.12 748.835 1639.85 C 792.116 1651.81 835.294 1664.14 878.365 1676.84 C 910.083 1686.17 941.63 1696.07 972.99 1706.53 C 1017.81 1721.53 1100.83 1755.37 1141.29 1709.85 C 1157.54 1691.57 1168.74 1645.99 1176 1621.2 L 1202.63 1529.42 C 1228.15 1438.43 1252.68 1347.17 1276.19 1255.64 L 1314.32 1099.27 L 1341.19 994.158 C 1348.75 965.38 1356.96 939.747 1360.85 910.039 C 1365.76 889.961 1368.08 867.692 1373.23 847.784 C 1381.43 816.097 1391.63 782.826 1400.3 751.289 C 1413.32 702.801 1425.94 654.208 1438.17 605.515 C 1446.47 573.523 1464.95 514.196 1463.27 482.439 C 1459.78 416.573 1364.08 403.8 1313.13 392.767 C 1281.47 385.814 1249.84 378.696 1218.25 371.413 C 1169.8 359.896 1121.25 348.808 1072.6 338.151 C 1015.26 325.289 968.191 312.013 908.614 317.415 C 922.799 311.001 934.029 310.301 949.481 309.441 z" fill="none" transform="translate(0,0)"></path>
</svg>